<?xml version="1.0" encoding="UTF-8" standalone="no"?>
<svg xmlns:xlink="http://www.w3.org/1999/xlink" height="207.9px" width="46.0px" xmlns="http://www.w3.org/2000/svg">
  <g transform="matrix(1.0, 0.0, 0.0, 1.0, 32.5, 90.4)">
    <use height="207.9" transform="matrix(1.0, 0.0, 0.0, 1.0, -32.5, -90.4)" width="46.0" xlink:href="#shape0"/>
  </g>
  <defs>
    <g id="shape0" transform="matrix(1.0, 0.0, 0.0, 1.0, 32.5, 90.4)">
      <path d="M-20.0 -63.0 L0.0 -63.0 0.0 95.0 -20.0 95.0 -20.0 -63.0" fill="url(#gradient0)" fill-rule="evenodd" stroke="none"/>
      <path d="M-20.0 -63.0 L0.0 -63.0 0.0 95.0 -20.0 95.0 -20.0 -63.0 Z" fill="none" stroke="#646464" stroke-linecap="round" stroke-linejoin="round" stroke-width="1.0"/>
      <path d="M0.0 95.0 Q-6.65 106.0 -6.65 117.0 L-13.3 117.0 Q-13.8 102.35 -20.0 95.0 L0.0 95.0" fill="url(#gradient1)" fill-rule="evenodd" stroke="none"/>
      <path d="M0.0 95.0 Q-6.65 106.0 -6.65 117.0 L-13.3 117.0 Q-13.8 102.35 -20.0 95.0" fill="none" stroke="#646464" stroke-linecap="round" stroke-linejoin="round" stroke-width="1.0"/>
      <path d="M13.0 -63.25 L-32.0 -63.25 -32.0 -66.25 13.0 -66.25 13.0 -63.25" fill="url(#gradient2)" fill-rule="evenodd" stroke="none"/>
      <path d="M0.0 -66.5 L-19.75 -66.5 -19.75 -84.5 Q-9.4 -95.3 0.0 -84.5 L0.0 -66.5" fill="url(#gradient3)" fill-rule="evenodd" stroke="none"/>
      <path d="M13.0 -63.25 L-32.0 -63.25 -32.0 -66.25 13.0 -66.25 13.0 -63.25 M0.0 -66.5 L-19.75 -66.5 -19.75 -84.5 Q-9.4 -95.3 0.0 -84.5 L0.0 -66.5" fill="none" stroke="#000000" stroke-linecap="round" stroke-linejoin="round" stroke-width="1.0"/>
    </g>
    <linearGradient gradientTransform="matrix(0.0122, 0.0, 0.0, 0.0964, -10.0, 16.0)" gradientUnits="userSpaceOnUse" id="gradient0" spreadMethod="pad" x1="-819.2" x2="819.2">
      <stop offset="0.0" stop-color="#415c5f"/>
      <stop offset="0.49019607843137253" stop-color="#f8fafa"/>
      <stop offset="0.9764705882352941" stop-color="#9eabad"/>
    </linearGradient>
    <linearGradient gradientTransform="matrix(0.0122, 0.0, 0.0, 0.0131, -10.0, 105.75)" gradientUnits="userSpaceOnUse" id="gradient1" spreadMethod="pad" x1="-819.2" x2="819.2">
      <stop offset="0.0" stop-color="#415c5f"/>
      <stop offset="0.49019607843137253" stop-color="#f8fafa"/>
      <stop offset="0.9764705882352941" stop-color="#9eabad"/>
    </linearGradient>
    <linearGradient gradientTransform="matrix(0.0275, 0.0, 0.0, 0.0018, -9.5, -64.75)" gradientUnits="userSpaceOnUse" id="gradient2" spreadMethod="pad" x1="-819.2" x2="819.2">
      <stop offset="0.0" stop-color="#000000"/>
      <stop offset="0.49019607843137253" stop-color="#c4cccd"/>
      <stop offset="0.9764705882352941" stop-color="#0c1010"/>
    </linearGradient>
    <linearGradient gradientTransform="matrix(0.0121, 0.0, 0.0, 0.011, -9.9, -75.5)" gradientUnits="userSpaceOnUse" id="gradient3" spreadMethod="pad" x1="-819.2" x2="819.2">
      <stop offset="0.0" stop-color="#000000"/>
      <stop offset="0.49019607843137253" stop-color="#c4cccd"/>
      <stop offset="0.9764705882352941" stop-color="#0c1010"/>
    </linearGradient>
  </defs>
</svg>
