<?xml version="1.0" encoding="UTF-8" standalone="no"?>
<svg xmlns:xlink="http://www.w3.org/1999/xlink" height="56.6px" width="992.65px" xmlns="http://www.w3.org/2000/svg">
  <g transform="matrix(1.0, 0.0, 0.0, 1.0, 1.0, 1.0)">
    <use height="27.0" transform="matrix(1.0, 0.0, 0.0, 1.0, -1.0, -1.0)" width="877.95" xlink:href="#shape0"/>
    <use height="52.2" transform="matrix(1.0, 0.0, 0.0, 1.0, 13.0, 3.4)" width="978.65" xlink:href="#text0"/>
  </g>
  <defs>
    <g id="shape0" transform="matrix(1.0, 0.0, 0.0, 1.0, 1.0, 1.0)">
      <path d="M875.95 12.5 Q875.95 17.7 872.3 21.35 868.65 25.0 863.45 25.0 L12.5 25.0 Q7.3 25.0 3.65 21.35 0.0 17.7 0.0 12.5 0.0 7.3 3.65 3.65 7.3 0.0 12.5 0.0 L863.45 0.0 Q868.65 0.0 872.3 3.65 875.95 7.3 875.95 12.5" fill="#ffffff" fill-rule="evenodd" stroke="none"/>
      <path d="M872.3 21.35 Q875.95 17.7 875.95 12.5 875.95 7.3 872.3 3.65 868.65 0.0 863.45 0.0 L12.5 0.0 Q7.3 0.0 3.65 3.65 0.0 7.3 0.0 12.5 0.0 17.7 3.65 21.35 7.3 25.0 12.5 25.0" fill="none" stroke="#000000" stroke-linecap="round" stroke-linejoin="round" stroke-width="2.0"/>
      <path d="M12.5 25.0 L863.45 25.0 Q868.65 25.0 872.3 21.35" fill="none" stroke="#000000" stroke-linecap="round" stroke-linejoin="round" stroke-width="2.0"/>
    </g>
  </defs>
</svg>
