<?xml version="1.0" encoding="UTF-8" standalone="no"?>
<svg xmlns:xlink="http://www.w3.org/1999/xlink" height="627.95px" width="497.45px" xmlns="http://www.w3.org/2000/svg">
  <g transform="matrix(1.0, 0.0, 0.0, 1.0, 321.8, 231.55)">
    <use height="325.25" transform="matrix(0.574, 0.817, -0.817, 0.574, -48.5318, -128.6196)" width="377.5" xlink:href="#sprite0"/>
  </g>
  <defs>
    <g id="sprite0" transform="matrix(1.0, 0.0, 0.0, 1.0, 245.45, 312.45)">
      <use height="325.25" transform="matrix(1.0, 0.0, 0.0, 1.0, -245.45, -312.45)" width="377.5" xlink:href="#shape0"/>
    </g>
    <g id="shape0" transform="matrix(1.0, 0.0, 0.0, 1.0, 245.45, 312.45)">
      <path d="M116.75 -33.0 Q126.4 -39.6 130.25 -32.9 134.05 -26.25 126.65 -15.75 119.15 -5.25 104.85 2.95 90.55 11.1 77.75 12.15 65.0 13.15 61.15 6.5 57.3 -0.2 67.15 -6.6 76.8 -13.1 91.9 -19.75 107.1 -26.45 116.75 -33.0" fill="url(#gradient0)" fill-rule="evenodd" stroke="none"/>
      <path d="M116.75 -33.0 Q126.4 -39.6 130.25 -32.9 134.05 -26.25 126.65 -15.75 119.15 -5.25 104.85 2.95 90.55 11.1 77.75 12.15 65.0 13.15 61.15 6.5 57.3 -0.2 67.15 -6.6 76.8 -13.1 91.9 -19.75 107.1 -26.45 116.75 -33.0 Z" fill="none" stroke="#000000" stroke-linecap="round" stroke-linejoin="round" stroke-width="1.0"/>
      <path d="M65.05 -7.0 L-244.95 -307.0 Q-238.3 -317.4 -228.0 -305.95 L74.0 -8.1 Q76.95 -0.15 65.05 -7.0" fill="url(#gradient1)" fill-rule="evenodd" stroke="none"/>
      <path d="M65.05 -7.0 L-244.95 -307.0 Q-238.3 -317.4 -228.0 -305.95 L74.0 -8.1 Q76.95 -0.15 65.05 -7.0 Z" fill="none" stroke="#000000" stroke-linecap="round" stroke-linejoin="round" stroke-width="1.0"/>
    </g>
    <radialGradient cx="0" cy="0" gradientTransform="matrix(0.0423, -0.0241, 0.0419, 0.0734, 95.65, -13.15)" gradientUnits="userSpaceOnUse" id="gradient0" r="819.2" spreadMethod="pad">
      <stop offset="0.0" stop-color="#f7f3f3"/>
      <stop offset="1.0" stop-color="#aa9e9e"/>
    </radialGradient>
    <radialGradient cx="0" cy="0" gradientTransform="matrix(0.2611, 0.0, 0.0, 0.2738, -85.5, -157.5)" gradientUnits="userSpaceOnUse" id="gradient1" r="819.2" spreadMethod="pad">
      <stop offset="0.0" stop-color="#f7f3f3"/>
      <stop offset="1.0" stop-color="#aa9e9e"/>
    </radialGradient>
  </defs>
</svg>
