<?xml version="1.0" encoding="UTF-8" standalone="no"?>
<svg xmlns:xlink="http://www.w3.org/1999/xlink" height="627.95px" width="497.45px" xmlns="http://www.w3.org/2000/svg">
  <g transform="matrix(1.0, 0.0, 0.0, 1.0, 321.8, 231.55)">
    <use height="36.7" transform="matrix(1.0, 0.0, 0.0, 0.7681, -48.1, 207.0326)" width="53.1" xlink:href="#sprite0"/>
    <use height="325.25" transform="matrix(0.8218, 0.5671, -0.5671, 0.8218, -135.9718, -201.8035)" width="377.5" xlink:href="#sprite1"/>
  </g>
  <defs>
    <g id="sprite0" transform="matrix(1.0, 0.0, 0.0, 1.0, 1.05, 1.65)">
      <use height="36.7" transform="matrix(1.0, 0.0, 0.0, 1.0, -1.05, -1.65)" width="53.1" xlink:href="#shape0"/>
    </g>
    <g id="shape0" transform="matrix(1.0, 0.0, 0.0, 1.0, 1.05, 1.65)">
      <path d="M0.6 4.0 L0.55 4.0 0.55 0.0 51.55 0.0 51.55 3.8 51.6 3.8 51.6 28.1 51.75 29.7 51.6 29.75 51.1 29.8 51.6 29.8 51.6 32.25 Q26.1 37.85 0.6 32.25 L0.6 29.8 0.55 29.8 0.55 28.1 0.6 28.1 0.6 4.0 M51.6 29.75 L51.6 28.1 51.6 29.75" fill="#ff9966" fill-rule="evenodd" stroke="none"/>
      <path d="M51.6 3.8 L51.6 28.1 51.6 29.75 51.6 29.8 51.6 32.25 Q26.1 37.85 0.6 32.25 L0.6 29.8 M0.6 28.1 L0.6 4.0" fill="none" stroke="#ffcc00" stroke-linecap="round" stroke-linejoin="round" stroke-width="0.05"/>
      <path d="M1.0 -0.05 L1.1 0.35 1.2 0.5 1.4 1.25 1.5 1.15 1.55 1.1 Q1.35 0.65 1.85 0.4 L1.95 0.4 Q1.85 -0.05 2.3 -0.3 3.0 -0.7 3.35 0.1 3.65 0.85 3.1 1.15 L2.75 1.25 2.9 1.45 Q3.35 2.4 2.5 3.0 L1.55 3.2 1.45 3.65 1.55 3.6 1.75 3.3 Q2.2 3.1 2.5 3.5 L2.65 3.85 2.7 3.9 Q3.2 4.45 2.85 4.85 L2.9 4.95 2.85 5.55 Q3.15 5.55 3.35 5.9 3.65 6.5 3.15 7.1 L3.25 7.2 Q3.65 7.85 3.05 8.25 L2.75 8.4 2.55 8.8 3.0 9.25 Q3.3 9.9 2.65 10.25 L2.9 10.5 Q3.25 10.95 2.8 11.25 2.4 11.6 2.1 11.15 1.8 10.7 2.2 10.4 L2.3 10.35 1.75 9.95 Q1.55 9.45 1.9 9.1 L1.45 8.7 Q1.1 8.0 1.8 7.75 L1.75 7.65 1.4 7.2 Q1.0 6.3 1.95 5.75 L2.35 5.6 2.3 5.5 2.15 5.2 1.5 5.05 1.0 5.7 -0.25 5.6 -0.4 5.3 -0.55 5.1 Q-0.9 4.5 -0.45 4.1 L-0.8 3.7 -1.05 2.85 Q-1.05 2.5 -0.6 2.2 L0.35 2.05 0.9 2.15 0.95 1.8 Q0.35 2.1 -0.2 1.35 -0.85 0.6 -0.05 0.15 L0.25 0.05 0.4 -0.1 1.0 -0.05 M10.1 -0.25 Q9.95 -0.7 10.45 -1.1 11.2 -1.65 11.65 -0.75 L11.8 0.25 Q12.15 0.1 12.3 0.55 12.45 1.05 12.05 1.35 11.65 1.65 11.4 1.1 11.2 0.75 11.35 0.55 L11.15 0.6 Q11.45 1.25 10.9 1.65 L10.2 1.7 10.0 1.85 9.85 1.95 10.4 2.3 Q10.75 2.7 10.6 3.05 10.7 3.5 10.35 3.8 L10.55 4.0 10.8 3.7 10.75 3.6 Q10.6 3.15 10.75 2.85 L10.7 2.8 Q10.5 2.4 10.9 2.1 11.3 1.75 11.5 2.2 L11.6 2.55 11.9 2.8 Q12.2 3.25 11.9 3.65 L12.05 3.8 Q12.55 4.35 12.15 4.75 12.3 5.3 11.95 5.7 11.5 6.15 11.0 5.55 10.7 5.15 10.8 4.8 10.75 5.3 10.1 5.75 L9.6 6.0 9.85 6.4 Q10.3 7.35 9.7 7.65 L9.65 7.7 10.1 8.1 Q10.45 8.65 9.95 9.05 10.2 9.5 9.65 9.8 9.0 10.2 8.6 9.6 8.3 9.15 8.6 8.9 L8.3 8.55 8.25 8.45 7.95 8.65 Q8.5 9.55 7.7 10.0 L7.4 10.15 7.45 10.25 Q7.95 11.0 7.45 11.5 L7.85 11.85 Q8.3 12.6 7.6 12.95 6.95 13.35 6.4 12.7 5.95 12.2 6.3 11.85 L5.75 11.35 Q5.25 10.5 6.05 9.95 6.15 9.85 6.3 9.8 L6.25 9.75 Q5.95 9.35 6.0 9.0 L5.6 9.3 5.3 9.4 4.9 10.0 Q4.3 10.35 3.75 9.7 3.35 9.15 3.8 8.8 3.5 8.3 4.1 7.7 L4.15 7.7 4.05 7.25 3.85 7.0 Q3.55 6.3 4.15 5.95 L4.5 5.85 4.1 5.5 3.95 5.0 3.7 4.75 Q3.4 4.25 3.8 3.85 L3.7 3.25 Q3.3 2.35 4.2 1.95 5.2 1.55 5.55 2.3 5.95 3.05 5.1 3.7 L5.1 3.75 5.05 3.8 5.1 3.85 Q5.35 4.2 5.25 4.5 L5.35 4.65 Q5.7 5.3 5.1 5.7 L4.75 5.85 Q5.05 5.95 5.35 6.3 5.8 6.8 5.45 7.15 L5.45 7.65 5.7 7.9 5.9 8.15 6.2 7.85 Q6.0 7.45 6.15 7.15 5.8 6.35 6.55 6.0 L6.7 5.95 6.6 5.8 Q6.25 5.05 6.8 4.55 L6.65 4.35 Q6.3 4.45 6.0 4.1 5.6 3.6 6.2 3.1 L7.2 3.15 7.3 3.3 Q7.75 3.15 8.0 3.65 8.25 4.15 7.95 4.45 L8.15 4.75 Q8.6 5.6 7.95 6.1 L8.15 6.3 8.3 6.5 8.65 6.05 8.95 5.9 8.5 5.45 Q7.9 4.55 8.9 3.85 L8.65 3.6 Q8.05 2.8 9.0 2.35 L9.05 2.35 9.25 2.15 9.5 2.0 Q9.05 2.0 8.6 1.45 8.1 0.85 8.45 0.45 7.85 -0.4 8.75 -0.6 9.65 -0.8 10.1 -0.25 M6.95 -0.5 L7.1 0.3 7.45 0.6 Q8.05 1.3 7.4 1.8 L7.8 2.15 Q8.1 2.65 7.6 2.9 7.1 3.15 6.9 2.7 6.7 2.3 6.95 2.05 6.1 2.35 5.5 1.7 L5.35 1.5 4.9 1.55 Q4.35 1.8 4.0 1.3 3.6 0.7 4.1 0.3 L4.15 0.3 4.2 0.2 Q3.85 -0.25 4.4 -0.6 5.0 -0.9 5.45 -0.4 L5.65 0.05 5.8 0.3 5.85 0.35 Q5.45 -0.25 6.05 -0.7 6.65 -1.2 6.95 -0.5 M19.35 0.0 L19.65 -0.55 Q20.25 -1.0 20.65 -0.25 L20.75 -0.05 Q21.2 -0.2 21.35 0.25 21.55 0.85 21.05 1.3 L20.85 1.45 21.2 1.9 21.35 2.65 21.55 2.9 Q21.95 3.45 21.3 3.95 20.6 4.5 20.35 3.7 L20.3 3.6 Q19.85 3.65 19.5 3.1 19.15 2.5 19.55 2.0 L18.85 1.85 19.0 2.05 Q19.55 2.8 18.85 3.3 L18.7 3.4 18.75 3.9 19.2 4.35 19.35 5.0 Q19.4 5.45 18.75 5.8 L19.0 6.2 Q19.45 7.15 18.9 7.45 19.2 8.05 18.75 8.5 L19.05 8.7 19.25 9.0 19.6 8.65 19.65 8.65 Q19.45 8.05 19.95 7.75 L19.85 7.45 19.35 7.15 Q19.05 6.55 19.7 6.2 20.3 5.9 20.55 6.35 L20.65 6.65 Q21.05 6.6 21.35 7.05 21.7 7.6 21.3 8.0 21.45 8.65 20.8 9.1 L20.75 9.15 20.65 9.8 Q20.85 9.9 21.05 10.15 21.6 10.9 20.9 11.5 L20.7 11.65 Q21.05 12.15 20.4 12.7 19.7 13.25 19.15 12.55 L18.95 12.25 Q18.9 12.6 18.5 12.75 L18.35 12.85 18.4 12.85 18.95 13.4 19.05 13.75 Q19.05 13.35 19.55 13.15 20.35 12.75 20.9 13.55 21.35 14.2 20.9 14.45 L20.95 14.5 21.4 14.95 Q21.95 15.9 20.95 16.6 L20.65 16.85 20.95 17.2 Q21.25 17.9 20.75 18.35 L20.65 18.45 Q20.9 18.5 21.15 18.85 21.7 19.6 20.95 20.25 L20.85 20.35 Q21.2 20.25 21.45 20.6 21.9 21.15 21.2 21.7 L21.1 21.8 Q21.4 22.2 20.9 22.5 20.35 22.8 20.05 22.35 19.7 21.95 20.15 21.6 L20.2 21.6 Q19.9 20.9 20.5 20.5 20.05 20.65 19.65 20.15 19.1 19.4 19.85 18.75 L20.2 18.5 19.85 18.15 Q19.55 17.5 20.05 17.0 L20.15 16.95 Q19.75 16.9 19.5 16.45 19.0 15.55 19.9 14.85 L19.85 14.55 19.25 14.15 19.1 13.85 Q19.2 14.5 18.75 14.85 18.15 15.35 17.55 14.5 17.0 13.75 17.5 13.25 17.5 13.0 17.8 12.85 L17.25 12.4 Q16.7 11.65 17.6 11.2 17.35 10.7 17.85 10.5 18.3 10.25 18.6 10.65 18.85 11.0 18.65 11.25 L18.85 11.6 18.95 11.95 19.4 11.5 19.65 11.4 19.6 11.3 Q19.15 10.7 19.5 10.2 L19.2 9.85 19.1 9.55 18.8 9.8 Q17.95 10.25 17.45 9.5 17.1 8.95 17.4 8.7 17.3 8.55 17.35 8.4 L17.2 8.25 Q16.65 7.45 17.45 6.95 L17.5 6.95 Q17.15 6.45 17.65 6.0 L17.25 5.6 Q16.85 5.1 17.25 4.7 L17.65 4.2 17.4 3.95 Q17.0 3.45 17.5 3.15 16.9 2.45 17.7 1.9 L18.65 1.75 18.5 1.6 Q18.05 1.5 17.55 1.0 17.65 1.45 16.95 1.85 L16.4 2.05 16.85 2.4 Q17.2 3.05 16.6 3.4 L16.4 3.5 16.6 3.75 Q16.9 4.35 16.4 4.7 L16.55 4.9 Q16.9 5.5 16.3 5.85 15.7 6.2 15.45 5.6 15.25 5.2 15.5 4.9 L15.05 4.55 15.0 4.35 14.4 4.95 14.05 5.4 13.15 5.3 Q12.9 4.95 13.05 4.7 L12.95 4.2 12.55 3.75 Q12.1 2.9 12.7 2.5 L12.95 2.35 Q12.75 1.85 13.25 1.65 13.85 1.45 14.05 1.85 14.3 2.3 13.8 2.7 L14.0 3.15 Q14.45 3.1 14.8 3.6 L15.0 4.1 15.5 3.55 15.9 3.4 15.7 3.1 Q15.4 2.5 15.95 2.15 L16.15 2.05 Q15.65 2.0 15.3 1.6 L15.05 1.1 14.75 1.4 Q14.15 1.75 13.8 1.2 L13.65 0.85 13.55 0.85 Q12.8 1.1 12.4 0.6 11.95 0.1 12.6 -0.25 13.25 -0.6 13.75 0.0 L13.9 0.2 Q14.4 -0.2 14.85 0.4 L15.05 0.85 15.3 0.5 Q15.05 -0.1 15.65 -0.55 16.45 -1.15 16.85 -0.3 L17.05 0.3 Q16.8 -0.3 17.65 -0.5 18.7 -0.8 19.3 0.0 L19.35 0.0 M24.55 -0.9 Q25.0 -1.25 25.25 -0.8 25.45 -0.3 25.1 0.05 24.8 0.4 24.45 -0.1 24.1 -0.55 24.55 -0.9 M22.7 -0.2 Q23.15 -0.4 23.55 0.15 24.05 0.8 23.45 1.2 22.8 1.6 22.4 1.0 L22.35 0.85 21.7 0.55 Q21.35 0.15 21.9 -0.2 22.3 -0.45 22.7 -0.2 M27.85 -0.3 Q27.6 -0.85 28.25 -1.4 29.1 -2.05 29.65 -0.95 L29.9 0.0 30.5 -0.05 30.8 -0.35 Q31.4 -0.65 31.85 -0.15 32.35 0.4 31.65 0.65 31.15 0.85 30.8 0.65 30.85 1.1 30.4 1.45 29.85 1.9 29.5 1.1 L29.4 0.5 28.45 0.4 Q28.5 0.8 28.15 1.05 L27.35 0.95 Q26.85 1.1 26.3 0.4 25.6 -0.35 26.45 -0.55 27.15 -0.7 27.55 -0.25 L27.85 -0.3 M34.1 -0.6 L34.15 0.5 Q34.55 0.3 34.9 0.65 35.25 1.1 34.7 1.4 34.15 1.7 33.8 1.25 L33.65 0.9 33.35 0.9 Q33.4 1.25 33.05 1.5 L32.7 1.65 32.85 1.85 Q33.1 2.35 32.65 2.8 L32.75 2.95 Q33.25 3.65 32.6 4.25 L32.45 4.4 32.15 4.95 31.95 5.35 31.35 5.3 Q31.15 5.05 31.35 4.8 31.1 4.4 31.5 4.1 L31.45 4.0 Q31.1 3.3 31.45 2.9 L31.35 2.7 Q30.95 1.9 31.75 1.55 L32.2 1.45 32.1 1.3 Q31.7 0.7 32.2 0.3 32.45 0.1 32.65 0.15 32.45 -0.4 33.0 -0.8 33.75 -1.35 34.1 -0.6 M36.45 -0.25 L36.6 0.15 Q37.15 0.0 37.5 0.6 37.9 1.35 37.35 1.75 36.75 2.1 36.2 1.4 L35.95 0.8 Q35.55 0.8 35.1 0.25 34.4 -0.5 35.25 -0.7 36.1 -0.9 36.45 -0.25 M38.5 -0.3 L38.7 0.3 Q39.1 0.15 39.25 0.6 39.4 1.15 38.95 1.5 38.5 1.9 38.25 1.25 L38.2 0.7 Q37.8 0.75 37.45 0.35 37.05 -0.15 37.6 -0.55 38.15 -1.0 38.5 -0.3 M43.05 -0.4 Q43.4 0.25 42.95 0.7 42.45 1.2 42.0 0.5 41.5 -0.15 42.15 -0.6 42.75 -1.1 43.05 -0.4 M46.0 -0.65 Q46.3 -0.1 45.95 0.25 46.25 0.2 46.45 0.55 46.7 1.05 46.35 1.3 45.95 1.6 45.55 1.1 45.2 0.7 45.5 0.4 45.1 0.4 44.65 -0.15 43.95 -0.9 44.8 -1.1 45.65 -1.3 46.0 -0.65 M47.5 -0.3 L47.65 0.05 47.65 0.0 Q48.15 -0.2 48.4 0.0 L48.65 -0.2 Q49.3 -0.55 49.8 0.05 L50.6 0.15 50.8 -0.1 Q51.3 -0.45 51.55 0.1 51.85 0.65 51.45 1.0 L50.95 1.1 50.65 1.4 Q50.0 1.8 49.6 1.2 L49.5 0.95 48.6 0.8 48.2 1.45 48.15 1.5 48.25 1.65 Q48.65 2.55 47.9 3.1 L47.65 3.25 47.7 3.3 Q47.9 3.5 47.75 3.75 L47.85 3.85 48.1 4.5 Q48.2 4.95 47.9 5.3 47.45 5.75 46.95 5.15 L46.75 4.8 46.6 4.65 Q46.15 4.1 46.7 3.65 L47.0 3.5 47.1 3.25 46.65 2.85 46.6 2.75 46.25 3.15 46.05 3.3 Q45.5 3.5 45.1 3.0 L44.95 2.8 Q44.75 2.35 45.25 1.95 45.9 1.5 46.4 2.1 L46.5 2.2 Q46.5 1.8 47.0 1.4 L47.35 1.2 47.3 1.1 47.2 0.65 Q46.85 0.7 46.5 0.3 46.1 -0.15 46.6 -0.6 47.15 -1.0 47.5 -0.3 M40.85 -0.25 Q41.35 0.3 40.65 0.55 39.95 0.85 39.5 0.35 39.1 -0.15 39.75 -0.45 40.35 -0.8 40.85 -0.25 M50.7 8.3 L50.4 8.55 50.3 8.6 Q50.5 9.15 50.0 9.45 49.4 9.85 48.9 9.2 48.4 8.6 49.15 8.2 L49.3 8.15 49.2 7.85 Q49.2 7.5 49.55 7.25 L48.75 6.75 Q48.4 6.0 49.05 5.7 48.5 5.0 49.35 4.35 L49.5 4.25 Q49.6 3.85 50.05 3.5 50.85 2.9 51.45 3.75 52.0 4.6 51.05 5.1 L50.9 5.2 50.4 5.95 50.35 6.0 50.4 6.05 Q50.95 6.7 50.25 7.1 L50.65 7.45 Q50.95 7.95 50.7 8.3 M49.15 2.95 Q48.75 2.15 49.55 1.8 50.3 1.45 50.65 2.1 50.95 2.7 50.25 3.2 L50.0 3.4 49.8 3.65 Q49.45 3.95 49.25 3.55 49.05 3.2 49.2 3.05 L49.15 2.95 M46.05 3.95 Q46.3 4.5 45.9 4.95 46.0 5.35 45.35 5.75 44.5 6.25 44.05 5.6 L43.95 5.4 43.4 6.0 43.45 6.05 Q43.9 6.65 43.3 7.15 L43.4 7.35 Q43.65 7.85 43.5 8.2 L43.5 8.6 43.65 8.8 Q44.15 9.55 43.55 9.9 L43.05 10.05 43.5 10.45 Q43.95 11.1 43.3 11.5 L42.95 11.65 43.1 11.85 Q43.35 12.35 43.0 12.65 L43.25 12.9 Q43.65 13.4 43.1 13.85 42.55 14.25 42.25 13.65 41.95 13.05 42.3 12.75 L41.95 12.45 Q41.55 11.95 42.15 11.65 L42.45 11.55 42.2 11.3 Q41.85 10.65 42.45 10.2 42.7 10.0 42.9 10.05 L42.5 9.7 Q42.1 9.2 42.55 8.7 L42.5 8.65 42.35 8.35 42.0 8.0 Q41.5 7.3 42.2 6.9 41.75 6.25 42.3 5.9 L42.1 5.6 Q41.75 4.9 42.15 4.4 41.8 3.9 42.4 3.4 L42.55 3.25 Q43.0 2.9 43.35 3.05 L43.85 3.5 Q44.15 4.1 43.75 4.45 L43.8 4.5 43.95 4.9 44.3 4.55 Q44.25 4.25 44.45 4.0 L44.8 3.7 Q45.6 3.2 46.0 3.9 L46.05 3.95 M43.1 1.1 Q42.75 0.7 43.3 0.4 L44.15 0.5 Q44.5 0.95 44.0 1.2 L43.1 1.1 M43.05 2.5 Q42.65 2.65 42.5 2.3 42.3 1.95 42.65 1.75 42.95 1.5 43.2 1.9 43.4 2.3 43.05 2.5 M41.5 3.05 Q41.65 3.5 41.15 3.9 L41.05 4.0 41.05 4.05 41.15 4.5 41.5 4.75 Q41.85 5.3 41.35 5.6 40.85 5.95 40.5 5.5 40.25 5.15 40.45 4.9 L40.1 4.65 Q39.85 4.25 40.3 3.95 L40.1 3.65 39.95 3.0 Q39.45 2.05 40.35 1.7 L40.7 1.6 Q40.45 1.0 40.95 0.55 41.6 0.05 42.2 0.8 42.8 1.6 42.05 2.1 L41.7 2.25 Q41.8 2.65 41.5 3.05 M44.65 7.3 Q44.1 6.7 44.85 6.15 45.55 5.6 45.95 6.45 46.35 7.3 45.85 7.65 46.1 8.05 46.0 8.35 L45.85 8.9 45.6 9.05 Q45.0 9.35 44.75 8.75 L44.7 8.65 44.5 8.45 Q44.05 7.8 44.7 7.4 L44.75 7.4 44.65 7.3 M41.45 8.15 Q42.15 8.95 41.35 9.3 41.45 9.85 40.95 10.15 L40.8 10.25 40.95 10.4 Q41.3 10.8 40.9 10.95 L40.2 10.8 Q39.95 10.5 40.2 10.3 L39.65 9.85 Q39.1 9.25 39.8 8.8 39.65 8.4 40.1 7.95 L40.2 7.9 40.1 7.8 40.05 7.7 39.55 7.25 Q39.25 6.55 39.85 6.2 40.5 5.85 41.05 6.55 41.4 6.95 41.25 7.25 41.4 7.6 41.15 7.9 L41.45 8.15 M41.2 12.05 Q41.35 12.4 41.0 12.6 40.7 12.85 40.3 12.4 39.95 12.0 40.5 11.85 41.05 11.75 41.2 12.05 M45.05 11.55 L44.8 11.25 Q44.45 10.6 45.1 10.3 45.7 10.0 46.1 10.55 46.5 11.1 45.85 11.5 L45.65 11.6 45.8 11.85 Q46.05 12.5 45.55 12.7 L45.4 12.8 Q45.55 13.3 45.05 13.6 44.45 13.95 44.15 13.35 43.8 12.75 44.45 12.45 L44.65 12.4 Q44.25 11.9 44.9 11.6 L45.05 11.55 M48.25 8.2 Q47.55 8.7 47.0 7.95 L46.75 7.5 46.75 7.25 46.7 7.15 Q46.45 6.65 46.95 6.35 L47.7 6.45 47.75 6.55 48.45 7.0 Q48.75 7.5 48.55 7.9 L48.25 8.2 M47.55 8.9 Q47.85 9.65 47.2 10.0 46.5 10.35 46.2 9.7 45.9 9.05 46.55 8.6 47.25 8.15 47.55 8.9 M47.1 11.2 Q46.65 10.6 47.2 10.15 47.75 9.7 48.2 10.3 48.6 10.9 48.05 11.35 48.45 11.85 47.8 12.35 L46.65 12.25 Q46.15 11.6 46.9 11.25 L47.1 11.2 M50.55 12.2 Q50.75 12.6 50.45 12.85 50.95 13.55 50.05 14.1 L50.35 14.4 Q50.75 14.95 50.15 15.4 L50.05 15.5 50.1 15.7 50.15 16.45 Q50.5 16.4 50.75 16.8 51.2 17.45 50.55 17.85 49.85 18.25 49.45 17.7 49.15 17.3 49.35 17.0 48.85 17.0 48.5 16.45 L48.4 16.2 47.95 16.7 47.85 16.8 48.05 17.1 Q48.4 17.75 47.85 18.15 47.35 18.6 47.05 17.95 46.7 17.35 47.2 16.9 L46.85 16.55 Q46.45 15.9 47.15 15.4 L47.2 15.3 Q47.6 14.95 47.9 15.05 L48.3 15.4 48.45 15.75 48.95 15.3 49.3 15.2 Q49.1 14.7 49.3 14.4 48.8 14.45 48.55 13.95 48.15 13.15 48.95 12.6 L49.15 12.5 Q48.95 12.05 49.55 11.9 50.35 11.7 50.55 12.2 M50.15 10.9 Q49.6 11.2 49.15 10.65 48.7 10.15 49.25 9.85 49.8 9.5 50.25 10.1 50.75 10.65 50.15 10.9 M48.0 13.6 L47.6 14.0 Q46.9 14.15 46.55 13.7 L46.5 13.6 Q46.2 13.15 46.8 12.9 47.4 12.6 47.85 13.2 L48.0 13.6 M45.65 14.9 Q45.2 15.25 44.8 14.65 44.4 14.1 44.95 13.75 45.5 13.35 45.75 13.95 46.05 14.6 45.65 14.9 M45.85 16.75 L45.9 16.8 Q46.2 17.45 45.55 17.85 44.95 18.25 44.5 17.65 44.1 17.0 44.85 16.6 L45.0 16.55 44.85 16.3 Q44.4 15.55 45.2 15.15 45.95 14.75 46.35 15.45 46.75 16.2 46.0 16.65 L45.85 16.75 M43.1 15.05 L43.2 15.25 Q43.65 16.05 43.0 16.25 42.35 16.5 42.05 15.95 41.75 15.45 42.25 14.95 L42.35 14.85 Q42.15 14.35 42.5 14.1 42.8 13.9 43.15 14.3 43.5 14.7 43.1 15.05 M41.65 13.15 Q41.95 13.55 41.5 13.9 L41.4 13.95 40.5 13.85 40.45 13.4 Q40.55 13.15 40.8 13.0 41.3 12.65 41.65 13.15 M41.6 15.15 Q41.95 16.2 41.05 16.55 40.2 16.95 39.65 16.0 39.1 15.15 40.1 14.65 L40.15 14.6 41.35 14.7 41.6 15.15 M41.15 18.4 L41.05 18.5 41.55 18.95 Q42.3 19.95 41.3 20.3 40.35 20.65 39.75 19.85 39.15 19.1 40.0 18.55 L40.15 18.45 39.9 18.2 Q39.4 17.55 40.15 17.05 40.9 16.5 41.4 17.25 41.9 17.95 41.15 18.4 M42.65 17.2 Q43.7 16.85 44.2 17.5 44.7 18.2 43.75 18.8 44.0 19.4 43.4 19.85 42.7 20.35 42.05 19.55 41.55 18.85 42.1 18.4 41.65 17.5 42.65 17.2 M44.35 19.65 Q43.9 19.05 44.7 18.65 45.5 18.25 45.85 18.9 46.15 19.6 45.5 19.95 44.85 20.25 44.35 19.65 M45.55 20.75 L45.65 21.25 45.7 21.35 Q46.0 22.05 45.35 22.45 44.7 22.9 44.4 22.25 44.2 21.85 44.4 21.5 44.15 21.05 44.65 20.6 45.2 20.1 45.55 20.75 M42.2 22.1 L41.95 21.75 Q41.4 20.9 42.15 20.35 42.9 19.75 43.45 20.65 43.85 21.3 43.45 21.8 L43.6 21.95 Q44.2 22.7 43.55 23.0 42.95 23.3 42.45 22.55 L42.2 22.1 M41.15 22.65 Q41.45 23.3 40.95 23.8 40.5 24.35 40.15 23.7 L40.1 23.0 39.9 22.7 Q39.55 22.1 39.8 21.8 L40.05 21.6 Q40.7 21.3 41.0 21.95 L41.15 22.55 41.15 22.6 41.15 22.65 M42.1 24.05 Q41.8 23.5 42.35 23.15 42.85 22.75 43.1 23.4 43.35 24.0 42.9 24.35 43.15 24.25 43.35 24.55 43.55 24.95 43.15 25.3 42.7 25.6 42.5 25.15 42.35 24.65 42.75 24.4 42.3 24.6 42.1 24.05 M44.55 23.65 Q44.3 23.25 44.65 22.9 L45.4 22.95 Q45.8 23.3 45.3 23.7 L44.55 23.65 M49.3 19.05 Q49.85 18.7 50.35 19.35 50.85 20.0 50.2 20.2 L49.75 20.3 50.1 20.7 Q50.65 21.7 49.7 22.15 L49.55 22.25 49.8 22.4 50.0 22.25 Q50.55 21.95 50.85 22.55 L50.85 22.6 51.2 22.2 Q51.75 21.8 52.0 22.45 52.2 23.15 51.7 23.45 51.2 23.8 50.9 23.2 L50.7 23.5 Q50.3 23.85 49.95 23.35 L49.75 23.6 Q49.3 24.05 49.0 23.5 48.7 22.95 49.15 22.45 L49.35 22.3 Q48.75 22.4 48.45 21.65 48.05 20.75 48.8 20.25 L49.3 20.1 49.15 19.95 Q48.75 19.4 49.3 19.05 M46.35 20.15 Q45.8 19.4 46.55 18.7 47.35 18.0 47.9 18.8 48.45 19.6 47.7 20.25 L47.9 20.45 Q48.4 21.1 47.6 21.75 L48.05 22.05 Q48.6 22.7 47.9 23.15 L47.7 23.25 47.45 23.9 Q46.95 24.25 46.5 23.55 46.1 22.85 46.5 22.55 L46.75 22.0 46.4 21.6 Q46.05 20.85 46.6 20.4 L46.35 20.15 M50.45 24.15 Q50.95 24.8 50.35 25.1 49.75 25.4 49.25 24.9 48.7 24.4 49.3 23.95 49.9 23.5 50.45 24.15 M48.8 24.55 Q49.25 25.35 48.55 25.7 47.85 26.0 47.3 25.35 46.75 24.7 47.55 24.2 48.3 23.75 48.8 24.55 M46.05 24.25 Q46.5 25.0 45.8 25.55 45.05 26.1 44.55 25.3 44.05 24.5 44.85 24.0 45.65 23.45 46.05 24.25 M50.85 31.9 Q50.55 31.45 51.05 31.15 51.55 30.85 51.85 31.3 52.15 31.7 51.65 32.0 L50.85 31.9 M50.45 26.9 Q50.85 27.5 50.2 28.0 49.55 28.55 49.15 27.8 48.8 27.05 49.4 26.65 50.05 26.3 50.45 26.9 M47.25 26.0 Q48.0 25.4 48.6 26.55 49.25 27.75 48.25 28.3 L48.05 28.4 Q48.15 28.8 47.7 29.1 L47.5 29.2 Q48.0 29.15 48.25 29.7 48.65 30.45 48.05 30.95 L47.6 31.15 47.7 31.3 Q48.1 31.85 47.6 32.15 47.05 32.4 46.8 31.9 46.5 31.4 46.9 31.1 L47.2 31.0 46.9 30.6 Q46.3 29.7 47.1 29.3 L47.35 29.25 Q46.9 29.25 46.5 28.8 46.0 28.1 46.65 27.7 L46.9 27.6 Q46.55 26.5 47.25 26.0 M45.8 29.7 Q46.1 30.15 45.95 30.55 L46.0 30.65 Q46.5 31.55 45.65 32.25 44.8 32.95 44.25 32.0 43.9 31.35 44.15 30.9 L44.1 30.8 Q43.5 30.0 44.3 29.45 L44.25 29.35 Q43.8 28.5 44.55 27.9 L44.75 27.8 44.6 27.55 Q44.3 27.0 44.75 26.65 45.2 26.3 45.5 26.85 45.8 27.35 45.35 27.75 L45.9 28.2 Q46.5 29.05 45.75 29.6 L45.8 29.7 M49.3 30.55 Q49.0 30.05 49.55 29.8 50.1 29.55 50.5 30.15 50.95 30.75 50.3 31.0 L49.9 31.1 Q50.15 31.7 49.45 32.35 48.7 33.0 48.15 32.1 47.65 31.15 48.5 30.7 L49.3 30.55 M49.65 29.1 Q49.25 29.4 49.0 29.0 48.8 28.65 49.25 28.4 L49.9 28.5 Q50.1 28.85 49.65 29.1 M43.55 27.6 Q42.9 28.15 42.3 27.4 41.7 26.65 42.55 26.1 43.35 25.55 43.75 26.3 44.15 27.1 43.55 27.6 M41.05 27.6 Q40.5 28.05 40.15 27.4 39.85 26.75 40.35 26.4 40.9 26.05 41.25 26.6 41.65 27.1 41.05 27.6 M42.8 30.3 L43.45 30.4 43.5 30.7 43.75 30.95 Q44.15 31.5 43.45 31.95 42.8 32.35 42.35 31.75 42.0 31.2 42.55 30.85 42.4 30.55 42.8 30.3 M40.7 28.9 L40.1 28.85 Q39.9 28.5 40.3 28.3 L40.9 28.35 Q41.1 28.65 40.7 28.9 M42.75 28.4 Q43.4 28.05 43.8 28.75 44.15 29.5 43.5 29.8 42.85 30.15 42.5 29.5 42.1 28.8 42.75 28.4 M41.45 32.55 Q42.05 33.15 41.2 33.6 40.3 34.05 39.85 33.45 L39.7 32.95 39.45 32.6 Q38.9 31.65 39.75 31.2 L39.85 31.15 39.65 30.9 Q39.2 30.2 39.85 29.95 40.45 29.65 40.95 30.3 41.35 30.9 40.9 31.2 L41.1 31.45 Q41.4 31.9 41.2 32.35 L41.45 32.55 M42.6 32.85 Q43.3 32.5 43.65 33.15 43.95 33.8 43.35 34.2 42.75 34.55 42.3 33.9 41.85 33.2 42.6 32.85 M41.25 25.55 Q40.55 25.85 40.0 25.3 39.4 24.75 40.05 24.3 40.7 23.8 41.3 24.5 41.9 25.2 41.25 25.55 M38.6 2.5 Q38.9 3.1 38.5 3.5 L39.05 3.85 39.1 3.9 Q39.75 4.6 38.95 5.05 L38.6 5.2 38.6 5.65 Q39.15 5.45 39.45 5.9 39.75 6.5 39.0 7.1 L38.9 7.2 39.1 7.4 Q39.45 7.95 38.95 8.35 L38.65 8.8 38.25 8.9 Q38.3 9.25 37.95 9.45 37.5 9.7 37.3 9.25 37.1 8.85 37.55 8.5 L37.95 8.4 37.95 8.15 Q37.55 7.6 38.1 7.25 L37.9 6.95 Q37.7 6.55 37.85 6.25 L37.35 5.9 37.3 5.8 37.05 5.95 35.8 5.85 Q35.35 5.25 36.1 4.75 L35.8 4.5 35.15 3.95 Q34.35 2.9 35.55 2.35 36.7 1.85 37.35 2.7 L37.65 2.3 Q37.85 2.15 38.0 2.15 38.35 2.05 38.6 2.5 M36.75 4.55 L37.35 4.9 37.5 4.75 37.55 4.75 Q37.25 4.25 37.6 3.85 L37.75 3.75 37.65 3.7 37.6 3.85 37.0 4.35 36.95 4.4 36.75 4.55 M34.4 2.85 L34.45 2.9 Q34.7 3.3 34.5 3.65 L34.65 3.9 Q35.0 4.55 34.3 4.85 33.6 5.15 33.3 4.6 33.1 4.25 33.35 3.95 L33.25 3.85 Q33.05 3.6 33.1 3.35 L33.0 3.15 Q32.65 2.5 33.25 2.1 33.85 1.7 34.25 2.4 L34.4 2.85 M32.3 6.15 Q32.8 6.75 32.0 7.05 L31.8 7.15 31.85 7.4 Q32.2 7.5 32.55 7.95 L32.75 8.25 Q33.05 7.95 33.4 8.0 L33.55 7.85 33.6 7.85 33.5 7.75 Q33.2 7.3 33.35 6.95 33.2 6.4 33.75 6.1 L34.0 6.05 33.7 5.75 Q33.5 5.4 33.85 5.15 34.2 4.9 34.4 5.3 34.65 5.7 34.25 5.95 L34.2 6.0 Q34.65 5.95 35.0 6.35 L35.05 6.4 35.25 6.2 Q35.95 5.65 36.3 6.5 L36.45 7.1 36.45 7.7 36.8 8.05 Q37.1 8.5 36.8 8.8 37.15 9.3 36.4 9.8 35.5 10.3 34.95 9.45 L34.8 9.0 34.6 9.15 34.5 9.25 Q34.65 9.75 34.15 10.15 L34.4 10.4 Q34.85 11.05 34.2 11.45 L34.05 11.55 Q34.55 11.55 34.85 12.05 35.35 12.85 34.6 13.35 L34.75 13.5 34.9 14.1 Q35.1 14.55 34.55 14.95 33.8 15.45 33.5 14.65 33.2 13.9 33.65 13.55 L33.7 13.45 33.1 13.0 Q32.4 12.2 33.35 11.7 L33.7 11.6 33.2 11.2 Q32.95 10.75 33.2 10.45 L32.5 9.9 32.3 9.55 32.15 9.65 Q31.45 10.15 30.8 9.35 L30.6 8.95 Q30.2 8.35 30.85 7.7 L31.0 7.6 30.95 7.55 Q30.65 7.2 31.05 6.9 L30.95 6.75 Q30.65 6.15 31.2 5.8 31.75 5.5 32.3 6.15 M35.45 8.25 L35.5 8.15 35.05 7.75 34.8 8.1 34.95 8.55 35.3 8.3 35.45 8.25 M30.95 11.55 Q30.5 11.0 31.05 10.65 31.65 10.3 32.15 10.9 32.6 11.5 32.2 11.75 L32.3 11.95 Q32.55 12.4 32.05 12.7 31.6 13.05 31.05 12.45 30.6 11.9 31.15 11.7 L30.95 11.55 M35.95 11.3 Q35.55 10.65 36.2 10.35 36.85 10.0 37.3 10.6 37.7 11.15 37.0 11.55 L36.95 11.6 37.2 11.9 Q37.45 12.55 36.9 12.8 L36.75 12.85 36.95 13.15 Q37.25 13.75 36.75 14.15 L36.9 14.4 Q37.1 14.85 36.95 15.2 L37.3 15.55 Q37.7 16.3 36.95 16.75 L36.8 16.85 37.05 17.15 Q37.4 17.9 36.7 18.35 L36.55 18.45 36.9 18.9 37.0 19.2 37.35 18.8 Q38.15 18.05 38.75 18.9 39.3 19.7 38.5 20.4 37.7 21.05 37.15 20.3 L36.95 19.9 36.6 20.25 36.7 20.45 Q37.0 21.1 36.65 21.5 L36.65 21.55 Q36.85 22.05 36.35 22.4 35.85 22.75 35.6 22.25 35.4 21.9 35.65 21.6 L35.4 21.35 Q35.05 20.9 35.5 20.45 L34.95 20.0 34.7 20.25 34.2 20.4 34.3 20.55 Q34.6 21.05 34.15 21.4 L33.95 21.5 34.75 22.1 Q35.5 22.95 34.75 23.3 L34.4 23.4 33.95 24.0 Q33.25 24.45 32.9 23.65 32.55 22.95 33.2 22.45 32.95 21.85 33.4 21.6 L33.7 21.5 33.4 21.2 Q33.1 20.75 33.55 20.4 33.75 20.25 33.9 20.25 L33.7 20.05 Q33.2 19.45 33.85 19.05 L34.7 19.1 35.35 18.55 35.75 18.4 35.45 18.1 Q35.0 17.4 35.85 16.9 L36.15 16.8 35.8 16.4 Q35.4 15.7 36.05 15.35 L35.9 15.15 Q35.55 14.7 35.8 14.4 L35.4 13.95 Q35.0 13.15 35.75 12.8 L36.15 12.7 35.95 12.5 Q35.55 11.95 36.2 11.65 L35.95 11.3 M37.95 10.65 Q38.4 10.25 38.75 10.75 39.1 11.25 38.7 11.6 L39.0 11.8 Q39.4 12.3 38.8 12.75 L39.1 13.1 Q39.55 13.7 39.25 14.05 39.25 14.4 38.85 14.65 38.2 15.1 37.8 14.45 L37.65 14.2 37.25 13.8 Q36.7 13.1 37.6 12.65 L37.7 12.65 Q37.2 12.1 37.9 11.7 L38.0 11.65 37.85 11.5 Q37.5 11.0 37.95 10.65 M30.2 2.5 Q30.5 3.15 30.05 3.6 L30.25 3.8 Q30.85 4.45 30.35 4.9 L30.2 5.5 Q29.85 5.9 29.5 5.4 L29.4 5.25 28.65 4.85 Q28.1 4.15 28.8 3.6 L28.9 3.55 28.85 3.5 Q28.45 2.85 29.15 2.3 29.85 1.75 30.2 2.5 M26.1 1.55 Q25.4 1.95 24.95 1.4 24.5 0.9 25.15 0.5 25.85 0.15 26.3 0.65 26.8 1.2 26.1 1.55 M27.5 2.7 Q28.0 2.65 28.3 3.1 28.75 3.8 28.0 4.2 L27.95 4.25 27.9 4.75 Q28.2 5.3 27.5 5.7 L26.25 5.6 26.1 5.2 25.95 5.0 25.8 4.6 25.7 4.7 25.8 4.85 Q26.2 5.55 25.5 6.0 L25.25 6.15 25.5 6.35 25.7 6.95 26.2 7.45 26.3 7.7 26.5 7.55 26.7 7.5 26.9 7.3 27.15 7.2 26.95 7.05 Q26.5 6.5 27.1 6.05 27.75 5.55 28.05 6.3 28.4 7.05 27.95 7.3 L28.25 7.65 Q28.8 8.5 28.0 8.95 L27.9 9.05 Q28.1 9.4 27.6 9.65 27.0 10.0 26.65 9.45 L26.55 9.1 26.15 8.65 26.1 8.45 26.05 8.45 25.65 9.0 25.3 9.2 25.45 9.95 26.05 10.45 Q26.65 11.35 25.75 11.85 L25.5 12.0 25.6 12.1 Q25.9 12.6 25.6 12.95 L25.85 13.2 Q26.25 13.8 26.0 14.25 26.35 14.8 25.75 15.2 25.1 15.7 24.8 14.95 L24.75 14.85 24.3 14.35 Q23.85 13.4 24.5 12.95 L24.35 12.8 Q23.9 12.25 24.55 11.9 L24.6 11.9 24.35 11.55 Q23.9 10.8 24.45 10.3 L24.1 10.0 Q23.85 9.7 23.95 9.35 L23.6 9.6 23.1 9.75 23.0 9.75 23.3 10.05 Q23.85 10.7 23.2 11.0 22.5 11.3 22.0 10.7 21.5 10.15 22.1 9.75 L22.5 9.6 22.2 9.4 Q21.6 8.85 22.3 8.2 L22.45 8.05 22.25 7.85 Q22.0 7.45 22.4 7.2 L22.45 7.2 22.3 7.0 Q22.05 6.55 22.45 6.35 22.85 6.1 23.25 6.55 23.6 7.0 23.05 7.2 L22.95 7.25 23.05 7.35 23.05 7.9 Q23.35 7.95 23.7 8.35 L24.05 9.1 24.2 8.9 24.25 8.85 24.2 8.8 Q23.45 8.15 24.25 7.55 L24.05 7.35 Q23.5 6.5 24.25 6.1 L24.7 6.0 24.5 5.7 Q24.25 5.1 24.65 4.75 L24.5 4.6 Q24.25 4.25 24.6 3.9 24.45 3.6 24.55 3.3 L24.45 3.15 Q24.1 2.5 24.7 2.1 25.3 1.7 25.7 2.4 L25.8 2.55 26.15 2.85 Q26.45 3.3 26.25 3.7 L26.4 3.6 26.55 3.55 26.55 3.25 26.45 3.15 Q26.1 2.75 26.55 2.4 27.05 2.05 27.4 2.5 L27.5 2.7 M23.15 2.9 Q23.4 3.2 23.25 3.55 L23.35 3.65 Q23.75 4.25 23.25 4.65 23.6 5.3 22.95 5.7 22.35 6.15 21.9 5.55 21.5 5.05 22.0 4.6 L21.95 4.55 Q21.65 4.05 22.05 3.7 21.65 2.95 22.2 2.6 22.45 2.4 22.65 2.45 22.45 2.0 22.95 1.75 23.45 1.55 23.7 1.95 23.9 2.35 23.45 2.7 L23.15 2.9 M20.75 5.65 Q20.35 6.1 19.85 5.55 19.4 4.95 20.0 4.45 L20.15 4.3 Q20.55 3.95 21.0 4.45 21.4 4.85 21.05 5.15 L20.75 5.65 M23.55 12.1 L23.65 12.8 Q23.85 13.25 23.55 13.65 23.95 14.35 23.2 14.95 L22.95 15.15 23.35 15.6 Q23.6 16.35 22.95 16.65 22.35 16.9 21.9 16.25 21.5 15.6 22.3 15.2 L22.45 15.15 Q22.15 15.05 22.0 14.65 L21.9 14.35 21.3 13.85 Q20.9 13.05 21.65 12.45 21.4 11.9 22.2 11.7 23.25 11.45 23.55 12.1 M29.75 6.35 L30.45 6.45 Q30.6 6.7 30.35 7.0 30.75 7.7 30.15 8.15 L30.15 8.2 Q30.2 8.5 29.85 8.8 L30.0 9.05 Q30.25 9.75 29.65 10.1 29.0 10.45 28.7 9.85 28.4 9.2 29.05 8.8 L29.15 8.75 29.1 8.65 Q28.95 8.3 29.15 8.05 L29.0 7.9 Q28.45 7.2 29.2 6.8 L29.4 6.7 29.75 6.35 M26.8 10.4 Q27.35 10.15 27.7 10.65 28.1 11.1 27.45 11.5 26.85 11.85 26.55 11.25 26.2 10.7 26.8 10.4 M29.8 11.9 Q30.0 12.2 29.85 12.45 30.35 12.5 30.8 13.1 L30.95 12.95 31.85 13.05 Q32.25 13.05 32.6 13.55 33.15 14.4 32.3 15.15 32.55 15.95 31.9 16.25 31.2 16.55 30.75 15.85 30.35 15.2 30.95 14.85 L30.9 14.8 30.75 14.2 30.45 14.3 30.3 14.35 29.95 14.9 Q29.45 15.25 29.05 14.7 28.8 14.3 29.05 14.0 L28.85 13.8 Q28.4 13.2 28.95 12.8 L28.75 12.6 Q28.35 12.1 28.9 11.85 L29.1 11.8 28.75 11.5 Q28.35 10.9 28.85 10.5 29.4 10.05 29.8 10.65 30.2 11.2 29.7 11.65 L29.55 11.75 29.8 11.9 M27.95 12.0 Q28.2 12.65 27.7 12.85 L27.6 12.9 27.75 13.15 Q28.05 13.7 27.45 14.0 26.9 14.3 26.6 13.75 26.3 13.15 26.9 12.9 L27.1 12.85 26.8 12.55 Q26.4 12.05 27.05 11.75 27.7 11.4 27.95 12.0 M26.9 14.85 Q26.65 14.45 27.0 14.2 27.35 13.95 27.5 14.35 27.7 14.75 27.45 15.0 27.15 15.2 26.9 14.85 M26.75 16.4 Q26.5 15.95 27.0 15.7 27.45 15.45 27.7 15.9 27.95 16.35 27.5 16.6 27.05 16.85 26.75 16.4 M25.55 16.7 Q26.05 17.35 25.05 17.9 L23.95 18.0 23.45 18.5 Q22.65 19.0 22.15 18.3 21.65 17.6 22.45 17.05 L23.5 17.0 Q23.6 16.6 24.15 16.4 L24.65 16.3 24.8 15.95 Q25.1 15.65 25.35 16.1 L25.45 16.6 25.55 16.7 M26.85 17.95 Q26.6 17.6 27.05 17.35 27.45 17.15 27.6 17.5 27.8 17.85 27.45 18.05 L26.85 17.95 M29.9 16.9 Q30.15 17.4 29.75 17.7 29.4 17.95 29.15 17.55 29.0 17.2 29.2 16.95 L28.75 16.6 Q28.4 15.95 29.05 15.45 29.7 14.9 30.05 15.55 30.45 16.2 29.75 16.7 L29.9 16.9 M24.1 19.5 Q23.55 18.8 24.25 18.4 24.95 18.0 25.35 18.65 25.75 19.3 25.2 19.7 24.6 20.15 24.1 19.5 M23.25 20.35 Q22.45 20.6 22.0 20.0 21.5 19.35 22.15 18.9 22.8 18.5 23.4 19.25 24.0 20.05 23.25 20.35 M25.1 21.1 L25.15 21.55 25.75 22.05 Q26.45 22.9 25.7 23.25 L25.25 23.35 24.9 23.65 Q24.2 24.1 23.8 23.3 23.45 22.5 24.15 22.0 24.15 21.7 24.45 21.55 24.25 21.25 24.55 21.0 24.85 20.75 25.1 21.1 M22.3 20.75 Q22.6 20.5 22.85 20.95 23.15 21.4 22.7 21.6 22.3 21.8 22.15 21.4 21.95 20.95 22.3 20.75 M21.95 21.75 Q22.5 21.45 22.8 22.0 L22.9 22.2 Q23.15 22.75 22.75 23.25 22.3 23.7 22.0 23.15 L21.9 22.95 21.8 22.75 Q21.4 22.05 21.95 21.75 M30.1 19.2 Q30.45 19.7 29.95 20.1 29.75 20.3 29.55 20.3 29.85 20.7 29.35 21.1 28.85 21.55 28.6 21.0 28.4 20.5 28.8 20.2 L29.15 20.1 29.1 20.05 Q28.7 19.55 29.2 19.1 29.7 18.65 30.1 19.2 M28.05 21.45 Q28.4 22.3 27.6 22.85 L27.85 23.0 28.15 22.7 28.5 22.55 Q28.45 22.2 28.85 21.85 29.55 21.35 30.15 22.05 30.75 22.7 29.95 23.2 L29.4 23.45 29.45 24.2 Q29.9 24.05 30.25 24.6 L30.4 24.85 30.6 24.65 Q31.3 24.1 31.95 24.9 32.6 25.65 31.9 26.0 31.15 26.35 30.55 25.75 L30.3 25.45 Q30.2 25.5 30.05 25.6 29.4 25.9 28.9 25.3 28.65 24.95 28.8 24.7 L28.0 24.05 27.8 24.25 Q28.15 24.95 27.55 25.4 26.9 25.9 26.45 25.2 26.05 24.6 26.55 24.2 26.2 23.6 26.8 23.15 L26.2 22.6 Q25.8 21.8 26.45 21.2 26.4 20.8 26.9 20.35 L26.6 20.05 Q26.0 19.3 27.0 18.8 27.95 18.35 28.35 19.15 28.7 19.95 27.95 20.35 L27.9 20.4 27.95 20.55 Q28.2 21.1 28.05 21.45 M25.55 24.7 Q25.9 25.3 25.25 25.75 24.6 26.2 24.35 25.55 24.15 24.85 24.65 24.5 25.2 24.1 25.55 24.7 M37.7 16.9 Q37.4 16.35 38.0 15.9 38.55 15.4 38.9 16.0 39.15 16.45 38.85 16.85 39.1 17.5 38.6 17.95 38.05 18.4 37.7 17.75 37.5 17.25 37.7 16.9 M32.75 16.95 Q32.9 16.7 33.25 16.6 L33.0 16.3 Q32.7 15.8 33.2 15.3 33.7 14.8 34.15 15.6 34.5 16.2 34.25 16.45 L34.95 16.9 Q35.45 17.6 34.35 18.25 33.25 18.85 32.75 17.9 L32.35 18.2 Q31.45 18.75 30.85 18.0 30.3 17.2 31.2 16.6 32.05 16.0 32.65 16.85 L32.75 16.95 M31.15 18.95 Q31.75 18.55 32.3 19.25 32.85 19.95 32.15 20.25 L31.9 20.35 32.05 20.55 Q32.5 21.35 31.75 21.75 L31.55 21.85 31.85 22.15 32.0 22.6 Q32.25 23.25 31.8 23.8 31.3 24.35 30.95 23.65 30.65 23.1 30.95 22.65 30.75 22.15 31.15 21.9 L31.25 21.85 Q30.85 21.85 30.65 21.35 30.4 20.6 30.95 20.2 L31.15 20.1 31.0 19.9 Q30.55 19.35 31.15 18.95 M39.05 21.2 Q39.25 21.5 38.9 21.8 L39.15 22.0 Q39.65 22.55 39.0 22.95 L38.9 23.05 38.75 23.25 Q38.45 23.45 38.2 23.05 L37.9 22.8 Q37.5 22.3 38.05 21.85 L38.3 21.75 Q38.15 21.35 38.45 21.15 L39.05 21.2 M36.25 22.95 Q36.65 23.3 36.15 23.7 L35.4 23.65 Q35.15 23.25 35.5 22.9 L36.25 22.95 M36.3 24.2 Q36.65 24.75 36.1 25.15 35.6 25.55 35.25 24.95 34.85 24.4 35.45 24.05 36.0 23.65 36.3 24.2 M39.35 24.45 Q39.8 25.25 39.1 25.55 38.45 25.9 37.9 25.25 37.4 24.6 38.15 24.15 38.9 23.7 39.35 24.45 M20.15 0.8 L20.1 0.8 20.15 1.45 20.45 1.35 20.2 1.0 20.15 0.8 M14.6 7.2 L14.65 7.25 Q14.95 7.8 14.65 8.15 15.05 8.75 14.4 9.05 L13.75 9.2 13.65 9.75 14.25 10.2 Q14.9 10.95 14.15 11.3 13.35 11.65 12.8 10.95 12.3 10.4 12.75 10.0 L12.4 9.7 Q11.9 9.1 12.65 8.7 L12.95 8.6 Q12.85 8.25 13.25 7.85 L13.25 7.5 12.95 7.15 Q12.65 6.45 13.25 6.1 13.9 5.75 14.45 6.45 14.85 6.9 14.6 7.2 M12.3 7.05 Q12.55 7.45 12.4 7.8 12.65 8.45 12.1 9.0 12.35 9.6 11.75 9.9 11.2 10.2 10.9 9.65 10.75 9.3 10.95 9.05 L10.75 8.75 Q10.45 8.1 10.9 7.7 10.65 7.25 11.05 6.95 10.95 6.5 11.4 6.25 L12.2 6.35 12.2 6.9 12.3 7.05 M11.8 11.7 Q12.2 12.25 11.55 12.75 L10.35 12.65 Q9.8 12.0 10.55 11.6 10.85 11.45 11.1 11.45 L11.0 11.3 Q10.6 10.8 11.1 10.4 11.55 10.0 11.95 10.55 12.3 11.05 11.85 11.45 L11.65 11.6 11.8 11.7 M14.05 12.25 Q14.3 12.7 14.0 13.1 14.25 13.4 14.1 13.7 L14.3 13.95 Q14.7 14.5 14.1 15.0 L14.0 15.1 14.3 15.6 Q14.6 16.55 13.8 16.9 13.0 17.25 12.45 16.4 11.95 15.55 12.95 15.1 L13.3 15.0 13.15 14.75 13.05 14.3 Q12.7 14.3 12.5 13.95 12.25 13.45 12.65 13.05 L12.5 12.9 Q11.85 12.15 12.8 11.9 13.75 11.65 14.05 12.25 M15.15 8.85 Q14.65 8.4 15.25 8.0 15.5 7.85 15.7 7.8 L15.8 7.55 15.8 7.5 Q15.5 7.1 15.9 6.9 L16.55 7.0 16.65 7.4 16.85 7.7 Q17.15 8.3 16.65 8.5 L16.35 8.6 16.25 8.9 Q16.7 9.45 16.3 9.85 L16.35 9.95 Q16.8 10.6 16.15 11.0 15.45 11.4 15.05 10.8 14.75 10.2 15.2 9.8 L15.15 9.75 Q14.8 9.3 15.15 8.85 M16.25 12.35 L16.4 12.6 16.9 13.0 Q17.3 13.55 16.95 14.0 17.2 14.6 16.45 15.15 L16.35 15.25 16.55 15.55 Q17.0 16.45 16.3 16.7 15.6 16.95 15.3 16.35 15.0 15.85 15.45 15.35 L15.05 14.8 Q14.65 13.75 15.25 13.3 L14.95 13.05 Q14.45 12.5 15.2 12.1 15.9 11.75 16.25 12.35 M1.05 4.15 L1.05 4.05 1.0 4.1 1.05 4.15 M0.5 7.1 L0.8 7.4 Q1.25 8.1 0.55 8.5 L0.4 8.6 0.45 8.7 0.55 8.95 1.05 9.2 Q1.45 9.7 0.85 10.05 L0.65 10.15 Q0.9 10.5 0.45 10.75 0.05 11.0 -0.2 10.6 -0.4 10.25 -0.05 10.05 L-0.2 9.85 -0.3 9.35 -0.45 9.15 Q-0.65 8.7 -0.25 8.55 L-0.55 8.2 Q-0.95 7.6 -0.45 7.25 L-0.5 7.2 Q-0.9 6.8 -0.35 6.4 0.15 6.0 0.4 6.6 L0.5 7.1 M1.2 11.85 Q1.4 12.4 1.05 12.7 1.4 13.35 0.8 13.85 L1.15 14.25 Q1.45 14.9 1.0 15.3 L0.8 15.45 0.85 15.55 Q1.2 16.15 0.6 16.5 0.0 16.85 -0.35 16.2 -0.75 15.6 -0.1 15.3 L0.3 15.2 0.15 15.0 Q-0.2 14.55 0.05 14.2 -0.5 14.2 -0.85 13.55 -1.3 12.65 -0.4 12.2 L-0.2 12.1 0.25 11.55 Q0.9 11.2 1.2 11.85 M3.7 10.9 Q3.4 10.55 3.8 10.3 4.2 10.05 4.55 10.45 4.9 10.9 4.45 11.1 4.05 11.25 3.7 10.9 M2.8 11.95 L2.95 12.55 3.4 13.0 Q3.9 13.75 3.25 14.0 L3.3 14.1 Q3.65 14.7 3.05 15.1 L2.85 15.25 3.1 15.5 Q3.5 16.15 2.8 16.65 2.15 17.15 1.8 16.55 1.45 15.9 2.1 15.4 L2.35 15.25 2.0 14.9 Q1.6 14.35 2.15 13.95 L1.75 13.6 Q1.45 13.2 1.65 12.95 L1.5 12.8 Q1.0 12.25 1.7 11.85 L2.8 11.95 M8.6 7.45 L8.45 7.3 8.4 7.25 8.3 7.45 8.35 7.6 8.5 7.5 8.6 7.45 M8.6 11.4 Q8.35 10.95 8.8 10.7 9.25 10.5 9.55 10.9 9.8 11.25 9.5 11.5 L10.05 12.05 Q10.4 12.9 9.7 13.25 L9.85 13.45 9.95 13.75 Q10.1 14.3 9.7 14.65 L9.6 14.75 10.0 15.2 Q10.5 16.15 9.6 16.65 L9.3 16.8 Q9.8 16.7 10.05 17.2 10.35 17.9 9.7 18.3 9.0 18.7 8.6 18.05 8.15 17.4 8.9 16.95 L9.2 16.85 Q8.5 16.95 8.1 16.25 7.55 15.3 8.55 14.8 L9.0 14.65 8.9 14.55 8.5 14.15 Q8.2 13.55 8.75 13.2 L8.35 12.85 Q7.8 12.1 8.75 11.65 L8.8 11.65 8.6 11.4 M7.15 13.4 Q7.35 13.4 7.6 13.65 8.0 14.15 7.45 14.55 L6.8 14.6 Q6.45 14.7 6.25 14.25 5.9 13.6 6.4 13.25 6.8 13.0 7.15 13.4 M5.2 12.8 L5.45 13.05 Q5.9 13.6 5.3 14.0 5.55 14.4 5.15 14.7 4.75 15.0 4.55 14.55 L4.5 14.3 4.0 13.95 Q3.85 13.6 4.0 13.3 L3.65 13.0 Q3.05 12.3 3.95 12.1 4.85 11.9 5.1 12.45 L5.2 12.8 M7.25 15.25 Q7.7 16.05 7.05 16.25 6.4 16.5 6.1 15.95 5.8 15.45 6.3 14.95 6.8 14.45 7.25 15.25 M5.1 16.7 Q5.35 16.65 5.55 16.9 5.85 17.35 5.4 17.6 L4.65 17.5 Q4.45 17.15 4.7 16.9 4.25 16.95 3.95 16.5 3.6 15.95 4.3 15.6 4.95 15.3 5.15 15.95 5.35 16.4 5.1 16.7 M6.55 16.55 Q7.6 16.2 8.15 16.9 8.65 17.6 7.55 18.25 6.45 18.85 5.95 17.9 5.45 16.9 6.55 16.55 M0.7 18.1 Q0.2 18.4 -0.15 17.95 -0.5 17.45 0.1 17.1 0.7 16.8 0.95 17.3 1.15 17.8 0.7 18.1 M2.3 17.05 Q2.85 16.55 3.2 17.25 3.5 17.95 3.0 18.4 2.45 18.85 2.1 18.2 1.8 17.55 2.3 17.05 M4.9 19.4 Q5.35 20.0 4.9 20.2 L5.15 20.55 Q5.6 21.25 4.9 21.6 L4.6 21.7 4.95 22.1 5.1 22.75 5.25 22.95 Q5.45 23.4 5.15 23.75 L4.6 23.7 4.55 23.4 Q4.1 23.55 3.75 22.9 3.3 22.05 3.95 21.7 L4.25 21.65 3.95 21.25 Q3.75 20.65 4.1 20.3 L3.7 20.0 Q3.3 19.45 3.85 19.1 4.4 18.75 4.9 19.4 M3.05 20.65 Q3.45 21.15 2.8 21.7 L2.7 21.8 3.0 22.05 Q3.55 22.7 2.9 23.15 3.0 23.55 2.7 23.75 2.35 24.05 2.0 23.45 L1.85 23.25 1.65 23.0 Q1.2 22.4 1.8 21.9 L2.0 21.8 1.85 21.55 Q1.65 21.15 1.85 20.85 L1.25 20.45 Q0.7 19.7 1.45 19.0 2.25 18.3 2.8 19.1 3.3 19.8 2.75 20.4 L3.05 20.65 M0.5 20.05 Q0.0 20.3 -0.35 19.85 -0.75 19.35 -0.1 19.05 0.55 18.75 0.8 19.25 1.05 19.75 0.5 20.05 M0.55 21.65 L0.15 21.75 0.25 21.95 Q0.5 22.5 -0.05 22.9 -0.6 23.25 -0.85 22.7 -1.1 22.15 -0.55 21.8 L-0.2 21.65 -0.4 21.45 Q-0.75 20.9 -0.15 20.4 0.45 19.9 0.75 20.6 1.1 21.3 0.55 21.65 M1.25 24.1 L1.3 24.2 1.6 23.95 Q2.25 23.55 2.7 24.25 3.1 24.95 2.5 25.25 1.85 25.55 1.35 24.95 L1.0 25.3 Q0.35 25.8 -0.15 25.05 -0.6 24.35 0.15 23.85 0.85 23.4 1.25 24.1 M8.85 19.25 Q9.4 18.95 9.6 19.45 9.85 19.9 9.4 20.15 L9.7 20.55 Q10.05 21.35 9.5 21.7 L9.7 22.0 9.75 22.65 Q10.15 23.1 9.55 23.55 8.95 24.05 8.6 23.55 8.35 23.2 8.45 22.9 L8.45 22.85 Q8.15 22.25 8.75 21.8 L8.8 21.8 8.4 21.45 Q8.0 20.9 8.65 20.35 L8.9 20.2 8.6 19.95 Q8.25 19.55 8.85 19.25 M6.55 19.4 Q6.2 19.0 6.65 18.75 7.1 18.45 7.35 18.9 7.6 19.3 7.25 19.55 L6.55 19.4 M6.35 21.6 Q5.95 20.95 6.5 20.55 7.05 20.1 7.45 20.75 7.8 21.35 7.45 21.75 L7.6 21.95 Q8.1 22.6 7.75 22.9 8.05 23.75 7.35 24.25 L7.65 24.55 Q8.05 25.25 7.3 25.75 6.55 26.3 6.25 25.5 6.05 24.85 6.45 24.45 L6.0 23.85 Q5.55 22.9 6.4 22.35 6.15 21.9 6.4 21.65 L6.35 21.6 M5.3 24.3 Q5.9 25.05 5.2 25.35 4.5 25.7 3.9 25.15 3.3 24.55 4.0 24.05 4.65 23.55 5.3 24.3 M16.65 18.2 Q16.0 18.5 15.65 17.9 15.35 17.25 16.05 17.0 16.7 16.8 17.05 17.15 L17.25 17.0 Q18.35 16.35 18.75 17.3 19.2 18.25 18.3 18.8 L18.25 18.85 Q18.8 18.85 19.1 19.45 19.45 20.2 18.95 20.7 L19.1 20.95 Q19.45 21.75 18.85 22.1 L18.6 22.2 18.25 22.95 Q18.4 23.3 18.05 23.6 L18.45 23.95 Q18.8 24.65 18.2 25.1 17.55 25.6 17.1 24.9 16.65 24.2 17.35 23.8 L17.15 23.6 Q16.95 23.3 17.1 23.05 L16.9 23.15 16.35 23.25 16.4 23.95 16.75 24.35 Q17.25 25.2 16.3 25.9 L16.1 26.05 16.55 26.5 Q17.0 27.3 16.3 27.85 15.65 28.45 15.0 27.65 L14.9 27.45 14.65 27.65 Q13.9 28.3 13.5 27.45 13.05 26.6 13.75 26.15 14.5 25.7 14.95 26.35 L15.0 26.45 15.25 26.25 15.45 26.15 14.95 25.55 14.85 25.1 14.4 25.5 Q13.55 25.95 12.8 25.2 12.05 24.5 12.9 23.9 L13.15 23.75 13.1 23.7 13.0 23.05 12.7 22.65 Q12.35 21.95 12.7 21.6 L12.6 21.4 Q12.25 20.5 12.95 20.05 L13.3 19.9 13.25 19.85 Q12.95 19.4 13.25 19.1 L12.9 18.8 12.75 18.45 12.4 18.8 Q11.6 19.45 11.15 18.5 10.75 17.7 11.2 17.1 L10.75 16.75 Q10.4 16.1 11.05 15.6 L11.25 15.45 10.9 15.1 Q10.6 14.65 10.8 14.3 L10.6 14.1 Q10.1 13.45 10.9 13.1 11.7 12.7 12.25 13.5 12.6 14.05 12.35 14.3 12.65 14.95 12.05 15.35 L11.85 15.45 12.05 15.7 Q12.35 16.15 12.05 16.6 L12.7 17.15 12.9 17.85 13.2 17.55 Q14.0 17.0 14.5 17.75 15.0 18.55 14.2 19.0 L14.45 19.25 Q14.95 19.9 14.3 20.1 L14.0 20.2 14.2 20.45 Q14.75 21.4 13.9 21.85 L14.05 22.5 14.1 22.65 Q14.4 23.25 14.0 23.75 L14.5 24.2 14.85 24.8 15.05 24.45 14.85 24.15 Q14.5 23.3 15.25 22.8 L15.55 22.65 Q15.1 22.0 15.35 21.65 15.05 21.1 15.55 20.75 16.1 20.3 16.5 20.95 L16.65 21.7 16.9 21.95 17.0 22.05 17.4 21.6 17.65 21.45 17.75 21.1 Q17.3 21.0 16.95 20.55 16.65 20.2 16.7 19.9 L16.4 20.2 Q15.8 20.65 15.25 19.95 14.75 19.25 15.45 18.8 16.15 18.4 16.6 19.05 L16.75 19.6 17.4 19.05 17.55 19.0 16.8 18.45 16.65 18.2 M18.15 16.25 Q17.9 15.8 18.35 15.55 18.8 15.35 19.0 15.75 19.25 16.15 18.8 16.4 18.4 16.65 18.15 16.25 M10.2 20.2 Q9.75 19.55 10.4 19.0 L11.5 19.05 Q11.95 19.75 11.3 20.25 L10.2 20.2 M10.85 21.55 Q10.55 20.85 11.15 20.45 11.7 20.05 12.1 20.55 12.55 21.1 11.85 21.65 L11.65 21.85 11.8 22.0 12.05 22.6 12.15 22.75 Q12.5 23.5 12.05 23.85 11.55 24.2 11.1 23.5 L11.05 23.4 10.35 23.0 Q9.85 22.35 10.5 21.8 10.7 21.65 10.9 21.65 L10.85 21.55 M12.2 24.6 Q12.55 25.2 12.0 25.45 11.45 25.7 11.05 25.2 10.65 24.7 11.25 24.35 11.8 24.0 12.2 24.6 M20.2 23.0 Q20.45 23.4 20.15 23.65 19.85 23.85 19.6 23.4 19.3 22.95 19.65 22.75 20.0 22.55 20.2 23.0 M10.35 24.3 Q10.75 25.05 10.05 25.55 L9.6 25.8 9.75 26.0 Q10.1 26.6 9.6 27.05 9.05 27.5 8.75 26.85 8.4 26.2 8.9 25.8 L9.2 25.65 8.9 25.35 Q8.4 24.55 9.15 24.05 9.9 23.55 10.35 24.3 M19.75 25.55 Q19.45 25.05 20.05 24.7 20.75 24.25 21.2 25.0 21.65 25.75 21.0 26.05 L20.85 26.15 Q21.45 27.2 20.55 27.7 19.65 28.15 19.3 27.15 19.0 26.15 19.65 25.6 L19.75 25.55 M18.25 27.85 L18.8 28.2 Q19.25 28.85 18.6 29.3 L19.05 29.65 Q19.45 30.35 18.8 30.85 18.1 31.3 17.55 30.6 17.05 29.9 17.85 29.45 L17.9 29.45 17.5 29.05 Q17.15 28.45 17.75 28.0 L17.8 28.0 17.35 27.6 Q17.0 26.9 17.55 26.5 18.05 26.05 18.45 26.7 18.8 27.3 18.25 27.8 L18.25 27.85 M15.3 30.4 Q15.0 30.0 15.45 29.65 L15.35 29.5 Q14.95 28.7 15.65 28.25 16.4 27.85 16.8 28.65 17.25 29.45 16.6 29.85 16.7 30.25 16.25 30.5 L15.3 30.4 M19.95 29.55 Q20.85 29.15 21.25 29.95 21.55 30.55 21.3 31.05 L21.35 31.1 Q22.05 32.15 21.05 32.65 L21.2 32.85 Q21.55 33.5 20.95 33.9 20.3 34.3 19.85 33.55 19.55 32.95 19.9 32.65 L19.55 32.25 Q19.15 31.45 19.65 30.9 19.1 30.0 19.95 29.55 M20.1 28.2 Q20.55 27.85 20.95 28.4 21.35 28.9 20.85 29.2 20.4 29.45 20.0 28.95 19.6 28.5 20.1 28.2 M12.5 26.6 Q13.05 27.55 12.25 27.95 11.45 28.4 11.15 27.5 10.85 26.6 11.45 26.1 12.0 25.65 12.5 26.6 M11.0 29.4 Q10.5 28.85 11.1 28.5 11.65 28.1 12.1 28.75 12.6 29.35 12.0 29.7 11.45 30.0 11.0 29.4 M12.3 30.45 Q12.55 30.9 12.2 31.25 11.85 31.55 11.45 31.0 11.1 30.45 11.6 30.25 12.1 30.0 12.3 30.45 M14.85 30.05 Q15.5 30.9 14.6 31.3 L14.15 31.4 14.45 31.7 14.6 32.15 14.85 32.35 Q15.4 32.9 14.6 33.3 L13.35 33.2 13.2 32.7 13.15 32.6 Q12.75 31.85 13.4 31.5 L13.8 31.35 13.2 30.8 Q12.65 29.95 13.45 29.55 14.25 29.2 14.85 30.05 M13.1 28.9 Q12.85 28.5 13.35 28.25 13.85 27.95 14.05 28.35 14.3 28.7 13.8 29.0 L13.1 28.9 M10.9 32.3 Q10.6 31.8 11.0 31.5 11.45 31.15 11.8 31.7 12.2 32.25 11.7 32.55 11.15 32.8 10.9 32.3 M18.15 33.7 Q17.9 33.35 18.25 33.1 L18.9 33.2 Q19.15 33.6 18.8 33.85 18.45 34.1 18.15 33.7 M18.3 31.95 Q17.95 32.25 17.7 31.85 17.45 31.4 17.85 31.15 L18.45 31.25 Q18.65 31.65 18.3 31.95 M15.25 33.3 Q14.9 32.7 15.45 32.4 16.05 32.1 16.3 32.65 16.6 33.2 16.1 33.5 15.6 33.85 15.25 33.3 M16.15 32.05 Q15.5 32.45 15.1 31.9 14.75 31.35 15.4 31.0 16.0 30.6 16.4 31.15 16.75 31.65 16.15 32.05 M6.4 27.4 Q5.95 26.8 6.6 26.4 7.25 25.95 7.55 26.55 7.85 27.15 7.35 27.55 6.85 28.0 6.4 27.4 M6.35 28.85 Q6.1 28.3 6.6 28.0 7.05 27.7 7.35 28.3 7.65 28.85 7.15 29.1 6.65 29.4 6.35 28.85 M5.1 29.3 L5.0 29.35 5.4 29.75 Q5.9 30.45 5.2 30.75 4.45 31.05 4.05 30.35 3.65 29.7 4.15 29.4 L3.9 29.15 Q3.5 28.55 4.15 28.1 L3.8 27.65 Q3.25 26.6 4.15 26.1 5.0 25.55 5.55 26.35 6.1 27.2 5.25 27.9 L5.5 28.15 Q5.9 28.8 5.1 29.3 M6.55 29.65 Q7.25 29.2 7.6 29.8 7.9 30.4 7.25 30.75 L6.25 30.65 Q5.85 30.15 6.55 29.65 M9.2 28.9 Q8.7 29.15 8.5 28.75 8.25 28.3 8.65 28.0 9.0 27.7 9.35 28.15 9.7 28.6 9.2 28.9 M8.25 30.55 Q7.7 29.8 8.5 29.3 9.35 28.8 9.8 29.55 10.15 30.2 9.7 30.6 L10.05 30.95 Q10.5 31.65 9.8 32.25 9.05 32.85 8.6 32.05 8.2 31.35 8.7 30.9 L8.25 30.55 M3.3 27.75 L3.35 27.8 Q4.0 28.7 3.2 29.15 2.4 29.6 1.75 28.8 1.1 27.95 1.9 27.45 L2.05 27.4 Q1.8 26.6 2.3 26.2 2.85 25.8 3.3 26.65 3.65 27.35 3.3 27.75 M0.65 27.25 L1.05 27.65 Q1.75 28.6 0.7 29.25 L0.4 29.4 0.7 29.7 Q1.05 30.35 0.5 30.75 -0.1 31.15 -0.6 30.55 -1.05 29.95 -0.35 29.5 L-0.25 29.45 -0.8 28.9 Q-1.2 28.15 -0.7 27.55 L-0.8 27.4 Q-1.25 26.6 -0.6 26.05 0.05 25.55 0.5 26.3 0.8 26.8 0.65 27.25 M2.0 29.55 Q2.7 29.2 3.0 29.85 3.35 30.5 2.85 30.95 L2.75 31.05 3.1 31.45 Q3.65 32.3 2.9 32.7 2.1 33.15 1.7 32.4 1.3 31.65 1.9 31.15 L2.15 31.05 1.8 30.65 Q1.25 29.85 2.0 29.55 M4.75 32.45 Q4.25 32.85 3.95 32.3 3.65 31.75 4.15 31.5 4.65 31.25 4.9 31.65 5.2 32.05 4.75 32.45 M6.25 31.75 Q5.95 31.35 6.4 31.1 6.9 30.8 7.15 31.2 7.45 31.6 7.0 31.9 6.5 32.2 6.25 31.75 M39.2 26.65 Q39.6 27.4 39.0 27.8 39.45 27.8 39.8 28.3 40.45 29.2 39.65 29.65 L38.9 29.8 Q39.1 30.2 38.75 30.55 38.4 30.85 38.0 30.3 37.65 29.75 38.15 29.55 L38.35 29.5 38.2 29.3 Q37.55 28.45 38.35 27.95 L38.45 27.9 38.05 27.4 Q37.8 26.65 38.3 26.25 38.8 25.85 39.2 26.65 M35.8 27.25 Q35.5 26.65 35.95 26.25 36.4 25.9 36.7 26.45 37.05 27.0 36.55 27.4 36.1 27.85 35.8 27.25 M35.85 30.6 Q35.6 30.15 35.8 29.85 L35.55 29.55 Q35.15 28.75 35.85 28.15 36.55 27.6 37.2 28.45 37.7 29.15 37.2 29.6 L37.3 29.75 Q37.7 30.4 37.05 30.85 L36.85 31.0 Q37.15 31.6 36.5 32.15 35.8 32.7 35.4 31.95 34.95 31.2 35.65 30.7 L35.85 30.6 M33.3 25.8 Q33.05 25.1 33.6 24.7 34.2 24.3 34.55 24.95 34.9 25.55 34.2 26.05 33.55 26.5 33.3 25.8 M33.6 27.45 Q33.1 26.85 33.75 26.4 34.45 25.95 34.75 26.6 35.1 27.2 34.6 27.65 34.05 28.1 33.6 27.45 M32.4 26.8 Q32.75 27.4 32.15 27.9 L32.45 28.2 Q32.8 28.8 32.2 29.35 L32.55 29.7 Q33.0 30.3 32.35 30.6 31.7 30.85 31.3 30.25 L31.15 29.75 30.6 29.3 Q30.15 28.6 31.1 28.05 L31.3 27.95 31.15 27.7 Q30.8 27.0 31.4 26.6 32.0 26.25 32.4 26.8 M33.25 30.9 Q32.85 30.4 33.55 29.9 L33.7 29.85 33.35 29.45 Q32.95 28.75 33.65 28.35 34.3 27.95 34.7 28.7 35.1 29.45 34.45 29.8 L34.4 29.85 34.6 30.05 Q34.9 30.65 34.25 31.0 L34.2 31.05 34.25 31.1 Q34.65 31.65 34.0 32.1 L33.7 32.25 Q34.0 32.3 34.2 32.65 34.5 33.3 33.9 33.7 33.3 34.05 32.85 33.4 32.4 32.7 33.15 32.35 L33.45 32.25 32.95 31.9 Q32.55 31.35 33.2 30.95 L33.3 30.95 33.25 30.9 M31.2 33.4 Q30.95 33.0 31.4 32.7 L32.25 32.8 Q32.6 33.2 32.05 33.5 L31.2 33.4 M31.65 31.75 Q31.25 32.15 30.95 31.65 30.65 31.1 31.1 30.85 31.6 30.6 31.85 31.0 32.1 31.4 31.65 31.75 M39.25 32.45 Q39.7 33.35 38.85 33.9 38.0 34.45 37.45 33.4 36.95 32.55 37.6 32.15 L37.2 31.85 Q37.0 31.45 37.35 31.2 37.65 30.9 38.0 31.35 38.25 31.7 38.05 31.95 38.8 31.7 39.25 32.45 M36.75 32.85 Q37.15 33.5 36.55 33.9 35.95 34.3 35.5 33.7 35.0 33.05 35.65 32.65 36.3 32.2 36.75 32.85 M29.5 27.1 Q29.35 26.6 29.65 26.35 30.0 26.1 30.3 26.6 30.55 27.15 30.1 27.4 29.7 27.65 29.5 27.1 M26.7 27.35 Q26.4 26.75 26.85 26.35 27.35 25.95 27.7 26.55 28.05 27.1 27.55 27.55 27.05 28.0 26.7 27.35 M27.75 28.7 Q28.2 29.35 27.6 29.75 L27.85 30.05 Q28.25 30.7 27.6 31.15 L27.65 31.2 Q28.05 31.85 27.55 32.5 L28.05 32.85 Q28.45 33.5 27.85 33.9 27.25 34.3 26.8 33.7 26.5 33.3 26.65 33.0 26.25 32.95 26.0 32.45 25.75 32.05 25.85 31.7 L25.4 32.15 Q24.75 32.55 24.3 31.95 23.95 31.4 24.5 31.05 L24.4 30.95 Q24.0 30.45 24.7 29.95 L25.05 29.8 24.75 29.45 Q24.35 28.75 25.0 28.35 25.65 28.0 26.05 28.7 26.4 29.45 25.75 29.75 L25.55 29.85 25.75 30.1 Q26.0 30.65 25.55 31.0 L25.7 31.15 25.85 31.6 26.3 31.0 26.45 30.95 Q25.95 30.25 26.7 29.8 L26.75 29.8 26.55 29.55 Q26.2 28.95 26.75 28.5 27.3 28.1 27.75 28.7 M29.0 30.15 Q28.55 29.5 29.2 29.2 29.8 28.9 30.1 29.45 30.35 30.05 29.95 30.45 29.5 30.85 29.0 30.15 M29.95 28.95 Q29.5 29.2 29.15 28.75 28.75 28.3 29.2 28.0 29.65 27.7 30.05 28.2 30.4 28.7 29.95 28.95 M25.4 27.95 Q24.85 28.45 24.35 27.75 23.8 27.1 24.55 26.6 25.25 26.15 25.6 26.8 26.0 27.5 25.4 27.95 M23.2 25.55 L22.5 25.4 Q22.15 25.1 22.55 24.85 22.9 24.55 23.25 24.95 23.6 25.35 23.2 25.55 M23.1 27.8 L23.15 27.9 Q23.45 28.45 22.75 28.9 22.1 29.3 21.75 28.75 21.4 28.2 22.1 27.8 L22.2 27.75 22.05 27.55 Q21.65 26.75 22.3 26.35 22.95 25.95 23.4 26.55 23.8 27.2 23.15 27.75 L23.1 27.8 M22.0 30.45 Q21.55 29.7 22.25 29.4 22.95 29.05 23.45 29.8 23.95 30.55 23.2 30.85 L22.85 30.95 23.2 31.25 Q23.55 31.8 22.95 32.3 L22.7 32.5 23.25 32.8 Q23.75 33.3 23.05 33.7 L21.9 33.55 Q21.55 33.05 22.15 32.65 L22.4 32.55 21.95 32.15 Q21.55 31.4 22.2 31.05 L22.6 30.95 22.0 30.45 M24.2 33.45 Q23.8 32.85 24.45 32.5 25.05 32.15 25.35 32.75 25.65 33.35 25.15 33.7 24.6 34.1 24.2 33.45 M30.3 33.2 Q30.6 33.85 30.0 34.25 29.4 34.6 29.0 33.9 28.6 33.15 29.3 32.85 29.95 32.6 30.3 33.2 M29.65 32.3 Q28.95 32.7 28.55 32.0 28.2 31.3 28.75 30.85 29.3 30.4 29.85 31.15 30.35 31.9 29.65 32.3" fill="#ffcc00" fill-rule="evenodd" stroke="none"/>
    </g>
    <g id="sprite1" transform="matrix(1.0, 0.0, 0.0, 1.0, 245.45, 312.45)">
      <use height="325.25" transform="matrix(1.0, 0.0, 0.0, 1.0, -245.45, -312.45)" width="377.5" xlink:href="#shape1"/>
    </g>
    <g id="shape1" transform="matrix(1.0, 0.0, 0.0, 1.0, 245.45, 312.45)">
      <path d="M116.75 -33.0 Q126.4 -39.6 130.25 -32.9 134.05 -26.25 126.65 -15.75 119.15 -5.25 104.85 2.95 90.55 11.1 77.75 12.15 65.0 13.15 61.15 6.5 57.3 -0.2 67.15 -6.6 76.8 -13.1 91.9 -19.75 107.1 -26.45 116.75 -33.0" fill="url(#gradient0)" fill-rule="evenodd" stroke="none"/>
      <path d="M116.75 -33.0 Q126.4 -39.6 130.25 -32.9 134.05 -26.25 126.65 -15.75 119.15 -5.25 104.85 2.95 90.55 11.1 77.75 12.15 65.0 13.15 61.15 6.5 57.3 -0.2 67.15 -6.6 76.8 -13.1 91.9 -19.75 107.1 -26.45 116.75 -33.0 Z" fill="none" stroke="#000000" stroke-linecap="round" stroke-linejoin="round" stroke-width="1.0"/>
      <path d="M65.05 -7.0 L-244.95 -307.0 Q-238.3 -317.4 -228.0 -305.95 L74.0 -8.1 Q76.95 -0.15 65.05 -7.0" fill="url(#gradient1)" fill-rule="evenodd" stroke="none"/>
      <path d="M65.05 -7.0 L-244.95 -307.0 Q-238.3 -317.4 -228.0 -305.95 L74.0 -8.1 Q76.95 -0.15 65.05 -7.0 Z" fill="none" stroke="#000000" stroke-linecap="round" stroke-linejoin="round" stroke-width="1.0"/>
    </g>
    <radialGradient cx="0" cy="0" gradientTransform="matrix(0.0423, -0.0241, 0.0419, 0.0734, 95.65, -13.15)" gradientUnits="userSpaceOnUse" id="gradient0" r="819.2" spreadMethod="pad">
      <stop offset="0.0" stop-color="#f7f3f3"/>
      <stop offset="1.0" stop-color="#aa9e9e"/>
    </radialGradient>
    <radialGradient cx="0" cy="0" gradientTransform="matrix(0.2611, 0.0, 0.0, 0.2738, -85.5, -157.5)" gradientUnits="userSpaceOnUse" id="gradient1" r="819.2" spreadMethod="pad">
      <stop offset="0.0" stop-color="#f7f3f3"/>
      <stop offset="1.0" stop-color="#aa9e9e"/>
    </radialGradient>
  </defs>
</svg>
