<?xml version="1.0" encoding="UTF-8" standalone="no"?>
<svg xmlns:xlink="http://www.w3.org/1999/xlink" height="54.15px" width="31.1px" xmlns="http://www.w3.org/2000/svg">
  <g transform="matrix(1.0, 0.0, 0.0, 1.0, 6.05, 49.1)">
    <use height="54.15" transform="matrix(1.0, 0.0, 0.0, 1.0, -6.05, -49.1)" width="31.1" xlink:href="#shape0"/>
  </g>
  <defs>
    <g id="shape0" transform="matrix(1.0, 0.0, 0.0, 1.0, 6.05, 49.1)">
      <path d="M20.45 -37.15 Q25.0 -26.1 25.0 -17.0 25.0 -7.9 20.45 -1.45 15.9 5.0 9.5 5.0 3.1 5.0 -1.45 -1.45 -6.0 -7.9 -6.0 -17.0 -6.0 -26.1 -1.45 -37.9 3.1 -49.75 9.5 -49.0 15.9 -48.25 20.45 -37.15" fill="#0066ff" fill-rule="evenodd" stroke="none"/>
      <path d="M20.45 -37.15 Q25.0 -26.1 25.0 -17.0 25.0 -7.9 20.45 -1.45 15.9 5.0 9.5 5.0 3.1 5.0 -1.45 -1.45 -6.0 -7.9 -6.0 -17.0 -6.0 -26.1 -1.45 -37.9 3.1 -49.75 9.5 -49.0 15.9 -48.25 20.45 -37.15 Z" fill="none" stroke="#0033ff" stroke-linecap="round" stroke-linejoin="round" stroke-width="0.1"/>
    </g>
  </defs>
</svg>
