<?xml version="1.0" encoding="UTF-8" standalone="no"?>
<svg xmlns:xlink="http://www.w3.org/1999/xlink" height="104.1px" width="157.2px" xmlns="http://www.w3.org/2000/svg">
  <g transform="matrix(1.0, 0.0, 0.0, 1.0, 83.5, 0.05)">
    <use height="104.1" transform="matrix(1.0, 0.0, 0.0, 1.0, -83.5, -0.05)" width="147.05" xlink:href="#shape0"/>
    <use height="44.3" transform="matrix(1.0, 0.0, 0.0, 1.0, -63.45, 29.0)" width="137.15" xlink:href="#text0"/>
  </g>
  <defs>
    <g id="shape0" transform="matrix(1.0, 0.0, 0.0, 1.0, 83.5, 0.05)">
      <path d="M3.5 48.0 Q5.1 48.65 6.0 50.0 6.0 50.7 5.4 51.5 4.7 52.5 3.5 53.0 2.0 52.5 1.25 51.75 L1.0 50.25 Q1.0 49.7 1.9 48.95 2.75 48.2 3.5 48.0" fill="#ffffff" fill-rule="evenodd" stroke="none"/>
      <path d="M54.5 9.0 Q63.5 18.0 63.5 30.75 L63.5 73.25 Q63.5 86.0 54.5 95.0 45.5 104.0 32.75 104.0 L-52.7 104.0 Q-65.45 104.0 -74.45 95.0 -83.45 86.0 -83.45 73.25 L-83.45 30.75 Q-83.45 18.0 -74.45 9.0 -65.45 0.0 -52.7 0.0 L32.75 0.0 Q45.5 0.0 54.5 9.0" fill="url(#gradient0)" fill-rule="evenodd" stroke="none"/>
      <path d="M54.5 9.0 Q45.5 0.0 32.75 0.0 L-52.7 0.0 Q-65.45 0.0 -74.45 9.0 -83.45 18.0 -83.45 30.75 L-83.45 73.25 Q-83.45 86.0 -74.45 95.0 -65.45 104.0 -52.7 104.0 L32.75 104.0 Q45.5 104.0 54.5 95.0 63.5 86.0 63.5 73.25 L63.5 30.75 Q63.5 18.0 54.5 9.0 Z" fill="none" stroke="#3333cc" stroke-linecap="round" stroke-linejoin="round" stroke-width="0.1"/>
    </g>
    <linearGradient gradientTransform="matrix(0.0897, 0.0, 0.0, 0.0635, -10.0, 52.0)" gradientUnits="userSpaceOnUse" id="gradient0" spreadMethod="pad" x1="-819.2" x2="819.2">
      <stop offset="0.0" stop-color="#fcff3f"/>
      <stop offset="1.0" stop-color="#fff7fa"/>
    </linearGradient>
  </defs>
</svg>
