<?xml version="1.0" encoding="UTF-8" standalone="no"?>
<svg xmlns:xlink="http://www.w3.org/1999/xlink" height="177.55px" width="202.15px" xmlns="http://www.w3.org/2000/svg">
  <g transform="matrix(1.0, 0.0, 0.0, 1.0, 82.55, 78.15)">
    <use height="177.55" transform="matrix(1.0, 0.0, 0.0, 1.0, -82.55, -78.15)" width="198.0" xlink:href="#shape0"/>
    <use height="104.55" transform="matrix(0.2421, 0.0, 0.0, 0.1141, 41.2157, -4.1782)" width="11.25" xlink:href="#text0"/>
    <use height="104.55" transform="matrix(0.2421, 0.0, 0.0, 0.1141, 52.3157, -4.0782)" width="11.25" xlink:href="#text1"/>
    <use height="104.55" transform="matrix(0.2421, 0.0, 0.0, 0.1141, 64.3157, -4.0782)" width="11.25" xlink:href="#text2"/>
    <use height="104.55" transform="matrix(0.2421, 0.0, 0.0, 0.1141, 75.3157, -4.0782)" width="11.25" xlink:href="#text3"/>
    <use height="104.55" transform="matrix(0.2421, 0.0, 0.0, 0.1141, 87.3157, -4.0782)" width="11.25" xlink:href="#text4"/>
    <use height="82.05" transform="matrix(1.0, 0.0, 0.0, 1.0, -71.35, -11.5)" width="181.8" xlink:href="#shape1"/>
    <clipPath id="clipPath0" transform="matrix(1.0, 0.0, 0.0, 1.0, 82.55, 78.15)">
      <use height="34.55" transform="matrix(1.0, 0.0, 0.0, 1.0, -25.35, 18.2)" width="57.85" xlink:href="#shape2"/>
    </clipPath>
    <g clip-path="url(#clipPath0)">
      <use height="58.25" id="water" transform="matrix(1.0, 0.0, 0.0, 1.0, 24.75, 8.65)" width="82.6" xlink:href="#sprite0"/>
    </g>
  </g>
  <defs>
    <g id="shape0" transform="matrix(1.0, 0.0, 0.0, 1.0, 82.55, 78.15)">
      <path d="M-82.0 -45.05 L-81.85 -45.25 -81.5 -45.65 -82.0 -45.05" fill="#cccccc" fill-rule="evenodd" stroke="none"/>
      <path d="M114.95 -45.0 L110.1 -45.0 110.1 -41.4 24.85 -41.4 24.85 -45.0 -82.05 -45.0 -82.0 -45.05 -81.5 -45.65 -68.0 -61.7 -54.4 -77.65 81.4 -77.65 114.95 -45.0" fill="url(#gradient0)" fill-rule="evenodd" stroke="none"/>
      <path d="M-82.0 -45.05 L-81.85 -45.25 M-54.4 -77.65 L81.4 -77.65 114.95 -45.0" fill="none" stroke="#000000" stroke-linecap="round" stroke-linejoin="round" stroke-width="1.0"/>
      <path d="M-81.5 -45.65 L-68.0 -61.7 -54.6 -78.0 M-81.5 -45.65 L-82.0 -45.05 Z" fill="none" stroke="#000000" stroke-linecap="round" stroke-linejoin="round" stroke-width="0.1"/>
      <path d="M20.3 -45.0 L20.85 -45.0 Q72.8 -37.9 113.9 -45.0 L114.95 -45.0 114.95 94.0 114.2 94.0 Q68.4 103.85 20.65 94.0 L19.7 94.0 -82.05 94.0 -82.05 -45.0 -81.6 -45.0 20.3 -45.0" fill="url(#gradient1)" fill-rule="evenodd" stroke="none"/>
      <path d="M20.85 -45.0 Q72.8 -37.9 113.9 -45.0 M114.95 -45.0 L114.95 94.0 M114.2 94.0 Q68.4 103.85 20.65 94.0 M19.7 94.0 L-82.05 94.0 -82.05 -45.0 M-81.6 -45.0 L20.3 -45.0" fill="none" stroke="#000000" stroke-linecap="round" stroke-linejoin="round" stroke-width="1.0"/>
      <path d="M20.5 -44.15 L20.5 94.0 19.5 94.0 19.5 -44.15 20.5 -44.15" fill="#666666" fill-rule="evenodd" stroke="none"/>
      <path d="M20.5 -44.15 L20.5 94.0 19.5 94.0 19.5 -44.15 20.5 -44.15 Z" fill="none" stroke="#666666" stroke-linecap="round" stroke-linejoin="round" stroke-width="1.0"/>
      <path d="M35.0 -12.9 Q66.9 -19.7 98.8 -12.6 L98.75 -2.5 Q69.85 6.3 34.95 -2.8 L35.0 -12.9" fill="url(#gradient2)" fill-rule="evenodd" stroke="none"/>
      <path d="M35.0 -12.9 Q66.9 -19.7 98.8 -12.6 L98.75 -2.5 Q69.85 6.3 34.95 -2.8 L35.0 -12.9 Z" fill="none" stroke="#000000" stroke-linecap="round" stroke-linejoin="round" stroke-width="0.1"/>
      <path d="M44.45 -6.85 Q43.75 -6.4 42.75 -6.4 41.75 -6.4 41.05 -6.85 40.35 -7.3 40.35 -7.9 40.35 -8.5 41.05 -8.95 L42.75 -9.4 Q43.75 -9.4 44.45 -8.95 45.15 -8.5 45.15 -7.9 45.15 -7.3 44.45 -6.85 M55.65 -6.95 Q54.95 -6.5 53.95 -6.5 52.95 -6.5 52.25 -6.95 51.55 -7.4 51.55 -8.0 51.55 -8.6 52.25 -9.05 L53.95 -9.5 55.65 -9.05 Q56.35 -8.6 56.35 -8.0 56.35 -7.4 55.65 -6.95 M67.65 -9.15 Q68.35 -8.7 68.35 -8.1 68.35 -7.5 67.65 -7.05 66.95 -6.6 65.95 -6.6 64.95 -6.6 64.25 -7.05 63.55 -7.5 63.55 -8.1 63.55 -8.7 64.25 -9.15 L65.95 -9.6 67.65 -9.15" fill="#006600" fill-rule="evenodd" stroke="none"/>
      <path d="M79.35 -8.0 Q79.35 -7.4 78.65 -6.95 77.95 -6.5 76.95 -6.5 75.95 -6.5 75.25 -6.95 74.55 -7.4 74.55 -8.0 74.55 -8.6 75.25 -9.05 L76.95 -9.5 Q77.95 -9.5 78.65 -9.05 79.35 -8.6 79.35 -8.0" fill="#cc6600" fill-rule="evenodd" stroke="none"/>
      <path d="M86.35 -6.95 Q85.65 -7.4 85.65 -8.0 85.65 -8.6 86.35 -9.05 L88.05 -9.5 89.75 -9.05 Q90.45 -8.6 90.45 -8.0 90.45 -7.4 89.75 -6.95 89.05 -6.5 88.05 -6.5 87.05 -6.5 86.35 -6.95" fill="#cccccc" fill-rule="evenodd" stroke="none"/>
      <path d="M44.45 -6.85 Q43.75 -6.4 42.75 -6.4 41.75 -6.4 41.05 -6.85 40.35 -7.3 40.35 -7.9 40.35 -8.5 41.05 -8.95 L42.75 -9.4 Q43.75 -9.4 44.45 -8.95 45.15 -8.5 45.15 -7.9 45.15 -7.3 44.45 -6.85 M55.65 -6.95 Q54.95 -6.5 53.95 -6.5 52.95 -6.5 52.25 -6.95 51.55 -7.4 51.55 -8.0 51.55 -8.6 52.25 -9.05 L53.95 -9.5 55.65 -9.05 Q56.35 -8.6 56.35 -8.0 56.35 -7.4 55.65 -6.95 M67.65 -9.15 Q68.35 -8.7 68.35 -8.1 68.35 -7.5 67.65 -7.05 66.95 -6.6 65.95 -6.6 64.95 -6.6 64.25 -7.05 63.55 -7.5 63.55 -8.1 63.55 -8.7 64.25 -9.15 L65.95 -9.6 67.65 -9.15 M79.35 -8.0 Q79.35 -7.4 78.65 -6.95 77.95 -6.5 76.95 -6.5 75.95 -6.5 75.25 -6.95 74.55 -7.4 74.55 -8.0 74.55 -8.6 75.25 -9.05 L76.95 -9.5 Q77.95 -9.5 78.65 -9.05 79.35 -8.6 79.35 -8.0 M86.35 -6.95 Q85.65 -7.4 85.65 -8.0 85.65 -8.6 86.35 -9.05 L88.05 -9.5 89.75 -9.05 Q90.45 -8.6 90.45 -8.0 90.45 -7.4 89.75 -6.95 89.05 -6.5 88.05 -6.5 87.05 -6.5 86.35 -6.95" fill="none" stroke="#000000" stroke-linecap="round" stroke-linejoin="round" stroke-width="0.1"/>
    </g>
    <linearGradient color-interpolation="linearRGB" gradientTransform="matrix(0.1202, 0.0, 0.0, 0.0221, 16.45, -59.55)" gradientUnits="userSpaceOnUse" id="gradient0" spreadMethod="pad" x1="-819.2" x2="819.2">
      <stop offset="0.0" stop-color="#c4c4c4"/>
      <stop offset="1.0" stop-color="#faf3f3"/>
    </linearGradient>
    <linearGradient color-interpolation="linearRGB" gradientTransform="matrix(0.1202, 0.0, 0.0, 0.0878, 16.45, 26.95)" gradientUnits="userSpaceOnUse" id="gradient1" spreadMethod="pad" x1="-819.2" x2="819.2">
      <stop offset="0.0" stop-color="#e5dede"/>
      <stop offset="1.0" stop-color="#ffffff"/>
    </linearGradient>
    <linearGradient color-interpolation="linearRGB" gradientTransform="matrix(0.039, 0.0, 0.0, 0.011, 66.85, -7.2)" gradientUnits="userSpaceOnUse" id="gradient2" spreadMethod="pad" x1="-819.2" x2="819.2">
      <stop offset="0.0" stop-color="#918a8a"/>
      <stop offset="1.0" stop-color="#f0e8e8"/>
    </linearGradient>
    <g id="shape1" transform="matrix(1.0, 0.0, 0.0, 1.0, 71.35, 11.5)">
      <path d="M110.4 55.85 Q108.45 65.35 103.35 70.5 L37.45 70.5 Q32.45 63.85 31.15 55.85 L110.4 55.85" fill="url(#gradient3)" fill-rule="evenodd" stroke="none"/>
      <path d="M110.4 55.85 Q108.45 65.35 103.35 70.5 L37.45 70.5 Q32.45 63.85 31.15 55.85" fill="none" stroke="#000000" stroke-linecap="round" stroke-linejoin="round" stroke-width="0.1"/>
      <path d="M93.7 39.2 L93.7 37.75 93.7 39.2 M105.95 26.5 L110.4 55.85 31.1 55.85 34.95 26.5 Q74.4 32.85 105.95 26.5" fill="url(#gradient4)" fill-rule="evenodd" stroke="none"/>
      <path d="M93.7 37.75 L93.7 39.2 M105.95 26.5 L110.4 55.85 M31.1 55.85 L34.95 26.5" fill="none" stroke="#000000" stroke-linecap="round" stroke-linejoin="round" stroke-width="0.1"/>
      <path d="M95.15 34.9 L95.25 34.9 95.25 52.9 93.1 52.9 93.1 37.65 93.05 37.65 95.15 34.9" fill="url(#gradient5)" fill-rule="evenodd" stroke="none"/>
      <path d="M93.1 52.9 L86.6 52.9 86.6 37.65 93.05 37.65 93.1 37.65 93.1 52.9" fill="url(#gradient6)" fill-rule="evenodd" stroke="none"/>
      <path d="M84.4 34.9 L95.15 34.9 93.05 37.65 86.6 37.65 84.4 34.9" fill="url(#gradient7)" fill-rule="evenodd" stroke="none"/>
      <path d="M86.6 52.9 L84.35 52.9 84.35 34.9 84.4 34.9 86.6 37.65 86.6 52.9" fill="url(#gradient8)" fill-rule="evenodd" stroke="none"/>
      <path d="M84.4 34.9 L95.15 34.9 95.25 34.9 95.25 52.9 93.1 52.9 86.6 52.9 84.35 52.9 84.35 34.9 84.4 34.9 86.6 37.65 93.05 37.65 95.15 34.9 M93.05 37.65 L93.1 37.65 93.1 52.9 M86.6 37.65 L86.6 52.9" fill="none" stroke="#000000" stroke-linecap="round" stroke-linejoin="round" stroke-width="0.1"/>
      <path d="M68.9 37.55 L68.9 52.8 66.65 52.8 66.65 34.8 66.7 34.8 68.9 37.55" fill="url(#gradient9)" fill-rule="evenodd" stroke="none"/>
      <path d="M75.35 37.55 L75.4 37.55 75.4 52.8 68.9 52.8 68.9 37.55 75.35 37.55" fill="url(#gradient10)" fill-rule="evenodd" stroke="none"/>
      <path d="M77.45 34.8 L75.35 37.55 68.9 37.55 66.7 34.8 77.45 34.8" fill="url(#gradient11)" fill-rule="evenodd" stroke="none"/>
      <path d="M75.4 52.8 L75.4 37.55 75.35 37.55 77.45 34.8 77.55 34.8 77.55 52.8 75.4 52.8" fill="url(#gradient12)" fill-rule="evenodd" stroke="none"/>
      <path d="M75.35 37.55 L75.4 37.55 75.4 52.8 77.55 52.8 77.55 34.8 77.45 34.8 75.35 37.55 68.9 37.55 68.9 52.8 75.4 52.8 M68.9 52.8 L66.65 52.8 66.65 34.8 66.7 34.8 77.45 34.8 M66.7 34.8 L68.9 37.55" fill="none" stroke="#000000" stroke-linecap="round" stroke-linejoin="round" stroke-width="0.1"/>
      <path d="M94.4 39.0 L85.15 39.0 Q84.7 38.55 85.15 38.1 L94.4 38.1 Q94.85 38.65 94.4 39.0 M68.55 38.0 L76.05 38.0 Q76.4 38.45 76.05 38.9 L68.55 38.9 Q68.1 38.45 68.55 38.0" fill="#000066" fill-rule="evenodd" stroke="none"/>
      <path d="M94.4 39.0 L85.15 39.0 Q84.7 38.55 85.15 38.1 L94.4 38.1 Q94.85 38.65 94.4 39.0 M68.55 38.0 L76.05 38.0 Q76.4 38.45 76.05 38.9 L68.55 38.9 Q68.1 38.45 68.55 38.0" fill="none" stroke="#000000" stroke-linecap="round" stroke-linejoin="round" stroke-width="0.1"/>
      <path d="M104.1 49.4 L104.1 49.75 104.0 49.9 103.35 50.75 99.1 50.75 98.7 49.9 98.6 49.75 98.6 49.4 104.1 49.4 M83.2 39.2 L83.15 39.25 83.15 39.3 82.65 40.3 79.2 40.3 78.85 39.3 78.8 39.2 78.4 37.3 83.45 37.3 83.2 39.2 M98.6 49.75 L104.1 49.75 98.6 49.75 M82.45 50.8 L78.85 50.8 78.5 49.9 78.4 49.7 78.05 48.8 83.3 48.8 83.05 49.7 82.95 49.9 82.45 50.8 M83.05 49.7 L78.4 49.7 83.05 49.7 M78.85 39.3 Q81.0 40.25 83.15 39.3 81.0 40.25 78.85 39.3" fill="#5262cb" fill-rule="evenodd" stroke="none"/>
      <path d="M104.1 49.4 L104.1 49.75 104.0 49.9 103.35 50.75 99.1 50.75 98.7 49.9 98.6 49.75 98.6 49.4 104.1 49.4 M83.15 39.25 L83.15 39.3 82.65 40.3 79.2 40.3 78.85 39.3 78.8 39.2 78.4 37.3 83.45 37.3 83.2 39.2 M104.1 49.75 L98.6 49.75 M82.45 50.8 L78.85 50.8 78.5 49.9 78.4 49.7 78.05 48.8 83.3 48.8 83.05 49.7 82.95 49.9 82.45 50.8 M83.15 39.3 Q81.0 40.25 78.85 39.3 M78.4 49.7 L83.05 49.7" fill="none" stroke="#000000" stroke-linecap="round" stroke-linejoin="round" stroke-width="0.1"/>
      <path d="M66.6 47.8 L32.0 47.8 32.0 46.6 66.6 46.6 66.6 47.8 M66.6 41.35 L32.8 41.35 32.8 40.35 66.6 40.35 66.6 41.35" fill="#003300" fill-rule="evenodd" stroke="none"/>
      <path d="M68.25 41.05 L76.45 41.05 Q76.85 41.5 76.45 41.95 L68.25 41.95 Q67.8 41.5 68.25 41.05" fill="#000000" fill-rule="evenodd" stroke="none"/>
      <path d="M66.6 47.8 L32.0 47.8 32.0 46.6 66.6 46.6 66.6 47.8 M66.6 41.35 L32.8 41.35 32.8 40.35 66.6 40.35 66.6 41.35 M68.25 41.05 L76.45 41.05 Q76.85 41.5 76.45 41.95 L68.25 41.95 Q67.8 41.5 68.25 41.05" fill="none" stroke="#000000" stroke-linecap="round" stroke-linejoin="round" stroke-width="0.1"/>
      <path d="M54.0 34.9 L61.6 34.9 61.85 35.65 61.9 35.9 62.5 39.55 53.5 39.55 53.6 38.8 53.55 38.8 54.0 34.9 M61.85 35.65 L53.95 35.65 53.6 38.8 53.95 35.65 61.85 35.65 M54.3 48.4 L61.9 48.4 62.15 49.15 62.2 49.4 62.8 53.05 53.8 53.05 53.9 52.3 53.85 52.3 54.3 48.4 M62.15 49.15 L54.25 49.15 53.9 52.3 54.25 49.15 62.15 49.15" fill="#5963d4" fill-rule="evenodd" stroke="none"/>
      <path d="M54.0 34.9 L61.6 34.9 61.85 35.65 61.9 35.9 62.5 39.55 53.5 39.55 53.6 38.8 53.55 38.8 M53.6 38.8 L53.95 35.65 61.85 35.65 M54.3 48.4 L61.9 48.4 62.15 49.15 62.2 49.4 62.8 53.05 53.8 53.05 53.9 52.3 53.85 52.3 M66.7 40.35 L68.45 41.0 M66.6 41.25 L68.05 41.85 M53.9 52.3 L54.25 49.15 62.15 49.15" fill="none" stroke="#000000" stroke-linecap="round" stroke-linejoin="round" stroke-width="0.1"/>
      <path d="M2.1 -11.45 L2.1 3.05 2.45 3.05 Q23.3 17.3 2.45 31.9 L2.1 31.9 2.1 45.35 -7.0 45.35 -7.2 45.6 Q-18.55 59.05 -31.5 45.6 L-31.75 45.4 -31.75 45.35 -71.3 45.35 -71.3 -11.45 2.1 -11.45" fill="url(#gradient13)" fill-rule="evenodd" stroke="none"/>
      <path d="M2.1 -11.45 L2.1 3.05 2.45 3.05 Q23.3 17.3 2.45 31.9 L2.1 31.9 2.1 45.35 -7.0 45.35 -7.2 45.6 Q-18.55 59.05 -31.5 45.6 L-31.75 45.4 -31.75 45.35 -71.3 45.35 -71.3 -11.45 2.1 -11.45 Z" fill="none" stroke="#000000" stroke-linecap="round" stroke-linejoin="round" stroke-width="0.1"/>
      <path d="M-54.4 -1.8 L-54.4 0.4 -62.6 0.4 -62.6 -1.8 -54.4 -1.8" fill="#003300" fill-rule="evenodd" stroke="none"/>
      <path d="M-66.25 -4.1 L-66.25 -5.45 -61.45 -5.45 -61.45 -4.1 -66.25 -4.1 M-57.35 -4.2 L-57.35 -5.55 -52.55 -5.55 -52.55 -4.2 -57.35 -4.2" fill="#333333" fill-rule="evenodd" stroke="none"/>
      <path d="M-66.25 -4.1 L-66.25 -5.45 -61.45 -5.45 -61.45 -4.1 -66.25 -4.1 M-57.35 -4.2 L-57.35 -5.55 -52.55 -5.55 -52.55 -4.2 -57.35 -4.2 M-54.4 -1.8 L-54.4 0.4 -62.6 0.4 -62.6 -1.8 -54.4 -1.8" fill="none" stroke="#000000" stroke-linecap="round" stroke-linejoin="round" stroke-width="0.1"/>
      <path d="M-18.75 40.45 Q-26.7 40.45 -32.3 33.85 -38.0 27.35 -38.0 18.15 -38.0 9.05 -32.3 2.45 -26.7 -4.05 -18.75 -4.05 -10.8 -4.05 -5.2 2.45 0.45 9.05 0.45 18.15 0.45 27.35 -5.2 33.85 -10.8 40.45 -18.75 40.45" fill="#cccccc" fill-rule="evenodd" stroke="none"/>
      <path d="M-18.75 40.45 Q-26.7 40.45 -32.3 33.85 -38.0 27.35 -38.0 18.15 -38.0 9.05 -32.3 2.45 -26.7 -4.05 -18.75 -4.05 -10.8 -4.05 -5.2 2.45 0.45 9.05 0.45 18.15 0.45 27.35 -5.2 33.85 -10.8 40.45 -18.75 40.45 Z" fill="none" stroke="#333333" stroke-linecap="round" stroke-linejoin="round" stroke-width="0.1"/>
      <path d="M-33.45 7.55 L-31.4 6.35 Q-26.2 3.6 -18.75 3.6 -11.3 3.6 -6.1 6.35 L-4.05 7.55 -4.15 7.55 -33.45 7.55 M-4.65 32.35 L-4.6 32.35 Q-0.95 32.1 -4.6 35.2 -18.7 45.35 -32.85 35.2 -36.4 32.5 -32.85 32.35 L-4.65 32.35" fill="#999999" fill-rule="evenodd" stroke="none"/>
      <path d="M-4.05 7.55 Q-0.8 12.85 -0.8 19.5 -0.8 24.2 -2.4 28.2 -3.3 30.4 -4.65 32.35 L-32.85 32.35 -35.1 28.2 Q-36.75 24.2 -36.75 19.5 -36.75 12.85 -33.45 7.55 L-4.15 7.55 -4.05 7.55" fill="#666666" fill-rule="evenodd" stroke="none"/>
      <path d="M-33.45 7.55 L-31.4 6.35 Q-26.2 3.6 -18.75 3.6 -11.3 3.6 -6.1 6.35 L-4.05 7.55 Q-0.8 12.85 -0.8 19.5 -0.8 24.2 -2.4 28.2 -3.3 30.4 -4.65 32.35 M-32.85 32.35 L-35.1 28.2 Q-36.75 24.2 -36.75 19.5 -36.75 12.85 -33.45 7.55" fill="none" stroke="#000000" stroke-linecap="round" stroke-linejoin="round" stroke-width="0.1"/>
      <path d="M-4.65 32.35 L-4.6 32.35 Q-0.95 32.1 -4.6 35.2 -18.7 45.35 -32.85 35.2 -36.4 32.5 -32.85 32.35 L-4.65 32.35 M-33.45 7.55 L-4.15 7.55" fill="none" stroke="#000000" stroke-linecap="round" stroke-linejoin="round" stroke-width="0.2"/>
      <path d="M-26.05 19.15 Q-26.05 16.2 -24.0 14.0 -21.9 11.9 -19.0 11.9 -16.05 11.9 -14.0 14.0 -11.85 16.2 -11.85 19.15 -11.85 22.2 -14.0 24.2 -16.05 26.45 -19.0 26.45 -21.9 26.45 -24.0 24.2 -26.05 22.2 -26.05 19.15" fill="#ffffcc" fill-rule="evenodd" stroke="none"/>
      <path d="M-26.05 19.15 Q-26.05 16.2 -24.0 14.0 -21.9 11.9 -19.0 11.9 -16.05 11.9 -14.0 14.0 -11.85 16.2 -11.85 19.15 -11.85 22.2 -14.0 24.2 -16.05 26.45 -19.0 26.45 -21.9 26.45 -24.0 24.2 -26.05 22.2 -26.05 19.15 Z" fill="none" stroke="#333333" stroke-linecap="round" stroke-linejoin="round" stroke-width="0.1"/>
      <path d="M-25.6 19.5 Q-25.6 16.7 -23.65 14.6 -21.65 12.65 -19.0 12.65 -16.2 12.65 -14.25 14.6 -12.25 16.7 -12.25 19.5 -12.25 22.4 -14.25 24.3 -16.2 26.3 -19.0 26.3 -21.65 26.3 -23.65 24.3 -25.6 22.4 -25.6 19.5" fill="#ffff99" fill-rule="evenodd" stroke="none"/>
      <path d="M-25.6 19.5 Q-25.6 16.7 -23.65 14.6 -21.65 12.65 -19.0 12.65 -16.2 12.65 -14.25 14.6 -12.25 16.7 -12.25 19.5 -12.25 22.4 -14.25 24.3 -16.2 26.3 -19.0 26.3 -21.65 26.3 -23.65 24.3 -25.6 22.4 -25.6 19.5 Z" fill="none" stroke="#333333" stroke-linecap="round" stroke-linejoin="round" stroke-width="0.1"/>
      <path d="M-16.55 10.9 L-16.2 10.9 -16.2 10.65 -15.65 10.65 -15.65 11.85 -16.2 11.85 -16.2 11.55 -16.55 11.55 -16.6 11.55 -16.6 10.9 -16.55 10.9 M-10.65 18.4 L-10.65 20.1 -11.5 20.1 -11.5 19.45 -12.15 19.45 -12.15 18.8 -11.5 18.8 -11.5 18.4 -10.65 18.4 M-20.1 20.3 Q-20.5 20.0 -20.5 19.45 -20.5 18.95 -20.1 18.6 -19.7 18.3 -19.2 18.3 -18.7 18.3 -18.35 18.6 -17.95 18.95 -17.95 19.45 -17.95 20.0 -18.35 20.3 -18.7 20.65 -19.2 20.65 L-20.1 20.3 M-10.35 21.35 L-11.15 23.75 -12.75 23.05 -11.95 20.65 -10.35 21.35 M-23.25 10.8 L-22.7 10.8 -22.7 11.2 -21.85 11.2 -21.85 11.6 -22.7 11.6 -22.7 11.9 -23.25 11.9 -23.25 10.8 M-22.7 11.6 L-22.7 11.2 -22.7 11.6 M-25.75 16.75 L-25.6 22.95 -29.05 23.1 -29.15 16.95 -25.75 16.75" fill="#ff0000" fill-rule="evenodd" stroke="none"/>
      <path d="M-16.55 11.55 L-16.55 12.55 -21.8 12.55 -21.8 10.1 -16.55 10.1 -16.55 10.9 -16.6 10.9 -16.6 11.55 -16.55 11.55" fill="#cccccc" fill-rule="evenodd" stroke="none"/>
      <path d="M-32.65 12.1 Q-32.65 12.6 -32.95 12.95 -33.25 13.35 -33.75 13.35 L-34.45 12.95 -34.8 12.1 Q-34.8 11.55 -34.45 11.2 -34.15 10.8 -33.75 10.8 -33.25 10.8 -32.95 11.2 -32.65 11.55 -32.65 12.1 M-7.15 27.65 Q-6.75 27.3 -6.25 27.3 -5.75 27.3 -5.35 27.65 L-4.95 28.65 Q-4.95 29.2 -5.35 29.55 -5.75 30.0 -6.25 30.0 -6.75 30.0 -7.15 29.55 L-7.5 28.65 -7.15 27.65" fill="#000000" fill-rule="evenodd" stroke="none"/>
      <path d="M0.05 18.05 L0.05 17.15 0.05 18.05 -0.6 18.05 -0.6 16.75 0.05 16.75 0.05 17.15 Q0.1 15.5 0.45 13.8 4.75 13.2 9.1 13.8 9.7 17.5 9.1 21.15 4.75 21.9 0.45 21.15 0.1 19.6 0.05 18.05 M-31.2 17.05 L-29.8 17.05 -29.8 17.45 -29.15 17.45 -29.15 17.8 -29.8 17.8 -29.8 18.3 -31.2 18.3 -31.2 17.05 M-29.8 17.8 L-29.8 17.45 -29.8 17.8" fill="#999999" fill-rule="evenodd" stroke="none"/>
      <path d="M-16.55 11.55 L-16.55 12.55 -21.8 12.55 -21.8 10.1 -16.55 10.1 -16.55 10.9 M-10.65 18.4 L-10.65 20.1 -11.5 20.1 -11.5 19.45 -12.15 19.45 -12.15 18.8 -11.5 18.8 -11.5 18.4 -10.65 18.4 M-20.1 20.3 Q-20.5 20.0 -20.5 19.45 -20.5 18.95 -20.1 18.6 -19.7 18.3 -19.2 18.3 -18.7 18.3 -18.35 18.6 -17.95 18.95 -17.95 19.45 -17.95 20.0 -18.35 20.3 -18.7 20.65 -19.2 20.65 L-20.1 20.3 M-10.35 21.35 L-11.15 23.75 -12.75 23.05 -11.95 20.65 -10.35 21.35" fill="none" stroke="#333333" stroke-linecap="round" stroke-linejoin="round" stroke-width="0.1"/>
      <path d="M0.05 17.15 L0.05 18.05 Q0.1 19.6 0.45 21.15 4.75 21.9 9.1 21.15 9.7 17.5 9.1 13.8 4.75 13.2 0.45 13.8 0.1 15.5 0.05 17.15 L0.05 16.75 -0.6 16.75 -0.6 18.05 0.05 18.05 M-16.55 10.9 L-16.2 10.9 -16.2 10.65 -15.65 10.65 -15.65 11.85 -16.2 11.85 -16.2 11.55 -16.55 11.55 M-16.55 10.9 L-16.6 10.9 -16.6 11.55 -16.55 11.55 M-23.25 10.8 L-22.7 10.8 -22.7 11.2 -21.85 11.2 -21.85 11.6 -22.7 11.6 -22.7 11.9 -23.25 11.9 -23.25 10.8 M-22.7 11.2 L-22.7 11.6 M-32.65 12.1 Q-32.65 12.6 -32.95 12.95 -33.25 13.35 -33.75 13.35 L-34.45 12.95 -34.8 12.1 Q-34.8 11.55 -34.45 11.2 -34.15 10.8 -33.75 10.8 -33.25 10.8 -32.95 11.2 -32.65 11.55 -32.65 12.1 M-31.2 17.05 L-29.8 17.05 -29.8 17.45 -29.15 17.45 -29.15 17.8 -29.8 17.8 -29.8 18.3 -31.2 18.3 -31.2 17.05 M-29.8 17.45 L-29.8 17.8 M-25.75 16.75 L-25.6 22.95 -29.05 23.1 -29.15 16.95 -25.75 16.75 M-7.15 27.65 Q-6.75 27.3 -6.25 27.3 -5.75 27.3 -5.35 27.65 L-4.95 28.65 Q-4.95 29.2 -5.35 29.55 -5.75 30.0 -6.25 30.0 -6.75 30.0 -7.15 29.55 L-7.5 28.65 -7.15 27.65" fill="none" stroke="#000000" stroke-linecap="round" stroke-linejoin="round" stroke-width="0.1"/>
      <path d="M0.9 14.75 Q0.15 14.0 0.05 12.2 0.4 12.05 0.7 11.85 1.55 12.95 1.6 14.35 L0.9 14.75 M-56.55 13.35 Q-58.75 13.35 -60.35 15.0 -61.85 16.7 -61.85 19.1 -61.85 21.55 -60.35 23.2 -58.75 24.9 -56.55 24.9 L-56.4 24.9 Q-54.1 24.9 -52.5 23.2 -50.95 21.55 -50.95 19.1 -50.95 16.7 -52.5 15.0 -54.1 13.35 -56.4 13.35 L-56.55 13.35 M-51.8 14.6 Q-49.95 16.5 -49.95 19.1 -49.95 21.6 -51.8 23.45 -53.65 25.35 -56.35 25.35 -58.95 25.35 -60.8 23.45 -62.65 21.6 -62.65 19.1 -62.65 16.5 -60.8 14.6 -58.95 12.9 -56.35 12.9 -53.65 12.9 -51.8 14.6" fill="#999999" fill-rule="evenodd" stroke="none"/>
      <path d="M-51.45 18.95 Q-51.45 16.9 -52.95 15.35 -54.4 13.9 -56.4 13.9 -58.4 13.9 -59.9 15.35 -61.3 16.9 -61.3 18.95 L-61.3 19.2 Q-61.3 21.3 -59.9 22.75 -58.4 24.35 -56.4 24.35 -54.4 24.35 -52.95 22.75 -51.45 21.3 -51.45 19.2 L-51.45 18.95 M-56.55 24.9 Q-58.65 24.7 -60.1 23.2 -61.7 21.55 -61.7 19.1 -61.7 16.7 -60.1 15.0 -58.65 13.45 -56.55 13.35 L-56.4 13.35 Q-54.1 13.35 -52.5 15.0 -50.95 16.7 -50.95 19.1 -50.95 21.55 -52.5 23.2 -54.1 24.9 -56.4 24.9 L-56.55 24.9" fill="#ffffff" fill-rule="evenodd" stroke="none"/>
      <path d="M-54.1 17.05 Q-54.7 16.35 -55.65 16.35 -56.55 16.35 -57.3 17.05 -57.9 17.9 -57.9 18.95 -57.9 20.05 -57.3 20.75 -56.55 21.6 -55.65 21.6 -54.7 21.6 -54.1 20.75 -53.35 20.05 -53.35 18.95 -53.35 17.9 -54.1 17.05 M-61.3 18.95 Q-61.1 16.95 -59.9 15.45 -58.4 14.0 -56.4 14.0 -54.4 14.0 -52.95 15.45 -51.5 16.95 -51.45 18.95 L-51.45 19.2 Q-51.45 21.3 -52.95 22.75 -54.4 24.35 -56.4 24.35 -58.4 24.35 -59.9 22.75 -61.3 21.3 -61.3 19.2 L-61.3 18.95 M-59.9 19.2 L-60.6 19.4 -60.85 20.05 -60.6 20.55 Q-60.35 20.85 -59.9 20.85 L-59.1 20.55 -58.8 20.05 Q-58.8 19.7 -59.1 19.4 L-59.9 19.2 M-58.65 21.8 L-58.8 22.35 -58.65 22.8 -58.1 23.05 -57.7 22.8 Q-57.4 22.65 -57.4 22.35 -57.4 22.0 -57.7 21.8 -57.8 21.6 -58.1 21.6 L-58.65 21.8" fill="#ffffcc" fill-rule="evenodd" stroke="none"/>
      <path d="M-54.1 17.05 Q-53.35 17.9 -53.35 18.95 -53.35 20.05 -54.1 20.75 -54.7 21.6 -55.65 21.6 -56.55 21.6 -57.3 20.75 -57.9 20.05 -57.9 18.95 -57.9 17.9 -57.3 17.05 -56.55 16.35 -55.65 16.35 -54.7 16.35 -54.1 17.05 M-55.75 16.9 L-55.9 16.9 Q-56.45 16.9 -56.9 17.35 -57.3 18.0 -57.3 18.85 -57.3 19.7 -56.9 20.25 -56.45 20.85 -55.9 20.85 L-55.75 20.85 Q-55.05 20.85 -54.7 20.25 -54.15 19.7 -54.15 18.85 -54.15 18.0 -54.7 17.35 -55.05 16.9 -55.75 16.9 M-59.9 19.2 L-59.1 19.4 Q-58.8 19.7 -58.8 20.05 L-59.1 20.55 -59.9 20.85 Q-60.35 20.85 -60.6 20.55 L-60.85 20.05 -60.6 19.4 -59.9 19.2" fill="#cc9900" fill-rule="evenodd" stroke="none"/>
      <path d="M-58.65 21.8 L-58.1 21.6 Q-57.8 21.6 -57.7 21.8 -57.4 22.0 -57.4 22.35 -57.4 22.65 -57.7 22.8 L-58.1 23.05 -58.65 22.8 -58.8 22.35 -58.65 21.8" fill="#ff0000" fill-rule="evenodd" stroke="none"/>
      <path d="M-55.75 16.9 Q-55.05 16.9 -54.7 17.35 -54.15 18.0 -54.15 18.85 -54.15 19.7 -54.7 20.25 -55.05 20.85 -55.75 20.85 L-55.9 20.85 Q-56.45 20.85 -56.9 20.25 -57.3 19.7 -57.3 18.85 -57.3 18.0 -56.9 17.35 -56.45 16.9 -55.9 16.9 L-55.75 16.9" fill="#cccccc" fill-rule="evenodd" stroke="none"/>
      <path d="M0.9 14.75 Q0.15 14.0 0.05 12.2 0.4 12.05 0.7 11.85 1.55 12.95 1.6 14.35 M-54.1 17.05 Q-53.35 17.9 -53.35 18.95 -53.35 20.05 -54.1 20.75 -54.7 21.6 -55.65 21.6 -56.55 21.6 -57.3 20.75 -57.9 20.05 -57.9 18.95 -57.9 17.9 -57.3 17.05 -56.55 16.35 -55.65 16.35 -54.7 16.35 -54.1 17.05 M-61.3 18.95 Q-61.1 16.95 -59.9 15.45 -58.4 14.0 -56.4 14.0 -54.4 14.0 -52.95 15.45 -51.5 16.95 -51.45 18.95 L-51.45 19.2 Q-51.45 21.3 -52.95 22.75 -54.4 24.35 -56.4 24.35 -58.4 24.35 -59.9 22.75 -61.3 21.3 -61.3 19.2 L-61.3 18.95 M-56.55 24.9 Q-58.65 24.7 -60.1 23.2 -61.7 21.55 -61.7 19.1 -61.7 16.7 -60.1 15.0 -58.65 13.45 -56.55 13.35 L-56.4 13.35 Q-54.1 13.35 -52.5 15.0 -50.95 16.7 -50.95 19.1 -50.95 21.55 -52.5 23.2 -54.1 24.9 -56.4 24.9 L-56.55 24.9 M-55.75 16.9 Q-55.05 16.9 -54.7 17.35 -54.15 18.0 -54.15 18.85 -54.15 19.7 -54.7 20.25 -55.05 20.85 -55.75 20.85 L-55.9 20.85 Q-56.45 20.85 -56.9 20.25 -57.3 19.7 -57.3 18.85 -57.3 18.0 -56.9 17.35 -56.45 16.9 -55.9 16.9 L-55.75 16.9 M-59.9 19.2 L-59.1 19.4 Q-58.8 19.7 -58.8 20.05 L-59.1 20.55 -59.9 20.85 Q-60.35 20.85 -60.6 20.55 L-60.85 20.05 -60.6 19.4 -59.9 19.2 M-58.65 21.8 L-58.1 21.6 Q-57.8 21.6 -57.7 21.8 -57.4 22.0 -57.4 22.35 -57.4 22.65 -57.7 22.8 L-58.1 23.05 -58.65 22.8 -58.8 22.35 -58.65 21.8 M-51.8 14.6 Q-49.95 16.5 -49.95 19.1 -49.95 21.6 -51.8 23.45 -53.65 25.35 -56.35 25.35 -58.95 25.35 -60.8 23.45 -62.65 21.6 -62.65 19.1 -62.65 16.5 -60.8 14.6 -58.95 12.9 -56.35 12.9 -53.65 12.9 -51.8 14.6" fill="none" stroke="#000000" stroke-linecap="round" stroke-linejoin="round" stroke-width="0.1"/>
      <path d="M32.45 45.9 Q-41.95 68.3 -20.5 19.45 -19.6 17.6 -18.05 19.3 -40.0 67.3 32.45 44.0 L32.45 45.9" fill="url(#gradient14)" fill-rule="evenodd" stroke="none"/>
      <path d="M32.45 45.9 Q-41.95 68.3 -20.5 19.45 -19.6 17.6 -18.05 19.3 -40.0 67.3 32.45 44.0 L32.45 45.9 Z" fill="none" stroke="#000000" stroke-linecap="round" stroke-linejoin="round" stroke-width="0.1"/>
    </g>
    <linearGradient color-interpolation="linearRGB" gradientTransform="matrix(0.0484, 0.0, 0.0, 0.0089, 70.75, 63.15)" gradientUnits="userSpaceOnUse" id="gradient3" spreadMethod="pad" x1="-819.2" x2="819.2">
      <stop offset="0.0" stop-color="#464242"/>
      <stop offset="1.0" stop-color="#aaaaaa"/>
    </linearGradient>
    <linearGradient color-interpolation="linearRGB" gradientTransform="matrix(0.0484, 0.0, 0.0, 0.0179, 70.75, 41.15)" gradientUnits="userSpaceOnUse" id="gradient4" spreadMethod="pad" x1="-819.2" x2="819.2">
      <stop offset="0.0" stop-color="#cbcbcb"/>
      <stop offset="1.0" stop-color="#e0e0e0"/>
    </linearGradient>
    <linearGradient color-interpolation="linearRGB" gradientTransform="matrix(0.0013, 0.0, 0.0, 0.011, 94.15, 43.9)" gradientUnits="userSpaceOnUse" id="gradient5" spreadMethod="pad" x1="-819.2" x2="819.2">
      <stop offset="0.0" stop-color="#666565"/>
      <stop offset="1.0" stop-color="#3a3a3a"/>
    </linearGradient>
    <linearGradient color-interpolation="linearRGB" gradientTransform="matrix(0.004, 0.0, 0.0, 0.0093, 89.85, 45.25)" gradientUnits="userSpaceOnUse" id="gradient6" spreadMethod="pad" x1="-819.2" x2="819.2">
      <stop offset="0.0" stop-color="#666565"/>
      <stop offset="1.0" stop-color="#3a3a3a"/>
    </linearGradient>
    <linearGradient color-interpolation="linearRGB" gradientTransform="matrix(0.0066, 0.0, 0.0, 0.0017, 89.75, 36.25)" gradientUnits="userSpaceOnUse" id="gradient7" spreadMethod="pad" x1="-819.2" x2="819.2">
      <stop offset="0.0" stop-color="#666565"/>
      <stop offset="1.0" stop-color="#3a3a3a"/>
    </linearGradient>
    <linearGradient color-interpolation="linearRGB" gradientTransform="matrix(0.0014, 0.0, 0.0, 0.011, 85.45, 43.9)" gradientUnits="userSpaceOnUse" id="gradient8" spreadMethod="pad" x1="-819.2" x2="819.2">
      <stop offset="0.0" stop-color="#666565"/>
      <stop offset="1.0" stop-color="#3a3a3a"/>
    </linearGradient>
    <linearGradient color-interpolation="linearRGB" gradientTransform="matrix(0.0014, 0.0, 0.0, 0.011, 67.75, 43.8)" gradientUnits="userSpaceOnUse" id="gradient9" spreadMethod="pad" x1="-819.2" x2="819.2">
      <stop offset="0.0" stop-color="#666565"/>
      <stop offset="1.0" stop-color="#3a3a3a"/>
    </linearGradient>
    <linearGradient color-interpolation="linearRGB" gradientTransform="matrix(0.004, 0.0, 0.0, 0.0093, 72.15, 45.15)" gradientUnits="userSpaceOnUse" id="gradient10" spreadMethod="pad" x1="-819.2" x2="819.2">
      <stop offset="0.0" stop-color="#666565"/>
      <stop offset="1.0" stop-color="#3a3a3a"/>
    </linearGradient>
    <linearGradient color-interpolation="linearRGB" gradientTransform="matrix(0.0066, 0.0, 0.0, 0.0017, 72.05, 36.15)" gradientUnits="userSpaceOnUse" id="gradient11" spreadMethod="pad" x1="-819.2" x2="819.2">
      <stop offset="0.0" stop-color="#666565"/>
      <stop offset="1.0" stop-color="#3a3a3a"/>
    </linearGradient>
    <linearGradient color-interpolation="linearRGB" gradientTransform="matrix(0.0013, 0.0, 0.0, 0.011, 76.45, 43.8)" gradientUnits="userSpaceOnUse" id="gradient12" spreadMethod="pad" x1="-819.2" x2="819.2">
      <stop offset="0.0" stop-color="#666565"/>
      <stop offset="1.0" stop-color="#3a3a3a"/>
    </linearGradient>
    <linearGradient color-interpolation="linearRGB" gradientTransform="matrix(0.0514, 0.0, 0.0, 0.0389, -29.25, 20.4)" gradientUnits="userSpaceOnUse" id="gradient13" spreadMethod="pad" x1="-819.2" x2="819.2">
      <stop offset="0.0" stop-color="#cbc5c5"/>
      <stop offset="1.0" stop-color="#ffffff"/>
    </linearGradient>
    <linearGradient gradientTransform="matrix(0.0352, 0.0, 0.0, 0.021, 3.55, 35.7)" gradientUnits="userSpaceOnUse" id="gradient14" spreadMethod="pad" x1="-819.2" x2="819.2">
      <stop offset="0.00784313725490196" stop-color="#ffffff"/>
      <stop offset="1.0" stop-color="#c1dee9"/>
    </linearGradient>
    <g id="shape2" transform="matrix(1.0, 0.0, 0.0, 1.0, 25.35, -18.2)">
      <path d="M32.45 45.65 Q-41.95 68.05 -20.5 19.2 -19.6 17.35 -18.05 19.05 -40.0 67.05 32.45 43.75 L32.45 45.65" fill="url(#gradient15)" fill-rule="evenodd" stroke="none"/>
      <path d="M32.45 45.65 Q-41.95 68.05 -20.5 19.2 -19.6 17.35 -18.05 19.05 -40.0 67.05 32.45 43.75 L32.45 45.65 Z" fill="none" stroke="#000000" stroke-linecap="round" stroke-linejoin="round" stroke-width="0.1"/>
    </g>
    <linearGradient gradientTransform="matrix(0.0352, 0.0, 0.0, 0.021, 3.55, 35.45)" gradientUnits="userSpaceOnUse" id="gradient15" spreadMethod="pad" x1="-819.2" x2="819.2">
      <stop offset="0.00784313725490196" stop-color="#ffffff"/>
      <stop offset="1.0" stop-color="#c1dee9"/>
    </linearGradient>
    <g id="sprite0" transform="matrix(1.0, 0.0, 0.0, 1.0, 0.05, 0.05)">
      <use height="58.25" transform="matrix(1.0, 0.0, 0.0, 1.0, -0.05, -0.05)" width="82.6" xlink:href="#shape3"/>
    </g>
    <g id="shape3" transform="matrix(1.0, 0.0, 0.0, 1.0, 0.05, 0.05)">
      <path d="M82.5 58.15 L0.0 58.15 0.0 0.0 82.5 0.0 82.5 58.15" fill="#0066ff" fill-rule="evenodd" stroke="none"/>
      <path d="M82.5 58.15 L0.0 58.15 0.0 0.0 82.5 0.0 82.5 58.15 Z" fill="none" stroke="#0066ff" stroke-linecap="round" stroke-linejoin="round" stroke-width="0.1"/>
    </g>
  </defs>
</svg>
