<?xml version="1.0" encoding="UTF-8" standalone="no"?>
<svg xmlns:xlink="http://www.w3.org/1999/xlink" height="225.0px" width="689.8px" xmlns="http://www.w3.org/2000/svg">
  <g transform="matrix(1.0, 0.0, 0.0, 1.0, 383.8, 126.9)">
    <clipPath id="clipPath0" transform="matrix(1.0, 0.0, 0.0, 1.0, 383.8, 126.9)">
      <use height="217.0" transform="matrix(1.0, 0.0, 0.0, 1.0, -135.7, -120.4)" width="375.95" xlink:href="#sprite0"/>
    </clipPath>
    <g clip-path="url(#clipPath0)">
      <use height="129.8" transform="matrix(1.0, 0.0, 0.0, 1.0, 68.95, -82.05)" width="237.05" xlink:href="#shape1"/>
    </g>
  </g>
  <defs>
    <g id="sprite0" transform="matrix(1.0, 0.0, 0.0, 1.0, 0.0, 0.0)">
      <use height="217.0" transform="matrix(1.0, 0.0, 0.0, 1.0, 0.0, 0.0)" width="375.95" xlink:href="#shape0"/>
    </g>
    <g id="shape0" transform="matrix(1.0, 0.0, 0.0, 1.0, 0.0, 0.0)">
      <path d="M375.95 217.0 L0.0 217.0 0.0 0.0 375.95 0.0 375.95 217.0" fill="#cccccc" fill-rule="evenodd" stroke="none"/>
    </g>
    <g id="shape1" transform="matrix(1.0, 0.0, 0.0, 1.0, -68.95, 82.05)">
      <path d="M69.0 41.0 Q95.9 53.9 121.0 42.0 M120.0 42.0 L305.95 -82.0" fill="none" stroke="#ff0000" stroke-linecap="round" stroke-linejoin="round" stroke-width="0.1"/>
    </g>
  </defs>
</svg>
