<?xml version="1.0" encoding="UTF-8" standalone="no"?>
<svg xmlns:xlink="http://www.w3.org/1999/xlink" height="219.1px" width="368.55px" xmlns="http://www.w3.org/2000/svg">
  <g transform="matrix(1.0, 0.0, 0.0, 1.0, 0.05, 0.05)">
    <use height="219.1" transform="matrix(1.0, 0.0, 0.0, 1.0, -0.05, -0.05)" width="368.55" xlink:href="#shape0"/>
  </g>
  <defs>
    <g id="shape0" transform="matrix(1.0, 0.0, 0.0, 1.0, 0.05, 0.05)">
      <path d="M351.4 105.3 L353.3 105.95 Q397.65 187.95 312.25 218.7 L310.35 218.05 Q265.5 137.9 351.4 105.3" fill="url(#gradient0)" fill-rule="evenodd" stroke="none"/>
      <path d="M61.1 0.3 L61.95 0.0 351.4 105.3 Q265.5 137.9 310.35 218.05 L20.9 112.75 19.0 109.95 Q-34.05 30.1 61.1 0.3 88.2 80.15 19.0 109.95 88.2 80.15 61.1 0.3" fill="url(#gradient1)" fill-rule="evenodd" stroke="none"/>
      <path d="M351.4 105.3 L353.3 105.95 Q397.65 187.95 312.25 218.7 L310.35 218.05 310.05 219.0 M351.4 105.3 L61.95 0.0 61.1 0.3 Q88.2 80.15 19.0 109.95 L20.9 112.75 310.35 218.05 Q265.5 137.9 351.4 105.3 M19.0 109.95 L18.1 112.3 M61.1 0.3 Q-34.05 30.1 19.0 109.95" fill="none" stroke="#00ccff" stroke-linecap="round" stroke-linejoin="round" stroke-width="0.1"/>
    </g>
    <linearGradient gradientTransform="matrix(0.1778, 0.0647, -0.025, 0.0688, 187.1, 109.4)" gradientUnits="userSpaceOnUse" id="gradient0" spreadMethod="pad" x1="-819.2" x2="819.2">
      <stop offset="0.09019607843137255" stop-color="#d7fff7"/>
      <stop offset="1.0" stop-color="#bdffff"/>
    </linearGradient>
    <linearGradient gradientTransform="matrix(0.1778, 0.0647, -0.025, 0.0688, 187.1, 109.4)" gradientUnits="userSpaceOnUse" id="gradient1" spreadMethod="pad" x1="-819.2" x2="819.2">
      <stop offset="0.0" stop-color="#00b8e9"/>
      <stop offset="1.0" stop-color="#bdffff"/>
    </linearGradient>
  </defs>
</svg>
