<?xml version="1.0" encoding="UTF-8" standalone="no"?>
<svg xmlns:xlink="http://www.w3.org/1999/xlink" height="71.5px" width="166.95px" xmlns="http://www.w3.org/2000/svg">
  <g transform="matrix(1.0, 0.0, 0.0, 1.0, 83.45, 9.5)">
    <use height="71.5" transform="matrix(1.0, 0.0, 0.0, 1.0, -83.45, -9.5)" width="166.95" xlink:href="#shape0"/>
  </g>
  <defs>
    <g id="shape0" transform="matrix(1.0, 0.0, 0.0, 1.0, 83.45, 9.5)">
      <path d="M35.1 49.55 L37.55 51.75 Q39.45 53.45 39.4 55.55 L39.3 56.2 Q39.1 54.4 37.45 53.0 L34.25 50.2 Q33.8 49.85 33.1 49.85 31.6 49.8 28.7 51.4 25.15 53.55 24.65 55.45 L24.6 54.7 Q24.7 52.55 28.8 50.25 L30.25 49.5 33.1 49.85 Q33.8 49.85 34.25 50.2 L37.45 53.0 Q39.1 54.4 39.3 56.2 38.85 57.85 37.0 59.0 34.7 60.4 31.65 60.3 28.65 60.1 26.6 58.4 24.85 57.05 24.65 55.45 25.15 53.55 28.7 51.4 31.6 49.8 33.1 49.85 L30.25 49.5 Q33.15 48.1 34.3 49.0 L35.1 49.55 33.0 49.5 35.1 49.55 M9.2 47.9 L10.85 49.3 Q12.7 51.0 12.5 53.2 L12.4 53.85 Q12.2 52.2 10.75 50.75 L7.35 47.95 6.95 47.65 9.2 47.9 6.95 47.65 7.35 47.95 10.75 50.75 Q12.2 52.2 12.4 53.85 12.05 55.55 10.15 56.65 7.95 58.0 4.85 57.9 1.85 57.65 -0.25 56.0 -1.9 54.7 -2.1 53.05 L-2.15 52.3 Q-2.05 50.15 2.1 47.75 L6.0 47.65 6.25 47.65 6.55 47.65 6.6 47.6 6.7 47.65 6.55 47.65 6.7 47.65 6.95 47.6 Q6.2 45.5 7.5 46.55 L9.2 47.9 M-22.6 45.5 L-22.35 45.7 -19.05 48.45 Q-17.25 50.15 -17.3 52.2 -17.45 54.35 -19.65 55.8 -21.9 57.1 -24.95 57.0 -28.0 56.85 -30.0 55.15 -32.15 53.55 -32.0 51.45 -31.9 49.3 -27.8 46.9 -25.6 45.65 -24.15 45.35 L-22.6 45.5 M6.0 47.65 Q4.4 47.85 1.95 49.3 -1.55 51.3 -2.1 53.05 -1.55 51.3 1.95 49.3 4.4 47.85 6.0 47.65 M6.95 47.65 L6.7 47.65 6.95 47.65 M-49.5 44.1 L-46.25 46.85 Q-44.35 48.55 -44.45 50.65 -44.55 52.75 -46.8 54.15 -49.05 55.6 -52.1 55.4 -55.1 55.25 -57.2 53.6 -59.35 51.95 -59.2 49.9 -59.05 47.75 -54.95 45.4 -50.95 42.95 -49.5 44.1" fill="#ffffff" fill-rule="evenodd" stroke="none"/>
      <path d="M83.0 -2.0 L64.3 48.3 66.15 48.2 M64.0 49.0 L64.3 48.3 35.1 49.55 33.0 49.5 M39.3 56.2 L39.3 56.8 Q39.15 58.9 36.95 60.25 34.65 61.6 31.55 61.5 28.55 61.3 26.55 59.6 24.4 58.05 24.6 55.9 24.55 55.65 24.65 55.45 M30.25 49.5 Q20.15 42.4 9.2 47.9 L6.95 47.65 7.35 47.95 10.75 50.75 Q12.2 52.2 12.4 53.85 L12.5 54.65 Q12.35 56.75 10.05 58.15 7.9 59.45 4.75 59.35 1.75 59.1 -0.3 57.45 -2.35 55.9 -2.25 53.75 L-2.1 53.05 Q-1.55 51.3 1.95 49.3 4.4 47.85 6.0 47.65 L6.25 47.65 6.55 47.65 Q-9.3 39.95 -22.6 45.5 L-22.35 45.7 -19.05 48.45 Q-17.25 50.15 -17.3 52.2 -17.45 54.35 -19.65 55.8 -21.9 57.1 -24.95 57.0 -28.0 56.85 -30.0 55.15 -32.15 53.55 -32.0 51.45 -31.9 49.3 -27.8 46.9 -25.6 45.65 -24.15 45.35 -38.0 39.45 -51.0 42.8 M6.95 47.6 L6.7 47.65 6.95 47.65 M6.7 47.65 L6.6 47.6 6.55 47.65 6.7 47.65 M39.3 56.2 Q39.1 54.4 37.45 53.0 L34.25 50.2 Q33.8 49.85 33.1 49.85 31.6 49.8 28.7 51.4 25.15 53.55 24.65 55.45 M33.1 49.85 L30.25 49.5 M-24.15 45.35 L-22.6 45.5 M-49.5 44.1 L-46.25 46.85 Q-44.35 48.55 -44.45 50.65 -44.55 52.75 -46.8 54.15 -49.05 55.6 -52.1 55.4 -55.1 55.25 -57.2 53.6 -59.35 51.95 -59.2 49.9 -59.05 47.75 -54.95 45.4 -50.95 42.95 -49.5 44.1 M-51.45 42.9 L-81.95 40.15 -82.95 40.05 M-64.95 -9.0 L-81.95 40.15" fill="none" stroke="#000000" stroke-linecap="round" stroke-linejoin="round" stroke-width="1.0"/>
    </g>
  </defs>
</svg>
