<?xml version="1.0" encoding="UTF-8" standalone="no"?>
<svg xmlns:xlink="http://www.w3.org/1999/xlink" height="81.6px" width="148.6px" xmlns="http://www.w3.org/2000/svg">
  <g transform="matrix(1.0, 0.0, 0.0, 1.0, 1.0, 1.0)">
    <use height="52.0" transform="matrix(1.0, 0.0, 0.0, 1.0, -1.0, -1.0)" width="130.0" xlink:href="#shape0"/>
    <use height="68.1" transform="matrix(1.0, 0.0, 0.0, 1.0, 16.0, 12.5)" width="131.6" xlink:href="#text0"/>
  </g>
  <defs>
    <g id="shape0" transform="matrix(1.0, 0.0, 0.0, 1.0, 1.0, 1.0)">
      <path d="M0.0 23.05 Q0.0 13.5 6.75 6.75 13.5 0.0 23.05 0.0 L104.95 0.0 Q114.5 0.0 121.25 6.75 128.0 13.5 128.0 23.05 L128.0 26.95 Q128.0 36.5 121.25 43.25 114.5 50.0 104.95 50.0 L23.05 50.0 Q13.5 50.0 6.75 43.25 0.0 36.5 0.0 26.95 L0.0 23.05" fill="url(#gradient0)" fill-rule="evenodd" stroke="none"/>
      <path d="M0.0 23.05 L0.0 26.95 Q0.0 36.5 6.75 43.25 13.5 50.0 23.05 50.0 L104.95 50.0 Q114.5 50.0 121.25 43.25 128.0 36.5 128.0 26.95 L128.0 23.05 Q128.0 13.5 121.25 6.75 114.5 0.0 104.95 0.0 L23.05 0.0 Q13.5 0.0 6.75 6.75 0.0 13.5 0.0 23.05 Z" fill="none" stroke="#000000" stroke-linecap="round" stroke-linejoin="round" stroke-width="2.0"/>
    </g>
    <radialGradient cx="0" cy="0" gradientTransform="matrix(0.0789, 0.0, 0.0, 0.0789, 64.0, 25.0)" gradientUnits="userSpaceOnUse" id="gradient0" r="819.2" spreadMethod="pad">
      <stop offset="0.0" stop-color="#ff0000"/>
      <stop offset="1.0" stop-color="#ff1c43"/>
    </radialGradient>
  </defs>
</svg>
