<?xml version="1.0" encoding="UTF-8" standalone="no"?>
<svg xmlns:xlink="http://www.w3.org/1999/xlink" height="236.85px" width="476.7px" xmlns="http://www.w3.org/2000/svg">
  <g transform="matrix(1.0, 0.0, 0.0, 1.0, -259.65, 86.35)">
    <use height="222.0" transform="matrix(1.402, 0.1597, -0.2131, 0.5125, 537.8237, -15.1008)" width="36.2" xlink:href="#shape0"/>
    <use height="222.0" transform="matrix(1.402, 0.1597, -0.2131, 0.5125, 489.0237, -33.9008)" width="36.2" xlink:href="#shape0"/>
    <use height="222.0" transform="matrix(1.402, 0.1597, -0.2131, 0.5125, 441.0237, -50.9008)" width="36.2" xlink:href="#shape0"/>
    <use height="219.1" transform="matrix(1.0, 0.0, 0.0, 1.0, 299.8, -86.35)" width="368.55" xlink:href="#sprite0"/>
    <clipPath id="clipPath0" transform="matrix(1.0, 0.0, 0.0, 1.0, -259.65, 86.35)">
      <use height="234.5" transform="matrix(1.0, 0.0, 0.0, 1.0, 378.95, -84.0)" width="271.5" xlink:href="#shape2"/>
    </clipPath>
    <g clip-path="url(#clipPath0)">
      <use height="34.75" id="playedd" transform="matrix(0.9154, 0.3996, -0.3996, 0.9154, 513.5392, 11.1661)" width="175.7" xlink:href="#sprite1"/>
    </g>
    <use height="148.45" transform="matrix(1.0, 0.0, 0.0, 1.0, 422.65, -47.9)" width="153.05" xlink:href="#shape6"/>
  </g>
  <defs>
    <g id="shape0" transform="matrix(1.0, 0.0, 0.0, 1.0, 55.7, 12.5)">
      <path d="M-40.85 -11.8 Q-35.8 -9.5 -32.15 20.35 -29.75 40.0 -28.8 64.65 -28.5 72.2 -28.35 80.2 -28.2 89.05 -28.2 98.5 -28.2 117.4 -28.85 134.0 -29.55 150.25 -30.8 164.35 L-32.15 176.6 Q-35.8 206.5 -40.85 208.8 L-41.7 209.0 -42.2 208.95 Q-47.5 207.55 -51.25 176.6 -55.2 144.3 -55.2 98.5 -55.2 52.7 -51.25 20.35 -47.5 -10.55 -42.2 -11.9 L-41.7 -12.0 -40.85 -11.8 M-42.2 73.0 L-42.9 77.75 -43.3 82.05 -43.55 84.95 Q-44.0 91.9 -44.0 100.45 L-44.0 101.25 Q-43.95 114.0 -42.9 123.1 L-42.2 127.9 Q-41.6 131.1 -40.85 132.1 L-40.2 132.5 Q-39.75 132.5 -39.35 131.8 -38.3 129.9 -37.5 123.1 L-37.3 121.55 Q-36.4 112.65 -36.4 100.45 -36.4 90.6 -37.0 82.9 L-37.5 77.75 Q-38.6 68.35 -40.2 68.35 L-40.85 68.8 Q-41.6 69.75 -42.2 73.0" fill="url(#gradient0)" fill-rule="evenodd" stroke="none"/>
      <path d="M-40.85 -11.8 Q-35.8 -9.5 -32.15 20.35 -29.75 40.0 -28.8 64.65 -28.5 72.2 -28.35 80.2 -28.2 89.05 -28.2 98.5 -28.2 117.4 -28.85 134.0 -29.55 150.25 -30.8 164.35 L-32.15 176.6 Q-35.8 206.5 -40.85 208.8 L-41.7 209.0 -42.2 208.95 Q-47.5 207.55 -51.25 176.6 -55.2 144.3 -55.2 98.5 -55.2 52.7 -51.25 20.35 -47.5 -10.55 -42.2 -11.9 L-41.7 -12.0 -40.85 -11.8 M-42.2 73.0 Q-41.6 69.75 -40.85 68.8 L-40.2 68.35 Q-38.6 68.35 -37.5 77.75 L-37.0 82.9 Q-36.4 90.6 -36.4 100.45 -36.4 112.65 -37.3 121.55 L-37.5 123.1 Q-38.3 129.9 -39.35 131.8 -39.75 132.5 -40.2 132.5 L-40.85 132.1 Q-41.6 131.1 -42.2 127.9 L-42.9 123.1 Q-43.95 114.0 -44.0 101.25 L-44.0 100.45 Q-44.0 91.9 -43.55 84.95 L-43.3 82.05 -42.9 77.75 -42.2 73.0" fill="none" stroke="#cccccc" stroke-linecap="round" stroke-linejoin="round" stroke-width="1.0"/>
      <path d="M-32.65 -11.8 Q-27.6 -9.5 -23.95 20.35 -21.55 40.0 -20.6 64.65 -20.3 72.2 -20.15 80.2 -20.0 89.05 -20.0 98.5 -20.0 117.4 -20.65 134.0 -21.35 150.25 -22.6 164.35 L-23.95 176.6 Q-27.6 206.5 -32.65 208.8 L-33.5 209.0 -34.0 208.95 Q-39.3 207.55 -43.05 176.6 -47.0 144.3 -47.0 98.5 -47.0 52.7 -43.05 20.35 -39.3 -10.55 -34.0 -11.9 L-33.5 -12.0 -32.65 -11.8 M-32.0 68.35 L-32.65 68.8 Q-33.4 69.75 -34.0 73.0 L-34.7 77.75 -35.1 82.05 -35.35 84.95 Q-35.8 91.9 -35.8 100.45 L-35.8 101.25 Q-35.75 114.0 -34.7 123.1 L-34.0 127.9 Q-33.4 131.1 -32.65 132.1 -32.35 132.5 -32.0 132.5 -31.55 132.5 -31.15 131.8 -30.1 129.9 -29.3 123.1 L-29.1 121.55 Q-28.2 112.65 -28.2 100.45 -28.2 90.6 -28.8 82.9 L-29.3 77.75 Q-30.4 68.35 -32.0 68.35" fill="url(#gradient1)" fill-rule="evenodd" stroke="none"/>
      <path d="M-32.65 -11.8 Q-27.6 -9.5 -23.95 20.35 -21.55 40.0 -20.6 64.65 -20.3 72.2 -20.15 80.2 -20.0 89.05 -20.0 98.5 -20.0 117.4 -20.65 134.0 -21.35 150.25 -22.6 164.35 L-23.95 176.6 Q-27.6 206.5 -32.65 208.8 L-33.5 209.0 -34.0 208.95 Q-39.3 207.55 -43.05 176.6 -47.0 144.3 -47.0 98.5 -47.0 52.7 -43.05 20.35 -39.3 -10.55 -34.0 -11.9 L-33.5 -12.0 -32.65 -11.8 M-32.0 68.35 Q-30.4 68.35 -29.3 77.75 L-28.8 82.9 Q-28.2 90.6 -28.2 100.45 -28.2 112.65 -29.1 121.55 L-29.3 123.1 Q-30.1 129.9 -31.15 131.8 -31.55 132.5 -32.0 132.5 -32.35 132.5 -32.65 132.1 -33.4 131.1 -34.0 127.9 L-34.7 123.1 Q-35.75 114.0 -35.8 101.25 L-35.8 100.45 Q-35.8 91.9 -35.35 84.95 L-35.1 82.05 -34.7 77.75 -34.0 73.0 Q-33.4 69.75 -32.65 68.8 L-32.0 68.35" fill="none" stroke="#cccccc" stroke-linecap="round" stroke-linejoin="round" stroke-width="1.0"/>
    </g>
    <linearGradient gradientTransform="matrix(0.0165, 0.0, 0.0, 0.1349, -41.7, 98.5)" gradientUnits="userSpaceOnUse" id="gradient0" spreadMethod="pad" x1="-819.2" x2="819.2">
      <stop offset="0.0" stop-color="#4a7464"/>
      <stop offset="1.0" stop-color="#ffffff"/>
    </linearGradient>
    <linearGradient gradientTransform="matrix(0.0165, 0.0, 0.0, 0.1349, -33.5, 98.5)" gradientUnits="userSpaceOnUse" id="gradient1" spreadMethod="pad" x1="-819.2" x2="819.2">
      <stop offset="0.0" stop-color="#4a7464"/>
      <stop offset="1.0" stop-color="#ffffff"/>
    </linearGradient>
    <g id="sprite0" transform="matrix(1.0, 0.0, 0.0, 1.0, 0.05, 0.05)">
      <use height="219.1" transform="matrix(1.0, 0.0, 0.0, 1.0, -0.05, -0.05)" width="368.55" xlink:href="#shape1"/>
    </g>
    <g id="shape1" transform="matrix(1.0, 0.0, 0.0, 1.0, 0.05, 0.05)">
      <path d="M351.4 105.3 L353.3 105.95 Q397.65 187.95 312.25 218.7 L310.35 218.05 Q265.5 137.9 351.4 105.3" fill="url(#gradient2)" fill-rule="evenodd" stroke="none"/>
      <path d="M61.1 0.3 L61.95 0.0 351.4 105.3 Q265.5 137.9 310.35 218.05 L20.9 112.75 19.0 109.95 Q-34.05 30.1 61.1 0.3 88.2 80.15 19.0 109.95 88.2 80.15 61.1 0.3" fill="url(#gradient3)" fill-rule="evenodd" stroke="none"/>
      <path d="M351.4 105.3 L353.3 105.95 Q397.65 187.95 312.25 218.7 L310.35 218.05 310.05 219.0 M351.4 105.3 L61.95 0.0 61.1 0.3 Q88.2 80.15 19.0 109.95 L20.9 112.75 310.35 218.05 Q265.5 137.9 351.4 105.3 M19.0 109.95 L18.1 112.3 M61.1 0.3 Q-34.05 30.1 19.0 109.95" fill="none" stroke="#00ccff" stroke-linecap="round" stroke-linejoin="round" stroke-opacity="0.5176471" stroke-width="0.1"/>
    </g>
    <linearGradient gradientTransform="matrix(0.1778, 0.0647, -0.025, 0.0688, 187.1, 109.4)" gradientUnits="userSpaceOnUse" id="gradient2" spreadMethod="pad" x1="-819.2" x2="819.2">
      <stop offset="0.09019607843137255" stop-color="#d7fff7" stop-opacity="0.5176471"/>
      <stop offset="1.0" stop-color="#bdffff" stop-opacity="0.5176471"/>
    </linearGradient>
    <linearGradient gradientTransform="matrix(0.1778, 0.0647, -0.025, 0.0688, 187.1, 109.4)" gradientUnits="userSpaceOnUse" id="gradient3" spreadMethod="pad" x1="-819.2" x2="819.2">
      <stop offset="0.0" stop-color="#00b8e9" stop-opacity="0.5176471"/>
      <stop offset="1.0" stop-color="#bdffff" stop-opacity="0.5176471"/>
    </linearGradient>
    <g id="shape2" transform="matrix(1.0, 0.0, 0.0, 1.0, -378.95, 84.0)">
      <path d="M493.75 140.95 L490.45 141.0 Q444.25 141.0 411.6 108.05 378.95 75.1 378.95 28.5 378.95 -18.1 411.6 -51.05 444.25 -84.0 490.45 -84.0 514.65 -84.0 535.15 -74.95 553.75 -66.75 569.3 -51.05 601.95 -18.1 601.95 28.5 601.95 75.1 569.3 108.05 537.85 139.8 493.75 140.95" fill="#f9fb5d" fill-rule="evenodd" stroke="none"/>
      <path d="M535.15 -74.95 L538.45 -75.0 Q584.65 -75.0 617.3 -42.05 649.95 -9.1 649.95 37.5 649.95 84.1 617.3 117.05 584.65 150.0 538.45 150.0 514.25 150.0 493.75 140.95" fill="none" stroke="#f9fb5d" stroke-linecap="round" stroke-linejoin="round" stroke-width="1.0"/>
    </g>
    <g id="sprite1" transform="matrix(1.0, 0.0, 0.0, 1.0, 48.65, -6.45)">
      <use height="137.9" transform="matrix(0.0707, -0.0016, 0.0016, 0.0714, 99.0427, 23.9858)" width="392.8" xlink:href="#sprite2"/>
      <use height="137.9" transform="matrix(0.0707, -0.0016, 0.0016, 0.0714, 16.5927, 7.0858)" width="392.8" xlink:href="#sprite2"/>
      <use height="137.9" transform="matrix(0.0707, -0.0016, 0.0016, 0.0714, 59.9927, 30.1858)" width="392.8" xlink:href="#sprite2"/>
      <use height="137.9" transform="matrix(0.0707, -0.0016, 0.0016, 0.0714, 59.9927, 16.1858)" width="392.8" xlink:href="#sprite2"/>
      <use height="137.9" transform="matrix(0.0707, -0.0016, 0.0016, 0.0714, -0.0073, 10.1858)" width="392.8" xlink:href="#sprite2"/>
      <use height="137.9" transform="matrix(0.0707, -0.0016, 0.0016, 0.0714, 29.9927, 13.1858)" width="392.8" xlink:href="#sprite2"/>
      <use height="137.9" transform="matrix(0.0707, -0.0016, 0.0016, 0.0714, 79.4427, 21.2858)" width="392.8" xlink:href="#sprite2"/>
      <use height="137.9" transform="matrix(0.0707, -0.0016, 0.0016, 0.0714, 38.9427, 23.9858)" width="392.8" xlink:href="#sprite2"/>
      <use height="137.9" transform="matrix(0.0707, -0.0016, 0.0016, 0.0714, -48.6573, 31.3358)" width="392.8" xlink:href="#sprite2"/>
      <use height="137.9" transform="matrix(0.0707, -0.0016, 0.0016, 0.0714, -34.6073, 30.1858)" width="392.8" xlink:href="#sprite2"/>
      <use height="137.9" transform="matrix(0.0707, -0.0016, 0.0016, 0.0714, -29.0573, 13.1858)" width="392.8" xlink:href="#sprite2"/>
      <use height="137.9" transform="matrix(0.0707, -0.0016, 0.0016, 0.0714, -14.3073, 26.2358)" width="392.8" xlink:href="#sprite2"/>
      <use height="137.9" transform="matrix(0.0707, -0.0016, 0.0016, 0.0714, -43.0573, 18.5858)" width="392.8" xlink:href="#sprite2"/>
      <use height="137.9" transform="matrix(0.0707, -0.0016, 0.0016, 0.0714, 7.1427, 30.1858)" width="392.8" xlink:href="#sprite2"/>
      <use height="137.9" transform="matrix(0.0707, -0.0016, 0.0016, 0.0714, -14.3073, 16.1858)" width="392.8" xlink:href="#sprite2"/>
    </g>
    <g id="sprite2" transform="matrix(1.0, 0.0, 0.0, 1.0, 0.05, 2.3)">
      <use height="13.0" transform="matrix(1.0, 0.0, 0.0, 1.0, 199.6, 17.2)" width="18.0" xlink:href="#shape3"/>
      <use height="115.1" transform="matrix(1.0, 0.0, 0.0, 1.0, -0.05, 20.5)" width="119.1" xlink:href="#shape4"/>
      <use height="102.7" transform="matrix(0.5335, 0.0, 0.0, 0.5324, 129.0995, -2.2926)" width="494.2" xlink:href="#sprite3"/>
    </g>
    <g id="shape3" transform="matrix(1.0, 0.0, 0.0, 1.0, -199.6, -17.2)">
      <path d="M214.6 19.45 Q217.1 21.2 217.1 23.7 217.1 26.2 214.6 27.95 212.1 29.7 208.6 29.7 205.1 29.7 202.6 27.95 200.1 26.2 200.1 23.7 200.1 21.2 202.6 19.45 205.1 17.7 208.6 17.7 212.1 17.7 214.6 19.45" fill="#f9fb5d" fill-rule="evenodd" stroke="none"/>
      <path d="M214.6 19.45 Q217.1 21.2 217.1 23.7 217.1 26.2 214.6 27.95 212.1 29.7 208.6 29.7 205.1 29.7 202.6 27.95 200.1 26.2 200.1 23.7 200.1 21.2 202.6 19.45 205.1 17.7 208.6 17.7 212.1 17.7 214.6 19.45 Z" fill="none" stroke="#f9fb5d" stroke-linecap="round" stroke-linejoin="round" stroke-width="1.0"/>
    </g>
    <g id="shape4" transform="matrix(1.0, 0.0, 0.0, 1.0, -273.9, 46.05)">
      <path d="M375.5 -29.15 Q392.95 -12.3 392.95 11.5 392.95 35.3 375.5 52.15 358.1 69.0 333.45 69.0 308.8 69.0 291.35 52.15 273.95 35.3 273.95 11.5 273.95 -12.3 291.35 -29.15 308.8 -46.0 333.45 -46.0 358.1 -46.0 375.5 -29.15" fill="url(#gradient4)" fill-rule="evenodd" stroke="none"/>
      <path d="M375.5 -29.15 Q392.95 -12.3 392.95 11.5 392.95 35.3 375.5 52.15 358.1 69.0 333.45 69.0 308.8 69.0 291.35 52.15 273.95 35.3 273.95 11.5 273.95 -12.3 291.35 -29.15 308.8 -46.0 333.45 -46.0 358.1 -46.0 375.5 -29.15 Z" fill="none" stroke="#ffff00" stroke-linecap="round" stroke-linejoin="round" stroke-width="0.1"/>
    </g>
    <linearGradient gradientTransform="matrix(0.0726, 0.0, 0.0, 0.0702, 333.45, 11.5)" gradientUnits="userSpaceOnUse" id="gradient4" spreadMethod="pad" x1="-819.2" x2="819.2">
      <stop offset="0.0" stop-color="#f7fa02"/>
      <stop offset="1.0" stop-color="#ffffff"/>
    </linearGradient>
    <g id="sprite3" transform="matrix(1.0, 0.0, 0.0, 1.0, 1134.35, -612.7)">
      <use height="102.7" transform="matrix(1.0, 0.0, 0.0, 1.0, -1134.35, 612.7)" width="214.2" xlink:href="#shape5"/>
    </g>
    <g id="shape5" transform="matrix(1.0, 0.0, 0.0, 1.0, 47.7, 40.35)">
      <path d="M156.05 -0.8 Q166.0 8.45 166.0 21.5 166.0 34.55 156.05 43.75 146.1 53.0 132.0 53.0 117.9 53.0 107.95 43.75 98.0 34.55 98.0 21.5 98.0 8.45 107.95 -0.8 117.9 -10.0 132.0 -10.0 146.1 -10.0 156.05 -0.8" fill="#ffff00" fill-rule="evenodd" stroke="none"/>
      <path d="M50.7 13.35 L2.0 12.95 2.0 58.05 M2.0 -36.05 L2.0 12.95 -43.4 12.55" fill="none" stroke="#ffff00" stroke-linecap="round" stroke-linejoin="round" stroke-width="8.65"/>
      <path d="M156.05 -0.8 Q166.0 8.45 166.0 21.5 166.0 34.55 156.05 43.75 146.1 53.0 132.0 53.0 117.9 53.0 107.95 43.75 98.0 34.55 98.0 21.5 98.0 8.45 107.95 -0.8 117.9 -10.0 132.0 -10.0 146.1 -10.0 156.05 -0.8" fill="none" stroke="#ffff00" stroke-linecap="round" stroke-linejoin="round" stroke-width="1.0"/>
    </g>
    <g id="shape6" transform="matrix(1.0, 0.0, 0.0, 1.0, -422.65, 47.9)">
      <path d="M471.9 -47.4 L472.55 -47.2 473.6 -46.6 Q479.7 -42.55 477.9 -25.4 476.7 -14.05 472.55 -1.0 L469.7 7.1 465.85 16.4 Q461.7 26.0 457.2 34.05 452.65 41.85 447.9 48.3 L443.45 53.7 Q432.05 66.8 424.95 65.05 L423.8 64.65 423.15 64.4 441.05 23.35 Q441.05 25.25 441.85 26.2 L442.6 26.8 443.85 26.9 Q445.7 26.55 448.25 23.55 L448.85 22.9 Q452.0 18.95 454.7 12.75 456.85 7.75 457.75 3.5 L458.25 0.6 Q458.85 -4.75 456.75 -5.7 L455.8 -5.8 Q454.6 -5.8 453.15 -4.45 L471.9 -47.4 M520.7 -30.25 L521.75 -29.65 Q527.85 -25.6 526.05 -8.45 524.85 2.9 520.7 15.95 L517.85 24.05 514.0 33.35 Q509.85 42.95 505.35 51.0 500.8 58.8 496.05 65.25 L491.6 70.65 Q480.2 83.75 473.1 82.0 L471.95 81.6 471.3 81.35 489.2 40.3 Q489.2 42.2 490.0 43.15 L490.75 43.75 492.0 43.85 Q493.85 43.5 496.4 40.5 L497.0 39.85 Q500.15 35.9 502.85 29.7 505.0 24.7 505.9 20.45 L506.4 17.55 Q507.0 12.2 504.9 11.25 L503.95 11.15 Q502.75 11.15 501.3 12.5 L520.05 -30.45 520.7 -30.25 M570.0 -11.65 L571.05 -11.05 Q577.15 -6.95 575.25 10.2 574.0 21.55 569.75 34.55 L566.85 42.65 562.95 51.9 Q558.75 61.5 554.2 69.55 549.6 77.3 544.85 83.7 L540.35 89.1 Q528.9 102.15 521.8 100.35 L520.65 99.95 520.0 99.7 538.1 58.75 Q538.1 60.65 538.9 61.6 L539.65 62.2 540.9 62.3 Q542.75 61.95 545.3 59.0 L545.9 58.35 Q549.1 54.4 551.85 48.2 554.0 43.2 554.95 39.0 L555.45 36.1 Q556.1 30.75 554.0 29.75 L553.05 29.65 Q551.85 29.65 550.35 31.0 L569.35 -11.85 570.0 -11.65" fill="#7bc7ce" fill-rule="evenodd" stroke="none"/>
      <path d="M471.9 -47.4 L472.55 -47.2 473.6 -46.6 Q479.7 -42.55 477.9 -25.4 476.7 -14.05 472.55 -1.0 L469.7 7.1 465.85 16.4 Q461.7 26.0 457.2 34.05 452.65 41.85 447.9 48.3 L443.45 53.7 Q432.05 66.8 424.95 65.05 L423.8 64.65 423.15 64.4 M441.05 23.35 Q441.05 25.25 441.85 26.2 L442.6 26.8 443.85 26.9 Q445.7 26.55 448.25 23.55 L448.85 22.9 Q452.0 18.95 454.7 12.75 456.85 7.75 457.75 3.5 L458.25 0.6 Q458.85 -4.75 456.75 -5.7 L455.8 -5.8 Q454.6 -5.8 453.15 -4.45" fill="none" stroke="#cccccc" stroke-linecap="round" stroke-linejoin="round" stroke-width="1.0"/>
    </g>
  </defs>
</svg>
