<?xml version="1.0" encoding="UTF-8" standalone="no"?>
<svg xmlns:xlink="http://www.w3.org/1999/xlink" height="79.25px" width="138.5px" xmlns="http://www.w3.org/2000/svg">
  <g transform="matrix(1.0, 0.0, 0.0, 1.0, 1.0, 1.0)">
    <use height="47.3" transform="matrix(1.0, 0.0, 0.0, 1.0, -1.0, -1.0)" width="124.0" xlink:href="#shape0"/>
    <use height="68.1" transform="matrix(1.0, 0.0, 0.0, 1.0, 7.0, 10.15)" width="130.5" xlink:href="#text0"/>
  </g>
  <defs>
    <g id="shape0" transform="matrix(1.0, 0.0, 0.0, 1.0, 1.0, 1.0)">
      <path d="M115.25 39.55 Q108.5 45.3 98.95 45.3 L23.05 45.3 Q13.5 45.3 6.75 39.55 0.0 33.75 0.0 25.6 L0.0 19.7 Q0.0 11.55 6.75 5.75 13.5 0.0 23.05 0.0 L98.95 0.0 Q108.5 0.0 115.25 5.75 122.0 11.55 122.0 19.7 L122.0 25.6 Q122.0 33.75 115.25 39.55" fill="url(#gradient0)" fill-rule="evenodd" stroke="none"/>
      <path d="M115.25 39.55 Q122.0 33.75 122.0 25.6 L122.0 19.7 Q122.0 11.55 115.25 5.75 108.5 0.0 98.95 0.0 L23.05 0.0 Q13.5 0.0 6.75 5.75 0.0 11.55 0.0 19.7 L0.0 25.6 Q0.0 33.75 6.75 39.55 13.5 45.3 23.05 45.3 L98.95 45.3 Q108.5 45.3 115.25 39.55 Z" fill="none" stroke="#000000" stroke-linecap="round" stroke-linejoin="round" stroke-width="2.0"/>
    </g>
    <radialGradient cx="0" cy="0" gradientTransform="matrix(0.0753, 0.0, 0.0, 0.0643, 61.0, 22.65)" gradientUnits="userSpaceOnUse" id="gradient0" r="819.2" spreadMethod="pad">
      <stop offset="0.0" stop-color="#ff0000"/>
      <stop offset="1.0" stop-color="#ff1c43"/>
    </radialGradient>
  </defs>
</svg>
