<?xml version="1.0" encoding="UTF-8" standalone="no"?>
<svg xmlns:xlink="http://www.w3.org/1999/xlink" height="393.55px" width="74.2px" xmlns="http://www.w3.org/2000/svg">
  <g transform="matrix(1.0, 0.0, 0.0, 1.0, 88.4, 170.0)">
    <use height="185.65" transform="matrix(1.0, 0.0, 0.0, 0.573, -74.85, 94.8458)" width="50.9" xlink:href="#sprite0"/>
    <clipPath id="clipPath0" transform="matrix(1.0, 0.0, 0.0, 1.0, 88.4, 170.0)">
      <use height="77.55" transform="matrix(1.0, 0.0, 0.0, 1.0, -60.7, -22.6)" width="19.1" xlink:href="#shape1"/>
    </clipPath>
    <g clip-path="url(#clipPath0)">
      <use height="1.2" id="water" transform="matrix(1.0182, -0.1853, 7.0E-4, 44.6923, -60.7, -24.15)" width="19.15" xlink:href="#sprite1"/>
    </g>
    <use height="3.05" transform="matrix(1.0, 0.0, 0.0, 1.0, -61.0, -25.95)" width="19.55" xlink:href="#shape3"/>
    <use height="306.0" transform="matrix(1.0, 0.0, 0.0, 1.0, -88.4, -170.0)" width="74.2" xlink:href="#sprite2"/>
  </g>
  <defs>
    <g id="sprite0" transform="matrix(1.0, 0.0, 0.0, 1.0, 0.5, 135.25)">
      <use height="185.65" transform="matrix(1.0, 0.0, 0.0, 1.0, -0.5, -135.25)" width="50.9" xlink:href="#shape0"/>
    </g>
    <g id="shape0" transform="matrix(1.0, 0.0, 0.0, 1.0, 0.5, 135.25)">
      <path d="M30.25 24.35 Q37.2 25.05 42.5 27.85 49.9 31.65 49.9 37.0 49.9 42.3 42.5 46.1 35.3 49.9 25.0 49.9 14.65 49.9 7.25 46.1 0.0 42.3 0.0 37.0 0.0 31.65 7.25 27.85 11.5 25.65 16.75 24.75 L16.75 37.0 Q23.5 42.65 30.25 37.0 L30.25 24.35" fill="url(#gradient0)" fill-rule="evenodd" stroke="none"/>
      <path d="M30.25 17.9 L30.25 24.35 30.25 37.0 Q23.5 42.65 16.75 37.0 L16.75 24.75 16.75 15.15 30.25 17.9" fill="url(#gradient1)" fill-rule="evenodd" stroke="none"/>
      <path d="M30.25 -36.25 L30.25 17.9 16.75 15.15 16.75 -36.35 30.25 -36.25" fill="url(#gradient2)" fill-rule="evenodd" stroke="none"/>
      <path d="M16.75 -36.35 L16.75 -134.75 30.25 -134.75 30.25 -36.25 16.75 -36.35" fill="url(#gradient3)" fill-rule="evenodd" stroke="none"/>
      <path d="M16.75 -36.35 L16.75 -134.75 30.25 -134.75 30.25 -36.25 30.25 17.9 30.25 24.35 Q37.2 25.05 42.5 27.85 49.9 31.65 49.9 37.0 49.9 42.3 42.5 46.1 35.3 49.9 25.0 49.9 14.65 49.9 7.25 46.1 0.0 42.3 0.0 37.0 0.0 31.65 7.25 27.85 11.5 25.65 16.75 24.75 L16.75 15.15 16.75 -36.35 M16.75 37.0 L16.75 24.75 M30.25 24.35 L30.25 37.0" fill="none" stroke="#000000" stroke-linecap="round" stroke-linejoin="round" stroke-width="1.0"/>
      <path d="M30.25 37.0 Q23.5 42.65 16.75 37.0" fill="none" stroke="#cccccc" stroke-linecap="round" stroke-linejoin="round" stroke-width="1.0"/>
    </g>
    <linearGradient color-interpolation="linearRGB" gradientTransform="matrix(0.0304, 0.0, 0.0, 0.0158, 25.0, 37.0)" gradientUnits="userSpaceOnUse" id="gradient0" spreadMethod="pad" x1="-819.2" x2="819.2">
      <stop offset="0.00392156862745098" stop-color="#d0d0d0"/>
      <stop offset="0.49019607843137253" stop-color="#fcfafa"/>
      <stop offset="1.0" stop-color="#eeeeee"/>
    </linearGradient>
    <linearGradient color-interpolation="linearRGB" gradientTransform="matrix(0.0082, 0.0, 0.0, 0.0226, 23.5, 18.5)" gradientUnits="userSpaceOnUse" id="gradient1" spreadMethod="pad" x1="-819.2" x2="819.2">
      <stop offset="0.00392156862745098" stop-color="#d0d0d0"/>
      <stop offset="0.49019607843137253" stop-color="#fcfafa"/>
      <stop offset="1.0" stop-color="#eeeeee"/>
    </linearGradient>
    <linearGradient color-interpolation="linearRGB" gradientTransform="matrix(0.0082, 0.0, 0.0, 0.4104, 23.5, 110.55)" gradientUnits="userSpaceOnUse" id="gradient2" spreadMethod="pad" x1="-819.2" x2="819.2">
      <stop offset="0.00392156862745098" stop-color="#d0d0d0"/>
      <stop offset="0.49019607843137253" stop-color="#fcfafa"/>
      <stop offset="1.0" stop-color="#eeeeee"/>
    </linearGradient>
    <linearGradient color-interpolation="linearRGB" gradientTransform="matrix(0.0082, 0.0, 0.0, 0.2134, 23.5, 40.1)" gradientUnits="userSpaceOnUse" id="gradient3" spreadMethod="pad" x1="-819.2" x2="819.2">
      <stop offset="0.00392156862745098" stop-color="#d0d0d0"/>
      <stop offset="0.49019607843137253" stop-color="#fcfafa"/>
      <stop offset="1.0" stop-color="#eeeeee"/>
    </linearGradient>
    <g id="shape1" transform="matrix(1.0, 0.0, 0.0, 1.0, 60.7, 22.6)">
      <path d="M-59.9 54.8 L-60.7 54.8 -60.45 -22.55 -59.7 -22.55 -41.65 -22.45 -41.85 54.9 -59.9 54.8" fill="#ffcc00" fill-rule="evenodd" stroke="none"/>
      <path d="M-59.7 -22.55 L-41.65 -22.45 -41.85 54.9 -59.9 54.8" fill="none" stroke="#000000" stroke-linecap="round" stroke-linejoin="round" stroke-width="0.1"/>
    </g>
    <g id="sprite1" transform="matrix(1.0, 0.0, 0.0, 1.0, 0.0, 0.0)">
      <use height="0.25" transform="matrix(0.4642, 0.0, 0.0, 4.8, 0.0, -0.01)" width="41.25" xlink:href="#shape2"/>
    </g>
    <g id="shape2" transform="matrix(1.0, 0.0, 0.0, 1.0, 0.0, -0.05)">
      <path d="M41.25 0.3 L0.0 0.3 0.0 0.05 41.25 0.05 41.25 0.3" fill="#0099ff" fill-rule="evenodd" stroke="none"/>
    </g>
    <g id="shape3" transform="matrix(1.0, 0.0, 0.0, 1.0, 61.0, 25.95)">
      <path d="M-41.65 -23.1 L-60.8 -23.15 -60.8 -23.55 Q-51.3 -27.95 -41.65 -23.5 L-41.65 -23.1" fill="#0099ff" fill-rule="evenodd" stroke="none"/>
      <path d="M-41.65 -23.1 L-60.8 -23.15 -60.8 -23.55 Q-51.3 -27.95 -41.65 -23.5 L-41.65 -23.1 Z" fill="none" stroke="#0033ff" stroke-linecap="round" stroke-linejoin="round" stroke-width="0.4"/>
    </g>
    <g id="sprite2" transform="matrix(1.0, 0.0, 0.0, 1.0, 0.5, 1.0)">
      <use height="306.0" transform="matrix(1.0, 0.0, 0.0, 1.0, -0.5, -1.0)" width="74.2" xlink:href="#shape4"/>
    </g>
    <g id="shape4" transform="matrix(1.0, 0.0, 0.0, 1.0, 0.5, 1.0)">
      <path d="M46.85 286.0 L69.5 286.0 Q76.95 295.25 69.5 304.5 L4.7 304.5 Q-4.65 295.25 4.7 286.0 L26.85 286.0 26.85 295.6 Q36.85 299.45 46.85 295.6 L46.85 286.0" fill="url(#gradient4)" fill-rule="evenodd" stroke="none"/>
      <path d="M32.65 143.0 L32.4 143.0 32.4 112.0 40.4 112.0 40.4 142.9 Q36.5 142.1 32.65 143.0" fill="url(#gradient5)" fill-rule="evenodd" stroke="none"/>
      <path d="M33.4 106.5 L39.4 106.5 39.4 111.5 39.4 111.75 33.4 111.75 33.4 111.5 33.4 106.5" fill="url(#gradient6)" fill-rule="evenodd" stroke="none"/>
      <path d="M40.4 142.9 Q43.65 143.5 46.85 145.2 L46.85 174.5 46.85 187.75 46.85 209.25 46.85 218.75 46.85 228.25 46.85 240.75 46.85 251.75 46.85 286.0 46.85 295.6 Q36.85 299.45 26.85 295.6 L26.85 286.0 26.85 251.75 26.85 240.75 26.85 228.25 26.85 218.75 26.85 209.25 26.85 199.65 26.85 187.75 26.85 174.5 26.85 145.2 Q29.75 143.65 32.65 143.0 36.5 142.1 40.4 142.9 M46.85 174.5 Q37.85 171.6 26.85 174.5 37.85 171.6 46.85 174.5 M46.85 187.75 Q37.85 184.85 26.85 187.75 37.85 184.85 46.85 187.75 M46.85 218.75 Q37.85 215.85 26.85 218.75 37.85 215.85 46.85 218.75 M46.85 251.75 Q37.85 248.85 26.85 251.75 37.85 248.85 46.85 251.75 M46.85 240.75 Q37.85 237.85 26.85 240.75 37.85 237.85 46.85 240.75 M46.85 228.25 Q37.85 225.35 26.85 228.25 37.85 225.35 46.85 228.25 M46.85 209.25 Q37.85 206.35 26.85 209.25 37.85 206.35 46.85 209.25 M46.35 199.75 Q37.55 196.9 26.85 199.65 37.55 196.9 46.35 199.75" fill="url(#gradient7)" fill-rule="evenodd" stroke="none"/>
      <path d="M39.4 106.5 L39.4 106.25 33.4 106.25 33.4 106.5 33.4 111.5 M39.4 111.5 L39.4 106.5 M32.65 143.0 L32.4 143.0 32.4 112.0 40.4 112.0 40.4 142.9 Q43.65 143.5 46.85 145.2 L46.85 174.5 46.85 187.75 46.85 209.25 46.85 218.75 46.85 228.25 46.85 240.75 46.85 251.75 46.85 286.0 69.5 286.0 Q76.95 295.25 69.5 304.5 L4.7 304.5 Q-4.65 295.25 4.7 286.0 L26.85 286.0 26.85 251.75 26.85 240.75 26.85 228.25 26.85 218.75 26.85 209.25 26.85 199.65 26.85 187.75 26.85 174.5 26.85 145.2 Q29.75 143.65 32.65 143.0 36.5 142.1 40.4 142.9 M26.85 295.6 L26.85 286.0 M46.85 286.0 L46.85 295.6" fill="none" stroke="#000000" stroke-linecap="round" stroke-linejoin="round" stroke-opacity="0.5372549" stroke-width="1.0"/>
      <path d="M46.85 295.6 Q36.85 299.45 26.85 295.6" fill="none" stroke="#cccccc" stroke-linecap="round" stroke-linejoin="round" stroke-opacity="0.5372549" stroke-width="1.0"/>
      <path d="M35.85 105.0 L35.85 0.0" fill="none" stroke="#000000" stroke-linecap="round" stroke-linejoin="round" stroke-opacity="0.5372549" stroke-width="2.0"/>
      <path d="M26.85 199.65 L26.35 199.75 M26.85 187.75 Q37.85 184.85 46.85 187.75 M26.85 174.5 Q37.85 171.6 46.85 174.5 M26.85 199.65 Q37.55 196.9 46.35 199.75 M26.85 209.25 Q37.85 206.35 46.85 209.25 M26.85 228.25 Q37.85 225.35 46.85 228.25 M26.85 240.75 Q37.85 237.85 46.85 240.75 M26.85 251.75 Q37.85 248.85 46.85 251.75 M26.85 218.75 Q37.85 215.85 46.85 218.75" fill="none" stroke="url(#gradient8)" stroke-linecap="round" stroke-linejoin="round" stroke-width="0.1"/>
    </g>
    <linearGradient color-interpolation="linearRGB" gradientTransform="matrix(0.0396, 0.0, 0.0, 0.0113, 37.1, 295.25)" gradientUnits="userSpaceOnUse" id="gradient4" spreadMethod="pad" x1="-819.2" x2="819.2">
      <stop offset="0.00392156862745098" stop-color="#d0d0d0" stop-opacity="0.5372549"/>
      <stop offset="0.49019607843137253" stop-color="#fcfafa" stop-opacity="0.5372549"/>
      <stop offset="1.0" stop-color="#eeeeee" stop-opacity="0.5372549"/>
    </linearGradient>
    <linearGradient color-interpolation="linearRGB" gradientTransform="matrix(0.0049, 0.0, 0.0, 0.0189, 36.4, 127.5)" gradientUnits="userSpaceOnUse" id="gradient5" spreadMethod="pad" x1="-819.2" x2="819.2">
      <stop offset="0.00392156862745098" stop-color="#f2ff15" stop-opacity="0.5372549"/>
      <stop offset="0.49019607843137253" stop-color="#fcfafa" stop-opacity="0.5372549"/>
      <stop offset="1.0" stop-color="#ebf71d" stop-opacity="0.5372549"/>
    </linearGradient>
    <linearGradient color-interpolation="linearRGB" gradientTransform="matrix(0.0037, 0.0, 0.0, 0.0032, 36.4, 109.1)" gradientUnits="userSpaceOnUse" id="gradient6" spreadMethod="pad" x1="-819.2" x2="819.2">
      <stop offset="0.00392156862745098" stop-color="#ff1562" stop-opacity="0.5372549"/>
      <stop offset="0.49019607843137253" stop-color="#ff0000" stop-opacity="0.5372549"/>
      <stop offset="1.0" stop-color="#f50000" stop-opacity="0.5372549"/>
    </linearGradient>
    <linearGradient color-interpolation="linearRGB" gradientTransform="matrix(0.0122, 0.0, 0.0, 0.0918, 36.85, 220.4)" gradientUnits="userSpaceOnUse" id="gradient7" spreadMethod="pad" x1="-819.2" x2="819.2">
      <stop offset="0.00392156862745098" stop-color="#d0d0d0" stop-opacity="0.5372549"/>
      <stop offset="0.49019607843137253" stop-color="#fcfafa" stop-opacity="0.5372549"/>
      <stop offset="1.0" stop-color="#eeeeee" stop-opacity="0.5372549"/>
    </linearGradient>
    <linearGradient color-interpolation="linearRGB" gradientTransform="matrix(0.0126, 0.0, 0.0, 0.0481, 36.6, 212.4)" gradientUnits="userSpaceOnUse" id="gradient8" spreadMethod="pad" x1="-819.2" x2="819.2">
      <stop offset="0.00392156862745098" stop-color="#7e7979"/>
      <stop offset="0.49019607843137253" stop-color="#c2bcbc"/>
      <stop offset="1.0" stop-color="#6d6c6c"/>
    </linearGradient>
  </defs>
</svg>
