<?xml version="1.0" encoding="UTF-8" standalone="no"?>
<svg xmlns:xlink="http://www.w3.org/1999/xlink" height="221.65px" width="371.45px" xmlns="http://www.w3.org/2000/svg">
  <g transform="matrix(1.0, 0.0, 0.0, 1.0, 1.0, 1.0)">
    <use height="221.65" transform="matrix(1.0, 0.0, 0.0, 1.0, -1.0, -1.0)" width="371.45" xlink:href="#shape0"/>
  </g>
  <defs>
    <g id="shape0" transform="matrix(1.0, 0.0, 0.0, 1.0, 1.0, 1.0)">
      <path d="M304.6 99.7 Q300.9 99.3 295.1 94.25 289.75 89.65 284.7 83.0 L279.45 75.35 Q271.85 63.35 269.45 53.6 266.85 43.75 270.8 41.65 L271.95 41.3 Q275.8 40.65 282.8 46.7 L284.7 48.4 Q291.8 55.05 298.5 65.6 L298.7 65.95 Q306.05 77.6 308.5 87.4 310.15 93.7 309.1 96.8 308.55 98.5 307.15 99.25 L306.1 99.65 304.6 99.7" fill="#cccccc" fill-rule="evenodd" stroke="none"/>
      <path d="M309.1 96.8 L369.45 54.3 M304.6 99.7 L136.5 207.3 Q96.4 232.05 52.5 207.3 L2.5 178.3 M0.0 99.0 L50.0 128.0 Q93.9 152.75 134.0 128.0 L333.95 0.0" fill="none" stroke="#66ffff" stroke-linecap="round" stroke-linejoin="round" stroke-width="2.0"/>
    </g>
  </defs>
</svg>
