<?xml version="1.0" encoding="UTF-8" standalone="no"?>
<svg xmlns:xlink="http://www.w3.org/1999/xlink" height="225.0px" width="679.9px" xmlns="http://www.w3.org/2000/svg">
  <g transform="matrix(1.0, 0.0, 0.0, 1.0, 383.8, 126.9)">
    <clipPath id="clipPath0" transform="matrix(1.0, 0.0, 0.0, 1.0, 383.8, 126.9)">
      <use height="217.0" transform="matrix(1.0, 0.0, 0.0, 1.0, -328.0, -125.45)" width="375.95" xlink:href="#sprite0"/>
    </clipPath>
    <g clip-path="url(#clipPath0)">
      <use height="113.15" transform="matrix(1.0, 0.0, 0.0, 1.0, 64.95, -82.05)" width="215.05" xlink:href="#shape1"/>
    </g>
  </g>
  <defs>
    <g id="sprite0" transform="matrix(1.0, 0.0, 0.0, 1.0, 0.0, 0.0)">
      <use height="217.0" transform="matrix(1.0, 0.0, 0.0, 1.0, 0.0, 0.0)" width="375.95" xlink:href="#shape0"/>
    </g>
    <g id="shape0" transform="matrix(1.0, 0.0, 0.0, 1.0, 0.0, 0.0)">
      <path d="M375.95 217.0 L0.0 217.0 0.0 0.0 375.95 0.0 375.95 217.0" fill="#cccccc" fill-rule="evenodd" stroke="none"/>
    </g>
    <g id="shape1" transform="matrix(1.0, 0.0, 0.0, 1.0, -64.95, 82.05)">
      <path d="M65.0 28.0 Q86.35 36.0 113.0 23.0 L279.95 -82.0" fill="none" stroke="#0066cc" stroke-linecap="round" stroke-linejoin="round" stroke-width="0.1"/>
    </g>
  </defs>
</svg>
