<?xml version="1.0" encoding="UTF-8" standalone="no"?>
<svg xmlns:xlink="http://www.w3.org/1999/xlink" height="80.1px" width="159.75px" xmlns="http://www.w3.org/2000/svg">
  <g transform="matrix(1.0, 0.0, 0.0, 1.0, 0.0, 1.0)">
    <use height="52.0" transform="matrix(1.0, 0.0, 0.0, 1.0, 1.0, -1.0)" width="129.0" xlink:href="#shape0"/>
    <use height="68.1" transform="matrix(1.0, 0.0, 0.0, 1.0, 0.0, 11.0)" width="159.75" xlink:href="#text0"/>
  </g>
  <defs>
    <g id="shape0" transform="matrix(1.0, 0.0, 0.0, 1.0, -1.0, 1.0)">
      <path d="M2.0 23.05 Q2.0 13.5 8.75 6.75 15.5 0.0 25.05 0.0 L105.95 0.0 Q115.5 0.0 122.25 6.75 129.0 13.5 129.0 23.05 L129.0 26.95 Q129.0 36.5 122.25 43.25 115.5 50.0 105.95 50.0 L25.05 50.0 Q15.5 50.0 8.75 43.25 2.0 36.5 2.0 26.95 L2.0 23.05" fill="url(#gradient0)" fill-rule="evenodd" stroke="none"/>
      <path d="M2.0 23.05 L2.0 26.95 Q2.0 36.5 8.75 43.25 15.5 50.0 25.05 50.0 L105.95 50.0 Q115.5 50.0 122.25 43.25 129.0 36.5 129.0 26.95 L129.0 23.05 Q129.0 13.5 122.25 6.75 115.5 0.0 105.95 0.0 L25.05 0.0 Q15.5 0.0 8.75 6.75 2.0 13.5 2.0 23.05 Z" fill="none" stroke="#000000" stroke-linecap="round" stroke-linejoin="round" stroke-width="2.0"/>
    </g>
    <radialGradient cx="0" cy="0" gradientTransform="matrix(0.0782, 0.0, 0.0, 0.0782, 65.5, 25.0)" gradientUnits="userSpaceOnUse" id="gradient0" r="819.2" spreadMethod="pad">
      <stop offset="0.0" stop-color="#ff0000"/>
      <stop offset="1.0" stop-color="#ff1c43"/>
    </radialGradient>
  </defs>
</svg>
