<?xml version="1.0" encoding="UTF-8" standalone="no"?>
<svg xmlns:xlink="http://www.w3.org/1999/xlink" height="93.3px" width="41.8px" xmlns="http://www.w3.org/2000/svg">
  <g transform="matrix(1.0, 0.0, 0.0, 1.0, 0.15, 0.15)">
    <use height="10.3" transform="matrix(1.0, 0.0, 0.0, 1.0, 0.2, 67.25)" width="41.1" xlink:href="#shape0"/>
    <clipPath id="clipPath0" transform="matrix(1.0, 0.0, 0.0, 1.0, 0.15, 0.15)">
      <use height="38.4" transform="matrix(1.0, 0.0, 0.0, 1.0, 0.0, 36.1)" width="41.4" xlink:href="#shape1"/>
    </clipPath>
    <g clip-path="url(#clipPath0)">
      <use height="0.25" id="water" transform="matrix(1.0, 0.0, 0.0, -71.9824, 0.25, 74.3009)" width="41.25" xlink:href="#sprite0"/>
    </g>
    <use height="244.05" transform="matrix(0.2975, 0.0, 0.0, 0.3169, -0.1352, -0.1594)" width="140.45" xlink:href="#sprite1"/>
  </g>
  <defs>
    <g id="shape0" transform="matrix(1.0, 0.0, 0.0, 1.0, -0.2, -67.25)">
      <path d="M5.7 69.3 L5.65 69.3 5.65 68.6 37.0 68.6 37.0 69.25 37.05 69.25 37.05 73.55 37.15 73.85 37.05 73.85 37.05 74.3 Q34.35 75.25 28.2 76.2 22.05 77.15 15.6 75.9 L11.65 75.15 6.95 74.45 5.7 74.3 5.7 73.85 5.65 73.85 5.65 73.55 5.7 73.55 5.7 69.3 M37.05 73.85 L37.05 73.55 37.05 73.85" fill="#ff9966" fill-rule="evenodd" stroke="none"/>
      <path d="M37.05 69.25 L37.05 73.55 37.05 73.85 37.05 74.3 Q34.35 75.25 28.2 76.2 M15.6 75.9 L11.65 75.15 M6.95 74.45 L5.7 74.3 5.7 73.85 M5.7 73.55 L5.7 69.3" fill="none" stroke="#ffcc00" stroke-linecap="round" stroke-linejoin="round" stroke-width="0.05"/>
      <path d="M29.95 67.95 Q30.55 67.6 30.95 68.25 L31.1 68.8 31.05 69.15 30.85 69.35 30.95 69.45 31.2 69.85 31.3 70.1 31.25 70.25 31.35 70.15 31.45 70.1 31.55 70.0 31.65 69.9 31.95 69.75 Q32.25 70.25 32.7 70.0 L32.75 70.05 32.9 70.15 33.0 70.3 33.15 70.65 33.15 70.7 32.95 71.25 32.9 71.3 32.85 71.4 32.5 71.65 32.35 71.75 32.35 71.8 32.15 71.9 32.0 71.9 31.85 71.95 31.5 71.85 31.45 71.8 31.15 71.4 31.15 71.35 31.1 70.6 30.95 70.75 30.8 70.85 30.75 70.9 30.7 70.9 30.6 71.0 30.55 71.0 30.5 71.1 30.35 71.2 30.3 71.25 Q29.95 71.4 29.7 71.0 L29.65 70.95 29.6 70.9 29.55 70.8 29.25 70.65 29.2 70.6 29.15 70.5 29.1 70.4 29.0 70.05 Q28.95 69.85 29.05 69.7 L29.35 69.35 29.4 69.25 29.5 69.2 29.65 69.05 29.7 69.05 29.7 69.0 29.65 68.9 29.5 68.45 29.75 68.05 29.95 68.0 29.95 67.95 M27.95 67.8 Q28.3 67.7 28.65 68.1 L28.75 68.25 28.9 69.0 28.65 69.3 28.7 69.35 28.7 69.4 28.75 69.5 28.85 69.9 28.7 70.4 28.65 70.4 28.5 70.5 28.45 70.55 28.35 70.55 28.15 70.6 27.9 70.75 27.75 70.85 27.45 70.95 27.35 70.95 27.3 70.95 27.25 70.95 27.15 70.95 27.1 70.9 27.0 70.85 26.8 70.7 26.7 70.6 26.65 70.55 26.6 70.3 26.6 70.15 26.65 69.95 26.75 69.85 26.85 69.8 26.9 69.75 27.05 69.65 27.1 69.65 27.45 69.55 27.6 69.35 27.65 69.3 27.45 69.0 Q27.25 68.65 27.4 68.35 L27.7 67.95 27.95 67.8 M24.3 68.05 L24.2 68.75 24.25 68.8 24.4 69.0 24.45 69.1 24.5 69.3 24.5 69.85 24.35 70.0 24.2 70.05 24.0 70.1 24.05 70.25 24.15 70.75 24.1 70.9 23.8 71.3 23.65 71.4 23.6 71.45 23.45 71.5 Q23.85 71.45 24.15 71.9 L24.2 72.0 24.3 72.25 24.3 72.3 24.35 72.4 24.5 72.7 24.5 72.75 24.45 73.0 24.45 73.05 24.15 73.4 24.3 73.6 24.4 73.8 24.45 74.1 24.45 74.2 24.15 74.6 Q24.5 74.55 24.85 74.95 L24.95 75.1 25.3 74.85 25.6 74.75 25.4 74.5 25.4 74.45 25.3 74.2 25.25 74.0 25.3 73.7 25.75 73.05 26.1 72.85 26.25 72.8 26.3 72.8 26.25 72.75 26.15 72.45 26.05 72.6 26.05 72.65 25.8 72.8 25.2 72.95 24.7 72.55 24.65 72.45 24.5 72.15 24.5 72.0 Q24.45 71.65 24.7 71.45 L25.25 71.35 25.3 71.4 25.5 71.55 25.9 71.85 26.05 72.05 26.1 72.15 26.15 72.3 Q26.15 72.0 26.45 71.8 26.95 71.4 27.3 71.95 27.7 72.5 27.15 72.9 L26.8 73.05 26.9 73.2 Q27.3 74.0 26.55 74.6 L26.4 74.75 26.85 75.15 27.1 75.85 27.4 76.15 Q27.75 76.7 27.25 77.05 26.75 77.4 26.35 76.85 L26.25 76.7 25.35 76.75 24.85 76.25 24.8 76.15 24.7 76.2 Q24.15 76.65 23.8 76.35 L23.5 76.0 Q23.15 75.25 23.6 74.8 L23.2 74.65 23.05 74.45 Q22.8 73.95 23.15 73.6 L22.95 73.4 22.85 73.25 22.75 73.05 22.7 72.95 22.55 72.6 Q22.4 72.15 22.8 71.8 L22.95 71.7 23.0 71.65 23.25 71.55 23.15 71.55 23.0 71.5 22.85 71.4 22.7 71.15 22.65 71.0 22.5 70.8 22.35 70.6 22.3 70.2 22.3 70.15 22.4 69.95 22.6 69.75 22.65 69.7 23.05 69.55 23.1 69.55 23.05 69.4 23.05 69.35 22.85 69.25 22.4 68.95 22.3 68.85 22.2 68.55 22.25 68.25 22.8 67.55 Q23.85 66.85 24.2 67.75 L24.3 68.05 M25.1 68.65 L25.6 68.6 25.85 68.8 25.95 69.1 26.0 69.15 26.05 69.2 26.1 69.7 26.25 69.85 26.3 69.9 26.4 70.15 26.4 70.35 26.25 70.75 26.05 70.9 26.05 71.2 26.0 71.35 25.9 71.4 25.5 71.4 25.35 71.3 25.3 71.2 25.2 70.85 25.15 70.75 25.1 70.5 Q25.05 70.35 25.15 70.25 L25.15 70.15 25.25 70.05 25.05 69.85 25.0 69.75 24.9 69.55 24.9 69.5 24.9 69.35 Q24.65 68.95 25.1 68.7 L25.1 68.65 M21.6 69.4 L21.6 69.5 21.65 69.55 21.7 69.55 21.75 69.65 21.8 69.7 21.9 69.8 21.95 69.9 22.0 69.95 22.1 70.2 22.15 70.3 22.15 70.4 22.1 70.6 21.95 70.9 21.85 70.95 21.8 71.25 21.55 71.45 21.4 71.55 21.2 71.6 21.4 71.85 21.45 72.0 21.5 72.1 21.75 72.2 21.95 72.45 22.05 72.55 22.05 72.6 22.25 73.1 22.25 73.2 22.2 73.35 22.0 73.65 Q22.4 74.15 21.7 74.6 L20.5 74.5 Q20.2 74.1 20.4 73.8 L20.5 73.7 20.7 73.55 20.6 73.45 20.5 73.25 20.5 73.2 20.45 73.1 20.1 72.85 19.95 73.25 19.75 73.45 19.65 73.5 19.65 73.55 20.05 73.9 Q20.45 74.5 19.6 74.9 18.8 75.3 18.55 74.65 L18.5 74.1 18.65 73.9 18.95 73.65 19.0 73.65 18.7 73.5 18.65 73.45 18.6 73.4 Q18.35 73.15 18.45 72.9 L18.55 72.7 18.5 72.55 18.45 72.4 18.4 72.2 18.4 72.15 18.4 72.0 18.5 71.7 18.7 71.5 Q19.15 71.25 19.6 71.75 L19.75 71.95 19.85 72.1 19.9 72.25 20.0 72.0 20.25 71.8 20.3 71.7 Q20.6 71.5 20.85 71.45 L20.55 71.15 20.4 70.85 20.35 70.75 20.3 70.7 20.1 70.1 20.1 69.8 Q20.15 69.45 20.45 69.25 L20.55 69.25 20.55 69.2 20.65 69.2 20.65 69.15 20.7 69.05 20.85 68.9 20.85 68.85 21.2 68.8 21.5 69.05 21.6 69.35 21.6 69.4 M27.75 72.8 Q28.45 72.4 28.85 73.2 29.25 74.0 28.5 74.4 27.7 74.8 27.35 73.95 27.05 73.15 27.75 72.8 M29.3 73.4 L28.85 73.1 Q28.5 72.6 29.1 72.1 29.65 71.6 30.1 72.2 30.35 72.6 30.15 72.95 30.4 73.0 30.65 73.3 31.15 73.9 30.35 74.35 29.55 74.75 29.3 74.1 29.1 73.7 29.3 73.4 M36.6 68.0 L37.25 68.45 37.4 69.15 37.9 69.6 Q38.2 70.3 37.65 70.6 L37.45 70.7 37.1 70.95 36.0 71.0 35.75 70.75 35.65 70.55 35.6 70.4 35.7 70.0 35.8 69.95 35.85 69.9 36.15 69.7 36.45 69.65 36.35 69.6 Q35.85 69.7 35.5 69.15 L35.2 69.4 35.15 69.45 35.05 69.6 34.8 69.85 Q34.15 70.3 33.9 69.6 L33.85 69.15 Q33.25 68.35 34.05 67.9 34.85 67.4 35.4 68.15 L35.5 68.25 Q35.6 68.1 35.8 68.0 36.25 67.8 36.6 68.0 M33.3 67.95 L33.25 68.55 33.25 68.6 Q32.95 67.95 32.15 68.3 31.35 68.6 31.8 69.55 L31.9 69.7 31.8 69.65 31.55 69.4 31.5 69.35 31.35 69.05 Q31.2 68.55 31.9 68.2 32.15 68.05 32.35 68.05 L32.55 67.85 Q33.1 67.45 33.3 67.95 M32.85 68.8 L32.85 68.85 32.6 69.2 Q32.25 69.55 32.0 69.0 L31.9 68.8 Q31.8 68.45 32.2 68.3 32.65 68.1 32.8 68.5 L32.85 68.8 M32.35 72.35 Q32.75 72.25 33.2 72.7 L33.25 72.75 Q33.0 72.25 33.5 71.85 34.1 71.45 34.4 72.1 L34.55 72.5 34.75 72.7 Q35.25 73.25 34.5 73.8 33.85 74.3 33.35 73.8 L33.05 74.1 Q32.2 74.85 31.65 73.95 31.3 73.4 31.55 72.95 L31.85 72.55 32.35 72.35 M35.6 73.7 Q35.2 73.05 35.8 72.55 36.45 72.0 36.95 72.7 L37.15 73.25 37.3 73.45 Q37.7 74.15 36.95 74.55 36.2 74.9 35.95 74.15 L35.9 74.05 35.6 73.7 M6.05 67.6 L6.5 68.1 6.6 68.45 6.25 69.25 6.1 69.3 6.0 69.35 6.0 69.45 6.05 69.55 6.05 69.6 6.05 69.7 6.25 69.9 6.3 70.0 6.5 70.3 6.5 70.55 6.5 70.6 6.2 71.15 6.1 71.2 6.05 71.25 5.9 71.35 5.85 71.4 5.8 71.4 5.6 71.55 4.75 71.6 4.7 71.55 4.6 71.35 4.55 71.05 4.55 70.85 4.35 70.35 4.45 70.05 4.8 69.65 4.9 69.6 5.05 69.55 5.0 69.5 5.05 69.3 5.15 69.25 5.2 69.15 5.05 68.95 5.0 68.8 5.0 68.35 5.45 67.75 Q5.75 67.5 6.05 67.6 M4.7 73.75 Q4.2 72.9 4.75 72.3 L4.8 72.25 4.9 72.2 4.9 72.15 6.0 72.0 6.05 72.05 6.1 72.1 6.15 72.15 6.45 72.4 6.75 72.9 6.8 73.05 6.8 73.35 6.75 73.45 6.7 73.6 6.35 74.0 6.0 74.35 5.25 74.3 4.8 73.9 4.7 73.75 M10.0 68.75 L10.2 68.7 Q10.35 68.7 10.5 68.85 L10.65 69.1 10.75 69.35 10.75 69.6 10.7 69.7 10.6 69.85 10.45 69.95 10.4 70.0 10.35 70.0 10.35 70.05 10.3 70.1 10.35 70.15 10.4 70.25 10.45 70.3 10.45 70.4 10.2 70.75 10.15 70.75 9.85 70.9 Q10.0 70.9 10.15 71.1 10.35 71.4 10.2 71.65 L10.3 71.8 10.35 71.9 10.5 72.05 10.55 72.1 10.65 72.3 Q10.85 72.65 10.65 72.9 L10.6 72.95 10.35 73.1 10.3 73.15 10.25 73.15 10.2 73.2 10.2 73.25 10.45 73.75 10.5 73.85 10.55 73.9 10.7 74.25 10.8 74.4 Q11.0 74.85 10.6 75.15 L9.8 75.05 9.75 75.0 Q9.35 75.0 9.2 74.6 L9.15 74.15 9.2 74.05 9.1 73.9 8.9 73.55 Q8.75 73.2 9.15 73.0 L9.3 72.95 9.3 72.7 9.15 72.55 9.1 72.45 9.0 72.25 9.0 71.95 9.3 71.6 9.3 71.4 9.25 71.4 9.1 71.5 9.05 71.5 8.95 71.55 Q8.65 71.55 8.45 71.3 L8.45 71.25 8.4 71.15 8.3 70.95 8.05 71.2 8.0 71.2 7.9 71.25 Q8.4 71.2 8.65 71.75 L8.75 71.9 8.8 72.35 8.6 72.8 8.7 73.0 8.75 73.1 8.9 73.55 8.9 73.75 8.5 74.6 Q8.9 75.1 8.25 75.45 7.65 75.8 7.35 75.25 L7.3 75.1 6.95 74.8 6.85 74.6 Q6.6 74.1 6.75 73.65 L6.8 73.55 6.95 73.2 7.0 73.15 7.1 73.0 7.15 72.95 6.9 72.7 Q6.65 72.35 6.7 72.1 6.75 71.75 7.25 71.5 L7.3 71.45 Q7.45 71.35 7.65 71.3 L7.75 71.25 7.6 71.25 7.45 71.1 7.4 71.1 7.4 71.05 7.35 70.95 7.3 70.75 7.3 70.5 7.45 70.35 7.6 70.25 7.7 70.25 8.0 70.2 8.05 70.25 8.2 70.35 8.25 70.45 8.3 70.5 8.35 70.65 8.35 70.7 8.4 70.7 8.45 70.6 8.6 70.5 8.75 70.45 8.9 70.4 8.85 70.35 8.8 70.25 8.7 70.0 8.65 69.9 8.65 69.75 8.7 69.5 9.1 69.1 9.25 69.05 9.35 69.0 9.45 69.0 9.65 69.0 9.7 68.95 9.7 68.9 9.75 68.85 9.85 68.8 10.0 68.75 M8.25 68.9 L8.3 68.95 8.3 69.0 8.45 69.3 8.5 69.4 8.5 69.65 8.45 69.75 8.3 69.9 8.15 70.0 7.6 70.1 7.5 70.1 7.45 70.1 7.25 70.1 7.0 69.8 6.9 69.45 Q6.8 69.3 6.85 69.15 L6.85 69.05 7.0 68.85 7.1 68.75 7.2 68.7 7.2 68.65 Q7.4 68.5 7.6 68.5 L8.05 68.7 8.25 68.9 M9.45 70.75 L9.5 70.9 9.5 70.95 9.65 70.9 9.6 70.85 9.5 70.8 9.5 70.75 9.45 70.75 M12.1 67.85 Q12.55 67.75 13.0 68.35 L13.15 68.55 Q13.5 69.15 12.9 69.35 L12.7 69.4 12.7 69.5 12.75 69.6 12.9 69.75 12.95 69.85 13.0 69.95 13.05 69.85 13.1 69.8 13.35 69.45 13.4 69.25 13.4 69.2 13.6 68.9 13.7 68.8 13.75 68.8 13.8 68.75 13.85 68.7 13.95 68.65 14.2 68.55 14.7 68.5 15.4 69.05 15.4 69.1 15.6 69.0 15.7 69.0 15.85 68.95 15.85 68.7 16.25 68.2 16.4 68.15 16.75 68.05 17.3 68.4 17.4 68.55 Q17.55 69.0 17.15 69.3 L17.0 69.4 16.85 69.5 16.8 69.5 16.85 69.65 16.9 69.6 17.15 69.5 17.2 69.5 Q17.4 69.45 17.55 69.7 L17.65 69.9 17.65 70.05 17.65 70.15 17.45 70.45 17.35 70.5 17.3 70.55 16.85 70.6 16.75 70.55 16.65 70.4 16.6 70.2 16.6 70.15 16.45 70.25 16.4 70.3 16.7 70.65 16.85 71.15 16.85 71.2 16.8 71.35 16.95 71.55 17.1 72.1 16.95 72.35 16.85 72.45 16.55 72.5 16.4 72.4 16.25 72.2 16.05 71.75 15.95 71.65 15.9 71.6 15.7 71.4 15.7 71.35 15.65 71.35 Q15.35 70.85 15.8 70.45 L15.55 70.4 15.5 70.7 15.05 71.2 15.0 71.25 14.8 71.4 14.9 71.5 Q15.25 71.85 14.75 72.15 L14.85 72.25 15.1 72.65 15.1 72.85 15.05 73.05 15.15 73.15 15.3 73.35 Q15.7 74.0 15.15 74.55 L15.4 74.75 15.5 74.85 Q15.95 74.65 16.25 75.2 L16.35 75.45 16.55 75.25 Q16.95 75.0 17.25 75.4 17.5 75.75 17.05 76.05 16.55 76.3 16.35 75.9 L16.3 75.85 15.95 76.15 15.1 76.0 Q14.6 76.25 14.25 75.7 14.05 75.3 14.15 75.0 L13.6 74.5 13.5 73.95 13.6 73.55 13.6 73.5 13.8 73.3 13.7 73.2 13.65 73.05 13.6 72.9 Q13.45 72.4 13.85 72.1 L13.9 72.1 13.95 72.05 14.0 72.0 13.95 71.95 13.85 71.7 13.55 71.3 13.5 71.15 13.4 71.05 13.4 71.0 13.35 70.95 13.3 70.85 13.3 70.9 13.1 71.15 13.1 71.2 13.05 71.25 12.9 71.4 12.85 71.4 12.8 71.45 12.5 71.6 12.45 71.6 12.55 71.75 Q12.8 72.2 12.4 72.45 L12.35 72.5 12.4 72.5 12.45 72.55 12.55 72.65 12.65 72.8 12.75 73.15 12.95 73.2 13.25 73.45 13.35 73.55 13.35 73.6 13.4 73.65 13.45 73.9 12.95 74.5 11.9 74.6 11.65 74.35 Q11.4 74.05 11.45 73.85 L11.5 73.7 11.75 73.45 11.7 73.35 11.65 73.15 11.65 73.0 11.75 72.8 11.9 72.6 12.0 72.55 11.95 72.5 11.75 72.3 11.7 72.2 11.55 72.3 11.3 72.35 11.15 72.3 10.8 72.05 10.75 71.95 10.7 71.9 10.6 71.8 10.45 71.5 10.35 71.15 10.45 70.85 10.7 70.65 10.9 70.6 11.0 70.6 11.25 70.6 Q11.1 70.05 11.25 69.75 L11.3 69.7 11.25 69.65 Q11.0 69.2 11.5 68.9 L11.55 68.9 11.6 68.85 11.65 68.8 11.6 68.7 Q11.4 68.25 11.85 67.95 L12.1 67.85 M19.55 69.25 L19.5 69.25 19.55 69.6 19.6 69.7 19.7 69.8 19.9 70.25 19.8 70.4 19.65 70.6 19.65 70.65 19.45 70.95 19.3 71.05 19.25 71.1 18.55 71.25 18.25 71.05 18.15 70.95 18.0 70.65 17.95 70.5 17.9 70.2 Q17.9 69.9 18.25 69.75 L18.25 69.7 Q18.0 69.3 18.25 69.0 L18.5 68.75 18.55 68.75 18.6 68.7 18.6 68.55 18.7 68.35 18.9 68.1 19.15 67.95 Q19.4 67.9 19.65 68.2 L19.75 68.35 19.85 68.55 Q20.05 69.05 19.55 69.25 M16.65 72.7 L16.7 72.75 Q16.95 73.1 16.55 73.4 L16.5 73.4 16.25 73.5 Q15.95 73.55 15.8 73.25 L15.75 73.15 15.7 72.95 16.0 72.6 16.2 72.55 16.45 72.55 16.5 72.55 16.65 72.7 M16.45 73.6 L16.5 73.55 16.75 73.4 17.1 73.55 17.1 73.6 17.1 74.15 16.95 74.35 16.5 74.45 16.35 74.25 Q16.2 73.95 16.45 73.65 L16.45 73.6 M19.1 75.95 Q18.95 75.55 19.55 75.15 20.4 74.6 20.65 75.25 20.9 75.85 20.3 76.25 L20.3 76.3 Q20.7 77.0 20.05 77.4 19.4 77.85 19.0 77.05 18.6 76.3 19.1 75.95 M18.15 77.0 Q17.8 77.25 17.45 76.8 17.1 76.35 17.55 76.1 18.0 75.8 18.3 76.25 18.55 76.7 18.15 77.0 M12.9 75.8 Q12.4 76.0 12.15 75.6 11.9 75.2 12.35 74.85 12.8 74.5 13.1 75.05 13.4 75.6 12.9 75.8 M22.75 75.75 L22.95 75.95 Q23.4 76.5 22.75 77.0 22.05 77.5 21.75 77.0 L21.7 76.65 21.15 76.25 Q20.75 75.65 21.45 75.1 22.15 74.55 22.6 75.4 L22.75 75.75" fill="#ffcc00" fill-rule="evenodd" stroke="none"/>
      <path d="M0.2 74.45 L41.3 74.45 41.3 74.8 Q20.25 79.2 0.2 74.8 L0.2 74.45" fill="#0099ff" fill-rule="evenodd" stroke="none"/>
      <path d="M0.2 74.45 L41.3 74.45 41.3 74.8 Q20.25 79.2 0.2 74.8 L0.2 74.45 Z" fill="none" stroke="#0033ff" stroke-linecap="round" stroke-linejoin="round" stroke-width="0.05"/>
    </g>
    <g id="shape1" transform="matrix(1.0, 0.0, 0.0, 1.0, 0.0, -36.1)">
      <path d="M41.4 74.5 L0.0 74.5 0.0 36.1 41.4 36.1 41.4 74.5" fill="#0099ff" fill-rule="evenodd" stroke="none"/>
      <path d="M41.4 74.5 L0.0 74.5 0.0 36.1 41.4 36.1 41.4 74.5 Z" fill="none" stroke="#0033ff" stroke-linecap="round" stroke-linejoin="round" stroke-width="0.05"/>
    </g>
    <g id="sprite0" transform="matrix(1.0, 0.0, 0.0, 1.0, 0.0, -0.05)">
      <use height="0.25" transform="matrix(1.0, 0.0, 0.0, 1.0, 0.0, 0.05)" width="41.25" xlink:href="#shape2"/>
    </g>
    <g id="shape2" transform="matrix(1.0, 0.0, 0.0, 1.0, 0.0, -0.05)">
      <path d="M41.25 0.3 L0.0 0.3 0.0 0.05 41.25 0.05 41.25 0.3" fill="#0099ff" fill-opacity="0.5372549" fill-rule="evenodd" stroke="none"/>
    </g>
    <g id="sprite1" transform="matrix(1.0, 0.0, 0.0, 1.0, 87.0, 142.65)">
      <use height="244.05" transform="matrix(1.0, 0.0, 0.0, 1.0, -87.0, -142.65)" width="140.45" xlink:href="#shape3"/>
    </g>
    <g id="shape3" transform="matrix(1.0, 0.0, 0.0, 1.0, 87.0, 142.65)">
      <path d="M52.95 -75.0 L52.95 94.0 Q-16.55 107.85 -86.05 94.0 L-86.05 -75.0 -81.85 -75.0 Q-16.8 -64.15 48.25 -75.0 L52.95 -75.0" fill="url(#gradient0)" fill-rule="evenodd" stroke="none"/>
      <path d="M51.2 -75.5 L52.95 -75.0 48.25 -75.0 51.2 -75.5 M-86.05 -75.0 L-84.8 -75.5 -81.85 -75.0 -86.05 -75.0" fill="url(#gradient1)" fill-rule="evenodd" stroke="none"/>
      <path d="M48.25 -75.0 Q-16.8 -64.15 -81.85 -75.0 L-84.8 -75.5 Q-71.7 -80.75 -62.45 -88.0 -48.2 -99.15 -43.05 -115.0 L9.95 -115.0 Q16.2 -98.25 27.9 -88.0 37.65 -79.5 51.2 -75.5 L48.25 -75.0" fill="url(#gradient2)" fill-rule="evenodd" stroke="none"/>
      <path d="M51.2 -75.5 L52.5 -75.5 M51.2 -75.5 L52.95 -75.0 52.95 94.0 Q-16.55 107.85 -86.05 94.0 L-86.05 -75.0 -84.8 -75.5 -86.5 -75.5 M48.25 -75.0 Q-16.8 -64.15 -81.85 -75.0 M48.25 -75.0 L51.2 -75.5 Q37.65 -79.5 27.9 -88.0 16.2 -98.25 9.95 -115.0 L-43.05 -115.0 Q-48.2 -99.15 -62.45 -88.0 -71.7 -80.75 -84.8 -75.5 L-81.85 -75.0" fill="none" stroke="#000000" stroke-linecap="round" stroke-linejoin="round" stroke-opacity="0.5372549" stroke-width="1.0"/>
      <path d="M13.55 -115.9 Q-16.1 -106.45 -45.8 -115.9 -52.1 -126.75 -45.8 -142.15 L13.55 -142.15 Q18.5 -129.0 13.55 -115.9" fill="url(#gradient3)" fill-rule="evenodd" stroke="none"/>
      <path d="M13.55 -115.9 Q-16.1 -106.45 -45.8 -115.9 -52.1 -126.75 -45.8 -142.15 L13.55 -142.15 Q18.5 -129.0 13.55 -115.9 Z" fill="none" stroke="#000000" stroke-linecap="round" stroke-linejoin="round" stroke-opacity="0.5372549" stroke-width="1.0"/>
    </g>
    <linearGradient color-interpolation="linearRGB" gradientTransform="matrix(0.0848, 0.0, 0.0, 0.1074, -16.55, 12.95)" gradientUnits="userSpaceOnUse" id="gradient0" spreadMethod="pad" x1="-819.2" x2="819.2">
      <stop offset="0.00392156862745098" stop-color="#c3d6d7" stop-opacity="0.5372549"/>
      <stop offset="0.5019607843137255" stop-color="#ffffff" stop-opacity="0.5372549"/>
      <stop offset="1.0" stop-color="#c3d6d7" stop-opacity="0.5372549"/>
    </linearGradient>
    <linearGradient color-interpolation="linearRGB" gradientTransform="matrix(0.0848, 0.0, 0.0, 0.0269, -16.55, -97.0)" gradientUnits="userSpaceOnUse" id="gradient1" spreadMethod="pad" x1="-819.2" x2="819.2">
      <stop offset="0.00392156862745098" stop-color="#c3d6d7" stop-opacity="0.5372549"/>
      <stop offset="1.0" stop-color="#ffffff" stop-opacity="0.5372549"/>
    </linearGradient>
    <linearGradient color-interpolation="linearRGB" gradientTransform="matrix(0.0848, 0.0, 0.0, 0.0269, -16.55, -97.0)" gradientUnits="userSpaceOnUse" id="gradient2" spreadMethod="pad" x1="-819.2" x2="819.2">
      <stop offset="0.00392156862745098" stop-color="#c3d6d7" stop-opacity="0.5372549"/>
      <stop offset="0.49019607843137253" stop-color="#ffffff" stop-opacity="0.5372549"/>
      <stop offset="1.0" stop-color="#c3d6d7" stop-opacity="0.5372549"/>
    </linearGradient>
    <linearGradient color-interpolation="linearRGB" gradientTransform="matrix(0.0397, 0.0, 0.0, 0.0218, -16.5, -129.05)" gradientUnits="userSpaceOnUse" id="gradient3" spreadMethod="pad" x1="-819.2" x2="819.2">
      <stop offset="0.00392156862745098" stop-color="#6b6b6b" stop-opacity="0.5372549"/>
      <stop offset="0.49019607843137253" stop-color="#fcfafa" stop-opacity="0.5372549"/>
      <stop offset="1.0" stop-color="#4a4f4f" stop-opacity="0.5372549"/>
    </linearGradient>
  </defs>
</svg>
