<?xml version="1.0" encoding="UTF-8" standalone="no"?>
<svg xmlns:xlink="http://www.w3.org/1999/xlink" height="34.75px" width="175.7px" xmlns="http://www.w3.org/2000/svg">
  <g transform="matrix(1.0, 0.0, 0.0, 1.0, 48.65, -6.45)">
    <use height="137.9" transform="matrix(0.0707, -0.0016, 0.0016, 0.0714, 99.0427, 23.9858)" width="392.8" xlink:href="#sprite0"/>
    <use height="137.9" transform="matrix(0.0707, -0.0016, 0.0016, 0.0714, 16.5927, 7.0858)" width="392.8" xlink:href="#sprite0"/>
    <use height="137.9" transform="matrix(0.0707, -0.0016, 0.0016, 0.0714, 59.9927, 30.1858)" width="392.8" xlink:href="#sprite0"/>
    <use height="137.9" transform="matrix(0.0707, -0.0016, 0.0016, 0.0714, 59.9927, 16.1858)" width="392.8" xlink:href="#sprite0"/>
    <use height="137.9" transform="matrix(0.0707, -0.0016, 0.0016, 0.0714, -0.0073, 10.1858)" width="392.8" xlink:href="#sprite0"/>
    <use height="137.9" transform="matrix(0.0707, -0.0016, 0.0016, 0.0714, 29.9927, 13.1858)" width="392.8" xlink:href="#sprite0"/>
    <use height="137.9" transform="matrix(0.0707, -0.0016, 0.0016, 0.0714, 79.4427, 21.2858)" width="392.8" xlink:href="#sprite0"/>
    <use height="137.9" transform="matrix(0.0707, -0.0016, 0.0016, 0.0714, 38.9427, 23.9858)" width="392.8" xlink:href="#sprite0"/>
    <use height="137.9" transform="matrix(0.0707, -0.0016, 0.0016, 0.0714, -48.6573, 31.3358)" width="392.8" xlink:href="#sprite0"/>
    <use height="137.9" transform="matrix(0.0707, -0.0016, 0.0016, 0.0714, -34.6073, 30.1858)" width="392.8" xlink:href="#sprite0"/>
    <use height="137.9" transform="matrix(0.0707, -0.0016, 0.0016, 0.0714, -29.0573, 13.1858)" width="392.8" xlink:href="#sprite0"/>
    <use height="137.9" transform="matrix(0.0707, -0.0016, 0.0016, 0.0714, -14.3073, 26.2358)" width="392.8" xlink:href="#sprite0"/>
    <use height="137.9" transform="matrix(0.0707, -0.0016, 0.0016, 0.0714, -43.0573, 18.5858)" width="392.8" xlink:href="#sprite0"/>
    <use height="137.9" transform="matrix(0.0707, -0.0016, 0.0016, 0.0714, 7.1427, 30.1858)" width="392.8" xlink:href="#sprite0"/>
    <use height="137.9" transform="matrix(0.0707, -0.0016, 0.0016, 0.0714, -14.3073, 16.1858)" width="392.8" xlink:href="#sprite0"/>
  </g>
  <defs>
    <g id="sprite0" transform="matrix(1.0, 0.0, 0.0, 1.0, 0.05, 2.3)">
      <use height="13.0" transform="matrix(1.0, 0.0, 0.0, 1.0, 199.6, 17.2)" width="18.0" xlink:href="#shape0"/>
      <use height="115.1" transform="matrix(1.0, 0.0, 0.0, 1.0, -0.05, 20.5)" width="119.1" xlink:href="#shape1"/>
      <use height="102.7" transform="matrix(0.5335, 0.0, 0.0, 0.5324, 129.0995, -2.2926)" width="494.2" xlink:href="#sprite1"/>
    </g>
    <g id="shape0" transform="matrix(1.0, 0.0, 0.0, 1.0, -199.6, -17.2)">
      <path d="M214.6 19.45 Q217.1 21.2 217.1 23.7 217.1 26.2 214.6 27.95 212.1 29.7 208.6 29.7 205.1 29.7 202.6 27.95 200.1 26.2 200.1 23.7 200.1 21.2 202.6 19.45 205.1 17.7 208.6 17.7 212.1 17.7 214.6 19.45" fill="#f9fb5d" fill-rule="evenodd" stroke="none"/>
      <path d="M214.6 19.45 Q217.1 21.2 217.1 23.7 217.1 26.2 214.6 27.95 212.1 29.7 208.6 29.7 205.1 29.7 202.6 27.95 200.1 26.2 200.1 23.7 200.1 21.2 202.6 19.45 205.1 17.7 208.6 17.7 212.1 17.7 214.6 19.45 Z" fill="none" stroke="#f9fb5d" stroke-linecap="round" stroke-linejoin="round" stroke-width="1.0"/>
    </g>
    <g id="shape1" transform="matrix(1.0, 0.0, 0.0, 1.0, -273.9, 46.05)">
      <path d="M375.5 -29.15 Q392.95 -12.3 392.95 11.5 392.95 35.3 375.5 52.15 358.1 69.0 333.45 69.0 308.8 69.0 291.35 52.15 273.95 35.3 273.95 11.5 273.95 -12.3 291.35 -29.15 308.8 -46.0 333.45 -46.0 358.1 -46.0 375.5 -29.15" fill="url(#gradient0)" fill-rule="evenodd" stroke="none"/>
      <path d="M375.5 -29.15 Q392.95 -12.3 392.95 11.5 392.95 35.3 375.5 52.15 358.1 69.0 333.45 69.0 308.8 69.0 291.35 52.15 273.95 35.3 273.95 11.5 273.95 -12.3 291.35 -29.15 308.8 -46.0 333.45 -46.0 358.1 -46.0 375.5 -29.15 Z" fill="none" stroke="#ffff00" stroke-linecap="round" stroke-linejoin="round" stroke-width="0.1"/>
    </g>
    <linearGradient gradientTransform="matrix(0.0726, 0.0, 0.0, 0.0702, 333.45, 11.5)" gradientUnits="userSpaceOnUse" id="gradient0" spreadMethod="pad" x1="-819.2" x2="819.2">
      <stop offset="0.0" stop-color="#f7fa02"/>
      <stop offset="1.0" stop-color="#ffffff"/>
    </linearGradient>
    <g id="sprite1" transform="matrix(1.0, 0.0, 0.0, 1.0, 1134.35, -612.7)">
      <use height="102.7" transform="matrix(1.0, 0.0, 0.0, 1.0, -1134.35, 612.7)" width="214.2" xlink:href="#shape2"/>
    </g>
    <g id="shape2" transform="matrix(1.0, 0.0, 0.0, 1.0, 47.7, 40.35)">
      <path d="M156.05 -0.8 Q166.0 8.45 166.0 21.5 166.0 34.55 156.05 43.75 146.1 53.0 132.0 53.0 117.9 53.0 107.95 43.75 98.0 34.55 98.0 21.5 98.0 8.45 107.95 -0.8 117.9 -10.0 132.0 -10.0 146.1 -10.0 156.05 -0.8" fill="#ffff00" fill-rule="evenodd" stroke="none"/>
      <path d="M50.7 13.35 L2.0 12.95 2.0 58.05 M2.0 -36.05 L2.0 12.95 -43.4 12.55" fill="none" stroke="#ffff00" stroke-linecap="round" stroke-linejoin="round" stroke-width="8.65"/>
      <path d="M156.05 -0.8 Q166.0 8.45 166.0 21.5 166.0 34.55 156.05 43.75 146.1 53.0 132.0 53.0 117.9 53.0 107.95 43.75 98.0 34.55 98.0 21.5 98.0 8.45 107.95 -0.8 117.9 -10.0 132.0 -10.0 146.1 -10.0 156.05 -0.8" fill="none" stroke="#ffff00" stroke-linecap="round" stroke-linejoin="round" stroke-width="1.0"/>
    </g>
  </defs>
</svg>
