<?xml version="1.0" encoding="UTF-8" standalone="no"?>
<svg xmlns:xlink="http://www.w3.org/1999/xlink" height="2086.8px" width="1381.9px" xmlns="http://www.w3.org/2000/svg">
  <g transform="matrix(1.0, 0.0, 0.0, 1.0, 116.6, 563.3)">
    <use height="190.6" transform="matrix(1.0, 0.0, 0.0, 1.0, -116.25, -81.3)" width="256.6" xlink:href="#shape0"/>
    <clipPath id="clipPath0" transform="matrix(1.0, 0.0, 0.0, 1.0, 116.6, 563.3)">
      <use height="190.6" transform="matrix(1.0, 0.0, 0.0, 1.0, -116.6, -81.3)" width="256.6" xlink:href="#shape1"/>
    </clipPath>
    <g clip-path="url(#clipPath0)">
      <use height="635.4" id="electronsdropping1" transform="matrix(1.2545, 0.0, 0.0, 0.7702, -71.4365, -184.0392)" width="131.5" xlink:href="#sprite0"/>
      <use height="635.4" id="electronsdropping2" transform="matrix(1.2545, 0.0, 0.0, 0.7702, -103.3365, -361.4892)" width="131.5" xlink:href="#sprite0"/>
      <use height="5294.65" id="electron1" transform="matrix(0.2093, 0.0, 0.0, 0.3941, 1261.278, -563.312)" width="19.15" xlink:href="#sprite1"/>
    </g>
    <use height="115.1" id="vibrating5" transform="matrix(0.1182, 0.0, 0.0, 0.0902, -47.2374, 29.2482)" width="279.1" xlink:href="#sprite3"/>
    <use height="115.1" id="vibrating8" transform="matrix(0.1182, 0.0, 0.0, 0.0902, -51.5374, -0.2518)" width="279.1" xlink:href="#sprite3"/>
    <use height="115.1" id="vibrating4" transform="matrix(0.1182, 0.0, 0.0, 0.0902, -1.5374, 29.7482)" width="279.1" xlink:href="#sprite3"/>
    <use height="115.1" id="vibrating7" transform="matrix(0.1182, 0.0, 0.0, 0.0902, -21.5374, 7.7482)" width="279.1" xlink:href="#sprite3"/>
    <use height="115.1" id="vibrating9" transform="matrix(0.1182, 0.0, 0.0, 0.0902, -21.5374, -20.2518)" width="279.1" xlink:href="#sprite3"/>
    <use height="115.1" id="vibrating2" transform="matrix(0.1182, 0.0, 0.0, 0.0902, 38.4626, -10.2518)" width="279.1" xlink:href="#sprite3"/>
    <use height="115.1" id="vibrating6" transform="matrix(0.1182, 0.0, 0.0, 0.0902, 8.4626, 0.7482)" width="279.1" xlink:href="#sprite3"/>
    <use height="115.1" id="vibrating1" transform="matrix(0.1182, 0.0, 0.0, 0.0902, 18.4626, -40.2518)" width="279.1" xlink:href="#sprite3"/>
    <use height="115.1" id="vibrating3" transform="matrix(0.1182, 0.0, 0.0, 0.0902, 29.4626, 19.7482)" width="279.1" xlink:href="#sprite3"/>
    <use height="102.7" id="plus1" transform="matrix(0.0649, 0.0, 0.0, 0.0563, 33.7703, -42.3426)" width="494.2" xlink:href="#sprite4"/>
    <use height="102.7" id="plus2" transform="matrix(0.0649, 0.0, 0.0, 0.067, 54.0203, -11.3263)" width="494.2" xlink:href="#sprite4"/>
    <use height="102.7" id="plus3" transform="matrix(0.0649, 0.0, 0.0, 0.0617, 45.5203, 16.4296)" width="494.2" xlink:href="#sprite4"/>
    <use height="102.7" id="plus4" transform="matrix(0.0649, 0.0, 0.0, 0.0617, 15.0203, 28.1796)" width="494.2" xlink:href="#sprite4"/>
    <use height="102.7" id="plus5" transform="matrix(0.0649, 0.0, 0.0, 0.0617, -31.9797, 25.9296)" width="494.2" xlink:href="#sprite4"/>
    <use height="102.7" id="plus6" transform="matrix(0.0649, 0.0, 0.0, 0.0617, 23.5203, -2.3204)" width="494.2" xlink:href="#sprite4"/>
    <use height="102.7" id="plus7" transform="matrix(0.0649, 0.0, 0.0, 0.0617, -6.2297, 4.1796)" width="494.2" xlink:href="#sprite4"/>
    <use height="102.7" id="plus8" transform="matrix(0.0649, 0.0, 0.0, 0.0617, -36.2297, -2.8204)" width="494.2" xlink:href="#sprite4"/>
    <use height="102.7" id="plus9" transform="matrix(0.0649, 0.0, 0.0, 0.0617, -6.4797, -23.0704)" width="494.2" xlink:href="#sprite4"/>
  </g>
  <defs>
    <g id="shape0" transform="matrix(1.0, 0.0, 0.0, 1.0, 116.25, 81.3)">
      <path d="M99.7 -50.35 Q136.05 -23.7 136.05 14.0 136.05 51.7 99.7 78.35 63.4 105.0 12.05 105.0 -39.3 105.0 -75.65 78.35 -111.95 51.7 -111.95 14.0 -111.95 -23.7 -75.65 -50.35 -39.3 -77.0 12.05 -77.0 63.4 -77.0 99.7 -50.35" fill="url(#gradient0)" fill-rule="evenodd" stroke="none"/>
      <path d="M99.7 -50.35 Q136.05 -23.7 136.05 14.0 136.05 51.7 99.7 78.35 63.4 105.0 12.05 105.0 -39.3 105.0 -75.65 78.35 -111.95 51.7 -111.95 14.0 -111.95 -23.7 -75.65 -50.35 -39.3 -77.0 12.05 -77.0 63.4 -77.0 99.7 -50.35 Z" fill="none" stroke="#0099ff" stroke-linecap="round" stroke-linejoin="round" stroke-width="8.65"/>
    </g>
    <linearGradient gradientTransform="matrix(0.1513, 0.0, 0.0, 0.1111, 12.0, 14.0)" gradientUnits="userSpaceOnUse" id="gradient0" spreadMethod="pad" x1="-819.2" x2="819.2">
      <stop offset="0.0" stop-color="#ffffff"/>
      <stop offset="1.0" stop-color="#00deff"/>
    </linearGradient>
    <g id="shape1" transform="matrix(1.0, 0.0, 0.0, 1.0, 116.6, 81.3)">
      <path d="M99.35 -50.35 Q135.7 -23.7 135.7 14.0 135.7 51.7 99.35 78.35 63.05 105.0 11.7 105.0 -39.65 105.0 -76.0 78.35 -112.3 51.7 -112.3 14.0 -112.3 -23.7 -76.0 -50.35 -39.65 -77.0 11.7 -77.0 63.05 -77.0 99.35 -50.35" fill="#ffffff" fill-rule="evenodd" stroke="none"/>
      <path d="M99.35 -50.35 Q135.7 -23.7 135.7 14.0 135.7 51.7 99.35 78.35 63.05 105.0 11.7 105.0 -39.65 105.0 -76.0 78.35 -112.3 51.7 -112.3 14.0 -112.3 -23.7 -76.0 -50.35 -39.65 -77.0 11.7 -77.0 63.05 -77.0 99.35 -50.35 Z" fill="none" stroke="#ffffff" stroke-linecap="round" stroke-linejoin="round" stroke-width="8.65"/>
    </g>
    <g id="sprite0" transform="matrix(1.0, 0.0, 0.0, 1.0, 87.75, 141.05)">
      <use height="5294.65" id="electron1" transform="matrix(0.0639, 0.0, 0.0, 0.0958, -53.0582, -128.0774)" width="19.15" xlink:href="#sprite1"/>
      <use height="5294.65" id="electron1" transform="matrix(0.0639, 0.0, 0.0, 0.0958, -24.3582, -32.5274)" width="19.15" xlink:href="#sprite1"/>
      <use height="5294.65" id="electron1" transform="matrix(0.0639, 0.0, 0.0, 0.0958, -6.1582, -71.8774)" width="19.15" xlink:href="#sprite1"/>
      <use height="5294.65" id="electron1" transform="matrix(0.0639, 0.0, 0.0, 0.0958, 3.9418, -104.3774)" width="19.15" xlink:href="#sprite1"/>
      <use height="5294.65" id="electron1" transform="matrix(0.0639, 0.0, 0.0, 0.0958, 21.5918, -42.9274)" width="19.15" xlink:href="#sprite1"/>
      <use height="5294.65" id="electron1" transform="matrix(0.0639, 0.0, 0.0, 0.0958, -16.8582, -141.0274)" width="19.15" xlink:href="#sprite1"/>
      <use height="5294.65" id="electron1" transform="matrix(0.0639, 0.0, 0.0, 0.0958, 30.2418, -132.0274)" width="19.15" xlink:href="#sprite1"/>
      <use height="5294.65" id="electron1" transform="matrix(0.0639, 0.0, 0.0, 0.0958, -87.7582, -72.5274)" width="19.15" xlink:href="#sprite1"/>
      <use height="5294.65" id="electron1" transform="matrix(0.0639, 0.0, 0.0, 0.0958, 42.5418, -70.0274)" width="19.15" xlink:href="#sprite1"/>
      <use height="5294.65" id="electron1" transform="matrix(0.0639, 0.0, 0.0, 0.0958, -48.8582, -13.0274)" width="19.15" xlink:href="#sprite1"/>
      <use height="5294.65" id="electron1" transform="matrix(0.0639, 0.0, 0.0, 0.0958, -35.1582, -98.3774)" width="19.15" xlink:href="#sprite1"/>
    </g>
    <g id="sprite1" transform="matrix(1.0, 0.0, 0.0, 1.0, -3.0, 115.6)">
      <use height="1.2" transform="matrix(1.0, 0.0, 0.0, 1.0, 3.0, -115.6)" width="19.15" xlink:href="#sprite2"/>
    </g>
    <g id="sprite2" transform="matrix(1.0, 0.0, 0.0, 1.0, 0.0, 0.0)">
      <use height="0.25" transform="matrix(0.4642, 0.0, 0.0, 4.8, 0.0, -0.01)" width="41.25" xlink:href="#shape2"/>
    </g>
    <g id="shape2" transform="matrix(1.0, 0.0, 0.0, 1.0, 0.0, -0.05)">
      <path d="M41.25 0.3 L0.0 0.3 0.0 0.05 41.25 0.05 41.25 0.3" fill="#0099ff" fill-rule="evenodd" stroke="none"/>
    </g>
    <g id="sprite3" transform="matrix(1.0, 0.0, 0.0, 1.0, 812.75, -607.0)">
      <use height="115.1" transform="matrix(1.0, 0.0, 0.0, 1.0, -812.75, 607.0)" width="119.1" xlink:href="#shape3"/>
    </g>
    <g id="shape3" transform="matrix(1.0, 0.0, 0.0, 1.0, -273.9, 46.05)">
      <path d="M375.5 -29.15 Q392.95 -12.3 392.95 11.5 392.95 35.3 375.5 52.15 358.1 69.0 333.45 69.0 308.8 69.0 291.35 52.15 273.95 35.3 273.95 11.5 273.95 -12.3 291.35 -29.15 308.8 -46.0 333.45 -46.0 358.1 -46.0 375.5 -29.15" fill="url(#gradient1)" fill-rule="evenodd" stroke="none"/>
      <path d="M375.5 -29.15 Q392.95 -12.3 392.95 11.5 392.95 35.3 375.5 52.15 358.1 69.0 333.45 69.0 308.8 69.0 291.35 52.15 273.95 35.3 273.95 11.5 273.95 -12.3 291.35 -29.15 308.8 -46.0 333.45 -46.0 358.1 -46.0 375.5 -29.15 Z" fill="none" stroke="#ffff00" stroke-linecap="round" stroke-linejoin="round" stroke-width="0.1"/>
    </g>
    <linearGradient gradientTransform="matrix(0.0726, 0.0, 0.0, 0.0702, 333.45, 11.5)" gradientUnits="userSpaceOnUse" id="gradient1" spreadMethod="pad" x1="-819.2" x2="819.2">
      <stop offset="0.0" stop-color="#f7fa02"/>
      <stop offset="1.0" stop-color="#ffffff"/>
    </linearGradient>
    <g id="sprite4" transform="matrix(1.0, 0.0, 0.0, 1.0, 1134.35, -612.7)">
      <use height="102.7" transform="matrix(1.0, 0.0, 0.0, 1.0, -1134.35, 612.7)" width="214.2" xlink:href="#shape4"/>
    </g>
    <g id="shape4" transform="matrix(1.0, 0.0, 0.0, 1.0, 47.7, 40.35)">
      <path d="M156.05 -0.8 Q166.0 8.45 166.0 21.5 166.0 34.55 156.05 43.75 146.1 53.0 132.0 53.0 117.9 53.0 107.95 43.75 98.0 34.55 98.0 21.5 98.0 8.45 107.95 -0.8 117.9 -10.0 132.0 -10.0 146.1 -10.0 156.05 -0.8" fill="#ffff00" fill-rule="evenodd" stroke="none"/>
      <path d="M50.7 13.35 L2.0 12.95 2.0 58.05 M2.0 -36.05 L2.0 12.95 -43.4 12.55" fill="none" stroke="#ffff00" stroke-linecap="round" stroke-linejoin="round" stroke-width="8.65"/>
      <path d="M156.05 -0.8 Q166.0 8.45 166.0 21.5 166.0 34.55 156.05 43.75 146.1 53.0 132.0 53.0 117.9 53.0 107.95 43.75 98.0 34.55 98.0 21.5 98.0 8.45 107.95 -0.8 117.9 -10.0 132.0 -10.0 146.1 -10.0 156.05 -0.8" fill="none" stroke="#ffff00" stroke-linecap="round" stroke-linejoin="round" stroke-width="1.0"/>
    </g>
  </defs>
</svg>
