<?xml version="1.0" encoding="UTF-8" standalone="no"?>
<svg xmlns:xlink="http://www.w3.org/1999/xlink" height="55.25px" width="982.9px" xmlns="http://www.w3.org/2000/svg">
  <g transform="matrix(1.0, 0.0, 0.0, 1.0, 1.0, 1.0)">
    <use height="28.0" transform="matrix(1.0, 0.0, 0.0, 1.0, -1.0, -1.0)" width="877.95" xlink:href="#shape0"/>
    <use height="52.2" transform="matrix(1.0, 0.0, 0.0, 1.0, 10.0, 2.05)" width="971.9" xlink:href="#text0"/>
  </g>
  <defs>
    <g id="shape0" transform="matrix(1.0, 0.0, 0.0, 1.0, 1.0, 1.0)">
      <path d="M872.15 22.2 Q868.35 26.0 862.95 26.0 L13.0 26.0 Q7.6 26.0 3.8 22.2 0.0 18.4 0.0 13.0 0.0 7.6 3.8 3.8 7.6 0.0 13.0 0.0 L862.95 0.0 Q868.35 0.0 872.15 3.8 875.95 7.6 875.95 13.0 875.95 18.4 872.15 22.2" fill="#ffffff" fill-rule="evenodd" stroke="none"/>
      <path d="M872.15 22.2 Q875.95 18.4 875.95 13.0 875.95 7.6 872.15 3.8 868.35 0.0 862.95 0.0 L13.0 0.0 Q7.6 0.0 3.8 3.8 0.0 7.6 0.0 13.0 0.0 18.4 3.8 22.2 7.6 26.0 13.0 26.0 L862.95 26.0 Q868.35 26.0 872.15 22.2 Z" fill="none" stroke="#000000" stroke-linecap="round" stroke-linejoin="round" stroke-width="2.0"/>
    </g>
  </defs>
</svg>
