<?xml version="1.0" encoding="UTF-8" standalone="no"?>
<svg xmlns:xlink="http://www.w3.org/1999/xlink" height="103.45px" width="53.55px" xmlns="http://www.w3.org/2000/svg">
  <g transform="matrix(1.0, 0.0, 0.0, 1.0, 2.75, 5.2)">
    <use height="36.25" transform="matrix(1.0, 0.0, 0.0, 1.0, -2.75, 61.3)" width="53.55" xlink:href="#shape0"/>
    <use height="244.05" id="powder" transform="matrix(0.3692, 0.0, 0.0, 0.4239, -2.4232, -5.2156)" width="140.45" xlink:href="#sprite0"/>
  </g>
  <defs>
    <g id="shape0" transform="matrix(1.0, 0.0, 0.0, 1.0, 2.75, -61.3)">
      <path d="M-1.25 66.5 L-1.3 66.5 -1.3 62.5 49.7 62.5 49.7 66.3 49.75 66.3 49.75 90.6 49.9 92.2 49.75 92.25 49.25 92.3 49.75 92.3 49.75 94.75 Q24.25 100.35 -1.25 94.75 L-1.25 92.3 -1.3 92.3 -1.3 90.6 -1.25 90.6 -1.25 66.5 M49.75 92.25 L49.75 90.6 49.75 92.25" fill="#ff9966" fill-rule="evenodd" stroke="none"/>
      <path d="M49.75 66.3 L49.75 90.6 49.75 92.25 49.75 92.3 49.75 94.75 Q24.25 100.35 -1.25 94.75 L-1.25 92.3 M-1.25 90.6 L-1.25 66.5" fill="none" stroke="#ffcc00" stroke-linecap="round" stroke-linejoin="round" stroke-width="0.05"/>
      <path d="M29.65 61.75 Q30.0 62.3 29.35 62.7 L28.65 62.8 Q29.15 63.45 28.45 63.8 27.8 64.15 27.4 63.6 L27.35 63.5 26.95 63.45 26.45 64.1 Q25.75 64.6 25.3 63.7 L25.15 63.15 Q24.75 63.2 24.6 62.85 24.35 62.35 24.8 61.9 25.3 61.45 25.8 62.1 L26.0 62.55 26.35 62.6 Q26.25 62.1 26.8 61.7 27.55 61.15 27.9 62.05 L28.0 62.4 28.35 62.5 28.3 62.45 Q27.85 61.8 28.55 61.5 29.3 61.2 29.65 61.75 M29.7 64.2 Q29.25 63.25 30.1 62.85 30.95 62.45 31.7 63.15 L31.95 63.5 31.95 63.05 31.5 62.7 Q31.15 62.2 31.7 62.0 32.2 61.8 32.55 62.25 L32.65 62.4 33.0 62.5 33.4 62.8 33.75 63.4 33.25 64.05 32.75 64.3 32.95 64.5 Q33.3 65.0 33.1 65.35 33.4 65.95 32.85 66.3 L33.0 66.5 Q33.45 67.25 32.6 67.8 31.8 68.3 31.45 67.45 31.15 66.6 31.85 66.15 L32.0 66.1 31.9 65.8 31.35 65.4 Q30.95 64.95 31.2 64.6 L30.55 64.8 Q30.75 65.2 30.4 65.55 L30.55 65.8 30.6 65.85 30.85 66.15 Q31.3 66.9 30.6 67.15 31.05 67.95 30.45 68.3 L30.25 68.4 29.3 68.35 29.05 68.05 Q28.7 67.35 29.4 66.8 L29.45 66.8 Q29.2 66.5 29.45 66.2 29.3 65.8 29.75 65.55 L29.8 65.55 29.65 65.35 Q29.35 64.85 29.85 64.6 L29.95 64.55 29.7 64.2 M27.1 65.25 Q27.85 64.7 28.35 65.45 L28.4 65.55 28.55 66.05 28.75 66.4 Q28.95 67.1 28.4 67.5 L28.35 67.5 Q27.8 67.85 27.5 67.2 L27.5 67.1 27.25 67.05 26.85 66.6 Q26.4 65.9 26.95 65.4 L27.1 65.25 M25.9 65.65 L26.0 65.9 26.25 66.15 Q26.75 66.8 26.2 67.15 L26.25 67.25 Q26.5 67.75 26.0 68.0 25.55 68.25 25.2 67.75 24.9 67.4 25.15 67.2 L24.85 66.95 24.7 66.5 24.55 66.25 Q24.25 65.65 24.8 65.4 L24.75 65.3 Q24.35 64.65 25.05 64.4 25.75 64.1 26.0 64.65 26.25 65.15 25.8 65.55 L25.9 65.65 M22.9 63.35 L22.4 63.8 Q21.55 64.3 21.2 63.55 20.85 62.85 21.5 62.5 L21.85 62.4 Q22.3 62.35 22.7 62.75 L22.8 62.85 23.05 62.25 23.35 62.1 Q23.75 62.0 24.15 62.45 24.75 63.05 24.0 63.55 23.25 64.0 22.9 63.35 M20.8 62.9 Q20.2 63.3 19.75 62.65 19.3 62.0 20.0 61.7 20.75 61.4 21.1 61.95 21.45 62.5 20.8 62.9 M21.6 64.65 Q21.85 65.15 21.65 65.6 L21.65 65.85 21.8 66.05 Q22.35 66.85 21.65 67.2 L21.9 67.5 Q22.3 68.25 21.6 68.5 L21.35 68.6 21.5 68.8 Q21.8 69.3 21.55 69.6 21.9 70.2 21.3 70.6 L21.65 71.05 Q22.1 71.95 21.3 72.5 L20.9 72.7 Q21.25 72.7 21.45 72.95 21.85 73.35 21.2 73.85 L20.95 74.0 21.0 74.05 Q21.35 74.65 20.8 74.95 20.2 75.25 19.95 74.65 19.7 74.1 20.15 73.8 L20.2 73.8 20.1 73.7 Q19.6 73.05 20.35 72.8 L20.7 72.7 Q20.3 72.65 20.0 72.1 L19.85 71.45 Q19.4 70.75 19.95 70.35 L20.05 70.3 Q19.9 69.85 20.25 69.5 19.9 68.9 20.5 68.5 L20.75 68.4 20.6 68.2 Q20.3 67.7 20.8 67.3 L20.2 66.9 Q19.9 66.5 20.15 66.1 L20.05 65.95 20.0 65.8 19.95 65.7 Q19.4 64.7 20.3 64.3 21.2 63.85 21.6 64.65 M22.65 65.75 L22.6 65.7 22.45 65.55 Q22.1 65.15 22.55 64.8 23.05 64.5 23.45 64.95 L23.5 65.0 Q23.8 64.95 24.1 65.45 24.45 66.05 24.1 66.45 L23.85 66.65 Q23.15 67.05 22.75 66.4 22.55 66.05 22.65 65.75 M24.1 67.35 Q24.8 68.1 23.9 68.6 23.05 69.05 22.6 68.3 22.15 67.5 22.8 67.05 23.45 66.55 24.1 67.35 M24.4 69.7 Q23.8 68.9 24.6 68.45 25.4 67.95 25.95 68.7 26.45 69.45 25.75 69.95 L25.7 70.0 25.95 70.25 Q26.3 70.65 26.05 70.9 L25.85 71.0 Q26.0 71.45 25.45 71.85 L24.65 72.0 24.35 71.65 Q24.0 70.95 24.55 70.5 24.7 70.35 24.9 70.35 L25.0 70.15 24.4 69.7 M24.2 69.65 Q24.55 70.2 23.95 70.85 L23.85 70.95 23.9 71.25 23.45 71.85 Q22.8 72.3 22.4 71.55 L22.35 71.4 Q22.1 70.8 22.65 70.5 L22.55 70.1 22.35 69.95 Q22.05 69.6 22.6 69.2 23.2 68.75 23.4 69.35 23.9 69.2 24.2 69.65 M22.8 73.95 L22.65 73.7 Q22.45 73.15 22.7 72.85 L22.95 72.6 23.6 72.5 24.0 72.85 Q24.45 73.45 23.7 73.95 L23.55 74.05 23.8 74.35 Q24.15 75.05 23.8 75.55 L23.85 75.65 24.0 75.95 24.3 76.25 24.4 76.4 Q24.3 75.95 24.45 75.65 L24.2 75.25 Q23.65 74.15 24.65 73.75 L25.0 73.7 24.95 73.65 Q24.5 73.1 25.0 72.6 L25.2 72.4 Q25.85 71.8 26.45 72.55 L26.55 72.7 Q27.15 73.65 26.35 74.0 L26.05 74.1 26.15 74.25 Q26.55 74.9 26.15 75.35 L26.3 75.65 Q26.7 76.55 26.15 77.05 L25.8 77.6 25.75 77.65 Q26.35 77.55 26.6 78.15 L26.95 77.85 27.15 77.8 26.75 77.45 Q26.4 76.8 27.1 76.2 L27.2 76.15 27.5 75.8 26.95 75.3 Q26.55 74.5 27.2 74.25 27.85 74.0 28.35 74.65 28.9 75.3 28.2 75.7 L28.4 75.95 28.45 76.75 Q28.5 77.2 27.95 77.55 L27.45 77.8 Q27.75 77.85 28.0 78.15 28.4 78.65 27.8 79.1 27.15 79.55 26.7 78.85 L26.65 78.75 26.1 79.15 25.8 79.2 26.0 79.45 Q26.4 80.15 25.75 80.55 25.1 80.95 24.75 80.35 24.4 79.7 25.0 79.25 L25.3 79.1 24.9 78.75 Q24.5 78.2 25.3 77.8 L24.8 77.45 24.65 76.95 24.5 76.7 24.5 76.65 Q24.55 77.1 23.9 77.55 L23.55 77.75 23.95 78.1 Q24.4 78.85 23.6 79.3 22.8 79.7 22.55 79.05 22.3 78.4 22.85 77.85 L23.05 77.75 22.55 77.25 Q22.25 76.65 22.6 76.25 22.35 75.85 22.45 75.6 L22.4 75.5 Q21.95 74.65 22.6 74.05 L22.8 73.95 M28.85 69.35 L28.8 69.4 28.95 69.75 29.0 69.65 29.3 69.25 Q29.95 68.7 30.4 69.4 L30.6 70.05 30.45 70.4 30.1 70.65 Q29.35 71.1 29.0 70.45 L29.0 70.4 28.9 70.15 28.4 70.65 27.95 70.85 28.4 71.25 Q28.9 71.95 28.1 72.45 L27.85 72.6 Q28.15 72.65 28.35 73.0 28.8 73.7 28.2 74.05 27.6 74.35 27.1 73.8 26.65 73.2 27.3 72.75 L27.45 72.7 26.9 72.25 26.8 71.95 26.75 71.9 Q26.35 71.25 26.9 70.8 L27.3 70.65 27.15 70.45 Q26.75 69.8 27.3 69.25 L27.25 69.15 Q26.55 68.3 27.3 67.95 28.1 67.55 28.65 68.35 L28.9 68.85 28.85 69.35 M30.0 71.15 Q30.2 71.55 29.8 71.8 29.45 72.05 29.25 71.65 29.0 71.25 29.4 71.0 29.8 70.75 30.0 71.15 M29.85 73.15 L30.6 73.25 Q30.85 73.5 30.45 73.85 L29.7 73.75 Q29.4 73.3 29.85 73.15 M40.2 63.4 L39.65 63.9 Q38.7 64.45 38.3 63.6 L38.15 63.15 37.65 63.7 Q36.75 64.25 36.25 63.4 L36.2 63.35 Q35.8 62.55 36.5 62.05 L36.7 61.95 Q37.25 61.65 37.7 62.1 L38.1 61.75 Q38.7 61.5 39.0 61.95 L39.1 62.35 Q39.5 62.3 39.9 62.65 L40.0 62.7 Q40.35 63.05 40.2 63.4 M38.2 62.85 L38.2 62.9 38.2 62.85 M39.0 64.75 Q39.2 65.15 38.8 65.45 38.45 65.8 38.15 65.3 37.9 64.8 38.35 64.6 38.8 64.4 39.0 64.75 M35.8 63.2 L35.35 63.75 Q34.65 64.25 34.2 63.35 L34.2 63.3 Q33.8 62.5 34.5 62.25 L34.65 62.25 35.4 62.35 35.65 62.6 35.8 63.2 M36.95 64.85 Q37.25 64.75 37.5 65.1 L37.55 65.8 37.15 66.3 37.3 66.6 Q37.45 67.15 37.15 67.5 37.5 68.25 36.85 68.55 L36.8 68.6 37.0 68.85 37.25 69.5 37.6 69.8 Q38.0 70.45 37.35 70.9 L37.25 71.0 36.7 71.05 36.5 71.35 35.85 71.2 35.8 71.05 Q35.65 70.75 35.95 70.55 L36.2 70.45 36.25 70.0 35.8 69.55 Q35.2 68.8 35.85 68.5 L36.0 68.45 35.95 68.35 Q35.75 67.85 36.1 67.5 L36.05 67.4 Q35.85 66.85 36.2 66.5 L35.65 66.15 Q35.1 65.5 35.85 64.9 L36.95 64.85 M39.7 66.4 Q40.25 67.15 39.5 67.45 39.75 68.0 39.35 68.25 L39.15 68.3 38.45 68.35 38.15 68.0 Q37.9 67.55 38.25 67.2 37.85 66.75 38.2 66.35 38.15 66.0 38.55 65.8 39.1 65.5 39.35 66.05 L39.7 66.4 M40.3 64.65 Q41.15 64.1 41.8 64.85 42.3 65.5 41.85 65.9 L41.5 66.5 41.45 66.55 41.45 66.6 Q41.7 67.0 41.25 67.25 L41.0 67.4 41.4 67.65 Q41.8 68.15 41.4 68.5 L41.25 68.55 40.55 68.6 40.35 68.35 Q40.05 67.8 40.5 67.45 L40.85 67.35 40.65 67.1 Q40.5 66.7 40.8 66.5 L40.65 66.3 40.6 66.25 40.1 65.85 Q39.5 65.15 40.3 64.65 M35.2 64.85 Q35.5 65.45 35.0 65.9 L35.05 65.95 35.1 66.55 Q35.4 67.0 35.2 67.3 35.5 67.9 34.95 68.25 L35.3 68.65 Q35.9 69.5 35.1 70.05 L35.0 70.15 Q35.5 70.8 35.05 71.25 L34.7 71.65 34.5 71.8 33.9 71.75 33.8 71.65 Q33.4 71.55 33.1 71.05 L33.0 70.85 32.9 71.4 32.4 72.1 Q31.65 72.55 31.3 71.95 31.0 71.45 31.45 71.0 31.4 70.8 31.5 70.65 L31.4 70.55 Q30.95 70.0 31.5 69.65 L31.25 69.45 Q31.0 69.2 31.45 68.9 31.85 68.55 32.0 69.0 L32.05 69.35 Q32.4 69.3 32.6 69.6 L32.65 70.3 32.85 70.55 32.9 70.6 Q32.7 70.0 33.25 69.55 L33.45 69.45 Q33.1 68.75 33.85 68.35 L34.0 68.3 33.65 67.95 Q33.3 67.5 33.6 67.2 33.35 66.9 33.6 66.6 33.4 66.1 33.65 65.85 L33.55 65.7 Q33.1 64.85 33.95 64.55 34.85 64.2 35.2 64.85 M32.2 64.1 L32.05 63.85 31.95 63.6 31.8 64.2 32.2 64.1 M31.95 73.25 Q32.55 72.9 33.0 73.5 33.35 73.95 33.0 74.35 33.2 74.95 32.7 75.4 L32.55 75.5 32.55 75.55 Q32.95 76.25 32.4 76.6 31.8 77.0 31.35 76.25 30.9 75.5 31.5 75.2 L31.7 75.15 31.65 75.1 Q31.35 74.55 31.6 74.15 31.45 73.55 31.95 73.25 M34.0 72.15 L34.6 71.9 Q35.15 71.75 35.65 72.55 L35.75 72.75 35.9 72.6 Q36.55 72.2 36.95 72.85 37.4 73.55 36.8 73.9 L36.65 73.95 37.35 74.5 Q37.75 75.0 37.5 75.4 L37.55 75.45 37.6 76.2 Q38.15 77.1 37.1 77.8 L36.9 77.95 37.05 78.1 Q37.5 78.65 36.85 79.1 L36.65 79.25 37.15 79.6 Q37.5 80.2 37.0 80.6 36.5 81.0 36.0 80.45 35.5 79.85 36.15 79.4 L36.4 79.3 35.7 78.8 Q35.35 78.2 35.75 77.95 L35.5 77.65 Q35.0 76.8 35.95 76.0 L36.2 75.8 35.7 75.25 Q35.2 74.3 35.95 74.0 L36.15 73.95 35.8 73.75 35.4 74.05 Q34.45 74.45 33.75 73.7 33.15 73.0 33.8 72.35 L34.0 72.15 M38.25 69.25 Q38.9 68.7 39.35 69.4 L39.5 70.0 39.55 70.05 Q40.05 70.75 39.45 71.6 L39.35 71.75 39.0 72.3 Q38.45 72.7 38.1 72.05 37.85 71.65 38.0 71.35 37.65 70.7 37.9 70.3 37.75 69.85 38.05 69.5 L38.25 69.25 M40.0 69.75 L40.2 69.55 40.95 69.45 Q41.35 69.4 41.65 69.8 L41.75 69.95 Q42.25 70.8 41.45 71.4 L41.3 71.5 41.55 71.75 Q41.9 72.35 41.2 72.8 L40.1 72.7 Q39.8 72.1 40.45 71.65 L40.6 71.55 40.05 71.05 Q39.8 70.6 39.9 70.25 39.8 69.95 40.0 69.75 M40.5 74.0 L40.45 73.95 Q40.2 73.35 40.7 73.05 41.2 72.75 41.6 73.25 42.0 73.8 41.35 74.2 L41.3 74.25 41.35 74.35 41.45 74.55 42.15 75.1 Q42.65 75.9 41.95 76.35 L41.7 76.5 41.9 76.7 Q42.25 77.25 41.65 77.65 L42.0 78.0 Q42.45 78.65 41.7 79.05 L41.1 79.2 41.2 79.35 Q41.6 79.9 41.0 80.25 L40.1 80.15 Q39.75 79.7 40.3 79.25 L40.9 79.1 40.75 78.85 Q40.5 78.25 41.05 77.85 L40.6 77.45 Q40.25 76.8 40.9 76.5 L41.15 76.4 40.7 75.9 40.6 75.7 40.2 75.3 Q39.8 74.6 40.35 74.1 L40.5 74.0 M39.2 72.8 Q39.55 73.2 38.95 73.7 38.3 74.15 37.85 73.55 37.45 72.95 38.1 72.7 L39.2 72.8 M14.75 61.85 L14.95 62.4 15.4 62.5 15.55 62.6 Q15.7 62.4 16.0 62.3 L16.7 62.25 17.55 62.8 Q18.1 63.65 17.15 64.3 L17.0 64.4 17.2 64.65 Q17.6 65.45 16.75 66.0 L16.7 66.05 16.8 66.3 17.0 66.5 Q17.55 67.25 16.75 67.55 L16.8 67.7 Q17.0 68.1 16.8 68.4 L16.85 68.5 Q17.3 69.1 16.7 69.55 L16.35 69.7 16.65 70.0 Q17.0 70.35 16.95 70.65 17.2 71.05 16.85 71.4 L16.85 71.45 Q17.3 72.1 16.7 72.5 L17.2 72.95 Q17.7 73.75 17.05 74.05 L17.0 74.05 Q16.4 74.3 15.95 73.85 L15.85 73.75 Q15.35 73.2 16.0 72.7 L16.1 72.65 15.6 72.2 Q15.3 71.65 15.6 71.3 L15.5 70.9 15.4 70.75 Q15.0 70.1 15.5 69.7 15.65 69.55 15.85 69.55 L15.6 69.3 Q15.15 68.75 15.6 68.4 L15.5 68.3 Q15.05 67.75 15.75 67.45 L15.6 67.3 15.55 67.25 Q15.2 67.15 15.0 66.7 L14.95 66.6 14.65 66.85 14.7 66.9 Q15.25 67.55 14.5 68.0 13.75 68.4 13.35 67.75 13.0 67.1 13.45 66.7 L13.6 66.45 Q13.4 65.9 13.9 65.5 13.45 65.6 13.1 65.2 12.7 64.7 13.3 64.3 13.9 63.95 14.35 64.5 14.8 64.95 14.4 65.3 L14.9 65.7 15.0 65.9 15.35 65.65 Q14.8 64.65 15.8 64.25 L15.9 64.25 15.65 63.85 15.55 63.9 Q14.75 64.4 14.45 63.7 L14.3 63.15 Q13.75 63.35 13.35 63.15 L12.85 63.7 Q12.05 64.2 11.75 63.5 L11.65 63.2 Q11.3 63.2 11.0 62.8 10.55 62.15 11.25 61.85 12.0 61.55 12.35 62.1 L12.5 62.4 12.8 62.5 Q12.45 61.7 13.25 61.4 14.2 61.05 14.75 61.85 M7.55 61.7 Q7.9 62.2 7.6 62.55 L7.7 62.6 7.85 62.6 Q8.3 62.65 8.6 63.1 9.1 63.85 8.25 64.45 L7.5 64.65 Q7.1 64.55 6.85 64.0 L6.6 63.6 Q6.4 63.1 6.55 62.8 L6.25 62.55 Q5.95 62.0 6.5 61.5 7.05 61.05 7.55 61.7 M8.65 62.45 Q8.7 62.05 9.15 61.75 10.05 61.1 10.45 62.15 L10.55 62.55 10.85 62.8 Q11.35 63.55 10.6 64.0 9.8 64.4 9.4 63.75 L9.3 63.7 8.85 63.2 Q8.6 62.8 8.65 62.45 M5.65 62.9 Q5.8 63.45 5.55 63.85 L5.25 64.1 Q4.65 64.6 4.2 63.7 L3.75 64.1 Q3.1 64.35 2.6 63.85 L1.8 64.1 1.3 63.6 Q1.0 62.9 1.4 62.35 L1.5 62.15 2.05 61.7 Q3.1 61.3 3.6 62.1 L3.65 62.2 Q4.05 62.2 4.2 62.75 L4.25 62.7 Q3.8 62.0 4.55 61.7 5.25 61.4 5.7 62.05 L5.9 62.55 5.65 62.85 5.65 62.9 M6.9 65.3 L6.95 65.3 7.1 65.2 7.65 65.25 8.1 65.65 Q8.4 66.1 8.1 66.5 L8.2 66.7 8.3 66.85 Q8.7 67.6 7.95 68.0 7.2 68.4 6.65 67.65 6.3 67.2 6.5 66.85 L6.55 66.6 6.45 66.4 Q6.1 65.55 6.9 65.3 M5.5 65.6 Q5.75 66.0 5.65 66.3 L5.7 66.4 Q5.95 66.8 5.65 67.15 L5.85 67.35 Q6.4 68.0 5.65 68.45 L5.45 68.55 5.8 68.95 5.85 69.7 Q6.05 70.1 5.55 70.6 L5.45 70.7 5.5 70.8 5.65 71.35 Q5.85 71.75 5.3 72.1 4.7 72.5 4.45 72.0 4.35 71.85 4.4 71.7 L4.3 71.6 Q3.95 70.9 4.55 70.55 L4.35 70.25 3.8 71.05 3.75 71.05 3.6 71.15 3.35 72.0 2.35 71.95 Q1.85 71.3 2.3 70.9 L2.25 70.85 2.2 70.75 Q1.95 70.2 2.3 69.65 L2.65 69.25 Q3.55 68.5 4.15 69.5 L4.35 69.9 4.4 69.75 Q4.0 69.25 4.75 68.75 L5.05 68.6 Q4.7 68.55 4.5 68.2 4.1 67.5 4.6 67.15 L4.6 67.1 4.55 66.7 4.35 66.45 Q4.0 65.85 4.55 65.35 L4.65 65.3 Q4.35 64.8 4.85 64.5 5.4 64.15 5.8 64.7 6.25 65.2 5.65 65.5 L5.5 65.6 M8.7 65.85 Q8.05 65.15 8.9 64.5 9.75 63.9 10.4 64.7 10.9 65.3 10.6 65.75 L10.8 65.95 11.15 65.6 11.1 65.5 Q10.8 64.9 11.3 64.7 11.85 64.45 12.05 64.9 12.25 65.25 11.95 65.6 L12.2 65.95 12.25 66.7 12.3 66.8 12.45 67.25 12.45 67.3 Q12.8 68.0 12.15 68.25 11.5 68.5 11.25 68.0 11.0 67.55 11.35 67.2 L11.3 67.0 10.9 66.75 10.4 67.45 10.35 67.5 Q10.4 67.9 10.0 68.15 9.45 68.4 9.25 67.95 9.05 67.5 9.45 67.2 L9.4 67.05 9.35 66.75 9.0 66.4 8.85 66.0 8.7 65.85 M3.75 64.9 Q4.1 65.55 3.4 66.15 L3.4 66.55 3.9 67.1 Q4.3 67.85 4.0 68.25 L3.45 68.6 Q2.75 68.85 2.3 68.6 L1.95 68.15 Q1.7 67.6 2.0 67.15 L1.8 66.95 1.7 66.75 1.25 67.3 1.0 67.5 Q1.2 68.15 0.55 68.5 -0.2 68.9 -0.5 68.25 -0.8 67.55 -0.15 67.05 L-0.1 67.05 Q-0.65 66.15 0.15 65.6 L0.25 65.55 0.1 65.4 Q-0.2 65.1 0.25 64.75 L1.0 64.85 Q1.25 65.15 1.05 65.4 L1.5 65.8 1.7 66.25 1.8 66.15 Q1.8 65.8 2.15 65.6 1.9 64.9 2.55 64.55 3.4 64.2 3.75 64.9 M1.05 62.95 Q1.4 63.45 0.85 63.85 L0.75 63.9 Q0.1 64.2 -0.15 63.9 L-0.25 63.8 -0.35 64.05 -0.85 64.5 Q-1.8 65.15 -2.3 64.0 -2.8 62.85 -1.9 62.55 -1.2 62.3 -0.7 62.75 L-0.45 63.05 -0.3 63.3 -0.25 63.2 -0.5 62.9 -0.6 62.75 Q-0.8 62.25 -0.3 61.85 0.35 61.4 0.6 62.15 L0.7 62.6 0.7 62.7 1.05 62.95 M0.75 69.5 L0.9 69.7 Q1.2 70.15 1.15 70.55 L1.15 70.6 Q1.55 71.2 1.2 71.65 L0.9 72.1 Q0.4 72.4 0.15 71.95 L-0.15 71.6 -0.2 71.5 -0.8 71.15 -0.9 71.15 Q-0.6 71.65 -1.2 72.05 L-1.6 72.25 -2.25 71.9 Q-2.65 71.2 -2.1 70.75 L-1.9 70.65 -2.0 70.5 -2.1 69.95 -2.4 69.65 Q-2.95 69.0 -2.25 68.6 -1.6 68.2 -1.15 68.85 L-0.95 69.35 Q-0.8 69.4 -0.65 69.55 L-0.55 69.45 -0.1 69.25 Q-0.35 68.85 0.0 68.7 0.4 68.55 0.7 68.95 L0.75 69.5 M0.45 73.9 Q-0.15 74.2 -0.6 73.65 -1.05 73.1 -0.45 72.7 0.2 72.3 0.6 72.95 1.0 73.6 0.45 73.9 M2.5 72.8 L2.65 72.75 3.2 72.7 Q3.4 72.75 3.6 72.95 4.0 73.35 3.35 73.85 2.7 74.35 2.25 73.7 1.75 73.05 2.5 72.8 M4.35 73.75 Q4.05 73.0 4.65 72.65 5.25 72.25 5.75 72.9 6.15 73.5 5.6 73.95 L5.45 74.0 4.75 74.2 4.35 73.75 M9.95 68.85 L10.5 69.35 Q11.0 70.15 10.45 70.7 L10.5 71.35 Q10.85 72.0 10.15 72.45 9.4 72.95 9.0 72.25 8.75 71.8 8.95 71.4 L8.8 70.8 8.65 70.6 8.6 70.55 8.4 70.65 Q7.75 71.0 7.3 70.65 L7.15 71.1 Q6.75 71.35 6.55 71.0 6.4 70.65 6.65 70.4 6.85 70.25 7.05 70.4 L7.0 70.3 Q6.75 69.95 6.8 69.65 L6.3 69.25 Q5.75 68.6 6.45 68.2 7.1 67.8 7.55 68.45 L7.75 68.85 8.55 69.35 8.7 69.5 8.7 69.45 8.6 69.35 Q8.0 68.6 8.65 68.3 9.3 67.95 9.8 68.65 L9.95 68.85 M6.25 72.45 Q5.85 71.7 6.5 71.35 7.15 70.95 7.6 71.65 L7.8 72.25 8.25 72.65 Q8.75 73.4 8.1 73.65 7.45 73.95 7.0 73.4 6.75 73.15 6.8 72.9 L6.25 72.45 M9.15 73.0 Q9.8 72.6 10.2 73.25 10.65 73.95 10.05 74.3 L10.0 74.35 10.35 74.65 10.6 75.2 10.65 75.35 10.8 75.7 10.95 75.5 10.75 75.2 Q10.45 74.55 10.9 74.15 L10.85 74.1 Q10.35 73.4 11.1 73.1 L12.3 73.25 Q12.7 73.7 12.05 74.25 L12.15 74.4 Q12.6 75.05 12.05 75.45 L12.15 75.6 12.35 75.95 12.6 76.4 Q12.9 77.25 12.2 77.6 11.5 78.0 11.05 77.25 10.85 76.9 10.95 76.65 L10.9 76.55 10.8 76.35 10.75 76.4 Q11.1 77.15 10.15 77.75 9.1 78.45 8.65 77.65 L8.6 77.55 8.25 77.95 8.1 78.1 8.1 78.15 Q8.35 78.85 7.65 79.05 L7.6 79.05 7.9 79.4 Q8.3 80.1 7.6 80.55 6.95 80.95 6.55 80.3 6.2 79.6 6.85 79.15 L7.0 79.1 6.5 78.7 Q6.15 78.15 6.9 77.85 L6.85 77.75 Q6.3 77.0 7.0 76.3 L7.0 76.25 6.9 75.65 6.85 75.55 Q6.35 74.65 7.25 74.3 8.1 74.0 8.55 74.75 8.85 75.25 8.6 75.6 L8.6 76.25 8.6 76.3 8.65 76.45 9.0 76.05 Q8.85 75.7 9.05 75.45 L8.95 75.3 Q8.55 74.5 9.2 74.25 L8.95 74.05 Q8.5 73.45 9.15 73.0 M17.75 62.85 Q17.35 62.2 18.0 61.75 18.65 61.3 18.95 62.05 19.25 62.8 18.7 63.15 18.15 63.5 17.75 62.85 M19.2 64.7 Q19.75 65.35 19.05 65.75 L18.95 65.85 18.85 66.45 18.6 66.85 18.55 66.9 18.7 67.15 Q19.05 67.9 18.4 68.2 17.75 68.55 17.5 68.0 17.25 67.4 17.8 66.95 L17.85 66.95 17.4 66.55 Q16.95 65.8 17.65 65.3 17.55 64.9 18.0 64.55 18.65 64.05 19.2 64.7 M18.65 63.9 Q18.35 63.45 18.8 63.1 19.25 62.75 19.6 63.25 20.0 63.8 19.45 64.05 18.9 64.35 18.65 63.9 M13.4 70.0 Q12.95 69.55 13.7 69.05 14.4 68.55 14.65 69.25 L14.7 69.8 14.75 69.85 14.85 70.3 14.95 70.45 Q15.45 71.35 14.6 71.95 L14.4 72.5 14.95 72.95 Q15.4 73.5 15.0 74.0 L15.15 74.25 Q15.6 75.05 14.95 75.6 14.3 76.1 13.85 75.3 13.6 74.95 13.65 74.65 L13.15 74.05 Q12.8 73.2 13.35 72.75 L13.15 72.55 Q12.9 72.15 13.3 71.75 L13.2 71.6 Q12.65 70.65 13.55 70.15 L13.4 70.0 M12.55 68.95 Q12.95 69.55 12.55 69.9 L12.65 70.0 Q13.0 70.45 12.6 71.0 L12.55 71.1 Q12.2 71.5 11.8 70.95 L11.7 70.85 11.35 70.6 11.25 70.5 Q11.05 70.15 11.3 69.8 L11.2 69.7 Q10.8 69.1 11.45 68.65 12.1 68.25 12.55 68.95 M18.5 69.45 Q18.15 68.9 18.6 68.65 19.1 68.45 19.5 68.95 19.9 69.5 19.45 69.8 L18.9 69.85 Q19.15 70.35 18.75 70.75 L18.95 70.95 19.05 71.15 19.55 71.5 Q20.05 72.2 19.35 72.7 L19.4 72.8 Q19.75 73.3 19.3 73.55 18.8 73.85 18.45 73.4 18.2 73.05 18.4 72.8 L18.15 72.5 18.0 71.95 17.9 71.8 Q17.6 71.35 17.85 71.05 L17.45 70.7 Q17.1 70.05 17.75 69.55 L18.5 69.45 M19.6 75.55 L19.3 76.25 19.0 76.45 18.75 76.9 18.15 76.85 Q17.95 76.5 18.3 76.2 L18.4 76.15 18.25 76.0 Q17.9 75.55 18.1 75.2 L18.05 75.15 Q17.55 74.2 18.3 73.9 19.1 73.6 19.7 74.4 20.25 75.1 19.6 75.55 M16.85 75.3 L16.9 76.0 17.25 76.35 Q17.55 77.05 17.0 77.5 L16.55 77.75 16.95 78.2 Q17.25 79.0 16.45 79.2 15.6 79.45 15.15 78.8 14.7 78.2 15.65 77.8 L16.35 77.7 16.0 77.35 Q15.7 76.95 15.95 76.55 15.6 76.5 15.4 76.0 15.1 75.25 15.65 74.9 L15.75 74.8 Q16.4 74.35 16.8 75.2 L16.85 75.3 M16.6 79.8 Q17.0 80.5 16.35 80.9 15.7 81.3 15.35 80.7 15.0 80.05 15.6 79.6 16.2 79.15 16.6 79.8 M19.35 78.4 Q19.9 79.15 19.05 79.75 L19.25 80.0 Q19.6 80.6 19.1 81.0 18.6 81.4 18.1 80.85 17.65 80.35 18.1 79.95 L17.55 79.4 Q16.9 78.4 17.85 78.05 18.8 77.7 19.35 78.4 M13.6 76.45 Q13.45 76.05 13.8 75.85 L14.45 75.95 Q14.75 75.9 15.0 76.25 15.35 76.8 14.7 77.2 14.0 77.65 13.7 77.0 L13.6 76.45 M11.35 78.65 Q11.05 78.2 11.5 77.95 12.0 77.7 12.25 78.2 12.5 78.65 12.1 78.9 11.65 79.1 11.35 78.65 M11.6 80.2 Q11.35 79.8 11.7 79.5 12.05 79.2 12.35 79.65 12.7 80.05 12.3 80.3 L11.6 80.2 M13.25 78.75 Q13.1 78.3 13.5 77.95 13.95 77.55 14.3 78.1 14.6 78.65 14.05 78.95 13.45 79.25 13.25 78.75 M14.95 79.6 Q15.5 80.45 14.65 80.95 13.75 81.5 13.25 80.8 12.75 80.1 13.6 79.45 14.45 78.75 14.95 79.6 M13.2 82.4 Q12.9 81.75 13.55 81.35 14.15 80.95 14.45 81.6 L14.5 82.25 Q14.8 82.35 14.95 82.75 15.25 83.55 14.55 83.9 L14.35 84.0 14.85 84.35 Q15.35 84.9 14.7 85.5 L14.6 85.55 Q13.9 86.1 13.4 85.3 L13.3 85.05 Q13.05 84.45 13.65 84.1 L13.9 84.0 13.15 83.5 Q12.55 82.85 13.25 82.45 L13.2 82.4 M11.2 82.6 L10.95 82.4 Q10.5 81.85 11.2 81.55 11.85 81.2 12.2 81.75 12.55 82.3 12.0 82.6 L12.35 83.1 Q12.7 84.05 12.2 84.7 L12.15 84.7 12.1 84.8 12.35 85.0 Q12.75 85.4 12.25 85.75 11.7 86.05 11.45 85.45 L11.35 85.1 11.45 84.85 10.85 84.2 Q10.2 83.1 11.1 82.65 L11.2 82.6 M10.7 84.3 Q11.1 85.05 10.5 85.35 L9.9 85.45 Q10.5 86.2 9.65 86.55 8.85 86.9 8.45 86.2 8.15 85.75 8.45 85.4 L8.3 85.45 7.9 85.65 7.65 86.0 Q7.25 86.4 6.95 85.85 6.7 85.3 7.05 85.05 L7.15 85.0 7.15 84.55 6.65 84.0 Q6.3 83.4 6.55 82.95 L6.45 82.75 Q6.0 81.75 6.8 81.15 7.6 80.6 8.0 81.45 8.25 81.95 8.1 82.45 L8.45 82.95 Q8.75 83.75 8.35 84.25 L8.5 84.4 Q8.85 84.8 8.65 85.15 L8.7 85.1 9.35 85.0 Q9.15 84.7 9.3 84.45 L9.0 84.05 Q8.6 83.25 9.25 83.05 9.9 82.85 10.25 83.5 L10.4 83.95 10.7 84.3 M11.35 86.4 Q11.65 86.3 11.95 86.7 L12.0 86.8 Q12.4 87.55 11.75 88.05 11.15 88.5 10.65 87.85 10.2 87.15 10.9 86.6 L11.35 86.4 M18.9 83.4 L19.0 84.1 19.0 84.15 Q19.35 84.8 19.0 85.15 L19.15 85.3 Q19.7 85.95 18.95 86.25 18.25 86.55 17.9 85.95 17.7 85.6 17.85 85.3 L17.55 85.05 Q17.1 84.55 17.5 84.15 L17.45 84.05 17.45 84.0 Q17.45 84.4 17.1 84.6 L17.0 84.65 Q16.35 85.05 15.95 84.3 L15.9 84.25 Q15.55 83.55 16.25 83.15 17.0 82.75 17.3 83.45 17.3 83.1 17.75 82.95 L17.45 82.65 Q17.0 81.95 17.65 81.7 18.3 81.45 18.75 82.1 19.15 82.7 18.55 83.0 L18.9 83.4 M15.5 82.55 Q15.15 81.85 15.7 81.5 16.25 81.1 16.5 81.7 16.8 82.25 16.3 82.75 15.8 83.25 15.5 82.55 M15.8 85.55 Q15.55 85.05 15.85 84.85 16.2 84.6 16.55 85.0 16.85 85.4 16.45 85.75 16.05 86.05 15.8 85.55 M19.55 86.1 Q19.3 85.4 19.9 85.05 20.5 84.7 20.85 85.25 21.2 85.8 20.55 86.35 L21.1 86.75 Q21.55 87.55 20.9 88.05 20.25 88.55 19.75 87.85 19.25 87.15 19.95 86.55 L19.55 86.1 M19.85 79.6 Q20.4 79.1 20.9 79.8 21.4 80.45 20.8 80.85 20.15 81.25 19.7 80.65 19.25 80.05 19.85 79.6 M5.9 75.65 Q6.45 76.55 5.7 77.05 L5.2 77.2 Q4.7 77.35 4.45 76.85 L4.35 76.55 Q3.7 75.55 4.5 75.15 L4.65 75.1 Q5.25 74.9 5.7 75.4 L5.9 75.65 M5.35 78.75 Q4.65 79.1 4.45 78.55 4.25 78.05 4.75 77.6 5.2 77.2 5.6 77.8 6.0 78.4 5.35 78.75 M9.95 78.65 L10.0 79.15 10.25 79.45 Q10.6 80.05 10.1 80.45 9.65 80.85 9.15 80.25 8.7 79.7 9.3 79.3 L9.35 79.3 9.15 79.1 Q8.85 78.65 9.3 78.5 9.7 78.3 9.95 78.65 M3.35 77.1 Q2.7 77.5 2.25 76.8 1.8 76.1 2.4 75.6 L2.55 75.5 Q2.25 74.8 2.8 74.4 3.4 74.05 3.85 74.75 4.3 75.5 3.6 75.85 L3.55 75.9 Q4.0 76.7 3.35 77.1 M1.6 75.75 L1.5 76.4 1.55 76.45 Q2.0 77.1 1.2 77.65 L0.7 77.9 0.9 78.1 1.05 78.75 1.3 79.05 Q1.8 79.9 1.1 80.45 0.4 81.0 -0.3 80.2 -0.8 79.6 -0.4 79.1 L-0.55 78.9 Q-1.05 78.1 -0.3 77.8 L0.2 77.7 0.1 77.55 Q-0.25 76.95 0.4 76.35 L0.55 76.3 0.5 76.25 Q0.2 75.9 0.3 75.6 L0.15 75.4 Q-0.3 74.55 0.4 74.3 1.15 74.0 1.7 74.7 2.2 75.35 1.6 75.75 M2.0 77.8 Q2.55 77.5 2.9 78.1 3.2 78.65 2.7 78.9 2.2 79.2 1.8 78.65 1.45 78.1 2.0 77.8 M4.65 79.15 Q5.4 78.55 5.9 79.3 6.35 80.05 5.6 80.5 L5.0 80.75 5.45 81.15 Q5.8 81.8 5.15 82.25 4.45 82.65 4.15 82.0 3.85 81.3 4.5 80.9 4.75 80.75 4.9 80.75 L4.35 80.4 Q3.85 79.75 4.65 79.15 M3.6 79.3 Q4.1 79.95 3.5 80.35 2.85 80.75 2.4 80.15 1.95 79.55 2.55 79.1 3.1 78.6 3.6 79.3 M3.55 82.5 L3.9 82.95 4.0 83.25 Q4.05 82.9 4.65 82.7 5.75 82.3 6.05 83.15 6.3 83.8 5.9 84.15 L5.95 84.25 Q6.5 84.95 5.8 85.6 L5.4 86.0 Q4.65 86.4 4.05 85.7 3.7 85.25 3.9 84.85 3.8 84.3 4.35 84.0 L4.25 83.9 4.05 83.55 3.75 84.2 3.4 84.35 3.5 84.45 Q3.85 84.8 3.6 85.15 L3.35 85.35 Q2.75 85.7 2.4 85.0 L2.35 84.85 Q2.1 84.3 2.55 84.15 L3.0 84.1 2.75 83.8 2.55 83.3 2.1 82.95 Q1.65 82.4 2.35 82.05 3.1 81.75 3.45 82.3 L3.55 82.5 M1.2 81.75 Q1.6 82.35 1.0 82.65 0.35 82.95 -0.1 82.3 -0.55 81.6 0.1 81.35 0.75 81.1 1.2 81.75 M1.4 83.4 Q1.7 83.95 1.3 84.35 L1.55 84.6 Q1.8 85.1 1.4 85.35 1.0 85.55 0.65 85.15 0.35 84.85 0.7 84.55 L0.1 84.0 Q-0.35 83.2 0.35 83.0 1.05 82.8 1.4 83.4 M0.6 85.7 Q1.1 85.35 1.55 85.95 1.9 86.4 1.6 86.65 L1.7 86.8 Q2.35 87.75 1.55 88.55 0.7 89.35 -0.1 88.35 -0.95 87.35 0.05 86.6 0.2 86.45 0.4 86.4 0.2 85.95 0.6 85.7 M8.9 82.2 Q8.5 81.6 9.1 81.35 9.7 81.15 10.1 81.7 10.5 82.3 9.9 82.55 9.35 82.85 8.9 82.2 M8.9 87.85 Q8.5 87.4 8.95 87.0 L9.8 87.1 Q10.15 87.6 9.7 87.95 L8.9 87.85 M7.7 87.65 Q7.1 87.85 6.75 87.35 6.35 86.85 6.95 86.4 7.5 85.95 7.9 86.7 8.35 87.45 7.7 87.65 M5.3 88.3 Q4.55 88.55 4.35 87.95 4.2 87.35 4.75 86.95 5.3 86.55 5.7 87.3 6.1 88.05 5.3 88.3 M7.25 90.0 Q6.95 89.45 7.35 89.2 7.75 89.0 8.1 89.45 8.5 89.9 8.0 90.2 L7.85 90.3 7.95 90.45 Q8.3 91.05 7.65 91.25 6.95 91.5 6.7 90.95 6.45 90.4 7.0 90.15 L7.3 90.05 7.25 90.0 M5.4 91.65 L4.3 91.55 Q3.8 91.1 4.5 90.7 L5.65 90.75 Q6.05 91.3 5.4 91.65 M8.0 92.8 L8.1 92.95 Q8.65 93.7 7.7 94.4 6.75 95.1 6.3 94.2 6.05 93.7 6.25 93.3 L6.2 93.25 Q5.65 92.55 6.45 92.25 7.3 91.9 7.8 92.45 L8.0 92.8 M9.05 89.9 Q8.6 89.25 9.25 88.9 9.9 88.6 10.3 89.15 10.6 89.65 10.2 90.05 L10.3 90.2 Q10.7 90.9 9.9 91.35 9.05 91.75 8.75 90.95 8.5 90.2 9.05 89.9 M5.65 90.15 Q4.75 90.65 4.35 89.95 3.9 89.25 4.75 88.8 5.55 88.35 6.05 89.0 6.5 89.7 5.65 90.15 M3.0 87.75 Q2.55 88.1 2.25 87.6 1.9 87.15 2.4 86.75 2.85 86.35 3.15 86.9 3.45 87.4 3.0 87.75 M1.6 89.25 Q2.0 89.8 1.4 90.2 0.85 90.6 0.45 89.95 0.0 89.35 0.6 89.05 1.25 88.75 1.6 89.25 M2.1 90.3 L2.05 90.2 Q1.7 89.3 2.35 88.85 3.0 88.35 3.55 89.15 4.05 90.0 3.25 90.55 L3.1 90.65 3.15 90.75 Q3.5 91.6 2.85 91.9 2.15 92.2 1.6 91.55 1.0 90.9 1.9 90.4 L2.1 90.3 M1.25 90.8 Q1.55 91.3 1.0 91.6 0.4 91.9 0.2 91.35 0.0 90.75 0.5 90.5 1.0 90.25 1.25 90.8 M1.2 92.45 Q1.45 92.85 1.3 93.2 L1.75 93.6 Q2.1 94.35 1.55 94.75 0.95 95.15 0.45 94.45 0.2 94.0 0.35 93.7 L-0.15 93.25 Q-0.5 92.55 0.1 92.15 0.75 91.75 1.2 92.45 M3.45 92.25 Q3.7 92.8 3.2 93.05 2.7 93.35 2.45 92.9 2.2 92.4 2.65 92.1 3.15 91.75 3.45 92.25 M4.3 93.25 L4.6 93.2 4.55 93.15 Q4.1 92.65 4.6 92.35 5.05 92.0 5.4 92.5 5.8 93.0 5.4 93.3 L5.3 93.4 5.45 93.5 Q5.85 94.0 5.25 94.5 4.65 94.95 4.1 94.2 3.6 93.45 4.3 93.25 M3.1 94.8 Q2.7 95.05 2.4 94.6 2.05 94.15 2.5 93.75 2.9 93.4 3.2 94.0 3.5 94.6 3.1 94.8 M9.15 93.5 L9.25 93.45 9.15 93.3 Q8.7 92.45 9.5 91.95 10.25 91.45 10.8 92.3 11.35 93.15 10.5 93.7 L10.25 93.85 Q10.55 94.55 10.0 94.95 9.4 95.35 8.9 94.65 8.45 93.9 9.15 93.5 M19.85 89.5 Q20.4 90.25 19.55 90.85 L19.45 90.95 19.6 91.15 Q20.0 91.8 19.25 92.2 L18.95 92.35 19.15 92.55 Q19.55 93.25 18.95 93.75 L19.2 94.15 19.4 94.95 19.55 95.2 Q20.1 96.3 19.45 96.75 18.8 97.2 18.15 96.3 L17.9 95.85 17.4 95.3 Q16.7 94.25 17.75 93.65 L17.8 93.65 17.7 93.45 17.55 92.9 17.1 93.3 Q16.2 93.85 15.6 93.1 15.05 92.45 15.65 92.1 L15.55 91.95 Q15.2 91.3 15.95 90.95 16.65 90.6 17.1 91.35 17.35 91.75 17.2 92.05 L17.4 92.2 17.65 92.65 17.95 92.25 Q18.15 92.1 18.35 92.1 L18.25 91.85 Q18.0 91.2 18.45 90.9 L18.1 90.5 Q17.45 89.6 18.4 89.15 19.3 88.75 19.85 89.5 M17.95 87.9 Q17.4 87.3 18.05 86.8 18.7 86.3 19.15 86.9 19.6 87.55 19.05 88.05 18.5 88.55 17.95 87.9 M16.8 89.55 Q17.25 90.05 16.65 90.45 16.1 90.85 15.75 90.2 15.4 89.5 15.85 89.3 16.35 89.05 16.8 89.55 M15.55 87.3 Q15.2 86.85 15.75 86.45 16.25 86.05 16.6 86.75 17.0 87.45 16.45 87.6 15.85 87.8 15.55 87.3 M14.95 89.05 Q15.4 89.65 14.6 90.1 13.8 90.55 13.4 89.9 13.0 89.25 13.75 88.85 14.5 88.45 14.95 89.05 M13.55 87.6 Q13.45 87.25 13.8 87.0 14.1 86.75 14.35 87.2 14.55 87.65 14.1 87.8 13.65 87.9 13.55 87.6 M12.55 89.3 Q12.9 89.8 12.4 90.1 11.9 90.4 11.65 89.9 11.45 89.35 11.85 89.05 12.25 88.75 12.55 89.3 M11.25 91.45 Q10.9 91.0 11.5 90.7 12.1 90.35 12.3 90.95 L12.4 91.4 12.95 91.95 Q13.35 92.7 12.9 93.15 L13.0 93.35 13.55 93.35 13.5 93.3 Q12.85 92.65 13.5 92.2 14.1 91.75 14.65 92.45 15.2 93.1 14.65 93.55 L14.1 93.7 Q14.45 94.15 13.85 94.65 L13.05 94.75 Q12.95 94.85 12.8 94.9 L12.5 95.0 12.8 95.35 Q13.2 96.0 12.5 96.4 11.85 96.75 11.5 96.2 11.15 95.65 11.75 95.15 11.9 95.0 12.1 95.0 L11.5 94.45 Q11.05 93.85 11.4 93.3 L11.2 93.05 Q10.75 92.3 11.5 91.7 L11.25 91.45 M13.05 91.6 Q12.55 91.15 13.25 90.7 L14.45 90.8 Q14.9 91.35 14.25 91.7 L13.05 91.6 M15.0 95.1 L15.05 95.15 Q15.4 94.9 15.75 94.95 L15.65 94.85 Q15.35 94.25 15.9 93.9 16.45 93.55 16.8 94.05 17.15 94.55 16.55 95.0 L16.2 95.2 16.35 95.35 Q17.0 96.1 16.2 96.6 15.45 97.1 14.85 96.35 L14.65 96.1 14.6 96.1 Q14.0 96.4 13.6 95.9 13.25 95.4 14.0 94.9 14.8 94.45 15.0 95.1 M20.0 93.25 Q19.65 92.6 20.35 92.1 21.05 91.55 21.45 92.35 21.85 93.1 21.25 93.5 21.45 94.1 21.05 94.35 20.55 94.6 20.15 94.05 19.85 93.65 20.05 93.35 L20.0 93.25 M20.2 95.3 Q20.7 94.85 21.05 95.45 21.4 96.0 20.8 96.35 20.25 96.65 19.95 96.2 19.65 95.7 20.2 95.3 M38.6 75.0 Q38.3 74.35 38.85 74.0 39.4 73.65 39.8 74.3 40.25 75.0 39.55 75.35 L39.1 75.45 39.2 75.6 39.35 75.85 Q40.0 75.7 40.3 76.5 40.65 77.6 39.75 78.1 L39.15 78.3 39.35 78.55 Q39.7 79.1 39.2 79.45 L39.4 79.65 Q40.05 80.45 39.25 80.95 38.5 81.45 37.95 80.75 37.4 80.0 38.1 79.4 L38.35 79.25 38.25 79.15 Q37.85 78.6 38.45 78.25 L38.75 78.15 38.3 77.65 Q38.05 77.2 38.15 76.85 L37.9 76.55 Q37.45 75.85 38.05 75.3 38.35 75.05 38.65 75.1 L38.6 75.0 M35.4 74.95 Q35.75 75.55 35.1 75.95 L35.1 76.0 34.75 76.25 34.6 76.35 34.75 76.55 Q35.0 77.0 34.6 77.3 L34.55 77.4 34.95 77.85 Q35.25 78.6 34.45 78.85 33.65 79.05 33.25 78.45 32.8 77.85 33.75 77.45 L34.05 77.35 33.95 77.25 Q33.65 76.8 34.1 76.45 L34.2 76.4 33.7 75.9 Q33.4 75.15 34.05 74.75 L34.3 74.65 34.35 74.6 Q35.05 74.35 35.4 74.95 M30.5 75.35 L30.55 75.45 Q31.2 76.55 30.4 77.1 30.45 77.65 29.95 77.9 L29.85 77.95 30.0 78.15 30.05 78.8 30.45 79.15 Q31.0 79.95 30.3 80.4 29.6 80.85 29.1 80.2 28.55 79.5 29.2 78.95 L29.3 78.9 29.05 78.65 Q28.75 78.2 29.2 77.95 L28.85 77.55 Q28.65 77.15 28.85 76.85 L28.8 76.75 Q28.15 75.8 29.0 75.05 L29.1 75.0 Q28.95 74.45 29.4 74.1 30.0 73.75 30.45 74.45 30.8 75.0 30.5 75.35 M31.65 78.55 Q31.5 78.1 31.9 77.75 32.35 77.35 32.7 77.9 33.0 78.45 32.45 78.75 31.85 79.05 31.65 78.55 M31.6 80.1 Q31.35 79.75 31.8 79.4 32.2 79.05 32.5 79.5 32.8 79.9 32.35 80.2 L31.6 80.1 M35.0 79.6 Q35.4 80.3 34.7 80.75 34.05 81.15 33.65 80.5 33.3 79.8 33.95 79.35 34.6 78.9 35.0 79.6 M33.25 82.85 Q32.9 82.1 33.45 81.65 34.05 81.25 34.35 81.9 34.6 82.4 34.25 82.9 34.7 82.75 34.9 83.3 35.2 84.0 34.65 84.3 34.1 84.65 33.7 84.0 33.45 83.6 33.65 83.3 L33.25 82.85 M30.9 82.55 Q30.65 81.95 31.2 81.6 31.75 81.25 32.05 81.8 32.35 82.4 31.75 82.75 31.15 83.15 30.9 82.55 M30.4 82.55 L29.8 82.7 30.15 83.15 Q30.45 83.9 30.0 84.4 L29.75 84.55 Q30.1 84.6 30.4 84.9 L30.65 85.4 30.95 85.1 31.5 84.95 Q31.5 84.65 31.8 84.5 L31.95 84.45 31.4 84.1 Q30.9 83.5 31.7 83.2 32.55 82.9 32.8 83.5 33.0 84.15 32.5 84.4 L32.4 84.45 32.65 84.65 Q33.0 85.1 32.45 85.5 L32.05 85.7 31.7 86.25 Q31.15 86.55 30.7 86.0 L30.55 85.65 30.25 85.9 30.1 86.0 29.9 86.15 Q29.2 86.65 28.95 85.9 28.75 85.4 29.05 85.1 29.0 84.75 29.35 84.6 L29.6 84.55 29.0 84.0 Q28.5 83.15 29.2 82.75 L29.7 82.65 29.3 82.35 Q28.85 81.8 29.55 81.45 30.3 81.15 30.65 81.7 31.0 82.25 30.4 82.55 M33.8 84.85 L34.0 84.65 Q34.5 84.3 34.9 84.85 35.25 85.35 34.85 85.7 L34.5 86.25 Q33.9 86.75 33.5 86.0 33.1 85.25 33.65 84.9 L33.8 84.85 M39.9 81.65 Q40.45 82.45 39.55 82.95 38.6 83.4 37.95 82.6 37.3 81.8 38.35 81.3 39.4 80.85 39.9 81.65 M38.95 83.4 L38.95 84.0 Q39.3 84.1 39.6 84.45 39.95 84.8 39.9 85.1 L40.3 84.75 Q40.25 84.3 40.65 84.05 L40.35 83.8 Q39.9 83.35 40.6 83.05 41.25 82.8 41.45 83.35 L41.45 83.9 41.9 84.25 Q42.4 84.85 41.7 85.4 41.8 85.95 41.3 86.2 L41.1 86.3 Q41.5 86.35 41.8 86.95 42.3 87.95 41.35 88.35 L41.8 88.65 Q42.25 89.25 41.45 89.7 40.65 90.15 40.25 89.5 39.85 88.85 40.6 88.45 L40.65 88.45 Q40.1 88.4 39.95 87.85 39.75 87.05 40.5 86.5 L40.75 86.35 Q40.35 86.3 40.0 85.9 39.75 85.6 39.8 85.3 L39.4 85.7 39.1 85.85 Q38.45 86.05 38.05 85.25 L38.0 85.1 Q37.65 84.25 38.3 84.0 L38.35 84.0 38.3 83.9 Q37.95 83.35 38.4 83.15 38.8 82.95 38.95 83.4 M35.8 81.9 Q35.35 81.2 36.0 80.95 36.65 80.7 37.1 81.35 37.5 81.95 36.9 82.25 36.25 82.55 35.8 81.9 M37.15 84.25 L37.25 84.45 Q37.65 85.15 37.05 85.4 L36.65 85.55 36.9 85.8 37.15 86.55 37.3 86.75 Q37.85 87.5 37.2 88.1 36.55 88.7 35.9 87.95 35.4 87.4 35.75 86.9 L35.45 86.55 Q35.05 85.9 35.7 85.45 L36.2 85.35 36.05 85.2 Q35.75 84.9 35.95 84.6 L35.75 84.35 Q35.35 83.55 36.0 83.35 36.65 83.15 37.0 83.8 L37.15 84.25 M38.2 86.4 Q38.55 86.1 38.9 86.15 L39.4 86.6 Q39.85 87.45 39.15 88.0 38.45 88.55 37.95 87.8 37.45 87.05 38.1 86.5 L38.2 86.4 M28.05 79.95 Q28.3 80.45 27.9 80.75 27.5 81.1 27.1 80.6 26.7 80.15 27.2 79.8 27.75 79.4 28.05 79.95 M20.3 76.65 Q19.8 75.85 20.45 75.25 21.15 74.65 21.7 75.55 L22.0 76.0 Q22.3 76.7 21.65 77.05 L21.05 77.15 Q20.6 77.1 20.3 76.65 M21.35 79.15 Q20.55 79.6 19.9 78.7 19.3 77.8 20.25 77.3 21.15 76.8 21.65 77.75 22.2 78.7 21.35 79.15 M23.65 79.85 Q23.95 80.25 23.5 80.55 23.05 80.8 22.75 80.45 22.5 80.1 22.95 79.75 L23.65 79.85 M25.05 82.0 Q25.4 81.75 25.6 82.15 25.8 82.55 25.45 82.9 25.1 83.25 24.9 82.75 24.65 82.3 25.05 82.0 M23.45 81.7 Q23.65 82.1 23.25 82.35 22.85 82.65 22.65 82.2 22.5 81.8 22.9 81.55 23.25 81.3 23.45 81.7 M20.3 82.25 Q20.0 81.85 20.5 81.65 21.0 81.4 21.25 81.8 21.5 82.15 21.05 82.4 20.6 82.6 20.3 82.25 M22.05 83.25 L22.25 83.15 Q23.1 82.85 23.35 83.45 23.55 84.1 23.05 84.35 L22.2 84.25 22.05 84.75 21.85 85.0 Q21.25 85.6 20.55 84.5 L20.4 84.2 Q20.0 83.3 20.75 82.85 21.65 82.35 22.05 83.25 M22.2 85.2 Q22.95 84.7 23.35 85.45 L23.5 85.9 Q23.9 85.9 24.25 86.6 24.8 87.7 23.7 88.0 22.65 88.35 22.4 87.5 22.25 87.05 22.45 86.65 L21.95 86.25 Q21.4 85.65 22.2 85.2 M24.9 84.6 L24.9 84.55 24.75 84.35 Q24.5 83.9 24.95 83.65 25.4 83.4 25.6 83.85 L25.65 84.25 25.8 84.4 Q26.1 84.8 25.65 85.1 25.95 85.6 25.4 86.05 24.8 86.6 24.4 85.85 24.0 85.05 24.5 84.7 L24.9 84.6 M23.25 85.1 Q23.0 84.65 23.4 84.45 23.8 84.25 24.05 84.6 24.3 84.9 23.9 85.2 23.5 85.55 23.25 85.1 M27.95 82.65 Q27.3 82.95 26.85 82.3 26.4 81.6 27.05 81.35 27.7 81.1 28.15 81.75 28.55 82.35 27.95 82.65 M27.1 83.9 Q26.9 83.45 27.25 83.35 27.65 83.2 27.85 83.55 L27.95 83.8 28.45 84.25 Q28.95 85.1 28.25 85.45 L27.8 85.6 Q28.25 86.25 27.5 86.5 26.7 86.85 26.35 86.2 26.0 85.55 26.55 85.15 L26.85 85.05 Q26.5 84.5 27.2 84.05 L27.1 83.9 M29.8 88.05 L29.7 88.15 30.15 88.6 Q30.65 89.4 29.9 89.9 29.2 90.35 28.85 89.75 L28.5 90.2 Q28.9 90.85 28.15 91.25 27.4 91.65 27.15 90.9 26.9 90.3 27.3 90.0 L27.25 89.9 Q26.7 89.15 27.45 88.8 28.15 88.45 28.6 88.95 28.65 88.55 29.0 88.25 L29.1 88.2 28.7 87.85 Q28.25 87.15 28.95 86.6 29.65 86.05 30.05 86.8 30.45 87.55 29.8 88.05 M28.1 88.2 Q27.55 88.7 27.0 88.05 26.4 87.4 27.1 86.85 27.75 86.35 28.25 87.0 28.7 87.65 28.1 88.2 M25.65 88.15 Q24.95 88.35 24.6 87.8 24.2 87.25 24.8 86.8 25.45 86.35 25.85 87.15 26.3 87.95 25.65 88.15 M26.15 90.45 Q26.7 91.35 25.7 91.65 24.7 91.95 24.35 91.2 L24.3 90.55 24.15 90.35 24.0 89.9 23.65 90.15 Q22.85 90.6 22.45 89.95 22.05 89.3 22.8 88.9 23.55 88.5 24.0 89.1 L24.1 89.2 24.3 89.0 Q25.0 88.65 25.65 89.4 26.0 89.8 25.95 90.15 L26.15 90.45 M29.2 91.75 Q28.7 91.2 29.45 90.8 30.2 90.4 30.5 91.05 30.75 91.6 30.45 91.85 L30.7 92.2 Q31.1 93.0 30.4 93.4 L30.35 93.45 Q30.75 94.35 30.1 94.75 29.5 95.1 28.95 94.35 28.4 93.65 29.1 93.05 L29.2 93.0 Q29.0 92.45 29.55 92.0 L29.2 91.75 M27.9 92.55 Q28.2 92.95 27.95 93.3 L28.25 93.65 Q28.6 94.4 28.05 94.8 L27.95 94.9 28.15 95.2 Q28.65 96.15 28.1 96.55 27.5 97.0 26.9 96.15 26.35 95.35 27.0 94.8 L27.15 94.7 26.95 94.5 Q26.55 93.85 27.05 93.5 L26.8 93.2 Q26.45 92.6 27.0 92.3 27.55 91.95 27.9 92.55 M21.2 89.35 Q21.5 89.8 21.05 90.1 20.65 90.4 20.45 89.9 20.2 89.45 20.6 89.2 20.95 88.9 21.2 89.35 M21.35 91.5 L20.7 91.35 Q20.45 91.0 20.9 90.75 21.3 90.5 21.5 90.95 21.7 91.35 21.35 91.5 M22.45 91.05 L23.75 91.15 Q24.25 91.75 23.55 92.15 L23.25 92.3 23.7 92.65 Q24.15 93.2 23.65 93.6 23.2 93.95 22.65 93.4 22.15 92.8 22.7 92.45 L22.9 92.35 22.25 92.05 Q21.65 91.55 22.45 91.05 M22.95 94.8 Q22.45 95.2 22.05 94.55 21.6 93.9 22.2 93.75 22.8 93.6 23.15 94.0 23.45 94.4 22.95 94.8 M24.15 94.85 Q23.7 94.0 24.5 93.45 L24.9 93.3 24.7 93.1 Q24.3 92.55 24.95 92.35 25.55 92.1 25.95 92.5 26.3 92.9 25.75 93.25 L25.55 93.4 25.85 93.65 Q26.4 94.4 25.5 95.05 L25.35 95.15 Q25.9 95.15 26.35 95.7 27.1 96.55 26.15 97.15 25.25 97.75 24.55 96.85 23.8 96.0 24.7 95.4 L24.8 95.35 Q24.4 95.35 24.15 94.85 M23.05 96.3 Q22.45 96.6 22.05 96.1 21.7 95.6 22.45 95.1 23.25 94.65 23.45 95.3 23.7 96.0 23.05 96.3 M30.2 95.5 Q30.6 96.2 29.95 96.6 29.25 97.0 28.85 96.45 28.5 95.85 29.15 95.3 29.8 94.8 30.2 95.5 M39.05 89.15 Q39.45 89.8 38.8 90.2 L38.8 90.25 39.1 90.6 Q39.45 91.35 38.85 91.6 38.25 91.85 37.75 91.3 37.25 90.7 38.0 90.3 L38.1 90.25 37.9 89.95 Q37.6 89.25 38.1 88.85 38.6 88.5 39.05 89.15 M36.8 89.05 Q37.15 89.6 36.6 90.0 36.0 90.45 35.55 89.8 35.1 89.15 35.75 88.8 36.4 88.5 36.8 89.05 M36.1 91.3 Q36.0 90.95 36.35 90.75 36.75 90.6 36.95 90.95 L37.0 91.4 37.45 91.9 Q37.9 92.65 37.55 93.2 L37.6 93.35 Q38.05 94.3 37.3 94.8 L37.05 94.95 37.05 95.0 Q37.45 95.7 37.0 96.0 36.6 96.25 36.2 95.7 35.8 95.1 36.25 94.75 L36.3 94.75 35.95 94.35 Q35.7 93.95 35.75 93.6 L35.55 93.4 35.35 93.5 34.65 93.75 34.7 93.8 Q35.1 94.35 34.4 94.85 L34.35 94.9 34.8 95.3 Q35.5 96.05 34.65 96.6 33.85 97.15 33.2 96.35 32.55 95.55 33.35 95.05 L33.55 94.95 33.4 94.7 Q33.05 94.05 33.65 93.65 L34.05 93.5 33.85 93.3 Q33.2 92.5 34.15 92.15 L35.25 92.1 Q35.35 91.75 35.8 91.45 L36.1 91.3 M39.8 92.6 Q40.3 93.55 39.4 94.05 L39.35 94.1 Q39.45 94.55 39.1 94.75 38.55 95.05 38.1 94.45 37.75 94.0 38.0 93.6 37.65 92.85 38.45 92.25 39.3 91.65 39.8 92.6 M34.9 89.55 Q35.4 90.15 34.8 90.6 L35.15 91.0 Q35.55 91.65 34.8 91.9 34.05 92.1 33.8 91.55 33.5 91.0 34.05 90.7 L33.7 90.3 Q33.3 89.5 33.85 89.25 34.4 88.95 34.9 89.55 M34.15 87.95 Q33.8 87.45 34.35 87.05 34.9 86.6 35.3 87.35 35.7 88.05 35.1 88.25 34.5 88.4 34.15 87.95 M32.5 89.0 Q32.8 89.4 32.3 89.7 31.8 90.0 31.55 89.55 31.3 89.15 31.75 88.9 L32.5 89.0 M31.35 87.7 Q31.15 87.05 31.75 86.55 32.4 86.1 32.85 86.95 33.25 87.8 32.4 88.1 31.55 88.35 31.35 87.7 M32.35 92.45 Q32.75 92.95 32.35 93.3 L32.15 93.4 32.4 93.6 Q32.8 94.1 32.2 94.6 31.6 95.05 31.05 94.3 30.55 93.55 31.25 93.35 L31.65 93.3 31.45 93.1 Q30.95 92.6 31.45 92.25 31.95 91.9 32.35 92.45 M32.4 91.15 L31.6 91.05 Q31.25 90.75 31.75 90.45 L32.55 90.5 Q32.9 90.9 32.4 91.15 M32.65 95.45 Q32.85 96.1 32.25 96.4 31.65 96.65 31.3 96.2 30.95 95.7 31.7 95.25 32.45 94.8 32.65 95.45 M40.15 93.65 Q40.65 93.5 40.9 93.85 41.15 94.15 40.75 94.5 40.35 94.85 40.0 94.3 39.65 93.8 40.15 93.65 M39.2 95.65 Q39.6 96.35 38.95 96.75 38.25 97.15 37.85 96.6 37.5 96.0 38.15 95.45 38.8 94.95 39.2 95.65 M40.3 91.9 Q41.1 91.35 41.8 92.2 42.5 93.05 41.75 93.6 41.05 94.15 40.3 93.3 39.5 92.5 40.3 91.9 M49.55 63.05 L48.85 63.65 Q47.65 64.4 47.15 63.3 46.6 62.25 47.55 61.8 48.5 61.35 49.3 62.15 L49.35 62.2 49.65 62.0 Q50.25 61.75 50.65 62.3 51.0 62.8 50.4 63.15 L49.55 63.05 M45.75 62.3 Q46.3 62.2 46.75 62.85 47.4 63.8 46.4 64.35 L46.15 64.5 46.35 64.7 46.6 65.15 47.1 64.55 Q47.85 64.2 48.2 64.85 L48.35 65.4 48.8 65.85 Q49.1 66.55 48.4 66.8 L48.2 66.85 48.1 66.9 48.25 67.1 Q48.65 67.85 47.95 68.1 47.25 68.4 46.95 67.8 46.65 67.25 47.2 66.8 47.4 66.65 47.55 66.65 L47.45 66.45 47.4 66.3 46.85 65.9 46.75 65.75 46.6 65.35 46.5 65.6 46.6 65.7 46.75 66.0 46.85 66.75 46.6 67.15 Q47.0 68.1 46.1 68.55 L45.95 68.65 46.2 68.95 Q46.6 69.55 46.4 69.95 46.6 70.4 46.25 70.75 L46.0 71.7 45.65 72.25 Q45.15 72.6 44.9 72.1 L44.8 71.85 44.55 71.55 Q44.0 70.7 44.75 70.15 L44.9 70.05 44.65 69.8 Q43.85 68.85 44.7 68.45 L44.85 68.4 44.75 68.2 Q44.5 67.6 44.8 67.1 44.25 66.2 44.9 65.6 44.5 65.0 45.15 64.55 L45.35 64.45 44.9 64.0 Q44.55 63.45 44.8 63.0 L44.65 62.85 Q44.25 62.25 44.85 61.85 45.4 61.4 45.7 62.1 L45.75 62.3 M44.1 62.9 Q44.45 63.45 43.8 63.9 43.25 64.3 42.9 63.7 L42.4 64.3 Q41.45 64.85 41.1 64.05 L40.95 63.65 Q40.85 63.1 41.25 62.75 L41.5 62.6 42.0 62.55 42.55 62.95 42.7 63.1 Q42.65 62.75 43.05 62.6 L43.5 62.55 Q43.85 62.6 44.1 62.9 M43.9 64.95 L44.25 65.3 Q44.7 65.95 43.8 66.4 L43.6 66.5 43.65 66.6 43.7 67.1 43.85 67.3 Q44.2 67.9 43.6 68.2 42.95 68.55 42.5 67.95 42.05 67.35 42.8 67.0 L42.85 67.0 Q42.7 66.75 42.95 66.5 L42.6 66.05 Q42.3 65.3 42.85 65.05 L43.1 64.9 43.9 64.95 M43.8 70.5 Q44.2 70.95 43.9 71.35 L44.05 71.55 Q44.45 72.2 43.8 72.6 L43.65 72.7 43.8 72.9 Q44.05 73.35 43.65 73.5 43.3 73.7 43.0 73.35 42.7 73.05 43.1 72.7 L43.15 72.65 42.8 72.3 Q42.5 71.85 42.8 71.55 L42.7 71.4 Q42.5 71.0 42.6 70.7 L42.4 70.45 Q42.05 69.95 42.5 69.65 L42.55 69.6 Q42.1 69.0 42.7 68.6 43.3 68.25 43.7 68.85 44.1 69.4 43.55 69.8 L43.45 69.9 43.6 70.35 43.8 70.5 M44.8 73.9 Q44.3 73.3 44.95 72.85 45.65 72.4 46.1 73.1 46.55 73.85 45.9 74.15 L45.9 74.2 45.25 74.25 44.8 73.9 M48.2 70.5 Q47.55 70.85 47.25 70.35 L47.2 70.0 Q47.2 69.75 47.35 69.55 L47.55 69.25 47.85 69.15 Q48.2 69.05 48.45 69.5 L48.6 69.95 Q48.6 70.25 48.2 70.5 M48.35 72.25 Q47.8 72.7 47.4 72.0 47.05 71.3 47.65 70.9 48.3 70.55 48.65 71.2 48.95 71.85 48.35 72.25 M48.9 73.4 Q49.3 73.85 48.6 74.4 L48.4 74.55 48.6 74.8 Q48.9 75.3 48.8 75.65 L48.8 75.7 Q49.35 76.55 48.65 77.0 L48.2 77.15 Q47.65 77.4 47.25 76.8 47.0 76.35 47.3 76.0 L47.05 75.65 Q46.7 74.85 47.35 74.4 L47.5 74.35 47.45 74.25 Q46.95 73.55 47.7 73.25 L48.9 73.4 M46.45 75.55 Q46.65 76.2 46.2 76.6 L46.15 76.7 Q46.25 77.0 45.85 77.3 L45.15 77.25 Q44.95 76.9 45.3 76.6 L45.05 76.35 Q44.55 75.65 45.05 75.2 L45.2 75.05 Q46.0 74.5 46.35 75.35 L46.45 75.55 M47.95 77.95 Q48.35 77.75 48.55 78.15 48.8 78.55 48.45 78.7 48.1 78.9 47.85 78.5 47.6 78.15 47.95 77.95 M46.15 79.4 Q46.65 80.25 45.95 80.8 45.25 81.35 44.55 80.55 43.9 79.75 44.8 79.15 L45.0 79.05 44.5 78.65 Q44.05 77.95 44.75 77.65 45.4 77.4 45.8 77.95 46.2 78.45 45.6 78.9 L46.15 79.4 M48.1 79.7 Q48.65 80.5 47.95 80.95 47.25 81.4 46.75 80.75 46.2 80.05 46.85 79.5 47.5 78.95 48.1 79.7 M43.95 75.15 L44.1 75.45 Q44.4 76.1 44.05 76.55 44.4 77.25 43.8 77.8 L43.75 77.85 44.05 78.25 Q44.3 78.9 43.6 79.1 42.95 79.3 42.55 78.8 42.2 78.25 43.0 77.9 L42.7 77.6 Q42.3 77.05 42.8 76.55 L42.65 76.3 Q42.45 75.75 42.7 75.35 L42.5 75.05 Q42.1 74.3 42.85 74.0 43.55 73.75 43.95 74.35 44.2 74.8 43.95 75.15 M43.8 80.2 Q44.1 80.7 43.6 81.0 43.1 81.35 42.85 80.85 42.6 80.35 43.05 80.0 43.5 79.65 43.8 80.2 M45.55 81.4 Q46.1 81.2 46.4 81.7 46.75 82.2 46.25 82.45 45.75 82.65 45.4 82.15 45.05 81.6 45.55 81.4 M43.6 81.6 L43.45 82.3 Q43.1 82.65 42.9 82.2 42.7 81.75 43.05 81.5 L43.6 81.6 M41.45 81.6 Q41.75 82.25 41.1 82.65 40.5 83.05 40.2 82.4 39.9 81.75 40.55 81.35 41.15 80.95 41.45 81.6 M42.15 84.05 Q41.75 83.45 42.4 83.1 43.0 82.75 43.25 83.4 43.5 83.9 43.2 84.2 43.65 84.05 44.05 84.55 44.55 85.15 43.85 85.6 L43.55 86.0 Q42.95 86.5 42.55 85.75 42.15 85.0 42.7 84.7 L42.85 84.45 Q42.45 84.55 42.15 84.05 M44.6 83.8 Q44.15 82.9 44.9 82.7 45.65 82.45 46.05 83.15 46.3 83.7 46.0 84.05 L46.15 84.25 Q46.55 84.95 45.95 85.2 L45.45 85.35 Q45.65 85.35 45.85 85.6 46.2 86.0 45.85 86.3 L46.15 86.55 Q46.6 87.2 46.0 87.75 45.45 88.25 44.9 87.6 44.3 86.95 45.0 86.4 L45.05 86.4 44.85 86.15 Q44.6 85.65 45.0 85.4 L45.4 85.3 44.95 85.0 Q44.6 84.6 44.95 84.25 L44.6 83.8 M48.1 82.5 L48.05 82.55 48.2 82.85 Q48.45 83.55 48.15 84.0 L48.35 84.2 Q48.85 84.75 48.2 85.2 L47.9 85.35 Q48.05 85.75 47.55 86.1 47.0 86.5 46.8 85.95 46.65 85.35 47.1 85.1 L47.25 85.05 47.15 84.85 Q46.8 84.15 47.25 83.95 L47.05 83.7 Q46.55 82.85 47.25 82.45 L47.5 82.4 47.45 82.35 Q47.2 82.0 47.6 81.85 L48.25 81.95 Q48.5 82.3 48.1 82.5 M50.3 85.8 Q50.6 86.4 50.1 86.65 49.6 86.9 49.2 86.45 48.85 85.95 49.4 85.6 50.0 85.25 50.3 85.8 M48.35 88.15 L47.75 88.4 48.05 88.75 Q48.55 89.5 47.8 89.95 47.1 90.4 46.75 89.65 46.4 88.85 47.0 88.4 L47.45 88.3 47.15 87.95 Q46.6 87.15 47.4 86.55 48.15 85.95 48.6 86.75 49.05 87.6 48.35 88.15 M46.5 89.6 Q46.7 89.9 46.35 90.15 46.0 90.4 45.75 90.0 45.45 89.6 45.85 89.45 46.25 89.25 46.5 89.6 M46.6 90.8 Q46.85 91.3 46.3 91.6 L46.1 91.7 46.3 91.9 46.5 92.45 Q46.6 92.05 47.05 91.7 L47.1 91.7 Q46.75 91.15 47.45 90.75 48.25 90.35 48.6 91.1 48.9 91.75 48.45 92.05 48.95 93.05 48.05 93.6 L48.0 93.65 48.05 93.7 Q48.4 94.45 47.9 94.75 47.4 95.05 47.0 94.45 46.65 94.0 46.9 93.65 L46.6 93.25 Q46.45 93.0 46.45 92.75 L46.0 93.25 Q45.15 93.75 44.7 92.9 L44.6 92.7 Q44.65 93.1 44.05 93.5 L43.75 93.65 43.85 93.75 Q44.2 94.3 43.6 94.75 42.95 95.2 42.65 94.6 42.35 94.0 42.9 93.65 L42.95 93.65 42.4 93.25 Q41.75 92.4 42.75 92.0 L42.9 91.95 42.7 91.7 Q42.35 90.9 43.15 90.5 44.0 90.1 44.5 90.95 45.0 91.75 44.25 92.1 L44.4 92.25 44.55 92.45 Q44.45 91.9 45.0 91.55 L45.65 91.4 45.6 91.3 Q45.4 90.8 45.85 90.55 46.3 90.35 46.6 90.8 M43.7 88.15 Q43.0 88.35 42.65 87.8 42.25 87.25 42.85 86.8 43.5 86.35 43.9 87.15 44.35 87.95 43.7 88.15 M42.45 88.3 Q43.1 87.95 43.7 88.65 44.3 89.35 43.55 89.9 42.8 90.45 42.3 89.5 41.8 88.6 42.45 88.3 M41.7 91.5 L40.5 91.4 Q40.0 90.95 40.7 90.5 L41.9 90.6 Q42.35 91.15 41.7 91.5 M44.8 93.85 Q45.55 93.45 45.85 94.15 46.2 94.9 45.65 95.3 45.05 95.7 44.55 95.0 44.1 94.25 44.8 93.85 M41.55 95.8 Q41.75 96.45 41.2 96.7 40.6 97.0 40.3 96.55 39.95 96.1 40.65 95.65 41.35 95.2 41.55 95.8 M50.05 94.2 Q49.5 94.6 49.0 93.9 48.55 93.2 49.2 93.05 49.9 92.85 50.25 93.3 50.6 93.75 50.05 94.2 M-0.9 66.45 Q-0.55 67.0 -1.2 67.25 L-1.4 67.35 -1.35 67.4 Q-1.1 67.9 -1.6 68.15 -2.05 68.4 -2.4 67.9 -2.8 67.45 -2.2 67.2 L-2.05 67.15 -2.15 67.05 -2.6 66.5 Q-2.95 65.7 -2.2 65.45 -1.4 65.2 -1.0 65.8 L-0.85 66.1 -0.9 66.45 M-2.4 73.9 Q-2.9 73.3 -2.2 72.75 -1.5 72.2 -1.0 73.05 -0.45 73.85 -1.15 74.15 L-1.25 74.2 -1.2 74.25 Q-0.85 74.8 -1.45 75.15 L-1.7 75.3 Q-1.3 75.2 -1.05 75.8 -0.7 76.55 -1.35 76.9 L-1.55 77.0 -1.75 77.2 Q-2.2 77.6 -2.6 77.1 -3.0 76.55 -2.4 76.1 -2.4 75.7 -2.0 75.4 L-1.75 75.3 Q-2.15 75.35 -2.4 74.85 -2.7 74.3 -2.25 74.05 L-2.4 73.9 M-1.9 78.0 Q-1.35 77.75 -1.15 78.25 -0.95 78.75 -1.45 78.9 L-2.25 78.65 Q-2.5 78.25 -1.9 78.0 M-1.0 79.6 Q-0.6 80.3 -1.3 80.75 -1.95 81.15 -2.35 80.5 -2.7 79.8 -2.05 79.35 -1.4 78.9 -1.0 79.6 M-2.3 82.6 Q-2.65 81.85 -2.1 81.4 -1.5 81.0 -1.2 81.65 -0.9 82.25 -1.45 82.8 -1.95 83.35 -2.3 82.6 M-1.15 83.3 Q-0.95 83.8 -1.35 84.0 -1.75 84.25 -2.0 83.8 -2.25 83.35 -1.8 83.1 -1.35 82.85 -1.15 83.3 M-1.55 85.95 Q-2.25 86.45 -2.6 85.7 -3.0 85.0 -2.4 84.65 -1.8 84.3 -1.35 84.9 -0.85 85.5 -1.55 85.95 M-0.65 89.15 Q-0.15 89.75 -0.8 90.2 -1.45 90.65 -1.85 89.9 -2.25 89.1 -1.7 88.85 -1.15 88.55 -0.65 89.15 M-1.1 87.85 Q-1.8 88.1 -2.25 87.5 -2.65 86.9 -2.0 86.4 -1.3 85.9 -0.8 86.75 -0.35 87.65 -1.1 87.85 M-1.85 91.45 Q-2.1 90.9 -1.55 90.65 -0.95 90.35 -0.6 90.95 -0.25 91.55 -0.9 91.75 -1.6 92.0 -1.85 91.45 M-1.1 92.25 Q-0.8 92.55 -1.25 92.85 L-2.05 92.75 Q-2.4 92.35 -1.9 92.15 L-1.1 92.25" fill="#ffcc00" fill-rule="evenodd" stroke="none"/>
    </g>
    <g id="sprite0" transform="matrix(1.0, 0.0, 0.0, 1.0, 87.0, 142.65)">
      <use height="244.05" transform="matrix(1.0, 0.0, 0.0, 1.0, -87.0, -142.65)" width="140.45" xlink:href="#shape1"/>
    </g>
    <g id="shape1" transform="matrix(1.0, 0.0, 0.0, 1.0, 87.0, 142.65)">
      <path d="M52.95 -75.0 L52.95 94.0 Q-16.55 107.85 -86.05 94.0 L-86.05 -75.0 -81.85 -75.0 Q-16.8 -64.15 48.25 -75.0 L52.95 -75.0" fill="url(#gradient0)" fill-rule="evenodd" stroke="none"/>
      <path d="M51.2 -75.5 L52.95 -75.0 48.25 -75.0 51.2 -75.5 M-86.05 -75.0 L-84.8 -75.5 -81.85 -75.0 -86.05 -75.0" fill="url(#gradient1)" fill-rule="evenodd" stroke="none"/>
      <path d="M48.25 -75.0 Q-16.8 -64.15 -81.85 -75.0 L-84.8 -75.5 Q-71.7 -80.75 -62.45 -88.0 -48.2 -99.15 -43.05 -115.0 L9.95 -115.0 Q16.2 -98.25 27.9 -88.0 37.65 -79.5 51.2 -75.5 L48.25 -75.0" fill="url(#gradient2)" fill-rule="evenodd" stroke="none"/>
      <path d="M51.2 -75.5 L52.5 -75.5 M51.2 -75.5 L52.95 -75.0 52.95 94.0 Q-16.55 107.85 -86.05 94.0 L-86.05 -75.0 -84.8 -75.5 -86.5 -75.5 M48.25 -75.0 Q-16.8 -64.15 -81.85 -75.0 M48.25 -75.0 L51.2 -75.5 Q37.65 -79.5 27.9 -88.0 16.2 -98.25 9.95 -115.0 L-43.05 -115.0 Q-48.2 -99.15 -62.45 -88.0 -71.7 -80.75 -84.8 -75.5 L-81.85 -75.0" fill="none" stroke="#000000" stroke-linecap="round" stroke-linejoin="round" stroke-opacity="0.5372549" stroke-width="1.0"/>
      <path d="M13.55 -115.9 Q-16.1 -106.45 -45.8 -115.9 -52.1 -126.75 -45.8 -142.15 L13.55 -142.15 Q18.5 -129.0 13.55 -115.9" fill="url(#gradient3)" fill-rule="evenodd" stroke="none"/>
      <path d="M13.55 -115.9 Q-16.1 -106.45 -45.8 -115.9 -52.1 -126.75 -45.8 -142.15 L13.55 -142.15 Q18.5 -129.0 13.55 -115.9 Z" fill="none" stroke="#000000" stroke-linecap="round" stroke-linejoin="round" stroke-opacity="0.5372549" stroke-width="1.0"/>
    </g>
    <linearGradient color-interpolation="linearRGB" gradientTransform="matrix(0.0848, 0.0, 0.0, 0.1074, -16.55, 12.95)" gradientUnits="userSpaceOnUse" id="gradient0" spreadMethod="pad" x1="-819.2" x2="819.2">
      <stop offset="0.00392156862745098" stop-color="#c3d6d7" stop-opacity="0.5372549"/>
      <stop offset="0.5019607843137255" stop-color="#ffffff" stop-opacity="0.5372549"/>
      <stop offset="1.0" stop-color="#c3d6d7" stop-opacity="0.5372549"/>
    </linearGradient>
    <linearGradient color-interpolation="linearRGB" gradientTransform="matrix(0.0848, 0.0, 0.0, 0.0269, -16.55, -97.0)" gradientUnits="userSpaceOnUse" id="gradient1" spreadMethod="pad" x1="-819.2" x2="819.2">
      <stop offset="0.00392156862745098" stop-color="#c3d6d7" stop-opacity="0.5372549"/>
      <stop offset="1.0" stop-color="#ffffff" stop-opacity="0.5372549"/>
    </linearGradient>
    <linearGradient color-interpolation="linearRGB" gradientTransform="matrix(0.0848, 0.0, 0.0, 0.0269, -16.55, -97.0)" gradientUnits="userSpaceOnUse" id="gradient2" spreadMethod="pad" x1="-819.2" x2="819.2">
      <stop offset="0.00392156862745098" stop-color="#c3d6d7" stop-opacity="0.5372549"/>
      <stop offset="0.49019607843137253" stop-color="#ffffff" stop-opacity="0.5372549"/>
      <stop offset="1.0" stop-color="#c3d6d7" stop-opacity="0.5372549"/>
    </linearGradient>
    <linearGradient color-interpolation="linearRGB" gradientTransform="matrix(0.0397, 0.0, 0.0, 0.0218, -16.5, -129.05)" gradientUnits="userSpaceOnUse" id="gradient3" spreadMethod="pad" x1="-819.2" x2="819.2">
      <stop offset="0.00392156862745098" stop-color="#6b6b6b" stop-opacity="0.5372549"/>
      <stop offset="0.49019607843137253" stop-color="#fcfafa" stop-opacity="0.5372549"/>
      <stop offset="1.0" stop-color="#4a4f4f" stop-opacity="0.5372549"/>
    </linearGradient>
  </defs>
</svg>
