<?xml version="1.0" encoding="UTF-8" standalone="no"?>
<svg xmlns:xlink="http://www.w3.org/1999/xlink" height="225.0px" width="679.9px" xmlns="http://www.w3.org/2000/svg">
  <g transform="matrix(1.0, 0.0, 0.0, 1.0, 383.8, 126.9)">
    <clipPath id="clipPath0" transform="matrix(1.0, 0.0, 0.0, 1.0, 383.8, 126.9)">
      <use height="217.0" transform="matrix(1.0, 0.0, 0.0, 1.0, -172.9, -121.35)" width="375.95" xlink:href="#sprite0"/>
    </clipPath>
    <g clip-path="url(#clipPath0)">
      <use height="105.8" transform="matrix(1.0, 0.0, 0.0, 1.0, 55.0, -80.45)" width="216.05" xlink:href="#shape1"/>
    </g>
  </g>
  <defs>
    <g id="sprite0" transform="matrix(1.0, 0.0, 0.0, 1.0, 0.0, 0.0)">
      <use height="217.0" transform="matrix(1.0, 0.0, 0.0, 1.0, 0.0, 0.0)" width="375.95" xlink:href="#shape0"/>
    </g>
    <g id="shape0" transform="matrix(1.0, 0.0, 0.0, 1.0, 0.0, 0.0)">
      <path d="M375.95 217.0 L0.0 217.0 0.0 0.0 375.95 0.0 375.95 217.0" fill="#cccccc" fill-rule="evenodd" stroke="none"/>
    </g>
    <g id="shape1" transform="matrix(1.0, 0.0, 0.0, 1.0, -55.0, 80.45)">
      <path d="M55.05 18.6 Q81.95 31.5 107.05 19.6 M106.05 19.6 L271.0 -80.4" fill="none" stroke="#00ff00" stroke-linecap="round" stroke-linejoin="round" stroke-width="0.1"/>
    </g>
  </defs>
</svg>
