<?xml version="1.0" encoding="UTF-8" standalone="no"?>
<svg xmlns:xlink="http://www.w3.org/1999/xlink" height="258.1px" width="751.25px" xmlns="http://www.w3.org/2000/svg">
  <g transform="matrix(1.0, 0.0, 0.0, 1.0, 620.75, 230.0)">
    <use height="221.65" transform="matrix(1.0, 0.0, 0.0, 1.0, -240.95, -230.0)" width="371.45" xlink:href="#sprite0"/>
    <use height="225.0" id="red_line" transform="matrix(1.0, 0.0, 0.0, 1.0, -620.75, -196.9)" width="689.8" xlink:href="#sprite1"/>
    <use height="225.0" id="blue_line" transform="matrix(1.0, 0.0, 0.0, 1.0, -617.75, -205.9)" width="679.9" xlink:href="#sprite3"/>
    <use height="225.0" id="green_line" transform="matrix(1.0, 0.0, 0.0, 1.0, -615.75, -219.9)" width="679.9" xlink:href="#sprite5"/>
  </g>
  <defs>
    <g id="sprite0" transform="matrix(1.0, 0.0, 0.0, 1.0, 1.0, 1.0)">
      <use height="221.65" transform="matrix(1.0, 0.0, 0.0, 1.0, -1.0, -1.0)" width="371.45" xlink:href="#shape0"/>
    </g>
    <g id="shape0" transform="matrix(1.0, 0.0, 0.0, 1.0, 1.0, 1.0)">
      <path d="M304.6 99.7 Q300.9 99.3 295.1 94.25 289.75 89.65 284.7 83.0 L279.45 75.35 Q271.85 63.35 269.45 53.6 266.85 43.75 270.8 41.65 L271.95 41.3 Q275.8 40.65 282.8 46.7 L284.7 48.4 Q291.8 55.05 298.5 65.6 L298.7 65.95 Q306.05 77.6 308.5 87.4 310.15 93.7 309.1 96.8 308.55 98.5 307.15 99.25 L306.1 99.65 304.6 99.7" fill="#cccccc" fill-rule="evenodd" stroke="none"/>
      <path d="M309.1 96.8 L369.45 54.3 M304.6 99.7 L136.5 207.3 Q96.4 232.05 52.5 207.3 L2.5 178.3 M0.0 99.0 L50.0 128.0 Q93.9 152.75 134.0 128.0 L333.95 0.0" fill="none" stroke="#66ffff" stroke-linecap="round" stroke-linejoin="round" stroke-width="2.0"/>
    </g>
    <g id="sprite1" transform="matrix(1.0, 0.0, 0.0, 1.0, 383.8, 126.9)">
      <clipPath id="clipPath0" transform="matrix(1.0, 0.0, 0.0, 1.0, 383.8, 126.9)">
        <use height="217.0" transform="matrix(1.0, 0.0, 0.0, 1.0, -383.8, -126.9)" width="375.95" xlink:href="#sprite2"/>
      </clipPath>
      <g clip-path="url(#clipPath0)">
        <use height="129.8" transform="matrix(1.0, 0.0, 0.0, 1.0, 68.95, -82.05)" width="237.05" xlink:href="#shape2"/>
      </g>
    </g>
    <g id="sprite2" transform="matrix(1.0, 0.0, 0.0, 1.0, 0.0, 0.0)">
      <use height="217.0" transform="matrix(1.0, 0.0, 0.0, 1.0, 0.0, 0.0)" width="375.95" xlink:href="#shape1"/>
    </g>
    <g id="shape1" transform="matrix(1.0, 0.0, 0.0, 1.0, 0.0, 0.0)">
      <path d="M375.95 217.0 L0.0 217.0 0.0 0.0 375.95 0.0 375.95 217.0" fill="#cccccc" fill-rule="evenodd" stroke="none"/>
    </g>
    <g id="shape2" transform="matrix(1.0, 0.0, 0.0, 1.0, -68.95, 82.05)">
      <path d="M69.0 41.0 Q95.9 53.9 121.0 42.0 M120.0 42.0 L305.95 -82.0" fill="none" stroke="#ff0000" stroke-linecap="round" stroke-linejoin="round" stroke-width="0.1"/>
    </g>
    <g id="sprite3" transform="matrix(1.0, 0.0, 0.0, 1.0, 383.8, 126.9)">
      <clipPath id="clipPath1" transform="matrix(1.0, 0.0, 0.0, 1.0, 383.8, 126.9)">
        <use height="217.0" transform="matrix(1.0, 0.0, 0.0, 1.0, -383.8, -126.9)" width="375.95" xlink:href="#sprite4"/>
      </clipPath>
      <g clip-path="url(#clipPath1)">
        <use height="113.15" transform="matrix(1.0, 0.0, 0.0, 1.0, 64.95, -82.05)" width="215.05" xlink:href="#shape3"/>
      </g>
    </g>
    <g id="sprite4" transform="matrix(1.0, 0.0, 0.0, 1.0, 0.0, 0.0)">
      <use height="217.0" transform="matrix(1.0, 0.0, 0.0, 1.0, 0.0, 0.0)" width="375.95" xlink:href="#shape1"/>
    </g>
    <g id="shape3" transform="matrix(1.0, 0.0, 0.0, 1.0, -64.95, 82.05)">
      <path d="M65.0 28.0 Q86.35 36.0 113.0 23.0 L279.95 -82.0" fill="none" stroke="#0066cc" stroke-linecap="round" stroke-linejoin="round" stroke-width="0.1"/>
    </g>
    <g id="sprite5" transform="matrix(1.0, 0.0, 0.0, 1.0, 383.8, 126.9)">
      <clipPath id="clipPath2" transform="matrix(1.0, 0.0, 0.0, 1.0, 383.8, 126.9)">
        <use height="217.0" transform="matrix(1.0, 0.0, 0.0, 1.0, -383.8, -126.9)" width="375.95" xlink:href="#sprite4"/>
      </clipPath>
      <g clip-path="url(#clipPath2)">
        <use height="105.8" transform="matrix(1.0, 0.0, 0.0, 1.0, 55.0, -80.45)" width="216.05" xlink:href="#shape4"/>
      </g>
    </g>
    <g id="shape4" transform="matrix(1.0, 0.0, 0.0, 1.0, -55.0, 80.45)">
      <path d="M55.05 18.6 Q81.95 31.5 107.05 19.6 M106.05 19.6 L271.0 -80.4" fill="none" stroke="#00ff00" stroke-linecap="round" stroke-linejoin="round" stroke-width="0.1"/>
    </g>
  </defs>
</svg>
