<?xml version="1.0" encoding="UTF-8" standalone="no"?>
<svg xmlns:xlink="http://www.w3.org/1999/xlink" height="104.1px" width="204.25px" xmlns="http://www.w3.org/2000/svg">
  <g transform="matrix(1.0, 0.0, 0.0, 1.0, 87.85, 54.05)">
    <use height="104.1" transform="matrix(1.0, 0.0, 0.0, 1.0, -87.85, -54.05)" width="176.65" xlink:href="#shape0"/>
    <use height="38.1" transform="matrix(1.0, 0.0, 0.0, 1.0, -85.4, -16.0)" width="201.8" xlink:href="#text0"/>
  </g>
  <defs>
    <g id="shape0" transform="matrix(1.0, 0.0, 0.0, 1.0, 87.85, 54.05)">
      <path d="M77.95 -45.0 Q88.75 -36.0 88.75 -23.25 L88.75 19.25 Q88.75 32.0 77.95 41.0 67.15 50.0 51.8 50.0 L-50.85 50.0 Q-66.15 50.0 -77.0 41.0 -87.8 32.0 -87.8 19.25 L-87.8 -23.25 Q-87.8 -36.0 -77.0 -45.0 -66.15 -54.0 -50.85 -54.0 L51.8 -54.0 Q67.15 -54.0 77.95 -45.0" fill="url(#gradient0)" fill-rule="evenodd" stroke="none"/>
      <path d="M77.95 -45.0 Q67.15 -54.0 51.8 -54.0 L-50.85 -54.0 Q-66.15 -54.0 -77.0 -45.0 -87.8 -36.0 -87.8 -23.25 L-87.8 19.25 Q-87.8 32.0 -77.0 41.0 -66.15 50.0 -50.85 50.0 L51.8 50.0 Q67.15 50.0 77.95 41.0 88.75 32.0 88.75 19.25 L88.75 -23.25 Q88.75 -36.0 77.95 -45.0 Z" fill="none" stroke="url(#gradient1)" stroke-linecap="round" stroke-linejoin="round" stroke-width="0.1"/>
    </g>
    <linearGradient gradientTransform="matrix(0.1078, 0.0, 0.0, 0.0635, 0.45, -2.0)" gradientUnits="userSpaceOnUse" id="gradient0" spreadMethod="pad" x1="-819.2" x2="819.2">
      <stop offset="0.0" stop-color="#fa0000"/>
      <stop offset="1.0" stop-color="#fffaf3"/>
    </linearGradient>
    <linearGradient gradientTransform="matrix(0.1078, 0.0, 0.0, 0.0635, 0.45, -2.0)" gradientUnits="userSpaceOnUse" id="gradient1" spreadMethod="pad" x1="-819.2" x2="819.2">
      <stop offset="0.0" stop-color="#b11c1e"/>
      <stop offset="0.3803921568627451" stop-color="#c51b23"/>
      <stop offset="0.6352941176470588" stop-color="#151b26"/>
      <stop offset="0.6862745098039216" stop-color="#d51b27"/>
      <stop offset="1.0" stop-color="#e7192c"/>
    </linearGradient>
  </defs>
</svg>
