<?xml version="1.0" encoding="UTF-8" standalone="no"?>
<svg xmlns:xlink="http://www.w3.org/1999/xlink" height="57.2px" width="1006.15px" xmlns="http://www.w3.org/2000/svg">
  <g transform="matrix(1.0, 0.0, 0.0, 1.0, 1.0, 1.0)">
    <use height="29.0" transform="matrix(1.0, 0.0, 0.0, 1.0, -1.0, -1.0)" width="874.95" xlink:href="#shape0"/>
    <use height="52.2" transform="matrix(1.0, 0.0, 0.0, 1.0, 22.0, 4.0)" width="983.15" xlink:href="#text0"/>
  </g>
  <defs>
    <g id="shape0" transform="matrix(1.0, 0.0, 0.0, 1.0, 1.0, 1.0)">
      <path d="M872.95 13.5 Q872.95 19.1 869.0 23.05 865.05 27.0 859.45 27.0 L13.5 27.0 Q7.9 27.0 3.95 23.05 0.0 19.1 0.0 13.5 0.0 7.9 3.95 3.95 7.9 0.0 13.5 0.0 L859.45 0.0 Q865.05 0.0 869.0 3.95 872.95 7.9 872.95 13.5" fill="#ffffff" fill-rule="evenodd" stroke="none"/>
      <path d="M869.0 23.05 Q872.95 19.1 872.95 13.5 872.95 7.9 869.0 3.95 865.05 0.0 859.45 0.0 L13.5 0.0 Q7.9 0.0 3.95 3.95 0.0 7.9 0.0 13.5 0.0 19.1 3.95 23.05 7.9 27.0 13.5 27.0" fill="none" stroke="#000000" stroke-linecap="round" stroke-linejoin="round" stroke-width="2.0"/>
      <path d="M13.5 27.0 L859.45 27.0 Q865.05 27.0 869.0 23.05" fill="none" stroke="#000000" stroke-linecap="round" stroke-linejoin="round" stroke-width="2.0"/>
    </g>
  </defs>
</svg>
