<?xml version="1.0" encoding="UTF-8" standalone="no"?>
<svg xmlns:xlink="http://www.w3.org/1999/xlink" height="93.3px" width="41.8px" xmlns="http://www.w3.org/2000/svg">
  <g transform="matrix(1.0, 0.0, 0.0, 1.0, 0.15, 0.15)">
    <use height="2.55" transform="matrix(1.0, 0.0, 0.0, 1.0, 0.2, 74.45)" width="41.1" xlink:href="#shape0"/>
    <clipPath id="clipPath0" transform="matrix(1.0, 0.0, 0.0, 1.0, 0.15, 0.15)">
      <use height="38.4" transform="matrix(1.0, 0.0, 0.0, 1.0, 0.0, 36.1)" width="41.4" xlink:href="#shape1"/>
    </clipPath>
    <g clip-path="url(#clipPath0)">
      <use height="0.25" id="water" transform="matrix(1.0, 0.0, 0.0, -71.9824, 0.25, 74.3009)" width="41.25" xlink:href="#sprite0"/>
    </g>
    <use height="244.05" transform="matrix(0.2975, 0.0, 0.0, 0.3169, -0.1352, -0.1594)" width="140.45" xlink:href="#sprite1"/>
  </g>
  <defs>
    <g id="shape0" transform="matrix(1.0, 0.0, 0.0, 1.0, -0.2, -74.45)">
      <path d="M0.2 74.45 L41.3 74.45 41.3 74.8 Q20.25 79.2 0.2 74.8 L0.2 74.45" fill="#999900" fill-rule="evenodd" stroke="none"/>
      <path d="M0.2 74.45 L41.3 74.45 41.3 74.8 Q20.25 79.2 0.2 74.8 L0.2 74.45 Z" fill="none" stroke="#0033ff" stroke-linecap="round" stroke-linejoin="round" stroke-width="0.05"/>
    </g>
    <g id="shape1" transform="matrix(1.0, 0.0, 0.0, 1.0, 0.0, -36.1)">
      <path d="M41.4 74.5 L0.0 74.5 0.0 36.1 41.4 36.1 41.4 74.5" fill="#0099ff" fill-rule="evenodd" stroke="none"/>
      <path d="M41.4 74.5 L0.0 74.5 0.0 36.1 41.4 36.1 41.4 74.5 Z" fill="none" stroke="#0033ff" stroke-linecap="round" stroke-linejoin="round" stroke-width="0.05"/>
    </g>
    <g id="sprite0" transform="matrix(1.0, 0.0, 0.0, 1.0, 0.0, -0.05)">
      <use height="0.25" transform="matrix(1.0, 0.0, 0.0, 1.0, 0.0, 0.05)" width="41.25" xlink:href="#shape2"/>
    </g>
    <g id="shape2" transform="matrix(1.0, 0.0, 0.0, 1.0, 0.0, -0.05)">
      <path d="M41.25 0.3 L0.0 0.3 0.0 0.05 41.25 0.05 41.25 0.3" fill="#0099ff" fill-opacity="0.5372549" fill-rule="evenodd" stroke="none"/>
    </g>
    <g id="sprite1" transform="matrix(1.0, 0.0, 0.0, 1.0, 87.0, 142.65)">
      <use height="244.05" transform="matrix(1.0, 0.0, 0.0, 1.0, -87.0, -142.65)" width="140.45" xlink:href="#shape3"/>
    </g>
    <g id="shape3" transform="matrix(1.0, 0.0, 0.0, 1.0, 87.0, 142.65)">
      <path d="M52.95 -75.0 L52.95 94.0 Q-16.55 107.85 -86.05 94.0 L-86.05 -75.0 -81.85 -75.0 Q-16.8 -64.15 48.25 -75.0 L52.95 -75.0" fill="url(#gradient0)" fill-rule="evenodd" stroke="none"/>
      <path d="M51.2 -75.5 L52.95 -75.0 48.25 -75.0 51.2 -75.5 M-86.05 -75.0 L-84.8 -75.5 -81.85 -75.0 -86.05 -75.0" fill="url(#gradient1)" fill-rule="evenodd" stroke="none"/>
      <path d="M48.25 -75.0 Q-16.8 -64.15 -81.85 -75.0 L-84.8 -75.5 Q-71.7 -80.75 -62.45 -88.0 -48.2 -99.15 -43.05 -115.0 L9.95 -115.0 Q16.2 -98.25 27.9 -88.0 37.65 -79.5 51.2 -75.5 L48.25 -75.0" fill="url(#gradient2)" fill-rule="evenodd" stroke="none"/>
      <path d="M51.2 -75.5 L52.5 -75.5 M51.2 -75.5 L52.95 -75.0 52.95 94.0 Q-16.55 107.85 -86.05 94.0 L-86.05 -75.0 -84.8 -75.5 -86.5 -75.5 M48.25 -75.0 Q-16.8 -64.15 -81.85 -75.0 M48.25 -75.0 L51.2 -75.5 Q37.65 -79.5 27.9 -88.0 16.2 -98.25 9.95 -115.0 L-43.05 -115.0 Q-48.2 -99.15 -62.45 -88.0 -71.7 -80.75 -84.8 -75.5 L-81.85 -75.0" fill="none" stroke="#000000" stroke-linecap="round" stroke-linejoin="round" stroke-opacity="0.5372549" stroke-width="1.0"/>
      <path d="M13.55 -115.9 Q-16.1 -106.45 -45.8 -115.9 -52.1 -126.75 -45.8 -142.15 L13.55 -142.15 Q18.5 -129.0 13.55 -115.9" fill="url(#gradient3)" fill-rule="evenodd" stroke="none"/>
      <path d="M13.55 -115.9 Q-16.1 -106.45 -45.8 -115.9 -52.1 -126.75 -45.8 -142.15 L13.55 -142.15 Q18.5 -129.0 13.55 -115.9 Z" fill="none" stroke="#000000" stroke-linecap="round" stroke-linejoin="round" stroke-opacity="0.5372549" stroke-width="1.0"/>
    </g>
    <linearGradient color-interpolation="linearRGB" gradientTransform="matrix(0.0848, 0.0, 0.0, 0.1074, -16.55, 12.95)" gradientUnits="userSpaceOnUse" id="gradient0" spreadMethod="pad" x1="-819.2" x2="819.2">
      <stop offset="0.00392156862745098" stop-color="#c3d6d7" stop-opacity="0.5372549"/>
      <stop offset="0.5019607843137255" stop-color="#ffffff" stop-opacity="0.5372549"/>
      <stop offset="1.0" stop-color="#c3d6d7" stop-opacity="0.5372549"/>
    </linearGradient>
    <linearGradient color-interpolation="linearRGB" gradientTransform="matrix(0.0848, 0.0, 0.0, 0.0269, -16.55, -97.0)" gradientUnits="userSpaceOnUse" id="gradient1" spreadMethod="pad" x1="-819.2" x2="819.2">
      <stop offset="0.00392156862745098" stop-color="#c3d6d7" stop-opacity="0.5372549"/>
      <stop offset="1.0" stop-color="#ffffff" stop-opacity="0.5372549"/>
    </linearGradient>
    <linearGradient color-interpolation="linearRGB" gradientTransform="matrix(0.0848, 0.0, 0.0, 0.0269, -16.55, -97.0)" gradientUnits="userSpaceOnUse" id="gradient2" spreadMethod="pad" x1="-819.2" x2="819.2">
      <stop offset="0.00392156862745098" stop-color="#c3d6d7" stop-opacity="0.5372549"/>
      <stop offset="0.49019607843137253" stop-color="#ffffff" stop-opacity="0.5372549"/>
      <stop offset="1.0" stop-color="#c3d6d7" stop-opacity="0.5372549"/>
    </linearGradient>
    <linearGradient color-interpolation="linearRGB" gradientTransform="matrix(0.0397, 0.0, 0.0, 0.0218, -16.5, -129.05)" gradientUnits="userSpaceOnUse" id="gradient3" spreadMethod="pad" x1="-819.2" x2="819.2">
      <stop offset="0.00392156862745098" stop-color="#6b6b6b" stop-opacity="0.5372549"/>
      <stop offset="0.49019607843137253" stop-color="#fcfafa" stop-opacity="0.5372549"/>
      <stop offset="1.0" stop-color="#4a4f4f" stop-opacity="0.5372549"/>
    </linearGradient>
  </defs>
</svg>
