<?xml version="1.0" encoding="UTF-8" standalone="no"?>
<svg xmlns:xlink="http://www.w3.org/1999/xlink" height="52.2px" width="137.3px" xmlns="http://www.w3.org/2000/svg">
  <g transform="matrix(1.0, 0.0, 0.0, 1.0, 50.05, 31.9)">
    <use height="41.7" transform="matrix(1.0, 0.0, 0.0, 1.1567, -50.05, -31.9078)" width="100.1" xlink:href="#button0"/>
    <use height="36.6" transform="matrix(1.2885, 0.0, 0.0, 1.0, -33.1769, -16.3)" width="93.5" xlink:href="#text0"/>
  </g>
  <defs>
    <g id="button0" transform="matrix(1.0, 0.0, 0.0, 1.0, 0.05, 0.05)">
      <use height="41.7" transform="matrix(1.0, 0.0, 0.0, 1.0, -0.05, -0.05)" width="100.1" xlink:href="#shape0"/>
    </g>
    <g id="shape0" transform="matrix(1.0, 0.0, 0.0, 1.0, 0.05, 0.05)">
      <path d="M4.5 37.1 Q0.0 32.6 0.0 26.25 L0.0 15.35 Q0.0 9.0 4.5 4.5 9.0 0.0 15.35 0.0 L84.65 0.0 Q91.0 0.0 95.5 4.5 100.0 9.0 100.0 15.35 L100.0 26.25 Q100.0 32.6 95.5 37.1 91.0 41.6 84.65 41.6 L15.35 41.6 Q9.0 41.6 4.5 37.1" fill="#990000" fill-rule="evenodd" stroke="none"/>
      <path d="M0.0 15.35 L0.0 26.25 Q0.0 32.6 4.5 37.1 9.0 41.6 15.35 41.6 M95.5 37.1 Q100.0 32.6 100.0 26.25 L100.0 15.35 Q100.0 9.0 95.5 4.5 91.0 0.0 84.65 0.0 L15.35 0.0 Q9.0 0.0 4.5 4.5 0.0 9.0 0.0 15.35" fill="none" stroke="#000000" stroke-linecap="round" stroke-linejoin="round" stroke-width="0.1"/>
      <path d="M15.35 41.6 L84.65 41.6 Q91.0 41.6 95.5 37.1" fill="none" stroke="#000000" stroke-linecap="round" stroke-linejoin="round" stroke-width="0.1"/>
    </g>
  </defs>
</svg>
