<?xml version="1.0" encoding="UTF-8" standalone="no"?>
<svg xmlns:xlink="http://www.w3.org/1999/xlink" height="185.65px" width="50.9px" xmlns="http://www.w3.org/2000/svg">
  <g transform="matrix(1.0, 0.0, 0.0, 1.0, 0.5, 135.25)">
    <use height="185.65" transform="matrix(1.0, 0.0, 0.0, 1.0, -0.5, -135.25)" width="50.9" xlink:href="#shape0"/>
  </g>
  <defs>
    <g id="shape0" transform="matrix(1.0, 0.0, 0.0, 1.0, 0.5, 135.25)">
      <path d="M30.25 24.35 Q37.2 25.05 42.5 27.85 49.9 31.65 49.9 37.0 49.9 42.3 42.5 46.1 35.3 49.9 25.0 49.9 14.65 49.9 7.25 46.1 0.0 42.3 0.0 37.0 0.0 31.65 7.25 27.85 11.5 25.65 16.75 24.75 L16.75 37.0 Q23.5 42.65 30.25 37.0 L30.25 24.35" fill="url(#gradient0)" fill-rule="evenodd" stroke="none"/>
      <path d="M30.25 17.9 L30.25 24.35 30.25 37.0 Q23.5 42.65 16.75 37.0 L16.75 24.75 16.75 15.15 30.25 17.9" fill="url(#gradient1)" fill-rule="evenodd" stroke="none"/>
      <path d="M30.25 -36.25 L30.25 17.9 16.75 15.15 16.75 -36.35 30.25 -36.25" fill="url(#gradient2)" fill-rule="evenodd" stroke="none"/>
      <path d="M16.75 -36.35 L16.75 -134.75 30.25 -134.75 30.25 -36.25 16.75 -36.35" fill="url(#gradient3)" fill-rule="evenodd" stroke="none"/>
      <path d="M16.75 -36.35 L16.75 -134.75 30.25 -134.75 30.25 -36.25 30.25 17.9 30.25 24.35 Q37.2 25.05 42.5 27.85 49.9 31.65 49.9 37.0 49.9 42.3 42.5 46.1 35.3 49.9 25.0 49.9 14.65 49.9 7.25 46.1 0.0 42.3 0.0 37.0 0.0 31.65 7.25 27.85 11.5 25.65 16.75 24.75 L16.75 15.15 16.75 -36.35 M16.75 37.0 L16.75 24.75 M30.25 24.35 L30.25 37.0" fill="none" stroke="#000000" stroke-linecap="round" stroke-linejoin="round" stroke-width="1.0"/>
      <path d="M30.25 37.0 Q23.5 42.65 16.75 37.0" fill="none" stroke="#cccccc" stroke-linecap="round" stroke-linejoin="round" stroke-width="1.0"/>
    </g>
    <linearGradient color-interpolation="linearRGB" gradientTransform="matrix(0.0304, 0.0, 0.0, 0.0158, 25.0, 37.0)" gradientUnits="userSpaceOnUse" id="gradient0" spreadMethod="pad" x1="-819.2" x2="819.2">
      <stop offset="0.00392156862745098" stop-color="#d0d0d0"/>
      <stop offset="0.49019607843137253" stop-color="#fcfafa"/>
      <stop offset="1.0" stop-color="#eeeeee"/>
    </linearGradient>
    <linearGradient color-interpolation="linearRGB" gradientTransform="matrix(0.0082, 0.0, 0.0, 0.0226, 23.5, 18.5)" gradientUnits="userSpaceOnUse" id="gradient1" spreadMethod="pad" x1="-819.2" x2="819.2">
      <stop offset="0.00392156862745098" stop-color="#d0d0d0"/>
      <stop offset="0.49019607843137253" stop-color="#fcfafa"/>
      <stop offset="1.0" stop-color="#eeeeee"/>
    </linearGradient>
    <linearGradient color-interpolation="linearRGB" gradientTransform="matrix(0.0082, 0.0, 0.0, 0.4104, 23.5, 110.55)" gradientUnits="userSpaceOnUse" id="gradient2" spreadMethod="pad" x1="-819.2" x2="819.2">
      <stop offset="0.00392156862745098" stop-color="#d0d0d0"/>
      <stop offset="0.49019607843137253" stop-color="#fcfafa"/>
      <stop offset="1.0" stop-color="#eeeeee"/>
    </linearGradient>
    <linearGradient color-interpolation="linearRGB" gradientTransform="matrix(0.0082, 0.0, 0.0, 0.2134, 23.5, 40.1)" gradientUnits="userSpaceOnUse" id="gradient3" spreadMethod="pad" x1="-819.2" x2="819.2">
      <stop offset="0.00392156862745098" stop-color="#d0d0d0"/>
      <stop offset="0.49019607843137253" stop-color="#fcfafa"/>
      <stop offset="1.0" stop-color="#eeeeee"/>
    </linearGradient>
  </defs>
</svg>
