<?xml version="1.0" encoding="UTF-8" standalone="no"?>
<svg xmlns:xlink="http://www.w3.org/1999/xlink" height="241.9px" width="140.45px" xmlns="http://www.w3.org/2000/svg">
  <g transform="matrix(1.0, 0.0, 0.0, 1.0, 87.0, 140.5)">
    <use height="241.9" transform="matrix(1.0, 0.0, 0.0, 1.0, -87.0, -140.5)" width="140.45" xlink:href="#shape0"/>
  </g>
  <defs>
    <g id="shape0" transform="matrix(1.0, 0.0, 0.0, 1.0, 87.0, 140.5)">
      <path d="M48.25 -75.0 L51.2 -75.5 52.95 -75.0 48.25 -75.0 M-84.8 -75.5 L-81.85 -75.0 -86.05 -75.0 -84.8 -75.5" fill="url(#gradient0)" fill-rule="evenodd" stroke="none"/>
      <path d="M48.25 -75.0 L52.95 -75.0 52.95 94.0 Q-16.55 107.85 -86.05 94.0 L-86.05 -75.0 -81.85 -75.0 Q-16.8 -64.15 48.25 -75.0" fill="url(#gradient1)" fill-rule="evenodd" stroke="none"/>
      <path d="M51.2 -75.5 L48.25 -75.0 Q-16.8 -64.15 -81.85 -75.0 L-84.8 -75.5 Q-71.7 -80.75 -62.45 -88.0 -48.2 -99.15 -43.05 -115.0 L9.95 -115.0 Q16.2 -98.25 27.9 -88.0 37.65 -79.5 51.2 -75.5" fill="url(#gradient2)" fill-rule="evenodd" stroke="none"/>
      <path d="M51.2 -75.5 L52.5 -75.5 M51.2 -75.5 L48.25 -75.0 M52.95 -75.0 L51.2 -75.5 Q37.65 -79.5 27.9 -88.0 16.2 -98.25 9.95 -115.0 L-43.05 -115.0 Q-48.2 -99.15 -62.45 -88.0 -71.7 -80.75 -84.8 -75.5 L-81.85 -75.0 Q-16.8 -64.15 48.25 -75.0 M52.95 -75.0 L52.95 94.0 Q-16.55 107.85 -86.05 94.0 L-86.05 -75.0 -84.8 -75.5 -86.5 -75.5" fill="none" stroke="#000000" stroke-linecap="round" stroke-linejoin="round" stroke-width="1.0"/>
      <path d="M12.55 -117.15 Q-16.65 -108.95 -45.8 -117.15 -52.0 -126.6 -45.8 -140.0 L12.55 -140.0 Q17.4 -128.6 12.55 -117.15" fill="url(#gradient3)" fill-rule="evenodd" stroke="none"/>
      <path d="M12.55 -117.15 Q-16.65 -108.95 -45.8 -117.15 -52.0 -126.6 -45.8 -140.0 L12.55 -140.0 Q17.4 -128.6 12.55 -117.15 Z" fill="none" stroke="#000000" stroke-linecap="round" stroke-linejoin="round" stroke-width="1.0"/>
      <path d="M-36.4 -48.5 L-38.5 -48.55 -40.5 -48.5 -42.35 -48.45 -44.2 -48.4 -46.0 -48.4 -48.2 -48.7 -50.4 -48.75 -52.5 -48.5 -54.5 -48.45 -56.4 -48.5 M-57.6 -48.5 L-59.1 -48.55 -60.8 -48.5 M-57.6 -32.25 L-59.3 -32.35 -60.8 -32.25 M-38.4 -32.25 L-40.55 -32.1 -42.25 -32.0 -44.05 -32.2 -46.25 -32.25 -48.4 -32.25 -50.4 -32.4 -52.4 -32.4 -54.3 -32.1 -56.4 -32.25 M-42.3 -13.15 L-44.25 -13.2 -46.25 -13.15 -48.45 -13.1 -50.45 -13.25 -52.25 -13.3 -54.25 -13.1 -56.4 -12.95 -58.3 -13.15 M-59.5 -13.15 L-60.8 -13.15 M3.4 -48.5 L1.05 -48.65 -0.65 -48.5 -2.2 -48.55 -4.4 -48.7 -6.6 -48.9 -8.6 -48.65 -10.6 -48.5 M-11.9 -48.5 L-14.05 -48.35 -15.85 -48.3 -17.65 -48.1 -19.85 -48.3 -21.9 -48.5 M-9.8 -32.25 L-11.6 -32.15 -13.75 -32.2 -15.7 -32.1 -17.85 -31.95 -20.1 -32.2 -21.8 -32.25 M7.4 -32.25 L5.45 -32.2 3.4 -32.25 1.55 -32.25 -0.5 -32.25 -2.8 -32.25 -4.65 -32.25 -6.55 -32.05 -8.6 -32.25 M-23.2 -48.5 L-25.1 -48.5 -27.2 -48.45 -29.15 -48.5 -30.9 -48.45 -33.0 -48.55 -35.2 -48.5 M-23.1 -32.25 L-25.0 -32.4 -27.3 -32.3 -29.1 -32.3 -30.7 -32.35 -32.95 -32.25 -35.15 -32.15 -37.1 -32.25 M-31.1 -13.15 L-33.1 -13.0 Q-34.1 -12.8 -35.25 -13.0 L-37.05 -12.95 -38.95 -12.75 -41.1 -13.15 M-15.8 -13.15 L-18.05 -12.7 -19.9 -12.85 -21.75 -13.0 -23.8 -12.85 -25.55 -12.8 -27.7 -13.05 -29.8 -13.15 M5.4 -13.15 L3.3 -13.15 1.35 -13.15 -0.5 -13.15 -2.65 -13.25 -4.75 -13.2 -6.85 -13.15 -8.65 -13.05 -10.7 -12.9 -12.85 -13.15 Q-13.6 -13.4 -14.6 -13.15 M22.7 -48.5 L21.05 -48.55 18.85 -48.75 16.65 -48.7 14.6 -48.55 12.45 -48.6 10.55 -48.6 8.9 -48.55 6.85 -48.35 4.7 -48.5 M22.7 -32.25 L20.7 -32.25 18.6 -32.0 16.6 -31.95 14.85 -32.3 12.95 -32.4 10.8 -32.25 8.7 -32.25 M22.7 -13.15 L20.95 -13.15 18.9 -13.35 16.7 -13.3 14.7 -13.1 12.9 -13.1 10.75 -13.1 8.65 -13.2 6.7 -13.15 M23.55 7.0 L21.7 6.8 19.7 6.75 17.55 6.85 15.35 6.8 13.35 6.85 11.55 7.0 M10.3 7.0 L8.25 7.1 Q7.3 6.95 6.45 7.1 L4.65 7.0 2.5 6.85 0.15 7.15 -1.85 7.1 -3.7 7.0 M23.55 25.2 L21.3 25.4 19.05 25.2 17.3 25.25 15.65 25.3 13.45 25.2 11.35 25.35 9.55 25.15 7.55 25.2 M6.3 25.2 L4.45 25.25 2.4 25.2 0.3 25.15 -1.65 25.25 -3.6 25.2 Q-4.55 25.05 -5.75 25.2 L-7.8 25.3 -9.7 25.2 M23.55 44.3 L21.6 44.35 19.5 44.35 17.6 44.35 15.6 44.35 13.65 44.35 11.7 44.2 9.75 44.25 7.9 44.45 5.55 44.3 M4.3 44.3 L2.35 44.35 0.4 44.5 -1.65 44.5 -3.7 44.3 -5.7 44.1 -7.65 44.2 -9.9 44.3 Q-11.15 44.15 -11.7 44.3 M23.55 64.35 L21.55 64.45 19.65 64.25 17.6 64.2 15.45 64.2 13.35 64.3 11.65 64.45 9.5 64.35 7.55 64.35 M6.3 64.35 L4.55 64.25 2.25 64.45 0.25 64.45 -1.45 64.45 -3.4 64.55 -5.7 64.35 M21.9 82.55 Q21.05 82.15 19.85 82.15 L17.9 82.35 15.8 82.6 13.6 82.5 11.9 82.6 9.9 82.55 M8.65 82.55 L6.7 82.55 4.8 82.75 2.85 82.7 0.7 82.45 -1.35 82.5 -3.55 82.55 -5.6 82.55 -7.55 82.5 -9.55 82.65 -11.35 82.55 M-4.9 7.0 L-6.8 6.85 -8.95 6.8 -10.85 7.0 -12.8 6.85 -15.1 6.6 -17.1 6.8 -18.9 6.95 -21.1 6.75 -23.1 6.8 -24.9 7.0 M-26.2 7.0 L-28.1 7.05 -30.25 7.45 -32.2 7.1 -34.3 6.9 -36.15 7.2 -38.15 7.15 -40.2 6.95 -42.2 7.0 M-28.2 25.2 L-30.3 24.85 -32.4 25.3 -34.05 25.4 -36.05 25.25 -38.25 25.1 -40.35 24.9 -42.2 25.0 -44.2 25.2 M-11.0 25.2 L-12.9 25.1 -15.0 25.2 -17.1 25.3 -19.2 25.25 -21.15 25.25 -23.05 25.15 -24.95 25.4 -27.0 25.2 M-12.9 44.3 L-14.8 44.2 -17.2 44.25 -19.1 44.45 -20.95 44.35 -22.95 44.35 -24.8 44.3 -26.8 44.15 -29.1 44.4 Q-30.3 44.8 -31.1 44.4 L-32.9 44.3 M-34.2 44.3 L-36.3 44.25 -38.15 44.1 Q-38.85 43.95 -40.0 44.1 L-42.15 44.25 -44.2 44.25 -46.05 44.3 -48.2 44.3 M-43.4 7.0 L-45.55 6.95 -47.35 7.0 -49.2 7.05 -51.15 7.05 -53.3 7.15 -55.4 7.15 -57.2 7.0 -59.4 7.0 -60.0 7.0 M-45.5 25.2 L-47.65 25.15 -49.4 25.2 -51.5 25.05 -53.6 24.85 -55.25 25.1 -57.3 25.45 -59.5 25.2 -60.0 25.2 M-49.4 44.3 L-51.2 44.25 -53.6 44.4 -55.4 44.4 -57.25 44.45 -58.7 44.15 -60.0 44.3 M-52.7 64.35 L-54.8 64.25 -56.75 64.35 -58.1 64.35 -60.0 64.35 M-37.4 64.35 L-39.35 64.3 -41.15 64.55 Q-41.95 64.8 -43.2 64.55 L-45.4 64.5 -47.3 64.5 Q-48.25 64.35 -49.4 64.5 L-51.4 64.35 M-37.25 82.55 L-39.55 82.45 -41.3 82.5 -43.15 82.65 -45.15 82.75 -47.25 82.8 -49.25 82.55 M-50.45 82.55 L-52.3 82.85 -54.25 82.65 -56.5 82.7 -58.6 82.6 -60.15 82.5 -61.65 82.55 M-7.0 64.35 L-8.8 64.3 -11.0 64.35 -12.85 64.2 -14.85 63.95 -17.05 64.1 -19.05 64.35 -21.05 64.35 -23.0 64.35 M-24.2 64.35 L-26.25 64.55 -28.25 64.35 -30.5 64.1 -32.45 64.15 -34.25 63.95 -36.2 64.35 M-23.95 82.55 L-26.1 82.3 -27.9 82.35 -29.9 82.55 -31.85 82.45 -34.0 82.3 -35.95 82.55 M-12.65 82.55 L-14.9 82.65 -16.95 82.6 -18.65 82.7 -20.7 82.6 -22.65 82.55" fill="none" stroke="#000000" stroke-linecap="round" stroke-linejoin="round" stroke-width="1.0"/>
    </g>
    <linearGradient color-interpolation="linearRGB" gradientTransform="matrix(0.0848, 0.0, 0.0, 0.0269, -16.55, -97.0)" gradientUnits="userSpaceOnUse" id="gradient0" spreadMethod="pad" x1="-819.2" x2="819.2">
      <stop offset="0.00392156862745098" stop-color="#c3d6d7"/>
      <stop offset="1.0" stop-color="#ffffff"/>
    </linearGradient>
    <linearGradient color-interpolation="linearRGB" gradientTransform="matrix(0.0848, 0.0, 0.0, 0.1074, -16.55, 12.95)" gradientUnits="userSpaceOnUse" id="gradient1" spreadMethod="pad" x1="-819.2" x2="819.2">
      <stop offset="0.00392156862745098" stop-color="#c3d6d7"/>
      <stop offset="0.5019607843137255" stop-color="#ffffff"/>
      <stop offset="1.0" stop-color="#c3d6d7"/>
    </linearGradient>
    <linearGradient color-interpolation="linearRGB" gradientTransform="matrix(0.0848, 0.0, 0.0, 0.0269, -16.55, -97.0)" gradientUnits="userSpaceOnUse" id="gradient2" spreadMethod="pad" x1="-819.2" x2="819.2">
      <stop offset="0.00392156862745098" stop-color="#c3d6d7"/>
      <stop offset="0.49019607843137253" stop-color="#ffffff"/>
      <stop offset="1.0" stop-color="#c3d6d7"/>
    </linearGradient>
    <linearGradient color-interpolation="linearRGB" gradientTransform="matrix(0.039, 0.0, 0.0, 0.019, -17.0, -128.65)" gradientUnits="userSpaceOnUse" id="gradient3" spreadMethod="pad" x1="-819.2" x2="819.2">
      <stop offset="0.00392156862745098" stop-color="#6b6b6b"/>
      <stop offset="0.49019607843137253" stop-color="#fcfafa"/>
      <stop offset="1.0" stop-color="#4a4f4f"/>
    </linearGradient>
  </defs>
</svg>
