<?xml version="1.0" encoding="UTF-8" standalone="no"?>
<svg xmlns:xlink="http://www.w3.org/1999/xlink" height="77.1px" width="138.75px" xmlns="http://www.w3.org/2000/svg">
  <g transform="matrix(1.0, 0.0, 0.0, 1.0, 1.0, 1.0)">
    <use height="40.0" transform="matrix(1.0, 0.0, 0.0, 1.0, -1.0, -1.0)" width="125.0" xlink:href="#shape0"/>
    <use height="68.1" transform="matrix(1.0, 0.0, 0.0, 1.0, 5.0, 8.0)" width="132.75" xlink:href="#text0"/>
  </g>
  <defs>
    <g id="shape0" transform="matrix(1.0, 0.0, 0.0, 1.0, 1.0, 1.0)">
      <path d="M117.4 32.4 Q111.85 38.0 104.0 38.0 L19.0 38.0 Q11.15 38.0 5.55 32.4 0.0 26.85 0.0 19.0 0.0 11.15 5.55 5.55 11.15 0.0 19.0 0.0 L104.0 0.0 Q111.85 0.0 117.4 5.55 123.0 11.15 123.0 19.0 123.0 26.85 117.4 32.4" fill="url(#gradient0)" fill-rule="evenodd" stroke="none"/>
      <path d="M117.4 32.4 Q123.0 26.85 123.0 19.0 123.0 11.15 117.4 5.55 111.85 0.0 104.0 0.0 L19.0 0.0 Q11.15 0.0 5.55 5.55 0.0 11.15 0.0 19.0 0.0 26.85 5.55 32.4 11.15 38.0 19.0 38.0 L104.0 38.0 Q111.85 38.0 117.4 32.4 Z" fill="none" stroke="#000000" stroke-linecap="round" stroke-linejoin="round" stroke-width="2.0"/>
    </g>
    <radialGradient cx="0" cy="0" gradientTransform="matrix(0.0762, 0.0, 0.0, 0.0762, 61.5, 19.0)" gradientUnits="userSpaceOnUse" id="gradient0" r="819.2" spreadMethod="pad">
      <stop offset="0.0" stop-color="#ff0000"/>
      <stop offset="1.0" stop-color="#ff1c43"/>
    </radialGradient>
  </defs>
</svg>
