<?xml version="1.0" encoding="UTF-8" standalone="no"?>
<svg xmlns:xlink="http://www.w3.org/1999/xlink" height="93.3px" width="41.8px" xmlns="http://www.w3.org/2000/svg">
  <g transform="matrix(1.0, 0.0, 0.0, 1.0, 0.15, 0.15)">
    <use height="10.3" transform="matrix(1.0, 0.0, 0.0, 1.0, 0.2, 67.25)" width="41.1" xlink:href="#shape0"/>
    <clipPath id="clipPath0" transform="matrix(1.0, 0.0, 0.0, 1.0, 0.15, 0.15)">
      <use height="38.4" transform="matrix(1.0, 0.0, 0.0, 1.0, 0.0, 36.1)" width="41.4" xlink:href="#shape1"/>
    </clipPath>
    <g clip-path="url(#clipPath0)">
      <use height="0.25" id="water" transform="matrix(1.0, 0.0, 0.0, -71.9824, 0.25, 80.0009)" width="41.25" xlink:href="#sprite0"/>
    </g>
    <use height="244.05" transform="matrix(0.2975, 0.0, 0.0, 0.3169, -0.1352, -0.1594)" width="140.45" xlink:href="#sprite1"/>
  </g>
  <defs>
    <g id="shape0" transform="matrix(1.0, 0.0, 0.0, 1.0, -0.2, -67.25)">
      <path d="M5.7 69.3 L5.65 69.3 5.65 68.6 37.0 68.6 37.0 69.25 37.05 69.25 37.05 73.55 37.15 73.85 37.05 73.85 37.05 74.3 Q34.35 75.25 28.2 76.2 22.05 77.15 15.6 75.9 L11.65 75.15 6.95 74.45 5.7 74.3 5.7 73.85 5.65 73.85 5.65 73.55 5.7 73.55 5.7 69.3 M37.05 73.85 L37.05 73.55 37.05 73.85" fill="#ff9966" fill-rule="evenodd" stroke="none"/>
      <path d="M37.05 69.25 L37.05 73.55 37.05 73.85 37.05 74.3 Q34.35 75.25 28.2 76.2 M15.6 75.9 L11.65 75.15 M6.95 74.45 L5.7 74.3 5.7 73.85 M5.7 73.55 L5.7 69.3" fill="none" stroke="#ffcc00" stroke-linecap="round" stroke-linejoin="round" stroke-width="0.05"/>
      <path d="M29.95 67.95 Q30.55 67.6 30.95 68.25 L31.0 68.35 31.1 68.8 31.1 68.85 30.85 69.35 30.95 69.45 31.2 69.8 31.2 69.85 31.25 70.0 31.3 70.1 31.3 70.25 31.25 70.35 31.1 70.6 30.95 70.75 30.85 70.95 30.75 71.05 30.6 71.2 30.55 71.2 30.5 71.25 30.4 71.35 29.55 71.25 29.45 71.1 29.35 70.95 29.25 70.7 29.2 70.6 29.15 70.5 29.1 70.4 29.0 70.05 29.0 69.85 29.05 69.7 29.4 69.25 29.5 69.2 29.65 69.05 29.7 69.05 29.7 69.0 29.6 68.85 Q29.3 68.3 29.75 68.05 L29.95 68.0 29.95 67.95 M24.2 67.75 Q24.45 68.35 24.2 68.75 L24.25 68.8 24.4 69.0 24.45 69.1 24.55 69.4 24.5 69.85 24.3 70.0 24.2 70.05 24.0 70.1 24.05 70.2 24.05 70.25 24.15 70.75 24.1 70.9 23.8 71.3 23.65 71.4 23.6 71.45 23.45 71.5 Q23.85 71.45 24.15 71.9 L24.2 72.0 24.3 72.3 24.35 72.4 24.55 72.3 24.5 72.0 Q24.45 71.65 24.7 71.45 L25.15 71.35 24.7 71.0 Q24.25 70.5 24.45 70.2 L24.75 69.9 24.85 69.8 25.0 69.75 24.9 69.55 24.9 69.5 24.9 69.35 Q24.75 69.1 24.9 68.85 L25.1 68.7 25.1 68.65 25.75 68.7 25.85 68.8 25.95 69.1 26.0 69.15 26.05 69.2 26.1 69.7 26.25 69.85 26.35 69.9 26.45 70.0 26.6 70.15 26.65 69.95 26.75 69.9 26.85 69.8 26.9 69.75 27.05 69.65 27.1 69.65 27.45 69.55 27.6 69.35 27.65 69.3 27.6 69.25 27.45 69.0 27.35 68.65 Q27.3 68.25 27.7 67.95 28.2 67.55 28.65 68.1 L28.75 68.25 28.9 69.0 28.65 69.3 28.7 69.35 28.7 69.4 28.75 69.5 28.85 69.8 28.85 69.9 28.7 70.4 28.65 70.4 28.5 70.5 28.45 70.55 28.35 70.6 28.15 70.6 27.9 70.75 27.75 70.85 27.45 70.95 27.35 70.95 27.3 70.95 27.25 70.95 27.15 70.95 27.1 70.9 27.0 70.85 26.8 70.7 26.7 70.6 26.65 70.55 26.45 70.9 26.2 71.1 26.05 71.2 26.0 71.35 25.9 71.4 25.5 71.4 25.45 71.4 25.3 71.4 25.25 71.4 Q25.35 71.4 25.5 71.55 L25.9 71.85 26.1 72.15 26.15 72.3 26.15 72.4 26.1 72.55 26.15 72.6 26.2 72.6 26.5 72.8 26.6 72.95 26.65 73.05 Q26.9 73.6 26.4 73.95 L26.0 74.1 25.7 74.05 25.3 74.2 24.45 74.1 24.3 73.95 24.1 73.65 24.05 73.5 23.15 73.6 22.95 73.4 22.85 73.25 22.75 73.05 22.7 72.95 22.55 72.6 Q22.4 72.1 22.8 71.8 L22.95 71.7 23.25 71.55 23.15 71.55 23.0 71.5 22.7 71.15 22.65 71.0 22.5 70.8 22.35 70.6 22.3 70.25 22.3 70.15 22.6 69.75 22.65 69.7 23.05 69.55 23.1 69.55 23.05 69.4 23.05 69.35 22.85 69.25 22.65 69.15 22.4 68.95 22.3 68.85 21.9 69.45 21.65 69.55 21.75 69.65 21.8 69.7 21.9 69.8 21.95 69.9 22.0 69.95 22.05 70.05 22.1 70.2 22.15 70.3 22.15 70.4 22.1 70.6 21.95 70.9 21.85 70.95 21.8 71.25 21.55 71.45 21.4 71.55 21.65 71.8 21.7 71.85 21.9 72.1 22.0 72.3 22.05 72.55 22.05 72.6 22.25 73.1 22.25 73.2 22.2 73.35 22.0 73.65 Q22.4 74.15 21.7 74.6 L20.5 74.5 Q20.15 74.0 20.5 73.7 L20.7 73.55 20.6 73.45 20.5 73.25 20.5 73.2 20.45 73.1 Q20.4 72.8 20.7 72.5 L20.6 72.4 20.5 72.15 20.5 72.05 Q20.45 71.75 20.8 71.55 L20.9 71.5 20.85 71.45 20.55 71.15 20.4 70.85 20.35 70.75 20.3 70.7 20.2 70.5 20.1 70.1 20.1 69.8 Q20.15 69.45 20.45 69.25 L20.55 69.25 20.55 69.2 20.65 69.2 20.65 69.15 20.7 69.0 20.6 68.7 Q20.6 68.35 21.0 68.1 21.55 67.75 22.0 68.25 L22.0 68.3 22.1 68.4 22.2 68.55 22.2 68.3 22.25 68.25 22.8 67.55 Q23.85 66.85 24.2 67.75 M27.1 71.5 L27.35 71.25 Q28.0 70.75 28.45 71.35 L28.6 71.6 28.6 71.8 28.65 71.8 29.05 71.95 29.15 72.1 29.2 72.2 29.25 72.3 29.55 71.9 Q29.6 71.8 29.7 71.8 L29.7 71.75 Q30.15 71.4 30.5 71.55 L30.85 71.9 30.85 71.95 31.0 72.4 31.05 72.45 31.1 72.5 31.2 72.7 31.3 72.85 31.6 72.5 31.75 72.4 Q32.0 72.25 32.2 72.25 L31.85 71.95 31.8 71.8 Q31.7 71.55 31.85 71.4 L31.55 71.1 31.45 71.0 Q31.2 70.55 31.4 70.3 L31.4 70.25 31.55 70.1 31.7 70.0 32.05 69.9 32.1 69.85 31.95 69.75 31.9 69.75 31.8 69.65 31.55 69.4 31.5 69.35 31.45 69.3 31.35 69.05 31.35 68.8 31.4 68.7 Q31.5 68.4 31.9 68.2 32.15 68.05 32.35 68.05 L32.55 67.85 Q33.1 67.45 33.3 67.95 L33.35 68.4 33.25 68.55 33.25 68.6 33.35 68.9 33.5 68.8 33.65 68.75 33.75 68.7 33.8 68.7 Q33.8 68.3 34.25 68.05 34.95 67.65 35.35 68.25 L35.45 68.45 35.5 68.7 35.65 68.6 35.7 68.55 35.95 68.45 36.2 68.15 Q36.75 67.7 37.25 68.45 L37.4 69.15 37.9 69.6 Q38.2 70.3 37.65 70.6 L37.45 70.7 37.1 70.95 36.0 71.0 35.75 70.75 35.65 70.55 35.6 70.4 35.7 70.0 35.8 69.95 35.85 69.9 Q35.9 69.8 36.0 69.8 L35.7 69.65 35.5 69.45 35.3 69.15 35.05 69.3 34.9 69.4 34.95 69.55 34.9 69.8 34.85 69.85 34.85 69.9 34.9 69.9 35.05 69.85 35.1 69.85 35.3 69.95 35.4 70.1 35.45 70.2 35.5 70.4 35.5 70.5 35.15 71.0 34.95 71.15 34.75 71.2 35.15 71.5 35.3 71.7 35.35 72.05 35.3 72.1 35.35 72.1 35.5 72.25 35.7 72.45 35.8 72.6 35.8 72.55 Q36.45 72.0 36.95 72.7 L37.15 73.25 37.3 73.45 Q37.7 74.15 36.95 74.55 L36.85 74.6 36.25 75.2 Q35.4 75.7 34.95 75.0 L34.4 74.55 34.25 74.05 34.2 74.0 34.1 73.9 33.9 73.7 33.7 73.2 33.75 73.0 33.8 72.85 33.8 72.8 34.0 72.4 34.05 72.35 34.1 72.3 34.0 72.2 33.9 72.05 33.8 71.7 34.15 71.3 34.6 71.2 34.5 71.1 34.35 70.9 34.35 70.85 34.3 70.65 34.3 70.45 34.05 70.55 33.8 70.55 33.75 70.55 33.55 70.5 33.5 70.45 33.35 70.35 33.15 70.2 33.05 70.0 32.95 69.85 32.9 69.85 32.75 69.9 32.6 69.95 32.75 70.05 32.9 70.15 33.0 70.25 33.0 70.3 33.15 70.7 32.9 71.2 32.75 71.3 32.8 71.35 Q33.05 71.7 32.6 72.05 L32.35 72.2 32.65 72.3 32.8 72.35 33.05 72.55 33.15 72.7 33.25 72.85 33.5 73.5 33.45 73.85 33.0 74.25 32.5 74.45 32.05 74.35 31.7 74.1 31.5 73.85 31.3 73.45 30.9 73.75 30.85 73.8 30.75 73.8 30.65 73.9 Q30.35 74.2 30.0 73.7 L29.95 73.55 29.85 73.45 29.75 73.25 29.6 73.15 29.55 73.1 29.4 72.95 29.3 72.8 29.2 73.05 29.05 73.3 28.95 73.4 28.85 73.5 28.8 73.5 28.45 73.7 28.25 73.9 Q27.9 74.1 27.6 73.9 L27.3 73.65 27.3 73.6 Q26.95 73.25 27.2 73.0 L27.15 72.9 27.2 72.7 27.25 72.65 27.3 72.55 27.05 72.3 Q26.85 71.95 27.0 71.65 L27.1 71.5 M6.05 67.6 L6.5 68.1 6.6 68.4 Q6.65 68.9 6.3 69.2 L6.1 69.3 6.15 69.4 6.2 69.5 6.25 69.65 6.25 69.7 6.3 70.3 6.4 70.2 6.45 70.2 6.5 70.15 6.9 70.0 7.4 70.2 7.5 70.25 7.55 70.3 7.6 70.25 8.0 70.2 8.3 70.5 8.35 70.7 8.45 70.6 8.6 70.5 8.7 70.5 8.75 70.45 8.9 70.4 8.9 70.35 8.8 70.25 8.7 70.0 8.65 69.9 Q8.6 69.7 8.7 69.55 L8.7 69.5 8.95 69.2 9.0 69.2 9.1 69.1 9.25 69.05 9.4 69.0 9.45 69.0 9.65 69.0 9.7 68.95 9.7 68.9 9.75 68.85 9.85 68.8 10.0 68.75 10.05 68.7 Q9.95 68.5 10.25 68.35 10.7 68.1 10.85 68.5 11.0 68.85 10.7 69.0 L10.65 69.05 10.65 69.1 10.75 69.35 10.75 69.6 10.7 69.7 10.6 69.85 10.45 69.95 10.4 70.0 10.35 70.0 10.35 70.05 10.3 70.1 10.35 70.15 10.45 70.4 10.2 70.75 10.15 70.75 9.85 70.9 Q10.0 70.9 10.15 71.1 10.45 71.55 9.95 71.8 9.4 72.1 9.3 71.7 L9.3 71.4 9.25 71.4 9.15 71.5 9.1 71.5 8.95 71.55 Q8.65 71.55 8.45 71.3 L8.45 71.25 8.4 71.2 8.3 70.95 8.05 71.2 8.05 71.25 8.05 71.3 8.05 71.4 8.0 71.6 8.0 71.65 8.35 71.9 8.45 72.1 8.3 72.65 8.25 72.7 8.4 72.9 8.4 72.95 Q8.75 73.55 8.2 73.9 L7.55 74.0 7.45 74.0 7.05 73.65 6.95 73.2 7.0 73.15 7.15 72.95 7.2 72.9 7.4 72.75 7.75 72.6 7.7 72.5 7.6 72.35 7.55 72.15 7.5 72.15 7.0 72.3 6.7 72.25 6.45 72.05 6.25 71.75 6.2 71.6 6.1 72.0 6.05 72.05 6.05 72.1 6.15 72.15 6.45 72.4 6.75 72.9 6.8 73.05 6.8 73.35 6.75 73.45 6.7 73.6 6.35 74.0 6.25 74.05 Q5.65 74.5 5.25 74.3 L4.8 73.9 4.7 73.75 Q4.2 72.9 4.75 72.3 L4.8 72.25 4.6 72.0 4.55 71.95 Q4.2 71.3 4.85 70.9 L4.9 70.9 4.6 70.65 4.25 70.15 Q3.7 69.1 4.6 68.5 L5.0 68.35 5.45 67.75 Q5.75 67.5 6.05 67.6 M7.9 68.6 L8.3 68.95 8.3 69.0 8.45 69.3 8.5 69.4 8.5 69.55 8.5 69.7 8.45 69.75 8.3 69.9 8.15 70.0 7.6 70.1 7.5 70.1 7.45 70.1 7.0 69.8 6.9 69.45 6.85 69.2 6.85 69.15 6.85 69.05 6.9 68.95 7.0 68.85 7.1 68.75 7.2 68.65 7.75 68.55 7.9 68.6 M9.45 70.75 L9.5 70.85 9.5 70.9 9.55 70.95 9.7 70.9 9.6 70.85 9.5 70.8 9.5 70.75 9.45 70.75 M6.1 70.65 L6.05 70.7 5.75 70.85 6.0 71.15 6.05 71.25 6.05 71.05 6.05 70.95 6.05 70.7 6.1 70.65 M9.5 72.45 L9.6 72.35 9.65 72.35 9.75 72.3 9.95 72.2 10.3 72.3 10.4 72.45 10.5 72.75 10.3 73.15 10.25 73.2 10.2 73.2 10.2 73.25 10.45 73.75 10.5 73.85 10.55 73.9 10.7 74.25 10.8 74.4 Q11.0 74.85 10.6 75.15 L9.8 75.05 9.75 75.0 Q9.35 75.0 9.2 74.6 L9.15 74.1 9.2 74.05 9.1 73.9 8.9 73.55 Q8.75 73.2 9.15 73.0 L9.3 72.95 9.3 72.7 9.5 72.45 M17.1 67.9 L17.3 68.4 17.45 68.75 17.4 69.0 17.2 69.25 17.0 69.4 16.8 69.5 16.85 69.65 16.9 69.6 17.15 69.5 Q17.4 69.4 17.55 69.7 L17.65 70.05 17.65 70.15 17.45 70.45 17.35 70.5 17.3 70.55 16.85 70.6 16.75 70.55 16.65 70.4 16.6 70.15 16.45 70.25 16.4 70.3 16.35 70.3 16.25 70.35 15.9 70.45 15.8 70.45 15.55 70.4 15.5 70.35 15.45 70.3 15.4 70.25 15.05 70.45 15.1 70.8 14.85 71.25 14.75 71.35 14.6 71.45 14.55 71.5 14.2 71.7 13.95 71.75 13.9 71.75 13.55 71.7 13.2 71.45 13.05 71.3 13.05 71.25 13.0 71.2 12.75 70.65 12.8 70.3 12.85 70.3 12.85 70.25 12.9 70.15 12.95 70.1 13.0 70.0 13.05 69.95 13.1 69.9 13.2 69.8 13.25 69.75 13.4 69.65 13.35 69.45 13.45 69.15 13.6 68.9 13.75 68.8 13.85 68.75 13.95 68.65 14.2 68.55 15.0 68.6 15.25 68.85 15.4 69.05 15.4 69.1 15.55 69.05 15.6 69.0 15.85 68.95 15.85 68.85 15.85 68.7 Q15.3 68.05 16.0 67.65 16.65 67.25 17.1 67.9 M12.1 67.85 Q12.55 67.75 13.0 68.35 L13.25 68.8 13.3 68.85 Q13.35 69.2 12.9 69.35 L12.7 69.4 12.7 69.5 12.75 69.6 12.75 69.8 12.7 70.0 12.6 70.1 12.55 70.15 12.45 70.2 12.3 70.25 12.05 70.3 11.7 70.15 11.6 70.05 11.55 70.0 11.4 69.85 11.35 69.75 11.3 69.7 11.25 69.65 11.25 69.6 Q11.05 69.2 11.5 68.9 L11.6 68.85 11.65 68.8 Q11.35 68.25 11.85 67.95 L12.1 67.85 M10.7 70.65 L10.9 70.6 11.0 70.6 11.05 70.6 11.25 70.6 11.3 70.6 11.4 70.65 11.55 70.75 11.8 71.0 11.85 71.05 11.9 71.1 12.0 71.35 12.05 71.55 Q12.35 71.35 12.55 71.75 12.8 72.2 12.4 72.45 L12.35 72.5 12.45 72.55 12.55 72.65 12.65 72.8 12.75 73.15 13.25 73.45 13.35 73.6 13.4 73.65 13.45 73.9 12.95 74.5 11.9 74.6 11.65 74.35 Q11.4 74.05 11.45 73.85 L11.5 73.7 11.75 73.45 11.7 73.35 11.65 73.15 11.65 73.0 11.75 72.8 11.9 72.6 11.95 72.6 12.05 72.55 Q11.85 72.5 11.75 72.3 L11.7 72.2 11.55 72.3 11.3 72.35 11.15 72.3 10.8 72.05 10.7 71.9 10.65 71.85 10.6 71.8 10.45 71.5 10.35 71.15 10.45 70.85 10.7 70.65 M14.0 72.0 L14.25 71.75 Q14.65 71.5 15.0 71.6 L15.3 71.8 15.4 71.95 15.45 72.0 15.45 72.05 15.5 72.7 15.25 73.1 15.3 73.35 Q15.7 74.0 15.15 74.55 L15.4 74.75 15.5 74.85 Q15.95 74.65 16.25 75.2 L16.35 75.45 16.55 75.25 Q16.95 75.0 17.25 75.4 17.5 75.75 17.05 76.05 16.55 76.3 16.35 75.9 L16.3 75.85 15.95 76.15 15.1 76.0 Q14.6 76.25 14.25 75.7 14.05 75.3 14.15 75.0 L13.6 74.5 13.5 73.95 13.6 73.55 13.6 73.5 13.55 73.15 Q13.5 73.0 13.6 72.9 13.45 72.4 13.85 72.1 L13.9 72.1 13.95 72.05 14.0 72.0 M19.55 69.25 L19.5 69.25 19.55 69.6 19.6 69.7 19.65 69.75 19.7 69.8 19.85 70.25 19.8 70.4 19.8 70.6 19.45 71.05 19.35 71.1 19.5 71.25 19.6 71.75 19.45 71.95 19.25 72.1 18.4 72.05 18.4 72.0 18.3 71.8 Q18.25 71.55 18.5 71.35 L18.25 71.15 18.15 70.95 18.1 70.8 18.1 70.75 18.05 70.65 18.05 70.6 17.95 70.5 Q17.8 70.1 18.05 69.9 L18.25 69.75 18.25 69.7 Q18.0 69.3 18.25 69.0 L18.5 68.75 18.6 68.7 18.6 68.65 Q18.6 68.35 18.9 68.1 L19.15 67.95 Q19.45 67.9 19.75 68.35 L19.85 68.5 19.85 69.1 19.55 69.25 M17.0 71.35 L17.15 72.05 17.15 72.1 16.95 72.35 16.85 72.45 16.55 72.5 16.45 72.55 16.5 72.55 16.65 72.7 16.7 72.75 Q16.95 73.1 16.55 73.4 L16.5 73.4 16.25 73.5 Q15.95 73.55 15.8 73.25 L15.75 73.15 15.7 72.95 16.0 72.6 16.2 72.55 15.7 72.15 15.55 71.85 Q15.45 71.6 15.65 71.4 L15.9 71.15 16.9 71.25 16.95 71.25 17.0 71.35 M17.1 74.15 L16.95 74.35 16.5 74.45 16.35 74.25 Q16.15 73.95 16.45 73.65 L16.5 73.55 16.75 73.4 Q16.95 73.3 17.1 73.6 L17.1 74.15 M19.55 72.15 L19.7 72.15 19.85 72.25 19.9 72.3 19.9 72.35 20.0 72.5 20.1 72.85 19.95 73.25 19.75 73.45 19.65 73.5 19.65 73.55 20.05 73.9 Q20.45 74.5 19.6 74.9 18.8 75.3 18.55 74.65 L18.5 74.1 18.65 73.9 18.25 73.65 18.2 73.6 Q17.95 73.3 18.05 73.1 L18.25 72.95 18.45 72.9 18.55 72.7 18.8 72.5 18.85 72.45 18.9 72.4 19.05 72.35 19.55 72.15 M19.1 75.95 Q18.95 75.55 19.55 75.15 20.4 74.6 20.65 75.25 20.9 75.85 20.3 76.25 L20.3 76.3 Q20.7 77.0 20.05 77.4 19.4 77.85 19.0 77.05 18.6 76.3 19.1 75.95 M18.15 77.0 Q17.8 77.25 17.45 76.8 17.1 76.35 17.55 76.1 18.0 75.8 18.3 76.25 18.55 76.7 18.15 77.0 M12.9 75.8 Q12.4 76.0 12.15 75.6 11.9 75.2 12.35 74.85 12.8 74.5 13.1 75.05 13.4 75.6 12.9 75.8 M8.25 75.45 Q7.65 75.8 7.35 75.25 7.05 74.7 7.6 74.45 8.15 74.15 8.5 74.6 8.9 75.1 8.25 75.45 M33.65 75.95 Q33.05 76.4 32.75 75.8 32.4 75.25 32.85 74.9 33.25 74.55 33.75 75.05 34.2 75.55 33.65 75.95 M30.7 75.65 Q30.35 75.1 30.95 74.6 31.6 74.1 32.05 74.9 32.45 75.65 31.75 75.95 31.1 76.2 30.7 75.65 M29.95 74.65 Q30.25 75.45 29.55 75.95 L28.15 75.85 Q27.5 75.2 28.55 74.55 29.0 74.25 29.35 74.25 29.7 74.2 29.9 74.5 L29.95 74.65 M26.25 76.7 L25.35 76.75 24.85 76.25 24.8 76.15 24.7 76.2 Q24.15 76.65 23.8 76.35 L23.5 76.0 Q23.1 75.2 23.65 74.75 24.25 74.3 24.85 74.95 L24.95 75.1 25.3 74.85 Q26.25 74.35 26.85 75.15 L27.1 75.85 27.4 76.15 Q27.75 76.7 27.25 77.05 26.75 77.4 26.35 76.85 L26.25 76.7 M22.75 75.75 L22.95 75.95 Q23.4 76.5 22.75 77.0 22.05 77.5 21.75 77.0 L21.7 76.65 21.15 76.25 Q20.75 75.65 21.45 75.1 22.15 74.55 22.6 75.4 L22.75 75.75" fill="#ffcc00" fill-rule="evenodd" stroke="none"/>
      <path d="M0.2 74.45 L41.3 74.45 41.3 74.8 Q20.25 79.2 0.2 74.8 L0.2 74.45" fill="#0099ff" fill-rule="evenodd" stroke="none"/>
      <path d="M0.2 74.45 L41.3 74.45 41.3 74.8 Q20.25 79.2 0.2 74.8 L0.2 74.45 Z" fill="none" stroke="#0033ff" stroke-linecap="round" stroke-linejoin="round" stroke-width="0.05"/>
    </g>
    <g id="shape1" transform="matrix(1.0, 0.0, 0.0, 1.0, 0.0, -36.1)">
      <path d="M41.4 74.5 L0.0 74.5 0.0 36.1 41.4 36.1 41.4 74.5" fill="#0099ff" fill-rule="evenodd" stroke="none"/>
      <path d="M41.4 74.5 L0.0 74.5 0.0 36.1 41.4 36.1 41.4 74.5 Z" fill="none" stroke="#0033ff" stroke-linecap="round" stroke-linejoin="round" stroke-width="0.05"/>
    </g>
    <g id="sprite0" transform="matrix(1.0, 0.0, 0.0, 1.0, 0.0, -0.05)">
      <use height="0.25" transform="matrix(1.0, 0.0, 0.0, 1.0, 0.0, 0.05)" width="41.25" xlink:href="#shape2"/>
    </g>
    <g id="shape2" transform="matrix(1.0, 0.0, 0.0, 1.0, 0.0, -0.05)">
      <path d="M41.25 0.3 L0.0 0.3 0.0 0.05 41.25 0.05 41.25 0.3" fill="#0099ff" fill-opacity="0.6784314" fill-rule="evenodd" stroke="none"/>
    </g>
    <g id="sprite1" transform="matrix(1.0, 0.0, 0.0, 1.0, 87.0, 142.65)">
      <use height="244.05" transform="matrix(1.0, 0.0, 0.0, 1.0, -87.0, -142.65)" width="140.45" xlink:href="#shape3"/>
    </g>
    <g id="shape3" transform="matrix(1.0, 0.0, 0.0, 1.0, 87.0, 142.65)">
      <path d="M52.95 -75.0 L52.95 94.0 Q-16.55 107.85 -86.05 94.0 L-86.05 -75.0 -81.85 -75.0 Q-16.8 -64.15 48.25 -75.0 L52.95 -75.0" fill="url(#gradient0)" fill-rule="evenodd" stroke="none"/>
      <path d="M51.2 -75.5 L52.95 -75.0 48.25 -75.0 51.2 -75.5 M-86.05 -75.0 L-84.8 -75.5 -81.85 -75.0 -86.05 -75.0" fill="url(#gradient1)" fill-rule="evenodd" stroke="none"/>
      <path d="M48.25 -75.0 Q-16.8 -64.15 -81.85 -75.0 L-84.8 -75.5 Q-71.7 -80.75 -62.45 -88.0 -48.2 -99.15 -43.05 -115.0 L9.95 -115.0 Q16.2 -98.25 27.9 -88.0 37.65 -79.5 51.2 -75.5 L48.25 -75.0" fill="url(#gradient2)" fill-rule="evenodd" stroke="none"/>
      <path d="M51.2 -75.5 L52.5 -75.5 M51.2 -75.5 L52.95 -75.0 52.95 94.0 Q-16.55 107.85 -86.05 94.0 L-86.05 -75.0 -84.8 -75.5 -86.5 -75.5 M48.25 -75.0 Q-16.8 -64.15 -81.85 -75.0 M48.25 -75.0 L51.2 -75.5 Q37.65 -79.5 27.9 -88.0 16.2 -98.25 9.95 -115.0 L-43.05 -115.0 Q-48.2 -99.15 -62.45 -88.0 -71.7 -80.75 -84.8 -75.5 L-81.85 -75.0" fill="none" stroke="#000000" stroke-linecap="round" stroke-linejoin="round" stroke-opacity="0.5372549" stroke-width="1.0"/>
      <path d="M13.55 -115.9 Q-16.1 -106.45 -45.8 -115.9 -52.1 -126.75 -45.8 -142.15 L13.55 -142.15 Q18.5 -129.0 13.55 -115.9" fill="url(#gradient3)" fill-rule="evenodd" stroke="none"/>
      <path d="M13.55 -115.9 Q-16.1 -106.45 -45.8 -115.9 -52.1 -126.75 -45.8 -142.15 L13.55 -142.15 Q18.5 -129.0 13.55 -115.9 Z" fill="none" stroke="#000000" stroke-linecap="round" stroke-linejoin="round" stroke-opacity="0.5372549" stroke-width="1.0"/>
    </g>
    <linearGradient color-interpolation="linearRGB" gradientTransform="matrix(0.0848, 0.0, 0.0, 0.1074, -16.55, 12.95)" gradientUnits="userSpaceOnUse" id="gradient0" spreadMethod="pad" x1="-819.2" x2="819.2">
      <stop offset="0.00392156862745098" stop-color="#c3d6d7" stop-opacity="0.5372549"/>
      <stop offset="0.5019607843137255" stop-color="#ffffff" stop-opacity="0.5372549"/>
      <stop offset="1.0" stop-color="#c3d6d7" stop-opacity="0.5372549"/>
    </linearGradient>
    <linearGradient color-interpolation="linearRGB" gradientTransform="matrix(0.0848, 0.0, 0.0, 0.0269, -16.55, -97.0)" gradientUnits="userSpaceOnUse" id="gradient1" spreadMethod="pad" x1="-819.2" x2="819.2">
      <stop offset="0.00392156862745098" stop-color="#c3d6d7" stop-opacity="0.5372549"/>
      <stop offset="1.0" stop-color="#ffffff" stop-opacity="0.5372549"/>
    </linearGradient>
    <linearGradient color-interpolation="linearRGB" gradientTransform="matrix(0.0848, 0.0, 0.0, 0.0269, -16.55, -97.0)" gradientUnits="userSpaceOnUse" id="gradient2" spreadMethod="pad" x1="-819.2" x2="819.2">
      <stop offset="0.00392156862745098" stop-color="#c3d6d7" stop-opacity="0.5372549"/>
      <stop offset="0.49019607843137253" stop-color="#ffffff" stop-opacity="0.5372549"/>
      <stop offset="1.0" stop-color="#c3d6d7" stop-opacity="0.5372549"/>
    </linearGradient>
    <linearGradient color-interpolation="linearRGB" gradientTransform="matrix(0.0397, 0.0, 0.0, 0.0218, -16.5, -129.05)" gradientUnits="userSpaceOnUse" id="gradient3" spreadMethod="pad" x1="-819.2" x2="819.2">
      <stop offset="0.00392156862745098" stop-color="#6b6b6b" stop-opacity="0.5372549"/>
      <stop offset="0.49019607843137253" stop-color="#fcfafa" stop-opacity="0.5372549"/>
      <stop offset="1.0" stop-color="#4a4f4f" stop-opacity="0.5372549"/>
    </linearGradient>
  </defs>
</svg>
