<?xml version="1.0" encoding="UTF-8" standalone="no"?>
<svg xmlns:xlink="http://www.w3.org/1999/xlink" height="635.4px" width="131.5px" xmlns="http://www.w3.org/2000/svg">
  <g transform="matrix(1.0, 0.0, 0.0, 1.0, 87.75, 141.05)">
    <use height="5294.65" id="electron1" transform="matrix(0.0639, 0.0, 0.0, 0.0958, -53.0582, -128.0774)" width="19.15" xlink:href="#sprite0"/>
    <use height="5294.65" id="electron1" transform="matrix(0.0639, 0.0, 0.0, 0.0958, -24.3582, -32.5274)" width="19.15" xlink:href="#sprite0"/>
    <use height="5294.65" id="electron1" transform="matrix(0.0639, 0.0, 0.0, 0.0958, -6.1582, -71.8774)" width="19.15" xlink:href="#sprite0"/>
    <use height="5294.65" id="electron1" transform="matrix(0.0639, 0.0, 0.0, 0.0958, 3.9418, -104.3774)" width="19.15" xlink:href="#sprite0"/>
    <use height="5294.65" id="electron1" transform="matrix(0.0639, 0.0, 0.0, 0.0958, 21.5918, -42.9274)" width="19.15" xlink:href="#sprite0"/>
    <use height="5294.65" id="electron1" transform="matrix(0.0639, 0.0, 0.0, 0.0958, -16.8582, -141.0274)" width="19.15" xlink:href="#sprite0"/>
    <use height="5294.65" id="electron1" transform="matrix(0.0639, 0.0, 0.0, 0.0958, 30.2418, -132.0274)" width="19.15" xlink:href="#sprite0"/>
    <use height="5294.65" id="electron1" transform="matrix(0.0639, 0.0, 0.0, 0.0958, -87.7582, -72.5274)" width="19.15" xlink:href="#sprite0"/>
    <use height="5294.65" id="electron1" transform="matrix(0.0639, 0.0, 0.0, 0.0958, 42.5418, -70.0274)" width="19.15" xlink:href="#sprite0"/>
    <use height="5294.65" id="electron1" transform="matrix(0.0639, 0.0, 0.0, 0.0958, -48.8582, -13.0274)" width="19.15" xlink:href="#sprite0"/>
    <use height="5294.65" id="electron1" transform="matrix(0.0639, 0.0, 0.0, 0.0958, -35.1582, -98.3774)" width="19.15" xlink:href="#sprite0"/>
  </g>
  <defs>
    <g id="sprite0" transform="matrix(1.0, 0.0, 0.0, 1.0, -3.0, 115.6)">
      <use height="1.2" transform="matrix(1.0, 0.0, 0.0, 1.0, 3.0, -115.6)" width="19.15" xlink:href="#sprite1"/>
    </g>
    <g id="sprite1" transform="matrix(1.0, 0.0, 0.0, 1.0, 0.0, 0.0)">
      <use height="0.25" transform="matrix(0.4642, 0.0, 0.0, 4.8, 0.0, -0.01)" width="41.25" xlink:href="#shape0"/>
    </g>
    <g id="shape0" transform="matrix(1.0, 0.0, 0.0, 1.0, 0.0, -0.05)">
      <path d="M41.25 0.3 L0.0 0.3 0.0 0.05 41.25 0.05 41.25 0.3" fill="#0099ff" fill-rule="evenodd" stroke="none"/>
    </g>
  </defs>
</svg>
