<?xml version="1.0" encoding="UTF-8" standalone="no"?>
<svg xmlns:xlink="http://www.w3.org/1999/xlink" height="82.55px" width="130.35px" xmlns="http://www.w3.org/2000/svg">
  <g transform="matrix(1.0, 0.0, 0.0, 1.0, 1.0, 1.0)">
    <use height="52.0" transform="matrix(1.0, 0.0, 0.0, 1.0, -1.0, -1.0)" width="128.0" xlink:href="#shape0"/>
    <use height="74.85" transform="matrix(1.0, 0.0, 0.0, 1.0, 18.0, 6.7)" width="111.35" xlink:href="#button0"/>
  </g>
  <defs>
    <g id="shape0" transform="matrix(1.0, 0.0, 0.0, 1.0, 1.0, 1.0)">
      <path d="M102.95 0.0 Q112.5 0.0 119.25 4.95 126.0 9.95 126.0 16.95 L126.0 33.05 Q126.0 40.1 119.25 45.05 112.5 50.0 102.95 50.0 L23.05 50.0 Q13.5 50.0 6.75 45.05 0.0 40.1 0.0 33.05 L0.0 16.95 Q0.0 9.95 6.75 4.95 13.5 0.0 23.05 0.0 L102.95 0.0" fill="url(#gradient0)" fill-rule="evenodd" stroke="none"/>
      <path d="M102.95 0.0 L23.05 0.0 Q13.5 0.0 6.75 4.95 0.0 9.95 0.0 16.95 L0.0 33.05 Q0.0 40.1 6.75 45.05 13.5 50.0 23.05 50.0 L102.95 50.0 Q112.5 50.0 119.25 45.05 126.0 40.1 126.0 33.05 L126.0 16.95 Q126.0 9.95 119.25 4.95 112.5 0.0 102.95 0.0 Z" fill="none" stroke="#000000" stroke-linecap="round" stroke-linejoin="round" stroke-width="2.0"/>
    </g>
    <radialGradient cx="0" cy="0" gradientTransform="matrix(0.0791, 0.0, 0.0, 0.0582, 63.0, 25.0)" gradientUnits="userSpaceOnUse" id="gradient0" r="819.2" spreadMethod="pad">
      <stop offset="0.0" stop-color="#ff0000"/>
      <stop offset="1.0" stop-color="#ff1c43"/>
    </radialGradient>
    <g id="button0" transform="matrix(1.0, 0.0, 0.0, 1.0, 0.0, -0.5)">
      <use height="101.8" transform="matrix(1.0, 0.0, 0.0, 0.7353, 0.0, 0.5294)" width="111.35" xlink:href="#text0"/>
    </g>
  </defs>
</svg>
